<svg width="106" height="105" viewBox="0 0 106 105" fill="none" xmlns="http://www.w3.org/2000/svg">
<circle cx="44.5638" cy="59.5638" r="44.5638" fill="#23B13A" fill-opacity="0.06"/>
<g clip-path="url(#clip0_11386_107148)">
<path d="M58.4993 0.255859C69.6678 0.255859 79.9311 4.14805 88.0181 10.6548L87.294 11.382C79.3949 5.05816 69.3869 1.278 58.4993 1.278C47.6118 1.278 37.604 5.05816 29.7049 11.3819L28.9808 10.6548C37.0678 4.14813 47.3309 0.255859 58.4993 0.255859ZM95.3895 18.0572C101.869 26.1783 105.745 36.4846 105.745 47.7002C105.745 58.9158 101.869 69.2221 95.3896 77.3431L94.6655 76.6159C100.963 68.6835 104.727 58.6336 104.727 47.7002C104.727 36.7669 100.963 26.7168 94.6654 18.7844L95.3895 18.0572ZM21.6092 77.3431C15.1298 69.2221 11.2539 58.9155 11.2539 47.7001C11.2539 36.4846 15.1299 26.1782 21.6093 18.0572L22.3334 18.7843C16.0361 26.7166 12.2717 36.7667 12.2717 47.7001C12.2717 58.6335 16.0362 68.6835 22.3334 76.6159L21.6092 77.3431ZM58.4993 8.22723C67.4745 8.22723 75.7471 11.2483 82.3639 16.3326L81.6375 17.0621C75.2101 12.1595 67.1932 9.24929 58.4993 9.24929C49.8054 9.24929 41.7884 12.1595 35.3612 17.062L34.6349 16.3326C41.2517 11.2483 49.5243 8.22723 58.4993 8.22723ZM89.7353 23.7351C94.7984 30.3799 97.8067 38.6872 97.8067 47.7001C97.8067 56.713 94.7984 65.0204 89.7355 71.665L89.009 70.9356C93.891 64.4812 96.789 56.4307 96.789 47.7001C96.789 38.9695 93.8909 30.919 89.0089 24.4646L89.7353 23.7351ZM27.2633 71.6652C22.2003 65.0205 19.1919 56.7131 19.1919 47.7002C19.1919 38.6872 22.2004 30.3799 27.2634 23.7352L27.9897 24.4645C23.1077 30.9189 20.2097 38.9696 20.2097 47.7002C20.2097 56.4308 23.1078 64.4814 27.9897 70.9358L27.2633 71.6652ZM58.4993 16.5052C65.1955 16.5052 71.3968 18.633 76.4695 22.2519L75.7391 22.9854C70.8591 19.5462 64.914 17.5272 58.4993 17.5272C52.0847 17.5272 46.1399 19.5462 41.2597 22.9853L40.5292 22.2518C45.6018 18.6329 51.8031 16.5052 58.4993 16.5052ZM83.8409 29.6544C87.4445 34.7485 89.5634 40.9757 89.5634 47.7002C89.5634 54.4245 87.4445 60.6519 83.841 65.7459L83.1106 65.0124C86.5352 60.1119 88.5458 54.142 88.5458 47.7002C88.5458 41.2585 86.5352 35.2885 83.1104 30.3879L83.8409 29.6544ZM33.1577 65.746C29.554 60.652 27.4352 54.4246 27.4352 47.7002C27.4352 40.9757 29.554 34.7484 33.1577 29.6543L33.8881 30.3878C30.4635 35.2885 28.4529 41.2584 28.4529 47.7002C28.4529 54.142 30.4634 60.1119 33.8881 65.0126L33.1577 65.746Z" fill="#2B2A29"/>
<path d="M88.1987 10.8352L87.8388 10.4737L87.8597 10.8538L87.0992 10.2547L86.3264 9.67118L85.5414 9.10322L84.7443 8.55118L83.9355 8.01546L83.1152 7.49607L82.2835 6.99341L81.4409 6.50746L80.5874 6.03872L79.7233 5.58719L78.8489 5.15334L77.9642 4.73717L77.0697 4.33916L76.1656 3.9594L75.252 3.59805L74.3292 3.25549L73.3974 2.9319L72.457 2.62752L71.5079 2.3425L70.5505 2.07716L69.5852 1.83167L68.6119 1.60642L67.6311 1.40142L66.643 1.21698L65.6477 1.05342L64.6455 0.910914L63.6366 0.789688L62.6212 0.689987L61.5996 0.61197L60.5721 0.556038L59.5387 0.522271L58.4999 0.510989V0L59.5497 0.0114424L60.5941 0.0455297L61.6326 0.102102L62.6652 0.180918L63.6914 0.28166L64.7113 0.404166L65.7243 0.548277L66.7305 0.713592L67.7295 0.899951L68.7209 1.1072L69.7047 1.335L70.6806 1.58306L71.6484 1.85127L72.6078 2.1395L73.5586 2.44724L74.5006 2.77435L75.4335 3.12058L76.3571 3.48594L77.2709 3.86986L78.1752 4.27219L79.0694 4.69284L79.9534 5.13141L80.8269 5.58775L81.6897 6.06161L82.5414 6.55283L83.382 7.06094L84.2113 7.58593L85.0289 8.12757L85.8345 8.68553L86.628 9.25949L87.4092 9.84945L88.1777 10.4549L88.1986 10.835L88.1987 10.8352ZM88.1778 10.4551C88.2874 10.5434 88.3052 10.7042 88.2173 10.8143C88.1294 10.9243 87.9692 10.9422 87.8596 10.8539L88.1777 10.4551H88.1778ZM87.1146 11.201L87.8388 10.4738L88.1987 10.8353L87.4746 11.5625L87.136 11.5816L87.1146 11.2011V11.201ZM87.4746 11.5625C87.3752 11.6622 87.214 11.6622 87.1146 11.5625C87.0153 11.4627 87.0153 11.3008 87.1146 11.201L87.4746 11.5625ZM58.5 1.53329V1.0223L59.5236 1.03342L60.5419 1.06663L61.5545 1.12152L62.5612 1.19809L63.5619 1.29604L64.5562 1.4151L65.5441 1.55497L66.5252 1.71564L67.4993 1.89672L68.4662 2.09805L69.4257 2.31937L70.3775 2.56038L71.3214 2.821L72.2572 3.1009L73.1846 3.39992L74.1034 3.71775L75.0135 4.0543L75.9144 4.40918L76.8062 4.78222L77.6885 5.17326L78.5611 5.58199L79.4237 6.00824L80.2761 6.45169L81.1182 6.91211L81.9496 7.38949L82.7702 7.88344L83.5797 8.39363L84.378 8.91998L85.1647 9.46225L85.9396 10.0202L86.7026 10.5935L87.4534 11.1821L87.1361 11.5817L86.3935 10.9995L85.6389 10.4324L84.8724 9.8805L84.0943 9.34415L83.3048 8.82356L82.5041 8.31897L81.6925 7.83047L80.8702 7.35837L80.0373 6.90291L79.1943 6.46442L78.3411 6.04281L77.4783 5.63856L76.6057 5.25184L75.7237 4.88296L74.8327 4.53192L73.9326 4.19921L73.024 3.88491L72.1068 3.58908L71.1813 3.31222L70.2478 3.05449L69.3065 2.8162L68.3577 2.59727L67.4014 2.39819L66.4379 2.21919L65.4677 2.06028L64.4906 1.92185L63.5071 1.80406L62.5173 1.70724L61.5215 1.63147L60.5199 1.57722L59.5127 1.54433L58.5001 1.53337L58.5 1.53329ZM58.5 1.53329C58.3595 1.53329 58.2456 1.41886 58.2456 1.27779C58.2456 1.13672 58.3595 1.0223 58.5 1.0223V1.53329ZM29.5256 11.5624L29.8856 11.2009L29.547 11.1818L30.2978 10.5933L31.0608 10.02L31.8357 9.46201L32.6224 8.91974L33.4206 8.39338L34.23 7.8832L35.0508 7.38925L35.8822 6.91195L36.7242 6.45145L37.5766 6.008L38.4391 5.58175L39.3117 5.17302L40.1941 4.78206L41.0858 4.40902L41.9868 4.05414L42.8969 3.71759L43.8157 3.39968L44.7431 3.10074L45.6789 2.82084L46.6227 2.56022L47.5745 2.31913L48.5341 2.09789L49.501 1.89656L50.475 1.71548L51.4561 1.55481L52.4439 1.41486L53.4383 1.29588L54.439 1.19793L55.4457 1.12136L56.4583 1.06639L57.4766 1.03326L58.5002 1.02214V1.53313L57.4876 1.54409L56.4803 1.5769L55.4787 1.63123L54.483 1.707L53.4931 1.80382L52.5097 1.92153L51.5327 2.06004L50.5624 2.21895L49.5989 2.39795L48.6427 2.59703L47.6938 2.81588L46.7525 3.05425L45.819 3.31198L44.8936 3.58884L43.9764 3.88459L43.0678 4.19897L42.1677 4.53168L41.2766 4.88272L40.3947 5.2516L39.5221 5.63824L38.6592 6.04249L37.8061 6.4641L36.963 6.90259L36.1302 7.35813L35.3079 7.83015L34.4963 8.31865L33.6956 8.82324L32.9061 9.34383L32.128 9.88018L31.3615 10.4321L30.6069 10.9992L29.8643 11.5813L29.5257 11.5622L29.5256 11.5624ZM29.8642 11.5815C29.7544 11.6694 29.5942 11.6513 29.5066 11.541C29.419 11.4308 29.4371 11.2698 29.5469 11.1819L29.8641 11.5815H29.8642ZM29.1615 10.4739L29.8856 11.201L29.5256 11.5625L28.8016 10.8353L28.8225 10.4553L29.1615 10.474V10.4739ZM28.8016 10.8353C28.7022 10.7356 28.7022 10.5737 28.8016 10.4739C28.9009 10.3741 29.0621 10.3741 29.1615 10.4739L28.8016 10.8353ZM58.5 0.000240051V0.511229L57.4612 0.522511L56.4279 0.556278L55.4003 0.61221L54.3788 0.690227L53.3633 0.789928L52.3545 0.911154L51.3523 1.05366L50.357 1.2173L49.3689 1.40166L48.3881 1.60666L47.415 1.83199L46.4495 2.07748L45.4922 2.34282L44.5431 2.62776L43.6026 2.93214L42.6709 3.25573L41.7481 3.59837L40.8345 3.95964L39.9304 4.3394L39.0359 4.73749L38.1513 5.15358L37.2768 5.58751L36.4128 6.03896L35.5592 6.50778L34.7166 6.99365L33.8849 7.49639L33.0646 8.01579L32.2559 8.5515L31.4588 9.10346L30.6738 9.67142L29.901 10.255L29.1405 10.8541L28.8224 10.4553L29.5909 9.84977L30.3721 9.25981L31.1656 8.68585L31.9712 8.12797L32.7888 7.58633L33.618 7.06134L34.4587 6.55315L35.3104 6.06201L36.1732 5.58807L37.0466 5.13181L37.9306 4.69316L38.8248 4.27259L39.729 3.87018L40.643 3.48626L41.5666 3.12098L42.4994 2.77467L43.4413 2.44756L44.3922 2.13982L45.3516 1.85167L46.3193 1.58346L47.2952 1.3354L48.279 1.10752L49.2705 0.900271L50.2695 0.713992L51.2755 0.548597L52.2886 0.404486L53.3084 0.28198L54.3347 0.181239L55.3673 0.102422L56.4057 0.0458498L57.4501 0.0117625L58.4999 0.000320068L58.5 0.000240051ZM58.5 0.000240051C58.6405 0.000240051 58.7544 0.114664 58.7544 0.255734C58.7544 0.396804 58.6405 0.511229 58.5 0.511229V0.000240051ZM106 47.7001H105.491L105.48 46.6569L105.446 45.6192L105.39 44.5873L105.313 43.5614L105.214 42.5417L105.093 41.5286L104.951 40.5221L104.788 39.5226L104.604 38.5304L104.4 37.5455L104.176 36.5683L103.931 35.5988L103.667 34.6373L103.383 33.6843L103.08 32.7398L102.758 31.8041L102.417 30.8774L102.057 29.9601L101.679 29.0522L101.283 28.1538L100.868 27.2655L100.436 26.3874L99.9866 25.5197L99.5198 24.6625L99.0359 23.8163L98.5353 22.9812L98.0181 22.1574L97.4846 21.3453L96.9349 20.5448L96.3693 19.7565L95.7882 18.9805L95.1916 18.2168L95.5888 17.8973L96.1917 18.6691L96.7792 19.4536L97.3508 20.2504L97.9064 21.0594L98.4457 21.8804L98.9685 22.7132L99.4745 23.5573L99.9637 24.4126L100.436 25.2791L100.89 26.1562L101.327 27.0439L101.746 27.9419L102.146 28.8499L102.529 29.7677L102.892 30.6952L103.237 31.6319L103.563 32.5779L103.869 33.5327L104.156 34.4961L104.423 35.468L104.67 36.448L104.897 37.436L105.104 38.4316L105.289 39.4347L105.454 40.4451L105.597 41.4624L105.719 42.4866L105.82 43.5172L105.898 44.5541L105.954 45.597L105.988 46.6458L106 47.7L106 47.7001ZM106 47.7001C106 47.8411 105.886 47.9556 105.745 47.9556C105.605 47.9556 105.491 47.8411 105.491 47.7001H106ZM95.2104 77.5237L95.5703 77.1622L95.1918 77.1832L95.7884 76.4195L96.3695 75.6435L96.9351 74.8552L97.4847 74.0548L98.0182 73.2426L98.5354 72.4188L99.036 71.5837L99.5199 70.7375L99.9866 69.8804L100.436 69.0127L100.868 68.1346L101.283 67.2462L101.679 66.3479L102.057 65.44L102.417 64.5226L102.758 63.5959L103.08 62.6602L103.384 61.7158L103.667 60.7628L103.932 59.8013L104.176 58.8318L104.4 57.8545L104.604 56.8696L104.788 55.8774L104.951 54.8779L105.093 53.8715L105.214 52.8584L105.313 51.8386L105.391 50.8127L105.446 49.7808L105.48 48.7432L105.491 47.7H106L105.989 48.7542L105.955 49.803L105.898 50.8459L105.82 51.8828L105.719 52.9134L105.597 53.9375L105.454 54.9549L105.289 55.9653L105.104 56.9684L104.897 57.964L104.671 58.952L104.424 59.9319L104.156 60.9038L103.87 61.8672L103.563 62.8221L103.237 63.768L102.892 64.7048L102.529 65.6323L102.146 66.5501L101.746 67.4581L101.327 68.3561L100.89 69.2438L100.436 70.1209L99.9638 70.9873L99.4748 71.8426L98.9687 72.6868L98.4459 73.5196L97.9065 74.3405L97.351 75.1496L96.7794 75.9464L96.192 76.7309L95.589 77.5026L95.2105 77.5236L95.2104 77.5237ZM95.5888 77.5027C95.501 77.6127 95.3408 77.6306 95.2312 77.5423C95.1216 77.4541 95.1038 77.2932 95.1917 77.1831L95.5888 77.5026V77.5027ZM94.8461 76.4351L95.5702 77.1622L95.2103 77.5237L94.4861 76.7965L94.4671 76.4565L94.846 76.4351H94.8461ZM94.4861 76.7965C94.3868 76.6967 94.3868 76.5348 94.4861 76.4351C94.5855 76.3353 94.7467 76.3353 94.8461 76.4351L94.4861 76.7965ZM104.473 47.7001H104.982L104.971 48.728L104.938 49.7505L104.883 50.7674L104.807 51.7784L104.709 52.7832L104.591 53.7818L104.452 54.7738L104.292 55.759L104.111 56.7371L103.911 57.7081L103.69 58.6718L103.45 59.6276L103.191 60.5754L102.912 61.5151L102.614 62.4464L102.298 63.3691L101.963 64.283L101.609 65.1877L101.238 66.0833L100.849 66.9693L100.442 67.8456L100.017 68.7117L99.5755 69.5678L99.1169 70.4133L98.6416 71.2483L98.1497 72.0724L97.6417 72.8853L97.1175 73.6869L96.5775 74.4768L96.0219 75.255L95.451 76.0213L94.8649 76.7752L94.467 76.4567L95.0467 75.7109L95.6115 74.9531L96.161 74.1833L96.6951 73.402L97.2136 72.6092L97.716 71.8051L98.2025 70.9901L98.6725 70.1643L99.1262 69.3279L99.5628 68.4814L99.9827 67.6246L100.385 66.7581L100.77 65.8819L101.138 64.9962L101.487 64.1014L101.818 63.1975L102.132 62.2851L102.426 61.364L102.702 60.4347L102.958 59.4973L103.196 58.5521L103.414 57.5991L103.612 56.6388L103.79 55.6714L103.948 54.6969L104.086 53.7158L104.204 52.7283L104.3 51.7343L104.375 50.7343L104.43 49.7285L104.462 48.717L104.473 47.7001L104.473 47.7001ZM104.473 47.7001C104.473 47.559 104.587 47.4446 104.728 47.4446C104.868 47.4446 104.982 47.559 104.982 47.7001H104.473ZM94.4861 18.6036L94.846 18.9651L94.865 18.6251L95.4511 19.379L96.022 20.1452L96.5776 20.9234L97.1176 21.7134L97.6418 22.515L98.1498 23.3279L98.6417 24.152L99.1171 24.9869L99.5756 25.8325L100.017 26.6886L100.442 27.5547L100.849 28.431L101.238 29.317L101.61 30.2125L101.963 31.1173L102.298 32.0312L102.615 32.9539L102.912 33.8852L103.191 34.8249L103.451 35.7727L103.691 36.7286L103.911 37.6922L104.111 38.6632L104.292 39.6413L104.452 40.6266L104.591 41.6185L104.71 42.6171L104.807 43.6219L104.883 44.6329L104.938 45.6498L104.971 46.6723L104.982 47.7002H104.473L104.462 46.6834L104.43 45.6719L104.376 44.6661L104.3 43.6661L104.204 42.6721L104.086 41.6845L103.949 40.7034L103.79 39.729L103.612 38.7615L103.414 37.8012L103.196 36.8484L102.959 35.9031L102.702 34.9657L102.426 34.0364L102.132 33.1153L101.819 32.2029L101.487 31.299L101.138 30.4041L100.77 29.5184L100.385 28.6423L99.9828 27.7757L99.563 26.919L99.1263 26.0724L98.6728 25.236L98.2026 24.4102L97.7162 23.5953L97.2137 22.7912L96.6953 21.9984L96.1612 21.217L95.6116 20.4472L95.0469 19.6895L94.4672 18.9437L94.4862 18.6037L94.4861 18.6036ZM94.467 18.9436C94.3794 18.8334 94.3975 18.6725 94.5073 18.5845C94.6171 18.4966 94.7774 18.5147 94.8649 18.625L94.467 18.9435V18.9436ZM95.57 18.2379L94.8459 18.9651L94.486 18.6036L95.2101 17.8764L95.5886 17.8974L95.57 18.2379H95.57ZM95.2101 17.8764C95.3095 17.7767 95.4707 17.7767 95.57 17.8764C95.6694 17.9762 95.6694 18.1381 95.57 18.2379L95.2101 17.8764ZM11.0001 47.7001H11.5089L11.5202 48.7432L11.5538 49.7809L11.6095 50.8128L11.6872 51.8386L11.7865 52.8584L11.9072 53.8715L12.0491 54.8779L12.212 55.8774L12.3956 56.8696L12.5998 57.8545L12.8241 58.8319L13.0685 59.8013L13.3328 60.7628L13.6166 61.7158L13.9197 62.6603L14.2419 63.5959L14.583 64.5227L14.9429 65.4401L15.3211 66.348L15.7174 67.2463L16.1318 68.1347L16.5638 69.0128L17.0135 69.8805L17.4803 70.7376L17.9642 71.5838L18.4647 72.4189L18.9819 73.2427L19.5154 74.0549L20.0651 74.8553L20.6307 75.6437L21.2118 76.4197L21.8084 77.1834L21.4113 77.5029L20.8083 76.7311L20.2208 75.9466L19.6493 75.1497L19.0937 74.3408L18.5543 73.5197L18.0315 72.687L17.5255 71.8428L17.0364 70.9875L16.5645 70.1211L16.1101 69.2439L15.6733 68.3562L15.2544 67.4583L14.8538 66.5502L14.4715 65.6324L14.1077 64.705L13.7629 63.7681L13.4371 62.8222L13.1307 61.8674L12.8437 60.9039L12.5766 59.932L12.3296 58.952L12.1027 57.9641L11.8963 56.9684L11.7108 55.9653L11.5461 54.955L11.4026 53.9376L11.2806 52.9135L11.1803 51.8829L11.1018 50.846L11.0455 49.8032L11.0116 48.7544L11.0002 47.7001L11.0001 47.7001ZM11.0001 47.7001C11.0001 47.559 11.114 47.4446 11.2545 47.4446C11.395 47.4446 11.5089 47.559 11.5089 47.7001H11.0001ZM21.7898 17.8764L21.4299 18.2379L21.8084 18.2169L21.2118 18.9806L20.6307 19.7566L20.0651 20.5449L19.5154 21.3453L18.9819 22.1576L18.4647 22.9814L17.9642 23.8164L17.4803 24.6627L17.0135 25.5197L16.5638 26.3875L16.1318 27.2656L15.7174 28.1539L15.321 29.0523L14.9428 29.9601L14.583 30.8775L14.2418 31.8042L13.9196 32.7399L13.6165 33.6844L13.3328 34.6374L13.0685 35.5989L12.8241 36.5683L12.5997 37.5456L12.3955 38.5305L12.212 39.5228L12.049 40.5223L11.9071 41.5288L11.7864 42.5418L11.6871 43.5615L11.6094 44.5874L11.5537 45.6193L11.5201 46.657L11.5088 47.7001H11L11.0114 46.6459L11.0453 45.5971L11.1017 44.5543L11.1802 43.5173L11.2805 42.4868L11.4025 41.4627L11.546 40.4453L11.7107 39.4349L11.8962 38.4318L12.1026 37.4361L12.3295 36.4482L12.5765 35.4682L12.8436 34.4964L13.1305 33.5329L13.437 32.578L13.7627 31.6321L14.1076 30.6953L14.4713 29.7679L14.8536 28.8501L15.2544 27.942L15.6732 27.0441L16.11 26.1564L16.5644 25.2792L17.0363 24.4129L17.5254 23.5575L18.0314 22.7134L18.5542 21.8807L19.0936 21.0596L19.6492 20.2505L20.2208 19.4537L20.8082 18.6693L21.4112 17.8975L21.7897 17.8765L21.7898 17.8764ZM21.4114 17.8974C21.4992 17.7874 21.6594 17.7695 21.769 17.8578C21.8786 17.9461 21.8964 18.1069 21.8085 18.217L21.4114 17.8975V17.8974ZM22.1541 18.965L21.43 18.2379L21.7899 17.8764L22.514 18.6036L22.533 18.9435L22.1541 18.965H22.1541ZM22.514 18.6036C22.6134 18.7033 22.6134 18.8652 22.514 18.965C22.4146 19.0648 22.2534 19.0648 22.1541 18.965L22.514 18.6036ZM12.5268 47.7001H12.0179L12.029 46.6722L12.0621 45.6496L12.1167 44.6328L12.193 43.6218L12.2905 42.6169L12.4091 41.6184L12.5484 40.6263L12.7084 39.6412L12.8887 38.6629L13.0892 37.6919L13.3096 36.7284L13.5497 35.7726L13.8091 34.8247L14.0879 33.885L14.3856 32.9536L14.7022 32.031L15.0373 31.1171L15.3907 30.2123L15.7622 29.3168L16.1516 28.4308L16.5586 27.5546L16.983 26.6883L17.4246 25.8323L17.8831 24.9867L18.3585 24.1518L18.8504 23.3277L19.3584 22.5148L19.8826 21.7132L20.4226 20.9232L20.9782 20.145L21.5491 19.3788L22.1352 18.6248L22.5331 18.9434L21.9534 19.6891L21.3886 20.4469L20.8391 21.2167L20.305 21.998L19.7866 22.7908L19.2841 23.5949L18.7976 24.4099L18.3275 25.2357L17.874 26.0721L17.4372 26.9187L17.0175 27.7753L16.6149 28.6419L16.2298 29.5182L15.8625 30.4038L15.5129 31.2987L15.1816 32.2025L14.8685 33.115L14.574 34.036L14.2983 34.9654L14.0417 35.9028L13.8043 36.8481L13.5863 37.8009L13.3881 38.7612L13.2098 39.7288L13.0516 40.7031L12.9137 41.6842L12.7964 42.6719L12.7 43.6658L12.6245 44.6658L12.5705 45.6716L12.5378 46.6831L12.5269 47.7L12.5268 47.7001ZM12.5268 47.7001C12.5268 47.8411 12.4128 47.9556 12.2724 47.9556C12.1319 47.9556 12.0179 47.8411 12.0179 47.7001H12.5268ZM22.514 76.7966L22.1541 76.4351L22.135 76.7751L21.549 76.0212L20.978 75.255L20.4224 74.4767L19.8824 73.6868L19.3583 72.8852L18.8502 72.0723L18.3584 71.2482L17.883 70.4132L17.4245 69.5677L16.9828 68.7117L16.5584 67.8454L16.1514 66.9692L15.762 66.0832L15.3905 65.1876L15.0371 64.2828L14.702 63.369L14.3854 62.4462L14.0877 61.515L13.8089 60.5753L13.5495 59.6274L13.3094 58.6716L13.089 57.708L12.8885 56.737L12.7082 55.7588L12.5482 54.7736L12.4089 53.7817L12.2904 52.7831L12.1928 51.7782L12.1166 50.7672L12.0619 49.7503L12.0288 48.7278L12.0178 47.6999H12.5266L12.5375 48.7168L12.5703 49.7283L12.6243 50.7341L12.6998 51.734L12.7962 52.728L12.9135 53.7156L13.0513 54.6968L13.2096 55.6711L13.3878 56.6387L13.5861 57.599L13.8041 58.5518L14.0414 59.4971L14.298 60.4345L14.5738 61.3638L14.8683 62.2848L15.1814 63.1974L15.5127 64.1012L15.8622 64.9961L16.2296 65.8817L16.6147 66.758L17.0172 67.6245L17.437 68.4812L17.8737 69.3278L18.3273 70.1641L18.7974 70.99L19.2839 71.805L19.7863 72.609L20.3047 73.4018L20.8388 74.1831L21.3884 74.953L21.9532 75.7107L22.5329 76.4565L22.5138 76.7965L22.514 76.7966ZM22.533 76.4566C22.6206 76.5668 22.6025 76.7278 22.4927 76.8157C22.3829 76.9036 22.2227 76.8855 22.1351 76.7752L22.533 76.4567V76.4566ZM21.43 77.1623L22.1541 76.4351L22.5141 76.7966L21.7899 77.5238L21.4114 77.5028L21.4301 77.1623H21.43ZM21.7899 77.5238C21.6906 77.6236 21.5294 77.6236 21.43 77.5238C21.3306 77.424 21.3306 77.2621 21.43 77.1623L21.7899 77.5238ZM82.5447 16.5133L82.1847 16.1518L82.2101 16.5354L81.589 16.0679L80.9583 15.6125L80.3185 15.1695L79.6695 14.7391L79.0116 14.3213L78.3449 13.9164L77.6696 13.5246L76.9858 13.1461L76.2939 12.7809L75.5938 12.4293L74.8859 12.0915L74.1703 11.7675L73.4471 11.4578L72.7165 11.1622L71.9786 10.8812L71.2338 10.6147L70.4821 10.3631L69.7236 10.1265L68.9587 9.90491L68.1874 9.6987L67.4101 9.50794L66.6267 9.33302L65.8374 9.17379L65.0424 9.03048L64.242 8.90357L63.4364 8.79299L62.6255 8.69889L61.8097 8.62143L60.989 8.56102L60.1637 8.51757L59.3339 8.49133L58.4999 8.4826V7.97162L59.3445 7.9805L60.1849 8.00706L61.0207 8.05099L61.852 8.11221L62.6784 8.19062L63.4999 8.286L64.3161 8.39803L65.127 8.52669L65.9323 8.67176L66.7319 8.83308L67.5256 9.0104L68.3132 9.20356L69.0946 9.41248L69.8695 9.63693L70.6378 9.87674L71.3994 10.1317L72.154 10.4016L72.9016 10.6864L73.6417 10.9859L74.3745 11.2996L75.0995 11.6278L75.8167 11.97L76.5259 12.3262L77.2269 12.6961L77.9195 13.0797L78.6036 13.4765L79.2791 13.8867L79.9454 14.3099L80.6029 14.7459L81.2511 15.1947L81.8898 15.656L82.5191 16.1296L82.5444 16.5132L82.5447 16.5133ZM82.5193 16.1297C82.6309 16.2154 82.6521 16.3758 82.5667 16.4879C82.4813 16.5999 82.3216 16.6213 82.21 16.5355L82.5192 16.1297H82.5193ZM81.4584 16.8813L82.1847 16.1519L82.5447 16.5134L81.8183 17.2428L81.4844 17.2656L81.4584 16.8814V16.8813ZM81.8183 17.2428C81.7189 17.3426 81.5577 17.3426 81.4584 17.2428C81.359 17.143 81.359 16.9811 81.4584 16.8813L81.8183 17.2428ZM58.5 9.50474V8.99375L59.3183 9.00232L60.1326 9.02792L60.9425 9.07025L61.748 9.12922L62.5487 9.20476L63.3447 9.2967L64.1356 9.40464L64.9214 9.52859L65.7019 9.66846L66.4768 9.82385L67.246 9.99477L68.0095 10.1809L68.7671 10.3823L69.5183 10.5987L70.2632 10.8297L71.0017 11.0756L71.7334 11.3357L72.4582 11.6102L73.176 11.8989L73.8866 12.2013L74.5899 12.5177L75.2857 12.8477L75.9738 13.191L76.654 13.5478L77.3261 13.9175L77.9901 14.3002L78.6457 14.6957L79.2927 15.1038L79.931 15.5242L80.5605 15.957L81.181 16.4019L81.7922 16.8585L81.4844 17.2655L80.8813 16.8148L80.269 16.3758L79.6478 15.9488L79.0178 15.5338L78.3794 15.1311L77.7324 14.7409L77.0772 14.3632L76.414 13.9983L75.7429 13.6464L75.0638 13.3076L74.3773 12.9819L73.6833 12.6698L72.9821 12.3713L72.2739 12.0865L71.5586 11.8156L70.8367 11.5589L70.1081 11.3164L69.3732 11.0884L68.6319 10.8749L67.8845 10.6762L67.1312 10.4925L66.3721 10.324L65.6073 10.1705L64.8372 10.0325L64.0619 9.91019L63.2814 9.80369L62.4959 9.71303L61.7057 9.63845L60.9109 9.58028L60.1115 9.53843L59.3079 9.51314L58.5001 9.50474H58.5ZM58.5 9.50474C58.3595 9.50474 58.2456 9.39032 58.2456 9.24925C58.2456 9.10818 58.3595 8.99375 58.5 8.99375V9.50474ZM35.1819 17.2427L35.5418 16.8813L35.208 16.8585L35.8192 16.4018L36.4397 15.9569L37.0692 15.5241L37.7074 15.1037L38.3545 14.6956L39.0101 14.3001L39.674 13.9174L40.3462 13.5477L41.0264 13.191L41.7145 12.8476L42.4102 12.5177L43.1134 12.2013L43.8241 11.8988L44.542 11.6101L45.2667 11.3356L45.9985 11.0755L46.7369 10.8297L47.4819 10.5986L48.233 10.3823L48.9906 10.1809L49.754 9.99477L50.5233 9.82385L51.2982 9.66838L52.0787 9.52859L52.8645 9.40464L53.6554 9.2967L54.4513 9.20476L55.2521 9.12922L56.0576 9.07025L56.8674 9.02792L57.6817 9.00232L58.5 8.99375V9.50474L57.6922 9.51314L56.8886 9.53843L56.0893 9.58028L55.2945 9.63845L54.5042 9.71303L53.7188 9.80369L52.9383 9.91019L52.163 10.0325L51.3929 10.1704L50.6281 10.3238L49.8691 10.4925L49.1157 10.6762L48.3683 10.8749L47.6271 11.0883L46.8921 11.3164L46.1635 11.5588L45.4416 11.8156L44.7263 12.0864L44.0181 12.3712L43.3169 12.6698L42.6229 12.9819L41.9364 13.3075L41.2574 13.6463L40.5862 13.9983L39.923 14.3631L39.2678 14.7408L38.6209 15.1311L37.9824 15.5337L37.3525 15.9487L36.7313 16.3757L36.119 16.8147L35.5159 17.2654L35.182 17.2426L35.1819 17.2427ZM35.5158 17.2655C35.4039 17.3509 35.2442 17.329 35.1592 17.2166C35.0742 17.1043 35.096 16.9439 35.2079 16.8585L35.5157 17.2655H35.5158ZM34.8155 16.152L35.5418 16.8813L35.1818 17.2428L34.4555 16.5134L34.4809 16.1298L34.8155 16.1521V16.152ZM34.4555 16.5134C34.3562 16.4137 34.3562 16.2518 34.4555 16.152C34.5549 16.0522 34.7161 16.0522 34.8155 16.152L34.4555 16.5134ZM58.4999 7.97178V8.48276L57.6659 8.49149L56.8362 8.51773L56.0109 8.56118L55.1902 8.62159L54.3744 8.69905L53.5635 8.79315L52.7578 8.90373L51.9574 9.03064L51.1625 9.17395L50.3733 9.33319L49.5899 9.5081L48.8125 9.69886L48.0413 9.90507L47.2763 10.1266L46.5179 10.3632L45.7662 10.6148L45.0213 10.8814L44.2835 11.1624L43.5529 11.458L42.8298 11.7677L42.1141 12.0916L41.4062 12.4294L40.7062 12.781L40.0142 13.1462L39.3305 13.5248L38.6551 13.9166L37.9885 14.3214L37.3305 14.7392L36.6815 15.1697L36.0418 15.6127L35.4111 16.0681L34.79 16.5356L34.4807 16.1298L35.11 15.6561L35.7487 15.1948L36.3969 14.7461L37.0543 14.3101L37.7207 13.8869L38.3961 13.4767L39.0803 13.0798L39.7729 12.6963L40.4739 12.3264L41.1831 11.9701L41.9002 11.628L42.6253 11.2998L43.358 10.986L44.0981 10.6866L44.8457 10.4017L45.6003 10.1318L46.3619 9.8769L47.1303 9.63709L47.9052 9.41264L48.6864 9.20372L49.4742 9.01056L50.2678 8.83324L51.0674 8.67192L51.8727 8.52685L52.6836 8.39819L53.4998 8.28616L54.3212 8.19078L55.1477 8.11237L55.9789 8.05115L56.8148 8.00722L57.6551 7.98066L58.4997 7.97178H58.4999ZM58.4999 7.97178C58.6404 7.97178 58.7544 8.0862 58.7544 8.22727C58.7544 8.36834 58.6404 8.48276 58.4999 8.48276V7.97178ZM98.0619 47.7001H97.553L97.5443 46.8626L97.5182 46.0293L97.4749 45.2006L97.4148 44.3764L97.3376 43.5572L97.2439 42.7428L97.1338 41.9338L97.0074 41.13L96.8647 40.3318L96.7061 39.5392L96.532 38.7524L96.342 37.9718L96.1367 37.1973L95.916 36.4291L95.6804 35.6676L95.4299 34.9126L95.1645 34.1646L94.8846 33.4237L94.5903 32.6901L94.2818 31.9638L93.9593 31.2452L93.6229 30.5343L93.2727 29.8313L92.9091 29.1364L92.5321 28.4498L92.142 27.7717L91.7388 27.1022L91.3228 26.4415L90.8941 25.7897L90.453 25.1473L89.9995 24.5139L89.5339 23.8902L89.9381 23.5797L90.4097 24.2115L90.8691 24.853L91.3159 25.5039L91.7501 26.1641L92.1715 26.8333L92.58 27.5116L92.9752 28.1986L93.3571 28.8941L93.7255 29.5981L94.0802 30.3103L94.421 31.0304L94.7478 31.7585L95.0602 32.4944L95.3584 33.2376L95.6421 33.9883L95.9108 34.746L96.1647 35.5109L96.4035 36.2824L96.627 37.0606L96.8351 37.8452L97.0274 38.6362L97.204 39.4333L97.3646 40.2362L97.5091 41.0449L97.6372 41.8592L97.7488 42.6788L97.8438 43.5037L97.9218 44.3337L97.9828 45.1684L98.0265 46.0078L98.053 46.8517L98.0619 47.6999V47.7001ZM98.0619 47.7001C98.0619 47.8412 97.9479 47.9556 97.8074 47.9556C97.6669 47.9556 97.553 47.8412 97.553 47.7001H98.0619ZM89.5562 71.8458L89.9161 71.4844L89.5341 71.5098L89.9997 70.8861L90.4531 70.2528L90.8942 69.6103L91.3229 68.9587L91.7389 68.298L92.1421 67.6284L92.5322 66.9502L92.9092 66.2636L93.2728 65.5687L93.6229 64.8658L93.9594 64.1548L94.2819 63.4362L94.5904 62.71L94.8847 61.9763L95.1645 61.2354L95.43 60.4874L95.6805 59.7325L95.916 58.9709L96.1367 58.2028L96.342 57.4282L96.532 56.6476L96.7062 55.8609L96.8648 55.0683L97.0073 54.27L97.1338 53.4663L97.2439 52.6572L97.3376 51.8429L97.4148 51.0237L97.4749 50.1995L97.5182 49.3707L97.5443 48.5375L97.553 47.7H98.0619L98.053 48.5482L98.0265 49.392L97.9828 50.2314L97.9218 51.0661L97.8438 51.8961L97.7488 52.721L97.6372 53.5407L97.5092 54.3549L97.3647 55.1637L97.2041 55.9666L97.0274 56.7637L96.8351 57.5546L96.627 58.3392L96.4035 59.1174L96.1648 59.8889L95.9109 60.6538L95.6422 61.4115L95.3585 62.1622L95.0603 62.9055L94.7479 63.6413L94.421 64.3694L94.0803 65.0896L93.7256 65.8018L93.3572 66.5057L92.9753 67.2013L92.5801 67.8882L92.1716 68.5664L91.7502 69.2358L91.316 69.8959L90.8692 70.5468L90.4099 71.1883L89.9382 71.8202L89.5562 71.8456L89.5562 71.8458ZM89.9381 71.8204C89.8527 71.9324 89.6931 71.9538 89.5814 71.868C89.4699 71.7822 89.4486 71.6219 89.534 71.5098L89.9381 71.8203V71.8204ZM89.1895 70.755L89.916 71.4844L89.5561 71.8458L88.8296 71.1164L88.8069 70.7811L89.1895 70.755H89.1895ZM88.8296 71.1164C88.7303 71.0166 88.7303 70.8548 88.8296 70.755C88.929 70.6552 89.0902 70.6552 89.1895 70.755L88.8296 71.1164ZM96.5351 47.7001H97.044L97.0355 48.5219L97.01 49.3396L96.9678 50.1529L96.9091 50.9618L96.8339 51.7659L96.7423 52.5652L96.6348 53.3594L96.5114 54.1486L96.3721 54.9323L96.2173 55.7105L96.0472 56.4829L95.8618 57.2496L95.6613 58.0103L95.4458 58.7647L95.2157 59.5129L94.9709 60.2544L94.7119 60.9892L94.4386 61.717L94.1511 62.4378L93.8499 63.1514L93.5348 63.8577L93.2063 64.5564L92.8644 65.2473L92.5091 65.9304L92.1409 66.6054L91.7599 67.2721L91.366 67.9305L90.9597 68.5803L90.5409 69.2212L90.11 69.8533L89.667 70.4764L89.2122 71.0902L88.807 70.7811L89.2558 70.1755L89.693 69.5606L90.1181 68.9367L90.5315 68.3042L90.9324 67.663L91.321 67.0134L91.697 66.3555L92.0604 65.6894L92.4109 65.0154L92.7484 64.3336L93.0726 63.6442L93.3833 62.9473L93.6806 62.2432L93.9643 61.532L94.2339 60.8137L94.4896 60.0887L94.7311 59.3571L94.9582 58.619L95.1708 57.8745L95.3686 57.1241L95.5516 56.3676L95.7194 55.6053L95.8722 54.8373L96.0096 54.064L96.1314 53.2854L96.2375 52.5016L96.3277 51.7128L96.402 50.9193L96.4599 50.1211L96.5016 49.3184L96.5268 48.5114L96.5351 47.7002V47.7001ZM96.5351 47.7001C96.5351 47.5591 96.6491 47.4446 96.7896 47.4446C96.93 47.4446 97.044 47.5591 97.044 47.7001H96.5351ZM88.8295 24.2839L89.1895 24.6453L89.2122 24.3101L89.6669 24.9239L90.1099 25.547L90.5409 26.1791L90.9596 26.8201L91.366 27.4698L91.7598 28.1281L92.1409 28.7949L92.5091 29.4699L92.8643 30.153L93.2062 30.8439L93.5348 31.5426L93.8499 32.2489L94.1511 32.9624L94.4385 33.6833L94.7119 34.4112L94.9709 35.146L95.2157 35.8875L95.4458 36.6356L95.6613 37.39L95.8618 38.1507L96.0472 38.9174L96.2174 39.6899L96.3721 40.468L96.5114 41.2517L96.6348 42.0409L96.7423 42.8351L96.8339 43.6344L96.9091 44.4386L96.9678 45.2474L97.01 46.0607L97.0355 46.8784L97.044 47.7001H96.5351L96.5268 46.8889L96.5016 46.082L96.4599 45.2792L96.402 44.4811L96.3277 43.6875L96.2375 42.8988L96.1314 42.115L96.0096 41.3364L95.8722 40.5631L95.7194 39.7951L95.5516 39.0328L95.3686 38.2763L95.1708 37.5258L94.9582 36.7814L94.7311 36.0433L94.4896 35.3117L94.2339 34.5867L93.9642 33.8685L93.6806 33.1572L93.3833 32.4531L93.0726 31.7562L92.7483 31.0668L92.4108 30.3849L92.0604 29.711L91.697 29.045L91.3209 28.387L90.9323 27.7373L90.5314 27.0962L90.1181 26.4636L89.6929 25.8398L89.2558 25.2249L88.8069 24.6192L88.8296 24.284L88.8295 24.2839ZM88.8068 24.6192C88.7218 24.5068 88.7436 24.3465 88.8555 24.2611C88.9674 24.1757 89.1271 24.1976 89.2121 24.31L88.8068 24.6191V24.6192ZM89.9158 23.9157L89.1894 24.6452L88.8295 24.2838L89.5558 23.5543L89.9378 23.5797L89.9157 23.9157H89.9158ZM89.5558 23.5543C89.6552 23.4545 89.8164 23.4545 89.9158 23.5543C90.0151 23.6541 90.0151 23.8159 89.9158 23.9157L89.5558 23.5543ZM18.938 47.7001H19.4468L19.4555 48.5376L19.4816 49.3709L19.5249 50.1996L19.5851 51.0238L19.6622 51.843L19.7559 52.6574L19.866 53.4664L19.9924 54.2702L20.1351 55.0685L20.2936 55.8611L20.4678 56.6477L20.6578 57.4284L20.8631 58.2029L21.0838 58.9711L21.3194 59.7327L21.5699 60.4876L21.8353 61.2356L22.1153 61.9765L22.4094 62.7102L22.718 63.4364L23.0404 64.155L23.3769 64.866L23.7271 65.5689L24.0907 66.2639L24.4676 66.9504L24.8578 67.6286L25.261 68.298L25.677 68.9588L26.1057 69.6105L26.5468 70.2529L27.0002 70.8863L27.4658 71.51L27.0617 71.8206L26.59 71.1887L26.1307 70.5472L25.6839 69.8963L25.2497 69.2362L24.8283 68.5669L24.4198 67.8887L24.0245 67.2017L23.6427 66.506L23.2743 65.8022L22.9196 65.09L22.5788 64.3698L22.252 63.6417L21.9395 62.9059L21.6413 62.1626L21.3577 61.4119L21.089 60.6542L20.8351 59.8894L20.5963 59.1178L20.3728 58.3396L20.1647 57.555L19.9724 56.7641L19.7957 55.967L19.6352 55.1641L19.4907 54.3553L19.3626 53.541L19.251 52.7214L19.156 51.8965L19.078 51.0665L19.017 50.2318L18.9733 49.3924L18.9468 48.5485L18.938 47.7003V47.7001ZM18.938 47.7001C18.938 47.559 19.0519 47.4446 19.1924 47.4446C19.3329 47.4446 19.4468 47.559 19.4468 47.7001H18.938ZM27.4439 23.5543L27.084 23.9157L27.466 23.8903L27.0004 24.514L26.5469 25.1473L26.1058 25.7898L25.6771 26.4415L25.2611 27.1022L24.8579 27.7717L24.4678 28.4499L24.0908 29.1365L23.7271 29.8314L23.377 30.5344L23.0405 31.2453L22.7181 31.9639L22.4095 32.6902L22.1152 33.4238L21.8353 34.1647L21.57 34.9127L21.3194 35.6677L21.0838 36.4292L20.8631 37.1973L20.6578 37.9719L20.4678 38.7525L20.2937 39.5393L20.1351 40.3319L19.9924 41.1301L19.866 41.9339L19.7559 42.7429L19.6622 43.5573L19.5851 44.3765L19.5249 45.2007L19.4816 46.0294L19.4555 46.8627L19.4468 47.7002H18.938L18.9468 46.852L18.9733 46.0081L19.017 45.1687L19.078 44.334L19.156 43.5041L19.251 42.6792L19.3626 41.8595L19.4907 41.0452L19.6352 40.2366L19.7958 39.4336L19.9724 38.6365L20.1647 37.8456L20.3728 37.0609L20.5963 36.2828L20.8351 35.5112L21.089 34.7463L21.3577 33.9886L21.6414 33.2379L21.9396 32.4946L22.2521 31.7588L22.5788 31.0308L22.9196 30.3106L23.2744 29.5984L23.6428 28.8945L24.0247 28.1989L24.4199 27.5119L24.8283 26.8336L25.2498 26.1644L25.684 25.5042L26.1308 24.8533L26.5902 24.2119L27.0618 23.58L27.4438 23.5545L27.4439 23.5543ZM27.0619 23.5797C27.1473 23.4677 27.307 23.4463 27.4186 23.5321C27.5302 23.6179 27.5515 23.7783 27.466 23.8904L27.0619 23.5798V23.5797ZM27.8103 24.6451L27.084 23.9157L27.444 23.5543L28.1702 24.2836L28.1929 24.6189L27.8103 24.6451H27.8103ZM28.1702 24.2836C28.2695 24.3834 28.2695 24.5453 28.1702 24.6451C28.0708 24.7449 27.9096 24.7449 27.8103 24.6451L28.1702 24.2836ZM20.4647 47.7001H19.9558L19.9643 46.8783L19.9898 46.0606L20.032 45.2473L20.0907 44.4384L20.1659 43.6343L20.2575 42.8349L20.365 42.0408L20.4884 41.2516L20.6277 40.4679L20.7824 39.6897L20.9526 38.9172L21.138 38.1505L21.3385 37.3898L21.554 36.6354L21.7841 35.8872L22.0289 35.1457L22.2879 34.4109L22.5612 33.6831L22.8487 32.9622L23.1499 32.2486L23.465 31.5424L23.7935 30.8437L24.1354 30.1527L24.4907 29.4696L24.8589 28.7946L25.2399 28.1279L25.6338 27.4696L26.0401 26.8198L26.4589 26.1788L26.8898 25.5467L27.3328 24.9236L27.7876 24.3098L28.1928 24.6189L27.744 25.2246L27.3068 25.8395L26.8817 26.4633L26.4683 27.0958L26.0674 27.737L25.6788 28.3867L25.3028 29.0446L24.9394 29.7106L24.5889 30.3846L24.2514 31.0664L23.9272 31.7559L23.6165 32.4527L23.3192 33.1569L23.0355 33.8682L22.7659 34.5864L22.5102 35.3114L22.2687 36.043L22.0416 36.7811L21.829 37.5256L21.6312 38.2761L21.4482 39.0325L21.2804 39.7949L21.1276 40.5629L20.9902 41.3362L20.8684 42.1148L20.7623 42.8986L20.6721 43.6874L20.5978 44.4809L20.5399 45.2791L20.4982 46.0818L20.473 46.8888L20.4647 47.7V47.7001ZM20.4647 47.7001C20.4647 47.8411 20.3507 47.9556 20.2102 47.9556C20.0698 47.9556 19.9558 47.8411 19.9558 47.7001H20.4647ZM28.1702 71.1164L27.8103 70.755L27.7876 71.0902L27.3328 70.4764L26.8898 69.8533L26.4589 69.2212L26.0401 68.5803L25.6338 67.9305L25.2399 67.2721L24.8589 66.6054L24.4907 65.9304L24.1354 65.2473L23.7935 64.5564L23.465 63.8577L23.1499 63.1514L22.8487 62.4378L22.5612 61.717L22.2879 60.9891L22.0289 60.2543L21.7841 59.5128L21.554 58.7647L21.3385 58.0103L21.138 57.2496L20.9526 56.4829L20.7824 55.7104L20.6277 54.9322L20.4884 54.1485L20.365 53.3593L20.2575 52.5652L20.1659 51.7658L20.0907 50.9617L20.032 50.1528L19.9898 49.3395L19.9643 48.5218L19.9558 47.7001H20.4647L20.473 48.5113L20.4982 49.3182L20.5399 50.121L20.5978 50.9191L20.6721 51.7127L20.7623 52.5015L20.8684 53.2853L20.9902 54.0638L21.1276 54.8372L21.2804 55.6052L21.4482 56.3675L21.6312 57.124L21.829 57.8745L22.0416 58.6189L22.2687 59.3569L22.5102 60.0885L22.7659 60.8136L23.0355 61.5318L23.3192 62.2431L23.6165 62.9472L23.9272 63.6441L24.2514 64.3335L24.5889 65.0154L24.9394 65.6893L25.3028 66.3554L25.6788 67.0133L26.0674 67.6629L26.4683 68.3041L26.8817 68.9367L27.3068 69.5605L27.744 70.1754L28.1928 70.7811L28.1701 71.1163L28.1702 71.1164ZM28.1929 70.7811C28.2779 70.8935 28.2561 71.0538 28.1442 71.1392C28.0323 71.2246 27.8727 71.2027 27.7876 71.0903L28.1929 70.7812V70.7811ZM27.084 71.4845L27.8103 70.7551L28.1703 71.1165L27.4439 71.8459L27.0619 71.8205L27.084 71.4845H27.084ZM27.4439 71.8459C27.3445 71.9457 27.1833 71.9457 27.084 71.8459C26.9846 71.7461 26.9846 71.5843 27.084 71.4845L27.4439 71.8459ZM76.6501 22.4326L76.2902 22.0712L76.3228 22.4601L75.8479 22.1281L75.3665 21.8047L74.8787 21.4902L74.3848 21.1848L73.8847 20.8885L73.3788 20.6013L72.8669 20.3237L72.3494 20.0554L71.8262 19.7968L71.2974 19.5479L70.7632 19.3087L70.2238 19.0796L69.6791 18.8604L69.1294 18.6515L68.5747 18.4527L68.0153 18.2645L67.451 18.0868L66.8823 17.9197L66.3091 17.7632L65.7314 17.6177L65.1495 17.4831L64.5635 17.3597L63.9734 17.2475L63.3795 17.1465L62.7816 17.0571L62.1801 16.9791L61.5751 16.9129L60.9665 16.8584L60.3546 16.8158L59.7395 16.7853L59.1211 16.7668L58.4999 16.7607V16.2497L59.1312 16.256L59.7595 16.2747L60.3847 16.3058L61.0068 16.349L61.6253 16.4044L62.2403 16.4717L62.8517 16.551L63.4595 16.6419L64.0633 16.7445L64.6632 16.8586L65.259 16.9841L65.8506 17.1209L66.4378 17.2689L67.0206 17.4279L67.5988 17.5977L68.1723 17.7784L68.7411 17.9698L69.305 18.1718L69.8638 18.3842L70.4176 18.6071L70.966 18.8401L71.5091 19.0831L72.0466 19.3361L72.5786 19.599L73.1047 19.8718L73.625 20.1541L74.1394 20.4459L74.6477 20.7472L75.1496 21.0577L75.6455 21.3773L76.1348 21.706L76.6176 22.0436L76.6502 22.4326H76.6501ZM76.6175 22.0436C76.732 22.1253 76.7589 22.2849 76.6775 22.4C76.5962 22.5149 76.4373 22.5419 76.3227 22.4602L76.6175 22.0436ZM75.5598 22.8048L76.2902 22.0713L76.6501 22.4327L75.9197 23.1662L75.5936 23.1947L75.5598 22.8048L75.5598 22.8048ZM75.9197 23.1662C75.8203 23.266 75.6591 23.266 75.5598 23.1662C75.4604 23.0664 75.4604 22.9046 75.5598 22.8048L75.9197 23.1662ZM58.4999 17.7828V17.2718L59.1049 17.2778L59.707 17.2955L60.3062 17.325L60.9022 17.3662L61.495 17.4187L62.0845 17.4826L62.6706 17.5578L63.2532 17.6442L63.8321 17.7416L64.4072 17.85L64.9785 17.9691L65.5458 18.099L66.1091 18.2395L66.668 18.3906L67.2228 18.5519L67.773 18.7235L68.3189 18.9053L68.86 19.0972L69.3963 19.2989L69.9278 19.5105L70.4542 19.732L70.9757 19.9629L71.4919 20.2033L72.0028 20.4532L72.5082 20.7122L73.0082 20.9805L73.5025 21.2579L73.9912 21.5442L74.4739 21.8393L74.9507 22.1431L75.4214 22.4554L75.8859 22.7764L75.5935 23.1947L75.1368 22.8792L74.674 22.572L74.2053 22.2732L73.7306 21.9831L73.2503 21.7016L72.7642 21.429L72.2727 21.1652L71.7756 20.9104L71.2734 20.6648L70.7659 20.4285L70.2534 20.2014L69.7357 19.9839L69.2133 19.7757L68.686 19.5774L68.154 19.3888L67.6176 19.2101L67.0765 19.0414L66.5312 18.8827L65.9816 18.7342L65.4279 18.5961L64.8702 18.4685L64.3085 18.3513L63.743 18.2448L63.1738 18.1491L62.6012 18.0641L62.0249 17.9901L61.4453 17.9273L60.8623 17.8756L60.2762 17.8353L59.6871 17.8063L59.095 17.7887L58.4999 17.7829V17.7828ZM58.4999 17.7828C58.3595 17.7828 58.2455 17.6684 58.2455 17.5273C58.2455 17.3863 58.3595 17.2718 58.4999 17.2718V17.7828ZM41.0805 23.166L41.4403 22.8046L41.1143 22.7761L41.5788 22.4552L42.0494 22.1429L42.5263 21.839L43.009 21.5439L43.4977 21.2577L43.992 20.9803L44.492 20.7121L44.9974 20.453L45.5083 20.2033L46.0245 19.9628L46.5459 19.7318L47.0724 19.5104L47.6039 19.2988L48.1402 19.097L48.6813 18.9051L49.2271 18.7234L49.7774 18.5518L50.332 18.3904L50.8911 18.2394L51.4543 18.0989L52.0217 17.969L52.5929 17.8499L53.168 17.7415L53.7469 17.6442L54.3295 17.5577L54.9155 17.4825L55.505 17.4186L56.0979 17.3661L56.6938 17.325L57.293 17.2954L57.8951 17.2778L58.5 17.2718V17.7827L57.905 17.7886L57.3129 17.8061L56.7238 17.8352L56.1377 17.8755L55.5547 17.9272L54.9751 17.99L54.399 18.0639L53.8262 18.1489L53.2571 18.2447L52.6916 18.3511L52.1299 18.4683L51.5723 18.596L51.0185 18.7341L50.4689 18.8825L49.9237 19.0412L49.3826 19.2099L48.8461 19.3886L48.3142 19.5771L47.787 19.7756L47.2644 19.9836L46.747 20.2012L46.2344 20.4283L45.7268 20.6646L45.2247 20.9102L44.7276 21.165L44.2361 21.4287L43.75 21.7013L43.2696 21.9828L42.795 22.2729L42.3262 22.5717L41.8635 22.8789L41.4066 23.1944L41.0807 23.1659L41.0805 23.166ZM41.4065 23.1945C41.2915 23.2755 41.1327 23.2476 41.0521 23.1321C40.9714 23.0167 40.9992 22.8572 41.1142 22.7762L41.4065 23.1945ZM40.7097 22.0713L41.4402 22.8047L41.0804 23.1661L40.3499 22.4327L40.3824 22.0437L40.7097 22.0713V22.0713ZM40.3499 22.4327C40.2505 22.3329 40.2505 22.1711 40.3498 22.0713C40.4492 21.9716 40.6103 21.9715 40.7097 22.0713L40.3499 22.4327ZM58.4999 16.2499V16.7608L57.8786 16.767L57.2603 16.7855L56.6451 16.816L56.0332 16.8585L55.4247 16.913L54.8197 16.9793L54.2181 17.0572L53.6203 17.1467L53.0264 17.2476L52.4363 17.3598L51.8503 17.4832L51.2684 17.6177L50.6907 17.7633L50.1175 17.9197L49.5487 18.087L48.9845 18.2646L48.4251 18.4528L47.8704 18.6516L47.3207 18.8605L46.776 19.0797L46.2366 19.3088L45.7024 19.548L45.1738 19.7969L44.6505 20.0555L44.1329 20.3237L43.621 20.6014L43.1151 20.8885L42.6151 21.1849L42.1211 21.4902L41.6334 21.8047L41.152 22.1281L40.6771 22.4602L40.3823 22.0436L40.8651 21.7061L41.3544 21.3773L41.8502 21.0577L42.3522 20.7472L42.8604 20.446L43.3748 20.1541L43.8951 19.8717L44.4213 19.599L44.9532 19.3361L45.4907 19.0831L46.0338 18.8401L46.5822 18.6071L47.136 18.3842L47.6948 18.1718L48.2587 17.9698L48.8275 17.7784L49.401 17.5977L49.9792 17.4279L50.562 17.2689L51.1492 17.1209L51.7408 16.9842L52.3366 16.8586L52.9365 16.7445L53.5403 16.642L54.148 16.551L54.7594 16.4717L55.3745 16.4044L55.9931 16.3491L56.615 16.3059L57.2402 16.2747L57.8685 16.2561L58.4999 16.2498V16.2499ZM58.4999 16.2499C58.6403 16.2499 58.7543 16.3643 58.7543 16.5054C58.7543 16.6464 58.6403 16.7608 58.4999 16.7608V16.2499ZM89.8186 47.7003H89.3097L89.3036 47.0764L89.2852 46.4555L89.2548 45.8377L89.2124 45.2233L89.1581 44.6121L89.0922 44.0046L89.0145 43.4005L88.9255 42.8001L88.8249 42.2037L88.7132 41.6112L88.5903 41.0226L88.4563 40.4384L88.3114 39.8582L88.1556 39.2826L87.9891 38.7114L87.8122 38.1448L87.6247 37.583L87.4268 37.026L87.2188 36.4741L87.0005 35.9271L86.7723 35.3854L86.5341 34.8489L86.2863 34.3179L86.0288 33.7925L85.7616 33.2728L85.4851 32.7588L85.1992 32.2508L84.9041 31.7486L84.6 31.2526L84.2868 30.7628L83.9648 30.2793L83.6341 29.8024L84.049 29.5064L84.3852 29.9913L84.7125 30.4826L85.0308 30.9805L85.34 31.4846L85.64 31.995L85.9306 32.5116L86.2117 33.0341L86.4833 33.5624L86.7451 34.0966L86.9971 34.6364L87.2391 35.1817L87.4711 35.7325L87.693 36.2884L87.9046 36.8497L88.1057 37.416L88.2963 37.9871L88.4763 38.5631L88.6454 39.1437L88.8037 39.7289L88.951 40.3187L89.0873 40.9127L89.2122 41.511L89.3259 42.1134L89.428 42.7198L89.5186 43.3301L89.5976 43.9441L89.6645 44.5617L89.7197 45.1828L89.7628 45.8075L89.7938 46.4353L89.8123 47.0663L89.8186 47.7003H89.8186ZM89.8186 47.7003C89.8186 47.8414 89.7046 47.9558 89.5641 47.9558C89.4236 47.9558 89.3097 47.8414 89.3097 47.7003H89.8186ZM83.6616 65.9267L84.0216 65.5653L83.6342 65.598L83.9649 65.1211L84.2869 64.6377L84.6 64.1479L84.9042 63.6519L85.1992 63.1497L85.4851 62.6416L85.7617 62.1277L86.0288 61.6079L86.2863 61.0824L86.5342 60.5515L86.7723 60.0151L87.0006 59.4734L87.2188 58.9265L87.4268 58.3744L87.6247 57.8174L87.8122 57.2556L87.9891 56.689L88.1556 56.1179L88.3114 55.5422L88.4563 54.9621L88.5903 54.3778L88.7132 53.7893L88.8249 53.1968L88.9255 52.6003L89.0145 51.9999L89.0922 51.3959L89.1581 50.7883L89.2124 50.1772L89.2548 49.5628L89.2852 48.945L89.3036 48.3241L89.3097 47.7002H89.8186L89.8123 48.3342L89.7937 48.9652L89.7627 49.593L89.7197 50.2176L89.6644 50.8387L89.5975 51.4564L89.5185 52.0704L89.4279 52.6806L89.3258 53.287L89.2122 53.8895L89.0872 54.4877L88.951 55.0818L88.8036 55.6715L88.6453 56.2568L88.4762 56.8374L88.2962 57.4133L88.1056 57.9845L87.9045 58.5508L87.693 59.1119L87.4711 59.668L87.239 60.2188L86.9971 60.764L86.7451 61.3039L86.4832 61.838L86.2117 62.3665L85.9305 62.8889L85.64 63.4055L85.34 63.9158L85.0307 64.4199L84.7125 64.9178L84.3852 65.4092L84.049 65.8941L83.6616 65.9268V65.9267ZM84.049 65.894C83.9676 66.009 83.8087 66.036 83.6941 65.9543C83.5796 65.8726 83.5528 65.713 83.6341 65.598L84.049 65.894ZM83.2911 64.8318L84.0215 65.5653L83.6616 65.9267L82.9312 65.1932L82.9028 64.8658L83.291 64.8319L83.2911 64.8318ZM82.9312 65.1932C82.8318 65.0934 82.8318 64.9316 82.9312 64.8318C83.0305 64.732 83.1917 64.732 83.2911 64.8318L82.9312 65.1932ZM88.2918 47.7003H88.8007L88.7947 48.3078L88.7771 48.9125L88.7476 49.5141L88.7067 50.1127L88.6545 50.708L88.5908 51.2999L88.5159 51.8886L88.4299 52.4736L88.3329 53.0549L88.225 53.6324L88.1064 54.206L87.977 54.7757L87.8371 55.3413L87.6867 55.9028L87.526 56.4598L87.3551 57.0124L87.1742 57.5604L86.9831 58.1038L86.7821 58.6424L86.5714 59.1761L86.351 59.7049L86.1209 60.2285L85.8815 60.7468L85.6328 61.2598L85.3748 61.7674L85.1077 62.2695L84.8314 62.7659L84.5464 63.2567L84.2525 63.7414L83.95 64.2201L83.639 64.6929L83.3194 65.1592L82.9028 64.8657L83.217 64.4071L83.5229 63.9423L83.8204 63.4716L84.1094 62.995L84.3896 62.5126L84.6611 62.0245L84.9237 61.5308L85.1774 61.0317L85.422 60.5274L85.6573 60.0178L85.8835 59.503L86.1001 58.9833L86.3073 58.4586L86.5049 57.9291L86.6926 57.395L86.8706 56.8563L87.0386 56.3129L87.1966 55.7654L87.3444 55.2135L87.482 54.6574L87.6091 54.0973L87.7258 53.5333L87.8318 52.9654L87.9271 52.3939L88.0118 51.8188L88.0854 51.2401L88.1479 50.6581L88.1994 50.0727L88.2397 49.484L88.2685 48.8925L88.2859 48.2979L88.2918 47.7003H88.2918ZM88.2918 47.7003C88.2918 47.5592 88.4058 47.4448 88.5463 47.4448C88.6868 47.4448 88.8007 47.5592 88.8007 47.7003H88.2918ZM82.931 30.2073L83.291 30.5687L83.3193 30.2412L83.6389 30.7077L83.9499 31.1804L84.2525 31.6591L84.5463 32.144L84.8314 32.6346L85.1077 33.131L85.3748 33.6332L85.6328 34.1407L85.8816 34.6538L86.121 35.1721L86.351 35.6958L86.5714 36.2244L86.7822 36.7582L86.9831 37.2968L87.1742 37.8401L87.3552 38.3882L87.526 38.9408L87.6867 39.4979L87.8372 40.0592L87.9771 40.6249L88.1064 41.1946L88.2251 41.7682L88.333 42.3458L88.4299 42.927L88.516 43.5121L88.5909 44.1007L88.6546 44.6927L88.7068 45.2879L88.7477 45.8865L88.7772 46.4881L88.7948 47.0928L88.8008 47.7003H88.2919L88.2861 47.1027L88.2687 46.5081L88.2398 45.9166L88.1996 45.328L88.1481 44.7426L88.0855 44.1605L88.0119 43.5819L87.9273 43.0067L87.8319 42.4353L87.726 41.8674L87.6092 41.3033L87.4821 40.7432L87.3446 40.1872L87.1967 39.6353L87.0387 39.0877L86.8707 38.5444L86.6927 38.0057L86.505 37.4715L86.3075 36.942L86.1002 36.4173L85.8836 35.8976L85.6574 35.3828L85.4221 34.8733L85.1775 34.3688L84.9238 33.8697L84.6612 33.3761L84.3897 32.888L84.1094 32.4056L83.8204 31.929L83.5229 31.4582L83.217 30.9936L82.9028 30.5349L82.9312 30.2074L82.931 30.2073ZM82.9027 30.5348C82.8219 30.4193 82.8498 30.2599 82.9647 30.1788C83.0797 30.0978 83.2385 30.1257 83.3192 30.2412L82.9027 30.5348ZM84.0213 29.8351L83.2909 30.5687L82.9309 30.2072L83.6614 29.4737L84.0487 29.5064L84.0212 29.8351H84.0213ZM83.6614 29.4737C83.7608 29.3739 83.922 29.3739 84.0213 29.4737C84.1207 29.5735 84.1207 29.7354 84.0213 29.8351L83.6614 29.4737ZM27.1812 47.7002H27.69L27.6962 48.3241L27.7146 48.945L27.7449 49.5628L27.7873 50.1772L27.8416 50.7883L27.9076 51.396L27.9852 52L28.0742 52.6003L28.1748 53.1968L28.2865 53.7894L28.4094 54.3779L28.5433 54.9622L28.6883 55.5422L28.8441 56.1179L29.0106 56.6891L29.1875 57.2557L29.375 57.8175L29.5728 58.3745L29.7809 58.9265L29.9991 59.4734L30.2273 60.0152L30.4654 60.5515L30.7134 61.0825L30.9709 61.608L31.238 62.1278L31.5145 62.6417L31.8005 63.1498L32.0955 63.6519L32.3996 64.148L32.7128 64.6377L33.0348 65.1212L33.3655 65.5981L32.9507 65.8942L32.6144 65.4093L32.2872 64.918L31.9688 64.42L31.6597 63.9159L31.3597 63.4056L31.0691 62.889L30.788 62.3665L30.5164 61.8381L30.2546 61.304L30.0026 60.7642L29.7605 60.2189L29.5285 59.668L29.3066 59.1121L29.095 58.5508L28.894 57.9846L28.7033 57.4134L28.5234 56.8374L28.3542 56.2568L28.1959 55.6715L28.0486 55.0819L27.9124 54.4878L27.7875 53.8895L27.6738 53.2871L27.5717 52.6806L27.481 52.0704L27.4021 51.4565L27.3352 50.8387L27.28 50.2176L27.237 49.593L27.206 48.9652L27.1874 48.3342L27.1811 47.7002H27.1812ZM27.1812 47.7002C27.1812 47.5592 27.2951 47.4447 27.4356 47.4447C27.5761 47.4447 27.69 47.5592 27.69 47.7002H27.1812ZM33.3381 29.4736L32.9782 29.8351L33.3655 29.8023L33.0348 30.2792L32.7128 30.7627L32.3996 31.2525L32.0955 31.7485L31.8005 32.2507L31.5145 32.7587L31.238 33.2728L30.9709 33.7925L30.7134 34.3179L30.4654 34.8489L30.2273 35.3854L29.9991 35.927L29.7809 36.474L29.5728 37.026L29.375 37.583L29.1875 38.1448L29.0106 38.7114L28.8441 39.2826L28.6883 39.8582L28.5433 40.4384L28.4094 41.0226L28.2865 41.6112L28.1748 42.2037L28.0742 42.8001L27.9852 43.4005L27.9076 44.0046L27.8416 44.6121L27.7873 45.2233L27.7449 45.8377L27.7146 46.4555L27.6962 47.0764L27.69 47.7003H27.1812L27.1875 47.0663L27.206 46.4353L27.237 45.8075L27.2801 45.1828L27.3353 44.5617L27.4022 43.9441L27.4811 43.3301L27.5718 42.7198L27.6739 42.1134L27.7876 41.511L27.9125 40.9127L28.0487 40.3187L28.196 39.7289L28.3543 39.1437L28.5235 38.5631L28.7034 37.9871L28.8941 37.416L29.0951 36.8497L29.3067 36.2885L29.5286 35.7324L29.7606 35.1816L30.0027 34.6363L30.2547 34.0965L30.5165 33.5623L30.788 33.034L31.0692 32.5115L31.3598 31.995L31.6598 31.4845L31.9689 30.9804L32.2873 30.4825L32.6145 29.9912L32.9508 29.5063L33.3381 29.4735V29.4736ZM32.9508 29.5064C33.0321 29.3914 33.191 29.3644 33.3056 29.4461C33.4201 29.5278 33.4469 29.6874 33.3656 29.8024L32.9508 29.5064ZM33.7087 30.5686L32.9783 29.8351L33.3382 29.4736L34.0686 30.2071L34.097 30.5346L33.7088 30.5685L33.7087 30.5686ZM34.0686 30.2071C34.168 30.3069 34.168 30.4688 34.0686 30.5686C33.9693 30.6684 33.8081 30.6684 33.7087 30.5686L34.0686 30.2071ZM28.7079 47.7002H28.199L28.205 47.0927L28.2226 46.488L28.2521 45.8864L28.293 45.2879L28.3452 44.6925L28.4089 44.1006L28.4838 43.512L28.5699 42.927L28.6668 42.3456L28.7748 41.7681L28.8934 41.1945L29.0228 40.6248L29.1627 40.0592L29.3131 39.4978L29.4738 38.9407L29.6446 38.3881L29.8256 37.84L30.0167 37.2966L30.2177 36.7581L30.4284 36.2244L30.6488 35.6957L30.8788 35.172L31.1182 34.6536L31.367 34.1406L31.625 33.6331L31.8921 33.131L32.1684 32.6345L32.4534 32.1438L32.7473 31.6591L33.0498 31.1802L33.3608 30.7076L33.6804 30.2412L34.097 30.5347L33.7828 30.9934L33.4769 31.458L33.1794 31.9289L32.8904 32.4055L32.6102 32.8879L32.3387 33.376L32.0761 33.8696L31.8224 34.3687L31.5778 34.8731L31.3425 35.3827L31.1163 35.8974L30.8997 36.4172L30.6925 36.9419L30.4949 37.4713L30.3072 38.0056L30.1292 38.5444L29.9612 39.0875L29.8032 39.6351L29.6554 40.187L29.5178 40.7431L29.3907 41.3032L29.274 41.8672L29.168 42.4351L29.0726 43.0067L28.988 43.5817L28.9143 44.1604L28.8518 44.7425L28.8003 45.3279L28.7601 45.9165L28.7312 46.508L28.7138 47.1027L28.708 47.7002H28.7079ZM28.7079 47.7002C28.7079 47.8413 28.5939 47.9557 28.4535 47.9557C28.313 47.9557 28.199 47.8413 28.199 47.7002H28.7079ZM34.0686 65.1933L33.7087 64.8319L33.6803 65.1593L33.3607 64.6929L33.0497 64.2202L32.7472 63.7415L32.4533 63.2567L32.1682 62.766L31.892 62.2696L31.6249 61.7675L31.3669 61.2598L31.1182 60.7468L30.8787 60.2285L30.6488 59.7048L30.4283 59.1762L30.2175 58.6424L30.0166 58.1038L29.8255 57.5605L29.6445 57.0124L29.4736 56.4598L29.3129 55.9027L29.1625 55.3413L29.0226 54.7757L28.8933 54.206L28.7746 53.6324L28.6668 53.0548L28.5698 52.4735L28.4837 51.8885L28.4088 51.2999L28.3452 50.7079L28.2929 50.1126L28.252 49.514L28.2225 48.9124L28.2049 48.3077L28.1989 47.7002H28.7078L28.7136 48.2978L28.7311 48.8924L28.7599 49.484L28.8001 50.0726L28.8516 50.658L28.9142 51.24L28.9878 51.8187L29.0724 52.3938L29.1678 52.9653L29.2738 53.5332L29.3905 54.0973L29.5176 54.6574L29.6551 55.2133L29.8029 55.7653L29.9609 56.3129L30.129 56.8563L30.3069 57.3949L30.4947 57.9291L30.6923 58.4586L30.8995 58.9833L31.1162 59.5031L31.3423 60.0178L31.5776 60.5274L31.8222 61.0319L32.0759 61.5309L32.3386 62.0246L32.61 62.5127L32.8903 62.995L33.1792 63.4717L33.4767 63.9424L33.7826 64.4071L34.0968 64.8658L34.0685 65.1932L34.0686 65.1933ZM34.097 64.8659C34.1776 64.9813 34.1498 65.1408 34.0348 65.2218C33.9198 65.3028 33.761 65.2748 33.6804 65.1594L34.097 64.8659ZM32.9783 65.5654L33.7088 64.8319L34.0687 65.1934L33.3383 65.9268L32.9509 65.8941L32.9784 65.5654H32.9783ZM33.3383 65.9268C33.2389 66.0266 33.0777 66.0266 32.9783 65.9268C32.879 65.827 32.879 65.6652 32.9783 65.5654L33.3383 65.9268Z" fill="#2B2A29"/>
<path fill-rule="evenodd" clip-rule="evenodd" d="M55.7966 51.1012C55.6246 50.7365 55.4144 50.5063 55.2424 50.0458C55.0895 49.6428 55.0131 49.1439 55.0322 48.6642C55.0895 47.417 55.5099 47.2059 55.8921 46.4575C55.4907 46.2656 55.1658 45.9778 54.7263 45.7091C53.4269 44.9031 52.3951 44.4426 50.8854 43.9052C49.0509 43.2528 46.5285 42.8306 44.4074 42.9074C41.6939 42.8881 38.8276 43.7326 36.7064 44.7497C35.0247 45.5556 32.1393 47.3401 31.1074 48.741C31.4896 49.6237 34.872 51.8113 35.9802 52.4063C40.2989 54.6515 45.3627 55.2846 50.121 53.8646C52.0128 53.308 54.2486 52.2909 55.7965 51.1012H55.7966Z" fill="#056137"/>
<path fill-rule="evenodd" clip-rule="evenodd" d="M61.1661 46.4764C61.3572 46.841 61.5865 47.0713 61.7776 47.5318C62.561 49.4507 61.3954 50.6789 61.2234 51.1586C62.1024 51.6383 62.4846 52.0413 63.8414 52.6938C67.1855 54.3248 70.7207 54.9966 74.5615 54.4976C77.0266 54.1906 79.0904 53.4422 81.0204 52.4444C82.4536 51.7151 85.2626 49.8153 85.8932 48.7791C85.0906 47.5701 81.8803 45.536 80.3324 44.8068C78.7272 44.0392 74.657 42.6576 72.5932 42.9838C71.0837 42.6576 67.4337 43.4636 66.0961 43.9433C64.2426 44.5957 62.5609 45.4785 61.166 46.4764H61.1661Z" fill="#056137"/>
<path fill-rule="evenodd" clip-rule="evenodd" d="M56.5229 61.6559C54.9177 61.0035 53.7139 60.1208 51.6119 60.1208C47.0448 60.1208 44.8282 63.997 48.9558 65.7625C51.6119 66.914 54.0579 66.0119 56.4273 64.7839C57.1726 64.4001 57.8032 63.9779 58.4912 63.6133C58.8543 63.7283 59.4466 64.1314 59.7907 64.3233C60.2302 64.5727 60.6124 64.803 61.071 65.014C61.9309 65.4171 62.9437 65.8776 63.9755 66.1271C66.2878 66.6836 69.0013 65.8201 69.9186 64.3617C70.6256 63.2486 70.186 62.2699 69.5172 61.5599C68.9057 60.9267 67.912 60.4661 66.8037 60.255C63.5743 59.641 61.5105 61.4447 60.5168 61.6558C60.6888 61.4832 61.1283 60.9074 61.3385 60.658C62.1793 59.6794 65.3323 56.0909 65.7145 55.3617C66.4024 54.1144 65.5426 53.4044 64.3196 53.4044L52.7776 53.4043C51.5355 53.4043 50.7329 54.0568 51.3444 55.3232C51.6692 55.9756 52.5865 56.9543 53.0451 57.4916C53.7521 58.3744 56.0262 60.9074 56.523 61.6558L56.5229 61.6559Z" fill="#E14124"/>
<path fill-rule="evenodd" clip-rule="evenodd" d="M64.4529 34.5784C64.4337 34.5976 64.4147 34.6166 64.3955 34.6359L63.3827 35.6337C61.4145 37.5719 58.7201 42.945 58.7965 45.3436C59.2934 45.382 59.7328 45.5163 60.1342 45.7274C60.5736 45.9577 60.8412 46.3223 61.147 46.4951C62.5419 45.5164 64.2236 44.6336 66.0962 43.9621C67.453 43.4824 71.1029 42.6764 72.5934 43.0026C72.6699 42.8299 74.1221 41.1028 74.6381 40.316C76.5681 37.3607 78.0777 33.024 77.8675 29.3203C75.0776 29.3203 72.3259 29.896 70.0711 30.8939C68.9627 31.3736 67.9499 31.8917 67.0327 32.525C66.2875 32.9857 64.9306 33.9644 64.453 34.5784H64.4529Z" fill="#018D41"/>
<path fill-rule="evenodd" clip-rule="evenodd" d="M44.3881 42.9456C46.5093 42.8496 49.0316 43.2718 50.8661 43.9435C52.3757 44.4808 53.4076 44.9605 54.7071 45.7473C55.1465 46.0159 55.4714 46.2846 55.8727 46.4957C56.5224 45.9583 56.9428 45.4594 58.204 45.325C58.1659 43.6748 56.8472 40.5277 56.1593 39.2803C55.6435 38.34 55.1275 37.5533 54.5541 36.7856C53.9235 35.9797 53.293 35.3272 52.6623 34.6364C51.5922 33.7729 51.4393 33.485 50.0253 32.5448C46.9678 30.549 42.9167 29.1866 39.0566 29.3017C39.2669 30.8176 39.0185 31.2783 39.5153 33.5427C40.1841 36.6129 41.732 40.0287 43.834 42.2739C44.025 42.485 44.2543 42.7344 44.3881 42.9456V42.9456Z" fill="#018D41"/>
<path fill-rule="evenodd" clip-rule="evenodd" d="M53.5984 29.1096C53.4265 29.954 53.1398 30.7791 52.9678 31.7002C52.7768 32.7172 52.7768 33.5807 52.6621 34.6169C53.2928 35.3077 53.9424 35.9602 54.5539 36.7661C55.1463 37.5337 55.6432 38.3012 56.1591 39.2608C56.8279 40.508 58.1656 43.6744 58.2038 45.3055H58.7962C58.7197 42.9069 61.4142 37.5337 63.3824 35.5956L64.3951 34.5977C64.4143 34.5785 64.4333 34.5594 64.4525 34.5402C64.3569 34.4827 64.3187 34.6361 64.2806 34.0412C64.0895 31.2011 63.6691 29.5125 62.4652 26.826C61.8154 25.3483 59.5415 21.7983 58.4906 21.2227C57.1529 22.2205 55.3758 25.0798 54.5159 26.8452C54.191 27.5552 53.9043 28.5531 53.5985 29.1096H53.5984Z" fill="#95BE32"/>
<path fill-rule="evenodd" clip-rule="evenodd" d="M55.8921 46.4757C55.5099 47.2241 55.0895 47.4352 55.0322 48.6825C55.013 49.1622 55.0895 49.6419 55.2424 50.064C55.4144 50.5054 55.6246 50.7356 55.7966 51.1195C56.1215 51.3305 56.3508 51.6376 56.8475 51.9254C57.8411 52.4627 59.0642 52.501 60.0578 52.0021C60.5737 51.7527 60.8413 51.4073 61.2235 51.1578C61.3955 50.6973 62.5612 49.4691 61.7777 47.531C61.5867 47.0704 61.3573 46.8401 61.1663 46.4756C60.8605 46.303 60.593 45.9383 60.1534 45.708C59.7521 45.4969 59.3126 45.3625 58.8158 45.3242H58.2234C56.9623 45.4586 56.5419 45.9383 55.8921 46.4757H55.8921Z" fill="#E14124"/>
<path d="M41.6346 69.927H42.3679L42.3362 69.818C42.2486 69.521 42.177 69.2679 42.1211 69.0589C42.0653 68.8497 42.0313 68.7149 42.0193 68.6543L42.0012 68.5633C41.977 68.7301 41.8654 69.1482 41.6662 69.8179L41.6345 69.927L41.6346 69.927ZM42.721 71.118L42.5354 70.4907H41.4671L41.2815 71.118H40.5527L41.5712 68.0543H42.4495L43.468 71.118H42.721H42.721ZM44.4818 71.0817L43.5946 68.8134H44.3143L44.5633 69.5316C44.6266 69.7164 44.6786 69.8756 44.7194 70.0089C44.7602 70.1422 44.7851 70.2302 44.7942 70.2726L44.8077 70.3362C44.841 70.2149 44.9224 69.9468 45.0522 69.5316L45.2786 68.8134H45.9575L45.1292 71.0499C44.8908 71.6953 44.5271 72.0182 44.0382 72.0182C43.9446 72.0182 43.8602 72.0106 43.7847 71.9954V71.4682C43.833 71.4803 43.8844 71.4863 43.9386 71.4863C44.1891 71.4863 44.3702 71.3515 44.4818 71.0818V71.0817ZM47.6732 68.8134H48.334V71.1181H47.6732V70.7499C47.5524 71.0074 47.3201 71.1363 46.976 71.1363C46.7406 71.1363 46.5573 71.0703 46.426 70.9385C46.2947 70.8067 46.2291 70.612 46.2291 70.3544V68.8134H46.89V70.2044C46.89 70.474 47.0077 70.609 47.2431 70.609C47.5298 70.609 47.6732 70.4165 47.6732 70.0316V68.8134ZM50.3258 68.8816V69.4498C50.1658 69.3559 49.9787 69.3089 49.7645 69.3089C49.686 69.3089 49.6256 69.3248 49.5834 69.3566C49.5412 69.3885 49.52 69.4286 49.52 69.477C49.52 69.5044 49.5276 69.5301 49.5427 69.5543C49.5578 69.5787 49.5827 69.6013 49.6174 69.6225C49.6521 69.6438 49.6853 69.6627 49.717 69.6793C49.7487 69.696 49.7925 69.7164 49.8483 69.7407C49.9041 69.765 49.9486 69.7861 49.9819 69.8044C50.1207 69.8771 50.2323 69.9612 50.3168 70.0566C50.4013 70.1521 50.4435 70.2741 50.4435 70.4226C50.4435 70.6499 50.362 70.8256 50.1991 70.9499C50.0361 71.0741 49.8204 71.1363 49.5518 71.1363C49.2742 71.1363 49.0418 71.0893 48.8547 70.9953V70.4044C49.063 70.5498 49.2833 70.6226 49.5156 70.6226C49.6816 70.6226 49.7646 70.5696 49.7646 70.4635C49.7646 70.4361 49.757 70.4104 49.7419 70.3862C49.7268 70.3619 49.7011 70.3392 49.6649 70.318C49.6287 70.2967 49.5955 70.2794 49.5653 70.2658C49.5351 70.2521 49.4913 70.2331 49.434 70.209C49.3767 70.1846 49.3329 70.165 49.3027 70.1498C48.9979 70.0043 48.8455 69.7861 48.8455 69.4953C48.8455 69.271 48.9309 69.0968 49.1013 68.9725C49.2717 68.8483 49.4838 68.7862 49.7372 68.7862C49.9726 68.7862 50.1689 68.818 50.3257 68.8817L50.3258 68.8816ZM51.5117 67.9043V69.2044C51.6293 68.9286 51.8588 68.7907 52.1998 68.7907C52.4231 68.7907 52.6049 68.8619 52.7453 69.0044C52.8856 69.1468 52.9557 69.3621 52.9557 69.6499V71.1181H52.2949V69.7544C52.2949 69.6211 52.2616 69.5165 52.1952 69.4407C52.1289 69.3649 52.0428 69.3271 51.9372 69.3271C51.892 69.3271 51.849 69.334 51.8082 69.3476C51.7675 69.3612 51.723 69.3854 51.6747 69.4203C51.6265 69.4551 51.5872 69.5143 51.557 69.5976C51.5268 69.6809 51.5118 69.7817 51.5118 69.8998V71.1181H50.8509V67.9043H51.5118H51.5117ZM54.1372 68.8134V69.1726C54.2639 68.918 54.4797 68.7907 54.7845 68.7907C55.1074 68.7907 55.3216 68.9362 55.4273 69.2271C55.4785 69.0907 55.5646 68.9839 55.6853 68.9066C55.8059 68.8293 55.9478 68.7907 56.1108 68.7907C56.3372 68.7907 56.516 68.8627 56.6472 69.0067C56.7785 69.1506 56.8441 69.3621 56.8441 69.6408V71.1182H56.1832V69.7499C56.1832 69.6196 56.1576 69.5165 56.1063 69.4408C56.055 69.365 55.9811 69.3272 55.8844 69.3272C55.7819 69.3272 55.6906 69.3688 55.6106 69.4522C55.5306 69.5355 55.4906 69.6848 55.4906 69.8999V71.1182H54.8298V69.7499C54.8298 69.6196 54.8041 69.5165 54.7528 69.4408C54.7015 69.365 54.6275 69.3272 54.531 69.3272C54.4284 69.3272 54.3371 69.3688 54.2571 69.4522C54.1771 69.5355 54.1372 69.6848 54.1372 69.8999V71.1182H53.4763V68.8135H54.1372L54.1372 68.8134ZM58.5009 70.1726H58.2882C58.1765 70.1726 58.0905 70.1969 58.0302 70.2454C57.9698 70.2938 57.9396 70.3559 57.9396 70.4317C57.9396 70.5862 58.0287 70.6635 58.2067 70.6635C58.3002 70.6635 58.3726 70.6347 58.424 70.5772C58.4752 70.5196 58.5009 70.4408 58.5009 70.3408V70.1727V70.1726ZM57.4281 69.5226V68.9271C57.6091 68.8241 57.8702 68.7725 58.2112 68.7725C58.5371 68.7725 58.78 68.843 58.94 68.9839C59.0999 69.1248 59.1798 69.3438 59.1798 69.6407V71.1181H58.5326V70.8363C58.436 71.0332 58.2459 71.1318 57.9622 71.1318C57.7389 71.1318 57.5647 71.0681 57.4394 70.9409C57.3142 70.8136 57.2516 70.6545 57.2516 70.4636C57.2516 70.2423 57.3323 70.0704 57.4938 69.9476C57.6552 69.8249 57.8943 69.7636 58.2112 69.7636H58.5009V69.6044C58.5009 69.4105 58.3726 69.3135 58.1161 69.3135C57.8687 69.3135 57.6393 69.3832 57.4281 69.5226ZM60.3614 68.8135V69.2044C60.4187 69.0771 60.507 68.9763 60.6262 68.9021C60.7454 68.8279 60.888 68.7908 61.054 68.7908C61.2893 68.7908 61.4735 68.8613 61.6063 69.0022C61.739 69.1431 61.8054 69.35 61.8054 69.6227V71.1183H61.1445V69.7454C61.1445 69.6091 61.1128 69.5053 61.0495 69.4341C60.9861 69.3629 60.897 69.3272 60.7824 69.3272C60.6617 69.3272 60.5613 69.375 60.4814 69.4705C60.4014 69.566 60.3615 69.7091 60.3615 69.9001V71.1183H59.7006V68.8136H60.3615L60.3614 68.8135ZM64.1774 70.559H64.5441C64.8881 70.559 65.0601 70.4408 65.0601 70.2045C65.0601 69.9681 64.8896 69.8498 64.5486 69.8498H64.1774V70.5589L64.1774 70.559ZM64.1774 68.6135V69.2999H64.4354C64.6164 69.2999 64.753 69.2665 64.845 69.1999C64.9371 69.1332 64.9831 69.0453 64.9831 68.9362C64.9831 68.721 64.8382 68.6135 64.5486 68.6135H64.1774H64.1774ZM63.4802 68.0543H64.6662C65.0012 68.0543 65.2562 68.1339 65.4312 68.2929C65.6062 68.4521 65.6938 68.6544 65.6938 68.8998C65.6938 69.0605 65.6516 69.2014 65.567 69.3226C65.4825 69.4437 65.3724 69.5256 65.2366 69.568C65.5897 69.674 65.7662 69.9135 65.7662 70.2862C65.7662 70.5286 65.6794 70.7279 65.5059 70.884C65.3324 71.0401 65.0963 71.1181 64.7975 71.1181H63.4803V68.0543H63.4802ZM66.8571 67.9043V69.2044C66.9747 68.9286 67.2041 68.7907 67.5452 68.7907C67.7685 68.7907 67.9503 68.8619 68.0907 69.0044C68.231 69.1468 68.3011 69.3621 68.3011 69.6499V71.1181H67.6402V69.7544C67.6402 69.6211 67.607 69.5165 67.5406 69.4407C67.4743 69.3649 67.3882 69.3271 67.2826 69.3271C67.2374 69.3271 67.1943 69.334 67.1536 69.3476C67.1129 69.3612 67.0684 69.3854 67.0201 69.4203C66.9719 69.4551 66.9326 69.5143 66.9024 69.5976C66.8722 69.6809 66.8572 69.7817 66.8572 69.8998V71.1181H66.1963V67.9043H66.8572H66.8571ZM69.9579 70.1726H69.7452C69.6336 70.1726 69.5475 70.1969 69.4872 70.2454C69.4268 70.2938 69.3966 70.3559 69.3966 70.4317C69.3966 70.5862 69.4857 70.6635 69.6637 70.6635C69.7572 70.6635 69.8297 70.6347 69.881 70.5772C69.9322 70.5196 69.9579 70.4408 69.9579 70.3408V70.1727V70.1726ZM68.8851 69.5226V68.9271C69.0661 68.8241 69.3272 68.7725 69.6682 68.7725C69.9941 68.7725 70.237 68.843 70.397 68.9839C70.5569 69.1248 70.6368 69.3438 70.6368 69.6407V71.1181H69.9896V70.8363C69.893 71.0332 69.7029 71.1318 69.4192 71.1318C69.1959 71.1318 69.0217 71.0681 68.8964 70.9409C68.7712 70.8136 68.7086 70.6545 68.7086 70.4636C68.7086 70.2423 68.7893 70.0704 68.9508 69.9476C69.1122 69.8249 69.3513 69.7636 69.6682 69.7636H69.9579V69.6044C69.9579 69.4105 69.8297 69.3135 69.5732 69.3135C69.3258 69.3135 69.0963 69.3832 68.8851 69.5226ZM71.8139 68.8135V69.2408C71.8561 69.1074 71.9262 69.0007 72.0244 68.9204C72.1225 68.84 72.2364 68.7999 72.3662 68.7999C72.4386 68.7999 72.4959 68.806 72.5381 68.8181V69.4454C72.4657 69.4121 72.3827 69.3955 72.2892 69.3955C72.1474 69.3955 72.0327 69.4477 71.9451 69.5523C71.8576 69.6568 71.8139 69.7955 71.8139 69.9683V71.1183H71.153L71.1576 68.8136H71.8139V68.8135ZM73.9686 70.1727H73.7558C73.6442 70.1727 73.5581 70.1969 73.4978 70.2454C73.4374 70.2938 73.4072 70.356 73.4072 70.4318C73.4072 70.5863 73.4963 70.6636 73.6743 70.6636C73.7678 70.6636 73.8403 70.6348 73.8916 70.5773C73.9428 70.5197 73.9686 70.4408 73.9686 70.3409V70.1728V70.1727ZM72.8957 69.5226V68.9272C73.0768 68.8242 73.3378 68.7726 73.6788 68.7726C74.0047 68.7726 74.2476 68.8431 74.4076 68.984C74.5675 69.1249 74.6474 69.3439 74.6474 69.6408V71.1182H74.0002V70.8364C73.9036 71.0333 73.7135 71.1319 73.4298 71.1319C73.2065 71.1319 73.0323 71.0682 72.907 70.9409C72.7818 70.8136 72.7192 70.6546 72.7192 70.4636C72.7192 70.2424 72.7999 70.0704 72.9614 69.9477C73.1228 69.8249 73.3619 69.7637 73.6788 69.7637H73.9686V69.6045C73.9686 69.4105 73.8403 69.3136 73.5838 69.3136C73.3364 69.3136 73.107 69.3833 72.8957 69.5226ZM75.9331 69.2999V70.3591C75.9331 70.4408 75.9565 70.503 76.0032 70.5453C76.05 70.5878 76.1111 70.609 76.1866 70.609C76.3073 70.609 76.4145 70.5787 76.5079 70.5181V71.0681C76.3963 71.1166 76.2454 71.1408 76.0553 71.1408C75.5333 71.1408 75.2722 70.8787 75.2722 70.3545V69.2999H74.9418V68.8135H75.2722V68.268H75.9331V68.8135H76.4672V69.2999H75.9331Z" fill="#2B2A29"/>
<path d="M33.3141 77.6147H33.8946C34.4087 77.6147 34.8054 77.4537 35.0846 77.1317C35.3638 76.8097 35.5034 76.3544 35.5034 75.7659C35.5034 75.2662 35.3624 74.8651 35.0804 74.5625C34.7985 74.2601 34.4004 74.1087 33.8863 74.1087H33.3141V77.6147ZM32.0039 73.0512H33.9278C34.7681 73.0512 35.4564 73.3107 35.9927 73.8297C36.5289 74.3488 36.7971 74.9942 36.7971 75.7659C36.7971 76.6653 36.5331 77.3731 36.0051 77.8895C35.4771 78.4057 34.7791 78.6639 33.9112 78.6639H32.0039V73.0511V73.0512ZM37.6678 78.664V74.4419H38.8786V78.664H37.6678ZM37.7756 73.7173C37.6374 73.5786 37.5682 73.412 37.5682 73.2177C37.5682 73.0233 37.6374 72.8567 37.7756 72.718C37.9138 72.5791 38.0796 72.5098 38.2732 72.5098C38.4667 72.5098 38.6326 72.5791 38.7708 72.718C38.909 72.8567 38.9781 73.0232 38.9781 73.2177C38.9781 73.412 38.909 73.5786 38.7708 73.7173C38.6326 73.8561 38.4668 73.9255 38.2732 73.9255C38.0797 73.9255 37.9138 73.8561 37.7756 73.7173ZM41.781 77.5564C42.0408 77.5564 42.244 77.4579 42.3906 77.2608C42.5371 77.0637 42.6103 76.8263 42.6103 76.5488C42.6103 75.7937 42.3367 75.4162 41.7894 75.4162C41.5461 75.4162 41.3554 75.5106 41.2172 75.6994C41.0789 75.8881 41.0098 76.149 41.0098 76.4821C41.0098 76.8319 41.0762 77.0984 41.2089 77.2816C41.3416 77.4647 41.5322 77.5564 41.781 77.5564ZM42.6103 74.4419H43.8128V78.2559C43.8128 78.9332 43.611 79.4426 43.2074 79.784C42.8039 80.1255 42.298 80.2961 41.6898 80.2961C41.0983 80.2961 40.5814 80.1907 40.1391 79.9797V78.7389C40.5261 79.0498 41.0015 79.2053 41.5655 79.2053C41.9304 79.2053 42.1957 79.1275 42.3616 78.972C42.5275 78.8165 42.6103 78.5723 42.6103 78.2392V77.956C42.3671 78.3336 41.98 78.5224 41.4494 78.5224C40.9849 78.5224 40.5855 78.3503 40.251 78.0061C39.9165 77.6619 39.7494 77.1512 39.7494 76.4738C39.7494 75.8742 39.9111 75.3787 40.2345 74.9873C40.5579 74.5959 40.9823 74.4002 41.5074 74.4002C42.0051 74.4002 42.3726 74.6 42.6103 74.9998V74.4419ZM44.8079 78.664V74.4419H46.0187V78.664H44.8079ZM44.9157 73.7173C44.7775 73.5786 44.7083 73.412 44.7083 73.2177C44.7083 73.0233 44.7775 72.8567 44.9157 72.718C45.0539 72.5791 45.2197 72.5098 45.4133 72.5098C45.6068 72.5098 45.7727 72.5791 45.9109 72.718C46.0491 72.8567 46.1182 73.0232 46.1182 73.2177C46.1182 73.412 46.0491 73.5786 45.9109 73.7173C45.7727 73.8561 45.6069 73.9255 45.4133 73.9255C45.2198 73.9255 45.0539 73.8561 44.9157 73.7173ZM48.4567 75.3329V77.2733C48.4567 77.4231 48.4996 77.537 48.5852 77.6147C48.671 77.6925 48.7829 77.7313 48.9211 77.7313C49.1423 77.7313 49.3386 77.6757 49.5099 77.5647V78.5723C49.3053 78.6612 49.0289 78.7056 48.6806 78.7056C47.7241 78.7056 47.2459 78.2253 47.2459 77.2649V75.3328H46.6405V74.4418H47.2459V73.4424H48.4566V74.4418H49.4352V75.3328H48.4566L48.4567 75.3329ZM52.3378 76.9318H51.948C51.7434 76.9318 51.5858 76.9762 51.4753 77.0651C51.3648 77.1539 51.3094 77.2677 51.3094 77.4065C51.3094 77.6897 51.4725 77.8312 51.7987 77.8312C51.97 77.8312 52.1027 77.7785 52.1967 77.6729C52.2908 77.5676 52.3378 77.4231 52.3378 77.2399V76.9318ZM50.3723 75.741V74.6501C50.7041 74.4613 51.1822 74.3669 51.807 74.3669C52.4041 74.3669 52.8491 74.4959 53.1422 74.7541C53.4351 75.0122 53.5816 75.4133 53.5816 75.9575V78.664H52.3958V78.1477C52.2189 78.5086 51.8706 78.689 51.3509 78.689C50.9418 78.689 50.6225 78.5724 50.3931 78.3392C50.1636 78.106 50.0489 77.8146 50.0489 77.4647C50.0489 77.0595 50.1968 76.7444 50.4926 76.5196C50.7884 76.2947 51.2264 76.1823 51.8069 76.1823H52.3377V75.8908C52.3377 75.5354 52.1027 75.3578 51.6328 75.3578C51.1795 75.3578 50.7593 75.4855 50.3723 75.7409V75.741ZM54.5767 78.664V72.7763H55.7875V78.664H54.5767ZM58.8144 78.664L59.2953 73.0512H60.6968L61.4763 75.0831C61.609 75.4217 61.7223 75.7326 61.8164 76.0158C61.9103 76.299 61.9712 76.4989 61.9988 76.6154L62.0402 76.782C62.1286 76.4156 62.3222 75.8493 62.6207 75.0831L63.4085 73.0512H64.8099L65.3904 78.664H64.1133L63.9059 76.4904L63.7982 74.8498C63.6545 75.2662 63.4554 75.8131 63.2012 76.4904L62.4133 78.6056H61.6587L60.8792 76.4904C60.752 76.1461 60.6443 75.8381 60.5557 75.566C60.4673 75.294 60.4093 75.1053 60.3816 74.9997L60.3402 74.8498C60.3402 75.2439 60.3153 75.7909 60.2656 76.4904L60.0914 78.664H58.8144ZM66.3442 78.664V74.4419H67.555V78.664H66.3442ZM66.4519 73.7173C66.3138 73.5786 66.2446 73.412 66.2446 73.2177C66.2446 73.0233 66.3138 72.8567 66.4519 72.718C66.5902 72.5791 66.756 72.5098 66.9495 72.5098C67.1431 72.5098 67.309 72.5791 67.4471 72.718C67.5854 72.8567 67.6545 73.0232 67.6545 73.2177C67.6545 73.412 67.5854 73.5786 67.4471 73.7173C67.309 73.8561 67.1432 73.9255 66.9495 73.9255C66.7561 73.9255 66.5902 73.8561 66.4519 73.7173ZM71.2452 74.5668V75.6076C70.9522 75.4356 70.6095 75.3495 70.2169 75.3495C70.0731 75.3495 69.9625 75.3787 69.8852 75.437C69.8077 75.4953 69.7691 75.5688 69.7691 75.6577C69.7691 75.7076 69.7829 75.7549 69.8105 75.7993C69.8382 75.8437 69.8837 75.8854 69.9473 75.9242C70.0109 75.963 70.0717 75.9977 70.1298 76.0282C70.1878 76.0588 70.268 76.0962 70.3702 76.1406C70.4724 76.185 70.554 76.2239 70.6148 76.2572C70.8692 76.3904 71.0737 76.5445 71.2285 76.7194C71.3833 76.8942 71.4607 77.1177 71.4607 77.3898C71.4607 77.8062 71.3115 78.1282 71.013 78.3558C70.7144 78.5835 70.3191 78.6972 69.8271 78.6972C69.3186 78.6972 68.8928 78.6111 68.55 78.4391V77.3565C68.9315 77.6229 69.335 77.7562 69.7608 77.7562C70.0648 77.7562 70.2169 77.659 70.2169 77.4647C70.2169 77.4147 70.203 77.3675 70.1754 77.3231C70.1477 77.2787 70.1008 77.237 70.0344 77.1982C69.9681 77.1594 69.9073 77.1274 69.852 77.1024C69.7967 77.0774 69.7166 77.0427 69.6115 76.9983C69.5065 76.954 69.4264 76.9178 69.3711 76.8901C68.8127 76.6236 68.5335 76.2239 68.5335 75.6909C68.5335 75.2801 68.6898 74.9609 69.0021 74.7333C69.3144 74.5055 69.7029 74.3918 70.1672 74.3918C70.5986 74.3918 70.9578 74.4501 71.2453 74.5667L71.2452 74.5668ZM74.8608 74.5668V75.6076C74.5678 75.4356 74.2251 75.3495 73.8325 75.3495C73.6888 75.3495 73.5782 75.3787 73.5008 75.437C73.4233 75.4953 73.3847 75.5688 73.3847 75.6577C73.3847 75.7076 73.3986 75.7549 73.4261 75.7993C73.4538 75.8437 73.4994 75.8854 73.563 75.9242C73.6265 75.963 73.6873 75.9977 73.7454 76.0282C73.8034 76.0588 73.8836 76.0962 73.9858 76.1406C74.088 76.185 74.1696 76.2239 74.2304 76.2572C74.4848 76.3904 74.6893 76.5445 74.8442 76.7194C74.999 76.8942 75.0763 77.1177 75.0763 77.3898C75.0763 77.8062 74.9271 78.1282 74.6286 78.3558C74.33 78.5835 73.9347 78.6972 73.4427 78.6972C72.9342 78.6972 72.5084 78.6111 72.1657 78.4391V77.3565C72.5471 77.6229 72.9507 77.7562 73.3764 77.7562C73.6804 77.7562 73.8325 77.659 73.8325 77.4647C73.8325 77.4147 73.8186 77.3675 73.7911 77.3231C73.7633 77.2787 73.7164 77.237 73.65 77.1982C73.5837 77.1594 73.5229 77.1274 73.4677 77.1024C73.4123 77.0774 73.3322 77.0427 73.2272 76.9983C73.1222 76.954 73.042 76.9178 72.9867 76.8901C72.4283 76.6236 72.1492 76.2239 72.1492 75.6909C72.1492 75.2801 72.3054 74.9609 72.6178 74.7333C72.93 74.5055 73.3185 74.3918 73.7829 74.3918C74.2142 74.3918 74.5735 74.4501 74.861 74.5667L74.8608 74.5668ZM75.8642 78.664V74.4419H77.075V78.664H75.8642ZM75.972 73.7173C75.8338 73.5786 75.7646 73.412 75.7646 73.2177C75.7646 73.0233 75.8338 72.8567 75.972 72.718C76.1102 72.5791 76.276 72.5098 76.4696 72.5098C76.6631 72.5098 76.829 72.5791 76.9672 72.718C77.1054 72.8567 77.1745 73.0232 77.1745 73.2177C77.1745 73.412 77.1054 73.5786 76.9672 73.7173C76.829 73.8561 76.6632 73.9255 76.4696 73.9255C76.2761 73.9255 76.1102 73.8561 75.972 73.7173ZM79.9691 78.7306C79.3113 78.7306 78.8026 78.5321 78.4433 78.1351C78.0839 77.7382 77.9042 77.2288 77.9042 76.607C77.9042 75.9575 78.0922 75.4232 78.4681 75.004C78.8441 74.5848 79.3445 74.3752 79.9692 74.3752C80.6215 74.3752 81.1274 74.5779 81.4867 74.9831C81.8462 75.3884 82.0258 75.9047 82.0258 76.5321C82.0258 77.1705 81.8447 77.6966 81.4826 78.1102C81.1204 78.5238 80.616 78.7306 79.9692 78.7306H79.9691ZM79.9608 75.3329C79.6955 75.3329 79.4964 75.4467 79.3638 75.6744C79.2311 75.902 79.1647 76.1962 79.1647 76.5571C79.1647 76.918 79.2324 77.2136 79.3679 77.444C79.5034 77.6745 79.7066 77.7896 79.9774 77.7896C80.2428 77.7896 80.4404 77.6773 80.5704 77.4523C80.7003 77.2275 80.7652 76.9347 80.7652 76.5737C80.7652 75.7465 80.4971 75.333 79.9608 75.333V75.3329ZM84.0243 74.4419V75.158C84.1293 74.9248 84.291 74.7402 84.5094 74.6041C84.7278 74.4682 84.989 74.4002 85.293 74.4002C85.7243 74.4002 86.0615 74.5292 86.3047 74.7874C86.548 75.0455 86.6697 75.4244 86.6697 75.9241V78.6639H85.4589V76.1489C85.4589 75.8991 85.4009 75.709 85.2848 75.5786C85.1687 75.4481 85.0056 75.3829 84.7955 75.3829C84.5744 75.3829 84.3906 75.4703 84.244 75.6452C84.0975 75.82 84.0243 76.0824 84.0243 76.4321V78.664H82.8135V74.4419H84.0243Z" fill="#E14124"/>
<path d="M23.6068 86.44V86.4311C23.6068 86.2261 23.5557 86.0656 23.4544 85.95C23.353 85.8343 23.213 85.7428 23.0365 85.6754C23.0912 85.646 23.1429 85.6109 23.1904 85.5699C23.2385 85.529 23.2801 85.4813 23.3165 85.4272C23.3529 85.373 23.3814 85.3122 23.4033 85.2448C23.4252 85.1774 23.4362 85.0998 23.4362 85.0119V85.0031C23.4362 84.76 23.3465 84.5668 23.1678 84.4232C22.9885 84.2797 22.7419 84.2079 22.4277 84.2079H21.0078V87.2835H22.4626C22.634 87.2835 22.7908 87.2659 22.9322 87.2308C23.073 87.1956 23.194 87.1429 23.2947 87.0726C23.3946 87.0023 23.4719 86.9144 23.5259 86.809C23.5799 86.7035 23.6069 86.5805 23.6069 86.44H23.6068ZM22.7711 85.1262C22.7711 85.2404 22.7274 85.3232 22.6399 85.3744C22.5524 85.4257 22.4342 85.4513 22.2854 85.4513H21.6641V84.8011H22.3292C22.4721 84.8011 22.5814 84.8282 22.6573 84.8824C22.7332 84.9366 22.771 85.0149 22.771 85.1174V85.1262H22.7711ZM22.9417 86.3565C22.9417 86.4707 22.8995 86.5549 22.8148 86.6091C22.7302 86.6633 22.6136 86.6904 22.4648 86.6904H21.6641V86.0138H22.4429C22.6179 86.0138 22.7447 86.0439 22.8235 86.1039C22.9023 86.1639 22.9416 86.2452 22.9416 86.3477V86.3565H22.9417ZM26.2277 87.2836V84.9285H25.5626V86.2393C25.5626 86.3967 25.5254 86.5161 25.451 86.5959C25.3767 86.6765 25.2753 86.7167 25.147 86.7167C25.0187 86.7167 24.9195 86.6765 24.8494 86.5959C24.7795 86.5161 24.7445 86.3967 24.7445 86.2393V84.9285H24.0794V86.4532C24.0794 86.7255 24.1487 86.9394 24.2873 87.0946C24.4258 87.2499 24.6219 87.3275 24.8757 87.3275C24.9603 87.3275 25.0362 87.3172 25.1033 87.2967C25.1704 87.2754 25.2316 87.2476 25.287 87.2124C25.3424 87.1766 25.3927 87.1363 25.438 87.0909C25.4832 87.0448 25.5248 86.9971 25.5627 86.9466V87.2835H26.2278L26.2277 87.2836ZM27.5358 84.6693V84.0762H26.8357V84.6693H27.5358ZM27.5184 87.2836V84.9285H26.8533V87.2836H27.5184ZM28.8397 87.2836V84.0762H28.1746V87.2836H28.8397ZM31.8236 87.2836V84.0762H31.1586V85.2332C31.0799 85.1402 30.9829 85.0589 30.8676 84.9893C30.7524 84.9198 30.6059 84.8847 30.4279 84.8847C30.2879 84.8847 30.1537 84.9111 30.0254 84.9638C29.8971 85.0164 29.784 85.0949 29.6863 85.1988C29.5886 85.3028 29.5098 85.4302 29.4501 85.581C29.3903 85.7319 29.3604 85.9054 29.3604 86.1016V86.1104C29.3604 86.3067 29.3903 86.4803 29.4501 86.6311C29.5098 86.782 29.5894 86.9094 29.6885 87.0134C29.7877 87.1173 29.9015 87.1956 30.0298 87.2484C30.1581 87.3011 30.2909 87.3275 30.4279 87.3275C30.6029 87.3275 30.748 87.2917 30.8632 87.2206C30.9784 87.1495 31.0769 87.0587 31.1586 86.9481V87.2836H31.8236ZM31.1674 86.1104C31.1674 86.2079 31.1521 86.2972 31.1215 86.3778C31.0908 86.4591 31.05 86.5286 30.9989 86.5857C30.9479 86.6436 30.8882 86.6875 30.8196 86.7191C30.751 86.7498 30.6774 86.7651 30.5986 86.7651C30.5199 86.7651 30.4462 86.7497 30.3776 86.7191C30.3091 86.6875 30.2486 86.6436 30.1961 86.5857C30.1436 86.5286 30.102 86.4591 30.0714 86.3778C30.0408 86.2972 30.0255 86.2079 30.0255 86.1104V86.1016C30.0255 86.0013 30.0408 85.9113 30.0714 85.8322C30.102 85.7524 30.1436 85.6835 30.1961 85.6264C30.2486 85.5686 30.3091 85.5246 30.3776 85.4931C30.4462 85.4623 30.5199 85.447 30.5986 85.447C30.6774 85.447 30.751 85.4624 30.8196 85.4931C30.8882 85.5246 30.9479 85.5686 30.9989 85.6264C31.05 85.6835 31.0909 85.7531 31.1215 85.8344C31.1522 85.915 31.1674 86.0043 31.1674 86.1016V86.1104ZM33.1319 84.6693V84.0763H32.4318V84.6693H33.1319ZM33.1145 87.2837V84.9286H32.4494V87.2837H33.1145ZM35.8884 87.2837V85.759C35.8884 85.4866 35.8191 85.2727 35.6805 85.1176C35.542 84.9623 35.3459 84.8847 35.0921 84.8847C35.0075 84.8847 34.9316 84.8949 34.8645 84.9155C34.7974 84.9368 34.7362 84.9645 34.6808 84.9997C34.6254 85.0356 34.5751 85.0759 34.5299 85.1213C34.4846 85.1674 34.443 85.215 34.4052 85.2655V84.9287H33.7401V87.2837H34.4052V85.973C34.4052 85.8155 34.4423 85.6961 34.5167 85.6163C34.5911 85.5358 34.6924 85.4955 34.8207 85.4955C34.9491 85.4955 35.0483 85.5358 35.1183 85.6163C35.1883 85.6961 35.2232 85.8155 35.2232 85.973V87.2837H35.8883L35.8884 87.2837ZM38.8242 86.752V84.9286H38.1592V85.2361C38.0688 85.1365 37.9652 85.0531 37.8486 84.9857C37.7319 84.9184 37.5832 84.8847 37.4023 84.8847C37.2681 84.8847 37.1383 84.9088 37.0129 84.9572C36.8875 85.0055 36.7767 85.0765 36.6804 85.1703C36.5841 85.264 36.5068 85.379 36.4484 85.5152C36.3901 85.6514 36.3609 85.8074 36.3609 85.9831V85.9919C36.3609 86.1677 36.3894 86.3237 36.4463 86.4599C36.5032 86.5961 36.5797 86.7111 36.676 86.8048C36.7723 86.8985 36.8831 86.9696 37.0085 87.0179C37.1339 87.0662 37.2652 87.0904 37.4023 87.0904C37.5802 87.0904 37.7276 87.0568 37.8442 86.9894C37.9609 86.9221 38.0688 86.8283 38.168 86.7082V86.8224C38.168 87.0333 38.1133 87.1929 38.0038 87.3013C37.8945 87.4097 37.726 87.4639 37.4986 87.4639C37.341 87.4639 37.2002 87.4449 37.0763 87.4068C36.9523 87.3688 36.8291 87.316 36.7066 87.2486L36.479 87.7495C36.6278 87.8286 36.7897 87.8895 36.9648 87.9319C37.1397 87.9743 37.3236 87.9956 37.5161 87.9956C37.7348 87.9956 37.9259 87.9721 38.0892 87.9252C38.2526 87.8784 38.3889 87.8052 38.4983 87.7056C38.6076 87.606 38.6893 87.4778 38.7433 87.3211C38.7972 87.1643 38.8242 86.9747 38.8242 86.7521V86.752ZM38.168 85.9919C38.168 86.071 38.1534 86.1442 38.1242 86.2116C38.095 86.279 38.055 86.3368 38.0039 86.3851C37.9529 86.4334 37.8924 86.4708 37.8224 86.4971C37.7523 86.5235 37.6765 86.5366 37.5948 86.5366C37.4315 86.5366 37.2958 86.4868 37.1879 86.3872C37.08 86.2876 37.026 86.1557 37.026 85.9918V85.983C37.026 85.9039 37.0406 85.8306 37.0697 85.7632C37.0989 85.6959 37.139 85.638 37.19 85.5898C37.241 85.5414 37.3009 85.5041 37.3694 85.4778C37.4379 85.4513 37.5131 85.4382 37.5947 85.4382C37.6764 85.4382 37.7523 85.4514 37.8223 85.4778C37.8923 85.5042 37.9528 85.5414 38.0038 85.5898C38.0549 85.638 38.095 85.6959 38.1241 85.7632C38.1534 85.8306 38.1679 85.9039 38.1679 85.983V85.9918L38.168 85.9919ZM43.6241 85.7458V85.737C43.6241 85.5202 43.5847 85.3189 43.5059 85.1329C43.4272 84.9469 43.3156 84.785 43.1712 84.6473C43.0268 84.5097 42.8547 84.4021 42.6549 84.3245C42.4551 84.2468 42.2356 84.208 41.9964 84.208H40.802V87.2837H41.9964C42.2356 87.2837 42.4551 87.2441 42.6549 87.1651C42.8547 87.0859 43.0268 86.9776 43.1712 86.8399C43.3156 86.7022 43.4272 86.5397 43.5059 86.3522C43.5847 86.1647 43.6241 85.9627 43.6241 85.7458ZM42.9196 85.7546C42.9196 85.8923 42.897 86.0168 42.8518 86.128C42.8066 86.2393 42.7439 86.3361 42.6637 86.4181C42.5834 86.5001 42.4865 86.5631 42.3727 86.607C42.259 86.6509 42.1336 86.6729 41.9964 86.6729H41.4758V84.8187H41.9964C42.1336 84.8187 42.259 84.8415 42.3727 84.8869C42.4865 84.9323 42.5834 84.996 42.6637 85.078C42.7439 85.16 42.8066 85.2581 42.8518 85.3724C42.897 85.4866 42.9196 85.6111 42.9196 85.7458V85.7546ZM44.8666 84.6693V84.0763H44.1665V84.6693H44.8666ZM44.8492 87.2837V84.9286H44.1841V87.2837H44.8492ZM47.8331 86.752V84.9286H47.1681V85.2361C47.0776 85.1365 46.9741 85.0531 46.8575 84.9857C46.7408 84.9184 46.5921 84.8847 46.4112 84.8847C46.277 84.8847 46.1472 84.9088 46.0218 84.9572C45.8964 85.0055 45.7856 85.0765 45.6893 85.1703C45.593 85.264 45.5157 85.379 45.4573 85.5152C45.399 85.6514 45.3698 85.8074 45.3698 85.9831V85.9919C45.3698 86.1677 45.3983 86.3237 45.4552 86.4599C45.512 86.5961 45.5886 86.7111 45.6849 86.8048C45.7812 86.8985 45.892 86.9696 46.0174 87.0179C46.1428 87.0662 46.2741 87.0904 46.4112 87.0904C46.5891 87.0904 46.7364 87.0568 46.8531 86.9894C46.9697 86.9221 47.0777 86.8283 47.1768 86.7082V86.8224C47.1768 87.0333 47.1222 87.1929 47.0127 87.3013C46.9034 87.4097 46.7348 87.4639 46.5074 87.4639C46.3499 87.4639 46.2091 87.4449 46.0852 87.4068C45.9612 87.3688 45.8379 87.316 45.7155 87.2486L45.4879 87.7495C45.6367 87.8286 45.7986 87.8895 45.9736 87.9319C46.1486 87.9743 46.3325 87.9956 46.525 87.9956C46.7437 87.9956 46.9348 87.9721 47.098 87.9252C47.2615 87.8784 47.3978 87.8052 47.5072 87.7056C47.6165 87.606 47.6982 87.4778 47.7521 87.3211C47.8061 87.1643 47.8331 86.9747 47.8331 86.7521V86.752ZM47.1768 85.9919C47.1768 86.071 47.1623 86.1442 47.1331 86.2116C47.1039 86.279 47.0638 86.3368 47.0128 86.3851C46.9618 86.4334 46.9013 86.4708 46.8313 86.4971C46.7612 86.5235 46.6854 86.5366 46.6037 86.5366C46.4403 86.5366 46.3046 86.4868 46.1968 86.3872C46.0889 86.2876 46.0348 86.1557 46.0348 85.9918V85.983C46.0348 85.9039 46.0495 85.8306 46.0786 85.7632C46.1078 85.6959 46.1479 85.638 46.1989 85.5898C46.2499 85.5414 46.3097 85.5041 46.3783 85.4778C46.4468 85.4513 46.5219 85.4382 46.6036 85.4382C46.6853 85.4382 46.7611 85.4514 46.8312 85.4778C46.9012 85.5042 46.9617 85.5414 47.0127 85.5898C47.0638 85.638 47.1039 85.6959 47.133 85.7632C47.1623 85.8306 47.1768 85.9039 47.1768 85.983V85.9918L47.1768 85.9919ZM49.1414 84.6693V84.0763H48.4413V84.6693H49.1414ZM49.1239 87.2837V84.9286H48.4588V87.2837H49.1239ZM51.0666 87.187V86.6509C50.9645 86.7066 50.8551 86.7344 50.7384 86.7344C50.5955 86.7344 50.524 86.6582 50.524 86.5059V85.4998H51.0753V84.9286H50.524V84.3266H49.859V84.9286H49.5789V85.4998H49.859V86.6158C49.859 86.7534 49.8758 86.8668 49.9093 86.9562C49.9427 87.0456 49.9895 87.1181 50.0493 87.1738C50.1091 87.2294 50.1806 87.2683 50.2637 87.2901C50.3469 87.3121 50.4394 87.3232 50.5415 87.3232C50.6524 87.3232 50.7502 87.3107 50.8347 87.2858C50.9193 87.2609 50.9967 87.228 51.0667 87.187H51.0666ZM53.5824 87.2837V85.9171C53.5824 85.5979 53.4992 85.3488 53.333 85.1702C53.1667 84.9916 52.9012 84.9022 52.5367 84.9022C52.3384 84.9022 52.1692 84.9198 52.0292 84.9549C51.8892 84.99 51.755 85.0355 51.6267 85.0911L51.7929 85.6007C51.9008 85.5598 52.0037 85.5282 52.1014 85.5062C52.1992 85.4842 52.3122 85.4733 52.4405 85.4733C52.6068 85.4733 52.7322 85.5098 52.8168 85.583C52.9013 85.6563 52.9436 85.7632 52.9436 85.9038V85.9433C52.859 85.914 52.7723 85.8906 52.6833 85.873C52.5943 85.8554 52.4901 85.8466 52.3705 85.8466C52.2305 85.8466 52.1028 85.862 51.9877 85.8927C51.8725 85.9235 51.7733 85.9696 51.6901 86.0311C51.607 86.0927 51.542 86.1703 51.4954 86.2641C51.4487 86.3578 51.4254 86.4691 51.4254 86.598V86.6068C51.4254 86.7239 51.4466 86.8272 51.4888 86.9165C51.5311 87.0058 51.5888 87.0813 51.6616 87.1428C51.7345 87.2043 51.8199 87.2504 51.9176 87.2813C52.0153 87.312 52.1196 87.3273 52.2304 87.3273C52.3937 87.3273 52.5322 87.3002 52.646 87.246C52.7598 87.1919 52.8576 87.1194 52.9392 87.0285V87.2833H53.5824V87.2837ZM52.9523 86.4532C52.9523 86.5762 52.9049 86.6758 52.8101 86.752C52.7153 86.8282 52.5891 86.8662 52.4317 86.8662C52.3238 86.8662 52.2362 86.8413 52.1691 86.7915C52.102 86.7418 52.0686 86.6714 52.0686 86.5806V86.5718C52.0686 86.4664 52.1094 86.3859 52.191 86.3302C52.2727 86.2746 52.385 86.2467 52.5279 86.2467C52.6096 86.2467 52.6862 86.2547 52.7577 86.2709C52.8291 86.287 52.8941 86.3082 52.9524 86.3346V86.4532H52.9523ZM54.8513 87.2837V84.0763H54.1862V87.2837H54.8513ZM59.4498 87.2837V84.208H58.7759V85.4251H57.5334V84.208H56.8596V87.2837H57.5334V86.049H58.7759V87.2837H59.4498ZM62.3025 86.1721V86.1633C62.3025 85.9963 62.2798 85.8359 62.2347 85.6821C62.1895 85.5283 62.1195 85.3921 62.0246 85.2735C61.9298 85.1549 61.811 85.0604 61.668 84.9901C61.5251 84.9198 61.3559 84.8847 61.1606 84.8847C60.9884 84.8847 60.8316 84.9169 60.6902 84.9814C60.5487 85.0458 60.4269 85.1337 60.3248 85.245C60.2227 85.3563 60.1433 85.4866 60.0864 85.636C60.0295 85.7854 60.001 85.9435 60.001 86.1105V86.1193C60.001 86.301 60.0317 86.4657 60.0929 86.6137C60.1542 86.7616 60.2395 86.8897 60.3489 86.9982C60.4582 87.1065 60.588 87.19 60.7382 87.2485C60.8885 87.3071 61.0511 87.3365 61.2261 87.3365C61.4391 87.3365 61.6243 87.2977 61.7818 87.22C61.9394 87.1424 62.0735 87.0348 62.1844 86.8971L61.8037 86.5588C61.7104 86.6438 61.62 86.7052 61.5325 86.7433C61.4449 86.7813 61.3458 86.8004 61.2349 86.8004C61.0861 86.8004 60.9614 86.7616 60.8609 86.684C60.7602 86.6064 60.6939 86.4914 60.6617 86.3391H62.2938C62.2967 86.3068 62.299 86.279 62.3004 86.2556C62.3018 86.2321 62.3025 86.2043 62.3025 86.1721H62.3025ZM61.655 85.9216H60.653C60.6793 85.7693 60.7355 85.6478 60.8214 85.5569C60.9075 85.4661 61.0205 85.4207 61.1606 85.4207C61.3006 85.4207 61.4128 85.4668 61.4974 85.5591C61.5821 85.6514 61.6345 85.7722 61.655 85.9216ZM64.814 87.2837V85.9172C64.814 85.598 64.7308 85.3489 64.5646 85.1703C64.3983 84.9916 64.1328 84.9023 63.7683 84.9023C63.57 84.9023 63.4008 84.9199 63.2608 84.955C63.1208 84.9901 62.9866 85.0356 62.8582 85.0912L63.0245 85.6008C63.1324 85.5598 63.2353 85.5283 63.333 85.5063C63.4308 85.4843 63.5438 85.4733 63.6721 85.4733C63.8384 85.4733 63.9638 85.5099 64.0484 85.5831C64.1329 85.6564 64.1752 85.7633 64.1752 85.9039V85.9434C64.0906 85.9141 64.0039 85.8907 63.9149 85.8731C63.8259 85.8555 63.7217 85.8467 63.6021 85.8467C63.4621 85.8467 63.3344 85.8621 63.2193 85.8928C63.1041 85.9236 63.0049 85.9697 62.9217 86.0312C62.8386 86.0928 62.7736 86.1704 62.727 86.2642C62.6803 86.3579 62.657 86.4692 62.657 86.5981V86.6069C62.657 86.724 62.6782 86.8273 62.7204 86.9166C62.7627 87.0059 62.8204 87.0814 62.8932 87.1429C62.9661 87.2044 63.0515 87.2505 63.1492 87.2813C63.2469 87.3121 63.3512 87.3274 63.462 87.3274C63.6253 87.3274 63.7638 87.3003 63.8776 87.2461C63.9914 87.192 64.0892 87.1195 64.1708 87.0286V87.2834H64.814V87.2837ZM64.1839 86.4533C64.1839 86.5763 64.1365 86.6759 64.0417 86.7521C63.9469 86.8283 63.8207 86.8663 63.6633 86.8663C63.5554 86.8663 63.4678 86.8414 63.4007 86.7916C63.3336 86.7419 63.3002 86.6715 63.3002 86.5807V86.5719C63.3002 86.4664 63.341 86.3859 63.4226 86.3302C63.5043 86.2746 63.6166 86.2468 63.7595 86.2468C63.8412 86.2468 63.9178 86.2548 63.9893 86.271C64.0607 86.2871 64.1257 86.3082 64.184 86.3347V86.4533H64.1839ZM66.0829 87.2837V84.0763H65.4178V87.2837H66.0829ZM68.0255 87.1871V86.651C67.9234 86.7066 67.814 86.7345 67.6974 86.7345C67.5544 86.7345 67.483 86.6583 67.483 86.506V85.4998H68.0343V84.9287H67.483V84.3267H66.8179V84.9287H66.5379V85.4998H66.8179V86.6158C66.8179 86.7535 66.8348 86.8669 66.8682 86.9563C66.9017 87.0457 66.9485 87.1182 67.0082 87.1739C67.0681 87.2295 67.1395 87.2684 67.2226 87.2902C67.3058 87.3122 67.3983 87.3233 67.5005 87.3233C67.6113 87.3233 67.7091 87.3108 67.7936 87.2859C67.8783 87.261 67.9556 87.2281 68.0256 87.1871H68.0255ZM70.6726 87.2837V85.7591C70.6726 85.4867 70.6033 85.2728 70.4647 85.1177C70.3262 84.9624 70.1301 84.8847 69.8763 84.8847C69.7917 84.8847 69.7158 84.895 69.6487 84.9155C69.5816 84.9368 69.5204 84.9646 69.465 84.9998C69.4096 85.0357 69.3593 85.076 69.314 85.1214C69.2688 85.1674 69.2272 85.215 69.1893 85.2656V84.0764H68.5242V87.2838H69.1893V85.9731C69.1893 85.8156 69.2265 85.6962 69.3009 85.6164C69.3752 85.5358 69.4766 85.4956 69.6049 85.4956C69.7333 85.4956 69.8325 85.5358 69.9025 85.6164C69.9725 85.6962 70.0074 85.8156 70.0074 85.9731V87.2838H70.6725L70.6726 87.2837ZM74.9604 87.2837V86.6818H73.2978V86.0359H74.7416V85.434H73.2978V84.8101H74.9385V84.2081H72.6328V87.2837H74.9604ZM77.5594 86.9059L77.17 86.5104C77.0883 86.5866 77.006 86.6474 76.9228 86.6928C76.8397 86.7382 76.7428 86.7609 76.6318 86.7609C76.5414 86.7609 76.4598 86.744 76.3868 86.7104C76.3139 86.6767 76.2512 86.6306 76.1988 86.572C76.1463 86.5134 76.1061 86.4446 76.0785 86.3655C76.0506 86.2863 76.0369 86.2014 76.0369 86.1106V86.1018C76.0369 86.0139 76.0507 85.9313 76.0785 85.8536C76.1062 85.776 76.1455 85.7079 76.1965 85.6493C76.2475 85.5907 76.3074 85.5446 76.3759 85.5109C76.4444 85.4773 76.521 85.4604 76.6056 85.4604C76.7252 85.4604 76.8252 85.4838 76.9054 85.5307C76.9856 85.5775 77.0636 85.6405 77.1394 85.7196L77.5464 85.2803C77.4355 85.1573 77.3072 85.0605 77.1613 84.9903C77.0155 84.9199 76.8318 84.8848 76.61 84.8848C76.4292 84.8848 76.2636 84.9171 76.1134 84.9816C75.9632 85.046 75.8341 85.1338 75.7262 85.2451C75.6183 85.3564 75.5337 85.4868 75.4724 85.6362C75.4112 85.7856 75.3805 85.9437 75.3805 86.1107V86.1195C75.3805 86.2865 75.4112 86.4439 75.4724 86.5918C75.5337 86.7398 75.6183 86.8687 75.7262 86.9785C75.8341 87.0883 75.9632 87.1755 76.1134 87.2399C76.2636 87.3044 76.4262 87.3366 76.6012 87.3366C76.8346 87.3366 77.0243 87.2964 77.17 87.2158C77.3159 87.1352 77.4457 87.032 77.5594 86.9061V86.9059ZM80.4165 86.1106V86.1018C80.4165 85.932 80.3844 85.773 80.3202 85.6251C80.256 85.4772 80.1678 85.3483 80.0555 85.2385C79.9432 85.1286 79.8098 85.0422 79.6551 84.9792C79.5005 84.9163 79.3328 84.8847 79.152 84.8847C78.9683 84.8847 78.799 84.917 78.6445 84.9815C78.4899 85.0459 78.3557 85.1338 78.242 85.2451C78.1283 85.3564 78.0393 85.486 77.975 85.6339C77.9109 85.7818 77.8788 85.9407 77.8788 86.1106V86.1194C77.8788 86.2893 77.9109 86.4482 77.975 86.5961C78.0393 86.7441 78.1275 86.873 78.2398 86.9828C78.3521 87.0927 78.4855 87.1791 78.6401 87.242C78.7947 87.305 78.9625 87.3365 79.1433 87.3365C79.327 87.3365 79.4962 87.3043 79.6507 87.2398C79.8054 87.1754 79.9396 87.0874 80.0533 86.9762C80.167 86.8649 80.256 86.7353 80.3202 86.5873C80.3844 86.4394 80.4165 86.2806 80.4165 86.1106ZM79.7602 86.1194C79.7602 86.2073 79.7464 86.29 79.7186 86.3677C79.6909 86.4453 79.6508 86.5134 79.5984 86.572C79.5459 86.6306 79.4825 86.6766 79.408 86.7104C79.3337 86.744 79.2483 86.7609 79.1521 86.7609C79.0587 86.7609 78.9749 86.7433 78.9005 86.7082C78.8261 86.673 78.7613 86.6254 78.7058 86.5653C78.6504 86.5053 78.6081 86.4365 78.5789 86.3589C78.5498 86.2812 78.5352 86.1985 78.5352 86.1106V86.1018C78.5352 86.0139 78.5491 85.9313 78.5768 85.8536C78.6045 85.776 78.6446 85.7079 78.6971 85.6493C78.7495 85.5907 78.813 85.5446 78.8874 85.5109C78.9618 85.4773 79.0472 85.4604 79.1433 85.4604C79.2338 85.4604 79.3169 85.478 79.3927 85.5131C79.4686 85.5482 79.5342 85.5959 79.5896 85.6559C79.645 85.716 79.6873 85.7848 79.7165 85.8624C79.7456 85.9401 79.7602 86.0228 79.7602 86.1106V86.1194ZM82.6173 86.5676V86.5588C82.6173 86.4504 82.5954 86.3581 82.5516 86.2819C82.508 86.2058 82.4524 86.1413 82.3853 86.0887C82.3182 86.0359 82.2424 85.9912 82.1578 85.9546C82.0732 85.9181 81.9901 85.8866 81.9084 85.8601C81.8443 85.8396 81.7837 85.8192 81.7268 85.7986C81.67 85.7781 81.6197 85.7569 81.5759 85.7349C81.5322 85.7129 81.4971 85.6896 81.4709 85.6646C81.4446 85.6397 81.4315 85.6111 81.4315 85.5789V85.5701C81.4315 85.5233 81.452 85.4844 81.4928 85.4537C81.5336 85.4229 81.5949 85.4076 81.6766 85.4076C81.7612 85.4076 81.8589 85.4274 81.9697 85.4669C82.0806 85.5064 82.1944 85.5599 82.3111 85.6273L82.5648 85.166C82.4365 85.081 82.2957 85.0144 82.1425 84.966C81.9894 84.9177 81.8385 84.8935 81.6897 84.8935C81.5701 84.8935 81.4585 84.9097 81.355 84.9419C81.2515 84.9741 81.161 85.0224 81.0837 85.0869C81.0064 85.1513 80.9452 85.2297 80.9 85.3219C80.8548 85.4142 80.8322 85.5203 80.8322 85.6404V85.6492C80.8322 85.7634 80.8533 85.8602 80.8956 85.9392C80.9378 86.0183 80.9927 86.085 81.0597 86.1392C81.1268 86.1933 81.2019 86.2374 81.2851 86.271C81.3682 86.3046 81.4507 86.3332 81.5323 86.3567C81.5964 86.3772 81.6577 86.3962 81.716 86.4138C81.7743 86.4314 81.826 86.4496 81.8714 86.4687C81.9166 86.4877 81.9523 86.5104 81.9785 86.5368C82.0048 86.5632 82.0178 86.5939 82.0178 86.6291V86.6379C82.0178 86.6906 81.9952 86.7331 81.95 86.7653C81.9049 86.7975 81.8341 86.8136 81.7378 86.8136C81.627 86.8136 81.5081 86.7901 81.3812 86.7433C81.2543 86.6965 81.1267 86.6262 80.9984 86.5324L80.7139 86.9717C80.8715 87.0947 81.037 87.1848 81.2106 87.242C81.3841 87.299 81.5541 87.3277 81.7203 87.3277C81.8457 87.3277 81.9631 87.3122 82.0725 87.2816C82.1819 87.2508 82.2774 87.2046 82.3591 87.1431C82.4409 87.0816 82.5043 87.0033 82.5495 86.9081C82.5947 86.8128 82.6173 86.6994 82.6173 86.5676ZM85.3256 84.9287H84.6343L84.1224 86.5324L83.5886 84.9287H82.8842L83.803 87.2925C83.7738 87.3511 83.7425 87.3914 83.7088 87.4134C83.6754 87.4354 83.6294 87.4463 83.5711 87.4463C83.5273 87.4463 83.4798 87.4375 83.4288 87.4199C83.3778 87.4023 83.3304 87.3804 83.2866 87.3541L83.0635 87.8374C83.148 87.8871 83.237 87.9268 83.3304 87.956C83.4237 87.9853 83.5316 87.9999 83.6541 87.9999C83.7533 87.9999 83.8408 87.9881 83.9167 87.9648C83.9925 87.9413 84.0603 87.9033 84.1201 87.8506C84.1799 87.7978 84.2346 87.7297 84.2842 87.6463C84.3338 87.5628 84.3805 87.461 84.4242 87.3409L85.3255 84.9288L85.3256 84.9287ZM87.4389 86.5676V86.5588C87.4389 86.4504 87.417 86.3581 87.3732 86.2819C87.3296 86.2058 87.274 86.1413 87.2069 86.0887C87.1399 86.0359 87.064 85.9912 86.9794 85.9546C86.8948 85.9181 86.8117 85.8866 86.7301 85.8601C86.6659 85.8396 86.6054 85.8192 86.5485 85.7986C86.4916 85.7781 86.4413 85.7569 86.3975 85.7349C86.3538 85.7129 86.3187 85.6896 86.2925 85.6646C86.2662 85.6397 86.2532 85.6111 86.2532 85.5789V85.5701C86.2532 85.5233 86.2736 85.4844 86.3144 85.4537C86.3552 85.4229 86.4165 85.4076 86.4982 85.4076C86.5828 85.4076 86.6805 85.4274 86.7913 85.4669C86.9022 85.5064 87.016 85.5599 87.1327 85.6273L87.3864 85.166C87.2581 85.081 87.1173 85.0144 86.9642 84.966C86.811 84.9177 86.6601 84.8935 86.5113 84.8935C86.3917 84.8935 86.2801 84.9097 86.1766 84.9419C86.0731 84.9741 85.9826 85.0224 85.9053 85.0869C85.8281 85.1513 85.7668 85.2297 85.7216 85.3219C85.6764 85.4142 85.6538 85.5203 85.6538 85.6404V85.6492C85.6538 85.7634 85.6749 85.8602 85.7172 85.9392C85.7594 86.0183 85.8143 86.085 85.8813 86.1392C85.9484 86.1933 86.0235 86.2374 86.1067 86.271C86.1898 86.3046 86.2723 86.3332 86.3539 86.3567C86.418 86.3772 86.4793 86.3962 86.5376 86.4138C86.5959 86.4314 86.6477 86.4496 86.693 86.4687C86.7382 86.4877 86.774 86.5104 86.8001 86.5368C86.8264 86.5632 86.8395 86.5939 86.8395 86.6291V86.6379C86.8395 86.6906 86.8168 86.7331 86.7716 86.7653C86.7265 86.7975 86.6557 86.8136 86.5595 86.8136C86.4486 86.8136 86.3297 86.7901 86.2028 86.7433C86.0759 86.6965 85.9483 86.6262 85.82 86.5324L85.5355 86.9717C85.6932 87.0947 85.8586 87.1848 86.0322 87.242C86.2057 87.299 86.3757 87.3277 86.5419 87.3277C86.6673 87.3277 86.7847 87.3122 86.8941 87.2816C87.0035 87.2508 87.0991 87.2046 87.1807 87.1431C87.2625 87.0816 87.3259 87.0033 87.3711 86.9081C87.4163 86.8128 87.4389 86.6994 87.4389 86.5676ZM89.2328 87.1872V86.651C89.1307 86.7067 89.0213 86.7346 88.9046 86.7346C88.7617 86.7346 88.6902 86.6584 88.6902 86.506V85.4999H89.2415V84.9288H88.6902V84.3268H88.0252V84.9288H87.7451V85.4999H88.0252V86.6159C88.0252 86.7535 88.042 86.867 88.0755 86.9564C88.1089 87.0458 88.1557 87.1183 88.2155 87.1739C88.2753 87.2296 88.3468 87.2684 88.4299 87.2903C88.5131 87.3123 88.6056 87.3233 88.7078 87.3233C88.8186 87.3233 88.9164 87.3109 89.0009 87.286C89.0855 87.2611 89.1629 87.2282 89.2328 87.1872H89.2328ZM91.9192 86.1721V86.1633C91.9192 85.9963 91.8966 85.836 91.8514 85.6822C91.8063 85.5284 91.7363 85.3922 91.6414 85.2735C91.5466 85.155 91.4278 85.0605 91.2848 84.9902C91.1419 84.9199 90.9727 84.8847 90.7773 84.8847C90.6052 84.8847 90.4484 84.917 90.307 84.9815C90.1655 85.0459 90.0437 85.1338 89.9415 85.2451C89.8395 85.3564 89.76 85.4867 89.7031 85.6361C89.6462 85.7855 89.6178 85.9436 89.6178 86.1106V86.1194C89.6178 86.301 89.6485 86.4658 89.7097 86.6138C89.7709 86.7617 89.8563 86.8898 89.9657 86.9982C90.075 87.1066 90.2048 87.19 90.355 87.2486C90.5053 87.3072 90.6678 87.3365 90.8429 87.3365C91.0559 87.3365 91.2411 87.2977 91.3986 87.2201C91.5561 87.1425 91.6903 87.0349 91.8011 86.8972L91.4205 86.5589C91.3271 86.6438 91.2368 86.7053 91.1493 86.7434C91.0617 86.7814 90.9626 86.8005 90.8517 86.8005C90.7029 86.8005 90.5782 86.7617 90.4776 86.6841C90.377 86.6065 90.3107 86.4915 90.2785 86.3391H91.9106C91.9135 86.3069 91.9157 86.2791 91.9172 86.2557C91.9186 86.2321 91.9193 86.2044 91.9193 86.1721H91.9192ZM91.2718 85.9217H90.2698C90.2961 85.7694 90.3522 85.6479 90.4382 85.557C90.5243 85.4661 90.6372 85.4208 90.7773 85.4208C90.9173 85.4208 91.0296 85.4669 91.1142 85.5592C91.1988 85.6515 91.2513 85.7723 91.2718 85.9217ZM95.9927 87.2838V85.7504C95.9927 85.4662 95.9227 85.2509 95.7827 85.1045C95.6427 84.958 95.4487 84.8848 95.2008 84.8848C95.0403 84.8848 94.8974 84.9164 94.7719 84.98C94.6465 85.0437 94.5328 85.1368 94.4306 85.2613C94.3694 85.1398 94.2826 85.0474 94.1703 84.9823C94.0581 84.9171 93.9246 84.8848 93.77 84.8848C93.6854 84.8848 93.6088 84.8951 93.5403 84.9156C93.4717 84.9369 93.4098 84.9647 93.3543 84.9999C93.2989 85.0357 93.2486 85.0761 93.2034 85.1214C93.1581 85.1675 93.1165 85.2151 93.0787 85.2657V84.9288H92.4136V87.2839H93.0787V85.9731C93.0787 85.8157 93.1144 85.6963 93.1859 85.6165C93.2573 85.5359 93.3557 85.4957 93.4812 85.4957C93.6066 85.4957 93.7029 85.5359 93.77 85.6165C93.8371 85.6963 93.8706 85.8157 93.8706 85.9731V87.2839H94.5357V85.9731C94.5357 85.8157 94.5714 85.6963 94.6428 85.6165C94.7143 85.5359 94.8127 85.4957 94.9382 85.4957C95.0636 85.4957 95.1599 85.5359 95.227 85.6165C95.2941 85.6963 95.3275 85.8157 95.3275 85.9731V87.2839H95.9926L95.9927 87.2838Z" fill="#29298C"/>
</g>
<defs>
<clipPath id="clip0_11386_107148">
<rect width="95" height="88" fill="white" transform="translate(11)"/>
</clipPath>
</defs>
</svg>
