<svg width="95" height="88" viewBox="0 0 95 88" fill="none" xmlns="http://www.w3.org/2000/svg">
<g clip-path="url(#clip0_10421_94601)">
<path d="M47.4993 0.255859C58.6678 0.255859 68.9311 4.14805 77.0181 10.6548L76.294 11.382C68.3949 5.05816 58.3869 1.278 47.4993 1.278C36.6118 1.278 26.604 5.05816 18.7049 11.3819L17.9808 10.6548C26.0678 4.14813 36.3309 0.255859 47.4993 0.255859ZM84.3895 18.0572C90.869 26.1783 94.7448 36.4846 94.7448 47.7002C94.7448 58.9158 90.869 69.2221 84.3896 77.3431L83.6655 76.6159C89.9628 68.6835 93.727 58.6336 93.727 47.7002C93.727 36.7669 89.9626 26.7168 83.6654 18.7844L84.3895 18.0572ZM10.6092 77.3431C4.12978 69.2221 0.253906 58.9155 0.253906 47.7001C0.253906 36.4846 4.12986 26.1782 10.6093 18.0572L11.3334 18.7843C5.03608 26.7166 1.27168 36.7667 1.27168 47.7001C1.27168 58.6335 5.03616 68.6835 11.3334 76.6159L10.6092 77.3431ZM47.4993 8.22723C56.4745 8.22723 64.7471 11.2483 71.3639 16.3326L70.6375 17.0621C64.2101 12.1595 56.1932 9.24929 47.4993 9.24929C38.8054 9.24929 30.7884 12.1595 24.3612 17.062L23.6349 16.3326C30.2517 11.2483 38.5243 8.22723 47.4993 8.22723ZM78.7353 23.7351C83.7984 30.3799 86.8067 38.6872 86.8067 47.7001C86.8067 56.713 83.7984 65.0204 78.7355 71.665L78.009 70.9356C82.891 64.4812 85.789 56.4307 85.789 47.7001C85.789 38.9695 82.8909 30.919 78.0089 24.4646L78.7353 23.7351ZM16.2633 71.6652C11.2003 65.0205 8.19194 56.7131 8.19194 47.7002C8.19194 38.6872 11.2004 30.3799 16.2634 23.7352L16.9897 24.4645C12.1077 30.9189 9.20972 38.9696 9.20972 47.7002C9.20972 56.4308 12.1078 64.4814 16.9897 70.9358L16.2633 71.6652ZM47.4993 16.5052C54.1955 16.5052 60.3968 18.633 65.4695 22.2519L64.7391 22.9854C59.8591 19.5462 53.914 17.5272 47.4993 17.5272C41.0847 17.5272 35.1399 19.5462 30.2597 22.9853L29.5292 22.2518C34.6018 18.6329 40.8031 16.5052 47.4993 16.5052ZM72.8409 29.6544C76.4445 34.7485 78.5634 40.9757 78.5634 47.7002C78.5634 54.4245 76.4445 60.6519 72.841 65.7459L72.1106 65.0124C75.5352 60.1119 77.5458 54.142 77.5458 47.7002C77.5458 41.2585 75.5352 35.2885 72.1104 30.3879L72.8409 29.6544ZM22.1577 65.746C18.554 60.652 16.4352 54.4246 16.4352 47.7002C16.4352 40.9757 18.554 34.7484 22.1577 29.6543L22.8881 30.3878C19.4635 35.2885 17.4529 41.2584 17.4529 47.7002C17.4529 54.142 19.4634 60.1119 22.8881 65.0126L22.1577 65.746Z" fill="#2B2A29"/>
<path d="M77.1987 10.8352L76.8388 10.4737L76.8597 10.8538L76.0992 10.2547L75.3264 9.67118L74.5414 9.10322L73.7443 8.55118L72.9355 8.01546L72.1152 7.49607L71.2835 6.99341L70.4409 6.50746L69.5874 6.03872L68.7233 5.58719L67.8489 5.15334L66.9642 4.73717L66.0697 4.33916L65.1656 3.9594L64.252 3.59805L63.3292 3.25549L62.3974 2.9319L61.457 2.62752L60.5079 2.3425L59.5505 2.07716L58.5852 1.83167L57.6119 1.60642L56.6311 1.40142L55.643 1.21698L54.6477 1.05342L53.6455 0.910914L52.6366 0.789688L51.6212 0.689987L50.5996 0.61197L49.5721 0.556038L48.5387 0.522271L47.4999 0.510989V0L48.5497 0.0114424L49.5941 0.0455297L50.6326 0.102102L51.6652 0.180918L52.6914 0.28166L53.7113 0.404166L54.7243 0.548277L55.7305 0.713592L56.7295 0.899951L57.7209 1.1072L58.7047 1.335L59.6806 1.58306L60.6484 1.85127L61.6078 2.1395L62.5586 2.44724L63.5006 2.77435L64.4335 3.12058L65.3571 3.48594L66.2709 3.86986L67.1752 4.27219L68.0694 4.69284L68.9534 5.13141L69.8269 5.58775L70.6897 6.06161L71.5414 6.55283L72.382 7.06094L73.2113 7.58593L74.0289 8.12757L74.8345 8.68553L75.628 9.25949L76.4092 9.84945L77.1777 10.4549L77.1986 10.835L77.1987 10.8352ZM77.1778 10.4551C77.2874 10.5434 77.3052 10.7042 77.2173 10.8143C77.1294 10.9243 76.9692 10.9422 76.8596 10.8539L77.1777 10.4551H77.1778ZM76.1146 11.201L76.8388 10.4738L77.1987 10.8353L76.4746 11.5625L76.136 11.5816L76.1146 11.2011V11.201ZM76.4746 11.5625C76.3752 11.6622 76.214 11.6622 76.1146 11.5625C76.0153 11.4627 76.0153 11.3008 76.1146 11.201L76.4746 11.5625ZM47.5 1.53329V1.0223L48.5236 1.03342L49.5419 1.06663L50.5545 1.12152L51.5612 1.19809L52.5619 1.29604L53.5562 1.4151L54.5441 1.55497L55.5252 1.71564L56.4993 1.89672L57.4662 2.09805L58.4257 2.31937L59.3775 2.56038L60.3214 2.821L61.2572 3.1009L62.1846 3.39992L63.1034 3.71775L64.0135 4.0543L64.9144 4.40918L65.8062 4.78222L66.6885 5.17326L67.5611 5.58199L68.4237 6.00824L69.2761 6.45169L70.1182 6.91211L70.9496 7.38949L71.7702 7.88344L72.5797 8.39363L73.378 8.91998L74.1647 9.46225L74.9396 10.0202L75.7026 10.5935L76.4534 11.1821L76.1361 11.5817L75.3935 10.9995L74.6389 10.4324L73.8724 9.8805L73.0943 9.34415L72.3048 8.82356L71.5041 8.31897L70.6925 7.83047L69.8702 7.35837L69.0373 6.90291L68.1943 6.46442L67.3411 6.04281L66.4783 5.63856L65.6057 5.25184L64.7237 4.88296L63.8327 4.53192L62.9326 4.19921L62.024 3.88491L61.1068 3.58908L60.1813 3.31222L59.2478 3.05449L58.3065 2.8162L57.3577 2.59727L56.4014 2.39819L55.4379 2.21919L54.4677 2.06028L53.4906 1.92185L52.5071 1.80406L51.5173 1.70724L50.5215 1.63147L49.5199 1.57722L48.5127 1.54433L47.5001 1.53337L47.5 1.53329ZM47.5 1.53329C47.3595 1.53329 47.2456 1.41886 47.2456 1.27779C47.2456 1.13672 47.3595 1.0223 47.5 1.0223V1.53329ZM18.5256 11.5624L18.8856 11.2009L18.547 11.1818L19.2978 10.5933L20.0608 10.02L20.8357 9.46201L21.6224 8.91974L22.4206 8.39338L23.23 7.8832L24.0508 7.38925L24.8822 6.91195L25.7242 6.45145L26.5766 6.008L27.4391 5.58175L28.3117 5.17302L29.1941 4.78206L30.0858 4.40902L30.9868 4.05414L31.8969 3.71759L32.8157 3.39968L33.7431 3.10074L34.6789 2.82084L35.6227 2.56022L36.5745 2.31913L37.5341 2.09789L38.501 1.89656L39.475 1.71548L40.4561 1.55481L41.4439 1.41486L42.4383 1.29588L43.439 1.19793L44.4457 1.12136L45.4583 1.06639L46.4766 1.03326L47.5002 1.02214V1.53313L46.4876 1.54409L45.4803 1.5769L44.4787 1.63123L43.483 1.707L42.4931 1.80382L41.5097 1.92153L40.5327 2.06004L39.5624 2.21895L38.5989 2.39795L37.6427 2.59703L36.6938 2.81588L35.7525 3.05425L34.819 3.31198L33.8936 3.58884L32.9764 3.88459L32.0678 4.19897L31.1677 4.53168L30.2766 4.88272L29.3947 5.2516L28.5221 5.63824L27.6592 6.04249L26.8061 6.4641L25.963 6.90259L25.1302 7.35813L24.3079 7.83015L23.4963 8.31865L22.6956 8.82324L21.9061 9.34383L21.128 9.88018L20.3615 10.4321L19.6069 10.9992L18.8643 11.5813L18.5257 11.5622L18.5256 11.5624ZM18.8642 11.5815C18.7544 11.6694 18.5942 11.6513 18.5066 11.541C18.419 11.4308 18.4371 11.2698 18.5469 11.1819L18.8641 11.5815H18.8642ZM18.1615 10.4739L18.8856 11.201L18.5256 11.5625L17.8016 10.8353L17.8225 10.4553L18.1615 10.474V10.4739ZM17.8016 10.8353C17.7022 10.7356 17.7022 10.5737 17.8016 10.4739C17.9009 10.3741 18.0621 10.3741 18.1615 10.4739L17.8016 10.8353ZM47.5 0.000240051V0.511229L46.4612 0.522511L45.4279 0.556278L44.4003 0.61221L43.3788 0.690227L42.3633 0.789928L41.3545 0.911154L40.3523 1.05366L39.357 1.2173L38.3689 1.40166L37.3881 1.60666L36.415 1.83199L35.4495 2.07748L34.4922 2.34282L33.5431 2.62776L32.6026 2.93214L31.6709 3.25573L30.7481 3.59837L29.8345 3.95964L28.9304 4.3394L28.0359 4.73749L27.1513 5.15358L26.2768 5.58751L25.4128 6.03896L24.5592 6.50778L23.7166 6.99365L22.8849 7.49639L22.0646 8.01579L21.2559 8.5515L20.4588 9.10346L19.6738 9.67142L18.901 10.255L18.1405 10.8541L17.8224 10.4553L18.5909 9.84977L19.3721 9.25981L20.1656 8.68585L20.9712 8.12797L21.7888 7.58633L22.618 7.06134L23.4587 6.55315L24.3104 6.06201L25.1732 5.58807L26.0466 5.13181L26.9306 4.69316L27.8248 4.27259L28.729 3.87018L29.643 3.48626L30.5666 3.12098L31.4994 2.77467L32.4413 2.44756L33.3922 2.13982L34.3516 1.85167L35.3193 1.58346L36.2952 1.3354L37.279 1.10752L38.2705 0.900271L39.2695 0.713992L40.2755 0.548597L41.2886 0.404486L42.3084 0.28198L43.3347 0.181239L44.3673 0.102422L45.4057 0.0458498L46.4501 0.0117625L47.4999 0.000320068L47.5 0.000240051ZM47.5 0.000240051C47.6405 0.000240051 47.7544 0.114664 47.7544 0.255734C47.7544 0.396804 47.6405 0.511229 47.5 0.511229V0.000240051ZM94.9999 47.7001H94.491L94.4798 46.6569L94.4462 45.6192L94.3905 44.5873L94.3128 43.5614L94.2135 42.5417L94.0928 41.5286L93.9509 40.5221L93.788 39.5226L93.6043 38.5304L93.4003 37.5455L93.1759 36.5683L92.9314 35.5988L92.6672 34.6373L92.3835 33.6843L92.0803 32.7398L91.7581 31.8041L91.4169 30.8774L91.0572 29.9601L90.679 29.0522L90.2826 28.1538L89.8682 27.2655L89.4361 26.3874L88.9866 25.5197L88.5198 24.6625L88.0359 23.8163L87.5353 22.9812L87.0181 22.1574L86.4846 21.3453L85.9349 20.5448L85.3693 19.7565L84.7882 18.9805L84.1916 18.2168L84.5888 17.8973L85.1917 18.6691L85.7792 19.4536L86.3508 20.2504L86.9064 21.0594L87.4457 21.8804L87.9685 22.7132L88.4745 23.5573L88.9637 24.4126L89.4356 25.2791L89.8899 26.1562L90.3267 27.0439L90.7455 27.9419L91.1462 28.8499L91.5285 29.7677L91.8923 30.6952L92.2372 31.6319L92.5629 32.5779L92.8694 33.5327L93.1563 34.4961L93.4234 35.468L93.6704 36.448L93.8973 37.436L94.1036 38.4316L94.2892 39.4347L94.4538 40.4451L94.5973 41.4624L94.7193 42.4866L94.8196 43.5172L94.8981 44.5541L94.9545 45.597L94.9884 46.6458L94.9998 47.7L94.9999 47.7001ZM94.9999 47.7001C94.9999 47.8411 94.8859 47.9556 94.7455 47.9556C94.605 47.9556 94.491 47.8411 94.491 47.7001H94.9999ZM84.2104 77.5237L84.5703 77.1622L84.1918 77.1832L84.7884 76.4195L85.3695 75.6435L85.9351 74.8552L86.4847 74.0548L87.0182 73.2426L87.5354 72.4188L88.036 71.5837L88.5199 70.7375L88.9866 69.8804L89.4363 69.0127L89.8683 68.1346L90.2827 67.2462L90.6791 66.3479L91.0572 65.44L91.417 64.5226L91.7582 63.5959L92.0804 62.6602L92.3835 61.7158L92.6673 60.7628L92.9315 59.8013L93.176 58.8318L93.4004 57.8545L93.6044 56.8696L93.7881 55.8774L93.951 54.8779L94.0929 53.8715L94.2136 52.8584L94.3129 51.8386L94.3906 50.8127L94.4463 49.7808L94.4799 48.7432L94.4911 47.7H95L94.9886 48.7542L94.9546 49.803L94.8983 50.8459L94.8198 51.8828L94.7195 52.9134L94.5975 53.9375L94.454 54.9549L94.2894 55.9653L94.1038 56.9684L93.8975 57.964L93.6706 58.952L93.4235 59.9319L93.1564 60.9038L92.8695 61.8672L92.5631 62.8221L92.2373 63.768L91.8925 64.7048L91.5287 65.6323L91.1464 66.5501L90.7457 67.4581L90.3269 68.3561L89.8901 69.2438L89.4357 70.1209L88.9638 70.9873L88.4748 71.8426L87.9687 72.6868L87.4459 73.5196L86.9065 74.3405L86.351 75.1496L85.7794 75.9464L85.192 76.7309L84.589 77.5026L84.2105 77.5236L84.2104 77.5237ZM84.5888 77.5027C84.501 77.6127 84.3408 77.6306 84.2312 77.5423C84.1216 77.4541 84.1038 77.2932 84.1917 77.1831L84.5888 77.5026V77.5027ZM83.8461 76.4351L84.5702 77.1622L84.2103 77.5237L83.4861 76.7965L83.4671 76.4565L83.846 76.4351H83.8461ZM83.4861 76.7965C83.3868 76.6967 83.3868 76.5348 83.4861 76.4351C83.5855 76.3353 83.7467 76.3353 83.8461 76.4351L83.4861 76.7965ZM93.4732 47.7001H93.982L93.971 48.728L93.938 49.7505L93.8832 50.7674L93.807 51.7784L93.7094 52.7832L93.591 53.7818L93.4516 54.7738L93.2916 55.759L93.1113 56.7371L92.9108 57.7081L92.6905 58.6718L92.4504 59.6276L92.1909 60.5754L91.9121 61.5151L91.6144 62.4464L91.2979 63.3691L90.9627 64.283L90.6094 65.1877L90.2379 66.0833L89.8485 66.9693L89.4415 67.8456L89.0171 68.7117L88.5755 69.5678L88.1169 70.4133L87.6416 71.2483L87.1497 72.0724L86.6417 72.8853L86.1175 73.6869L85.5775 74.4768L85.0219 75.255L84.451 76.0213L83.8649 76.7752L83.467 76.4567L84.0467 75.7109L84.6115 74.9531L85.161 74.1833L85.6951 73.402L86.2136 72.6092L86.716 71.8051L87.2025 70.9901L87.6725 70.1643L88.1262 69.3279L88.5628 68.4814L88.9827 67.6246L89.3852 66.7581L89.7702 65.8819L90.1376 64.9962L90.4871 64.1014L90.8184 63.1975L91.1315 62.2851L91.426 61.364L91.7017 60.4347L91.9584 59.4973L92.1957 58.5521L92.4137 57.5991L92.6119 56.6388L92.7902 55.6714L92.9484 54.6969L93.0863 53.7158L93.2035 52.7283L93.3 51.7343L93.3754 50.7343L93.4295 49.7285L93.4622 48.717L93.4731 47.7001L93.4732 47.7001ZM93.4732 47.7001C93.4732 47.559 93.5871 47.4446 93.7276 47.4446C93.8681 47.4446 93.982 47.559 93.982 47.7001H93.4732ZM83.4861 18.6036L83.846 18.9651L83.865 18.6251L84.4511 19.379L85.022 20.1452L85.5776 20.9234L86.1176 21.7134L86.6418 22.515L87.1498 23.3279L87.6417 24.152L88.1171 24.9869L88.5756 25.8325L89.0172 26.6886L89.4416 27.5547L89.8486 28.431L90.238 29.317L90.6095 30.2125L90.9629 31.1173L91.298 32.0312L91.6145 32.9539L91.9123 33.8852L92.191 34.8249L92.4505 35.7727L92.6906 36.7286L92.9109 37.6922L93.1114 38.6632L93.2917 39.6413L93.4518 40.6266L93.591 41.6185L93.7096 42.6171L93.8071 43.6219L93.8834 44.6329L93.938 45.6498L93.9711 46.6723L93.9822 47.7002H93.4733L93.4624 46.6834L93.4297 45.6719L93.3757 44.6661L93.3002 43.6661L93.2038 42.6721L93.0865 41.6845L92.9486 40.7034L92.7904 39.729L92.6121 38.7615L92.4139 37.8012L92.1959 36.8484L91.9586 35.9031L91.7019 34.9657L91.4262 34.0364L91.1317 33.1153L90.8187 32.2029L90.4874 31.299L90.1378 30.4041L89.7705 29.5184L89.3854 28.6423L88.9828 27.7757L88.563 26.919L88.1263 26.0724L87.6728 25.236L87.2026 24.4102L86.7162 23.5953L86.2137 22.7912L85.6953 21.9984L85.1612 21.217L84.6116 20.4472L84.0469 19.6895L83.4672 18.9437L83.4862 18.6037L83.4861 18.6036ZM83.467 18.9436C83.3794 18.8334 83.3975 18.6725 83.5073 18.5845C83.6171 18.4966 83.7774 18.5147 83.8649 18.625L83.467 18.9435V18.9436ZM84.57 18.2379L83.8459 18.9651L83.486 18.6036L84.2101 17.8764L84.5886 17.8974L84.57 18.2379H84.57ZM84.2101 17.8764C84.3095 17.7767 84.4707 17.7767 84.57 17.8764C84.6694 17.9762 84.6694 18.1381 84.57 18.2379L84.2101 17.8764ZM7.96816e-05 47.7001H0.508926L0.520161 48.7432L0.553787 49.7809L0.609484 50.8128L0.687174 51.8386L0.786457 52.8584L0.907175 53.8715L1.04909 54.8779L1.21196 55.8774L1.39562 56.8696L1.59977 57.8545L1.82407 58.8319L2.06853 59.8013L2.33276 60.7628L2.61658 61.7158L2.91969 62.6603L3.24192 63.5959L3.58304 64.5227L3.94288 65.4401L4.32105 66.348L4.71739 67.2463L5.13181 68.1347L5.56385 69.0128L6.01349 69.8805L6.48026 70.7376L6.96417 71.5838L7.46473 72.4189L7.98194 73.2427L8.51541 74.0549L9.06513 74.8553L9.63071 75.6437L10.2118 76.4197L10.8084 77.1834L10.4113 77.5029L9.80832 76.7311L9.22083 75.9466L8.64928 75.1497L8.09366 74.3408L7.55429 73.5197L7.0315 72.687L6.52552 71.8428L6.03636 70.9875L5.56448 70.1211L5.11006 69.2439L4.67332 68.3562L4.25444 67.4583L3.8538 66.5502L3.47149 65.6324L3.10766 64.705L2.76288 63.7681L2.43714 62.8222L2.13069 61.8674L1.84367 60.9039L1.57658 59.932L1.32957 58.952L1.10271 57.9641L0.896338 56.9684L0.71076 55.9653L0.546138 54.955L0.402631 53.9376L0.280638 52.9135L0.180319 51.8829L0.101833 50.846L0.0454982 49.8032L0.0115538 48.7544L0.000159363 47.7001L7.96816e-05 47.7001ZM7.96816e-05 47.7001C7.96816e-05 47.559 0.114024 47.4446 0.254503 47.4446C0.394982 47.4446 0.508926 47.559 0.508926 47.7001H7.96816e-05ZM10.7898 17.8764L10.4299 18.2379L10.8084 18.2169L10.2118 18.9806L9.63071 19.7566L9.06513 20.5449L8.51541 21.3453L7.98194 22.1576L7.46473 22.9814L6.96417 23.8164L6.48026 24.6627L6.01349 25.5197L5.56385 26.3875L5.13181 27.2656L4.71739 28.1539L4.32097 29.0523L3.9428 29.9601L3.58304 30.8775L3.24184 31.8042L2.91961 32.7399L2.6165 33.6844L2.33276 34.6374L2.06853 35.5989L1.82407 36.5683L1.59969 37.5456L1.39554 38.5305L1.21196 39.5228L1.04901 40.5223L0.907095 41.5288L0.786377 42.5418L0.687094 43.5615L0.609405 44.5874L0.553707 45.6193L0.520082 46.657L0.508847 47.7001H0L0.0113945 46.6459L0.0453388 45.5971L0.101674 44.5543L0.18016 43.5173L0.280479 42.4868L0.402472 41.4627L0.545978 40.4453L0.71068 39.4349L0.896179 38.4318L1.10255 37.4361L1.32949 36.4482L1.5765 35.4682L1.84359 34.4964L2.13053 33.5329L2.43698 32.578L2.76272 31.6321L3.10758 30.6953L3.47133 29.7679L3.85364 28.8501L4.25436 27.942L4.67324 27.0441L5.10998 26.1564L5.5644 25.2792L6.03628 24.4129L6.52544 23.5575L7.03142 22.7134L7.55421 21.8807L8.09358 21.0596L8.6492 20.2505L9.22075 19.4537L9.80824 18.6693L10.4112 17.8975L10.7897 17.8765L10.7898 17.8764ZM10.4114 17.8974C10.4992 17.7874 10.6594 17.7695 10.769 17.8578C10.8786 17.9461 10.8964 18.1069 10.8085 18.217L10.4114 17.8975V17.8974ZM11.1541 18.965L10.43 18.2379L10.7899 17.8764L11.514 18.6036L11.533 18.9435L11.1541 18.965H11.1541ZM11.514 18.6036C11.6134 18.7033 11.6134 18.8652 11.514 18.965C11.4146 19.0648 11.2534 19.0648 11.1541 18.965L11.514 18.6036ZM1.52678 47.7001H1.01793L1.02901 46.6722L1.06208 45.6496L1.11674 44.6328L1.19299 43.6218L1.29052 42.6169L1.40909 41.6184L1.54837 40.6263L1.70837 39.6412L1.88869 38.6629L2.08917 37.6919L2.30957 36.7284L2.54965 35.7726L2.80909 34.8247L3.0879 33.885L3.38559 32.9536L3.70217 32.031L4.03731 31.1171L4.39069 30.2123L4.76217 29.3168L5.15157 28.4308L5.55859 27.5546L5.98297 26.6883L6.42465 25.8323L6.88313 24.9867L7.35851 24.1518L7.85039 23.3277L8.35844 22.5148L8.88258 21.7132L9.42259 20.9232L9.9782 20.145L10.5491 19.3788L11.1352 18.6248L11.5331 18.9434L10.9534 19.6891L10.3886 20.4469L9.83908 21.2167L9.30498 21.998L8.78657 22.7908L8.28409 23.5949L7.79764 24.4099L7.32752 25.2357L6.87397 26.0721L6.43724 26.9187L6.01747 27.7753L5.61492 28.6419L5.22982 29.5182L4.86249 30.4038L4.51293 31.2987L4.18161 32.2025L3.86854 33.115L3.57404 34.036L3.29826 34.9654L3.04168 35.9028L2.80431 36.8481L2.5863 37.8009L2.38806 38.7612L2.20981 39.7288L2.05156 40.7031L1.91371 41.6842L1.79642 42.6719L1.70001 43.6658L1.62455 44.6658L1.57052 45.6716L1.53777 46.6831L1.52686 47.7L1.52678 47.7001ZM1.52678 47.7001C1.52678 47.8411 1.41283 47.9556 1.27236 47.9556C1.13188 47.9556 1.01793 47.8411 1.01793 47.7001H1.52678ZM11.514 76.7966L11.1541 76.4351L11.135 76.7751L10.549 76.0212L9.97805 75.255L9.42243 74.4767L8.88242 73.6868L8.35828 72.8852L7.85023 72.0723L7.35835 71.2482L6.88297 70.4132L6.42449 69.5677L5.98281 68.7117L5.55843 67.8454L5.15141 66.9692L4.76201 66.0832L4.39053 65.1876L4.03715 64.2828L3.70201 63.369L3.38543 62.4462L3.08774 61.515L2.80893 60.5753L2.54949 59.6274L2.30941 58.6716L2.08901 57.708L1.88853 56.737L1.70821 55.7588L1.54821 54.7736L1.40893 53.7817L1.29036 52.7831L1.19283 51.7782L1.11658 50.7672L1.06192 49.7503L1.02885 48.7278L1.01777 47.6999H1.52662L1.53754 48.7168L1.57028 49.7283L1.62431 50.7341L1.69977 51.734L1.79618 52.728L1.91347 53.7156L2.05132 54.6968L2.20957 55.6711L2.38782 56.6387L2.58607 57.599L2.80407 58.5518L3.04145 59.4971L3.29802 60.4345L3.5738 61.3638L3.8683 62.2848L4.18137 63.1974L4.51269 64.1012L4.86225 64.9961L5.22958 65.8817L5.61468 66.758L6.01723 67.6245L6.437 68.4812L6.87373 69.3278L7.32728 70.1641L7.7974 70.99L8.28386 71.805L8.78633 72.609L9.30474 73.4018L9.83884 74.1831L10.3884 74.953L10.9532 75.7107L11.5329 76.4565L11.5138 76.7965L11.514 76.7966ZM11.533 76.4566C11.6206 76.5668 11.6025 76.7278 11.4927 76.8157C11.3829 76.9036 11.2227 76.8855 11.1351 76.7752L11.533 76.4567V76.4566ZM10.43 77.1623L11.1541 76.4351L11.5141 76.7966L10.7899 77.5238L10.4114 77.5028L10.4301 77.1623H10.43ZM10.7899 77.5238C10.6906 77.6236 10.5294 77.6236 10.43 77.5238C10.3306 77.424 10.3306 77.2621 10.43 77.1623L10.7899 77.5238ZM71.5447 16.5133L71.1847 16.1518L71.2101 16.5354L70.589 16.0679L69.9583 15.6125L69.3185 15.1695L68.6695 14.7391L68.0116 14.3213L67.3449 13.9164L66.6696 13.5246L65.9858 13.1461L65.2939 12.7809L64.5938 12.4293L63.8859 12.0915L63.1703 11.7675L62.4471 11.4578L61.7165 11.1622L60.9786 10.8812L60.2338 10.6147L59.4821 10.3631L58.7236 10.1265L57.9587 9.90491L57.1874 9.6987L56.4101 9.50794L55.6267 9.33302L54.8374 9.17379L54.0424 9.03048L53.242 8.90357L52.4364 8.79299L51.6255 8.69889L50.8097 8.62143L49.989 8.56102L49.1637 8.51757L48.3339 8.49133L47.4999 8.4826V7.97162L48.3445 7.9805L49.1849 8.00706L50.0207 8.05099L50.852 8.11221L51.6784 8.19062L52.4999 8.286L53.3161 8.39803L54.127 8.52669L54.9323 8.67176L55.7319 8.83308L56.5256 9.0104L57.3132 9.20356L58.0946 9.41248L58.8695 9.63693L59.6378 9.87674L60.3994 10.1317L61.154 10.4016L61.9016 10.6864L62.6417 10.9859L63.3745 11.2996L64.0995 11.6278L64.8167 11.97L65.5259 12.3262L66.2269 12.6961L66.9195 13.0797L67.6036 13.4765L68.2791 13.8867L68.9454 14.3099L69.6029 14.7459L70.2511 15.1947L70.8898 15.656L71.5191 16.1296L71.5444 16.5132L71.5447 16.5133ZM71.5193 16.1297C71.6309 16.2154 71.6521 16.3758 71.5667 16.4879C71.4813 16.5999 71.3216 16.6213 71.21 16.5355L71.5192 16.1297H71.5193ZM70.4584 16.8813L71.1847 16.1519L71.5447 16.5134L70.8183 17.2428L70.4844 17.2656L70.4584 16.8814V16.8813ZM70.8183 17.2428C70.7189 17.3426 70.5577 17.3426 70.4584 17.2428C70.359 17.143 70.359 16.9811 70.4584 16.8813L70.8183 17.2428ZM47.5 9.50474V8.99375L48.3183 9.00232L49.1326 9.02792L49.9425 9.07025L50.748 9.12922L51.5487 9.20476L52.3447 9.2967L53.1356 9.40464L53.9214 9.52859L54.7019 9.66846L55.4768 9.82385L56.246 9.99477L57.0095 10.1809L57.7671 10.3823L58.5183 10.5987L59.2632 10.8297L60.0017 11.0756L60.7334 11.3357L61.4582 11.6102L62.176 11.8989L62.8866 12.2013L63.5899 12.5177L64.2857 12.8477L64.9738 13.191L65.654 13.5478L66.3261 13.9175L66.9901 14.3002L67.6457 14.6957L68.2927 15.1038L68.931 15.5242L69.5605 15.957L70.181 16.4019L70.7922 16.8585L70.4844 17.2655L69.8813 16.8148L69.269 16.3758L68.6478 15.9488L68.0178 15.5338L67.3794 15.1311L66.7324 14.7409L66.0772 14.3632L65.414 13.9983L64.7429 13.6464L64.0638 13.3076L63.3773 12.9819L62.6833 12.6698L61.9821 12.3713L61.2739 12.0865L60.5586 11.8156L59.8367 11.5589L59.1081 11.3164L58.3732 11.0884L57.6319 10.8749L56.8845 10.6762L56.1312 10.4925L55.3721 10.324L54.6073 10.1705L53.8372 10.0325L53.0619 9.91019L52.2814 9.80369L51.4959 9.71303L50.7057 9.63845L49.9109 9.58028L49.1115 9.53843L48.3079 9.51314L47.5001 9.50474H47.5ZM47.5 9.50474C47.3595 9.50474 47.2456 9.39032 47.2456 9.24925C47.2456 9.10818 47.3595 8.99375 47.5 8.99375V9.50474ZM24.1819 17.2427L24.5418 16.8813L24.208 16.8585L24.8192 16.4018L25.4397 15.9569L26.0692 15.5241L26.7074 15.1037L27.3545 14.6956L28.0101 14.3001L28.674 13.9174L29.3462 13.5477L30.0264 13.191L30.7145 12.8476L31.4102 12.5177L32.1134 12.2013L32.8241 11.8988L33.542 11.6101L34.2667 11.3356L34.9985 11.0755L35.7369 10.8297L36.4819 10.5986L37.233 10.3823L37.9906 10.1809L38.754 9.99477L39.5233 9.82385L40.2982 9.66838L41.0787 9.52859L41.8645 9.40464L42.6554 9.2967L43.4513 9.20476L44.2521 9.12922L45.0576 9.07025L45.8674 9.02792L46.6817 9.00232L47.5 8.99375V9.50474L46.6922 9.51314L45.8886 9.53843L45.0893 9.58028L44.2945 9.63845L43.5042 9.71303L42.7188 9.80369L41.9383 9.91019L41.163 10.0325L40.3929 10.1704L39.6281 10.3238L38.8691 10.4925L38.1157 10.6762L37.3683 10.8749L36.6271 11.0883L35.8921 11.3164L35.1635 11.5588L34.4416 11.8156L33.7263 12.0864L33.0181 12.3712L32.3169 12.6698L31.6229 12.9819L30.9364 13.3075L30.2574 13.6463L29.5862 13.9983L28.923 14.3631L28.2678 14.7408L27.6209 15.1311L26.9824 15.5337L26.3525 15.9487L25.7313 16.3757L25.119 16.8147L24.5159 17.2654L24.182 17.2426L24.1819 17.2427ZM24.5158 17.2655C24.4039 17.3509 24.2442 17.329 24.1592 17.2166C24.0742 17.1043 24.096 16.9439 24.2079 16.8585L24.5157 17.2655H24.5158ZM23.8155 16.152L24.5418 16.8813L24.1818 17.2428L23.4555 16.5134L23.4809 16.1298L23.8155 16.1521V16.152ZM23.4555 16.5134C23.3562 16.4137 23.3562 16.2518 23.4555 16.152C23.5549 16.0522 23.7161 16.0522 23.8155 16.152L23.4555 16.5134ZM47.4999 7.97178V8.48276L46.6659 8.49149L45.8362 8.51773L45.0109 8.56118L44.1902 8.62159L43.3744 8.69905L42.5635 8.79315L41.7578 8.90373L40.9574 9.03064L40.1625 9.17395L39.3733 9.33319L38.5899 9.5081L37.8125 9.69886L37.0413 9.90507L36.2763 10.1266L35.5179 10.3632L34.7662 10.6148L34.0213 10.8814L33.2835 11.1624L32.5529 11.458L31.8298 11.7677L31.1141 12.0916L30.4062 12.4294L29.7062 12.781L29.0142 13.1462L28.3305 13.5248L27.6551 13.9166L26.9885 14.3214L26.3305 14.7392L25.6815 15.1697L25.0418 15.6127L24.4111 16.0681L23.79 16.5356L23.4807 16.1298L24.11 15.6561L24.7487 15.1948L25.3969 14.7461L26.0543 14.3101L26.7207 13.8869L27.3961 13.4767L28.0803 13.0798L28.7729 12.6963L29.4739 12.3264L30.1831 11.9701L30.9002 11.628L31.6253 11.2998L32.358 10.986L33.0981 10.6866L33.8457 10.4017L34.6003 10.1318L35.3619 9.8769L36.1303 9.63709L36.9052 9.41264L37.6864 9.20372L38.4742 9.01056L39.2678 8.83324L40.0674 8.67192L40.8727 8.52685L41.6836 8.39819L42.4998 8.28616L43.3212 8.19078L44.1477 8.11237L44.9789 8.05115L45.8148 8.00722L46.6551 7.98066L47.4997 7.97178H47.4999ZM47.4999 7.97178C47.6404 7.97178 47.7544 8.0862 47.7544 8.22727C47.7544 8.36834 47.6404 8.48276 47.4999 8.48276V7.97178ZM87.0619 47.7001H86.553L86.5443 46.8626L86.5182 46.0293L86.4749 45.2006L86.4148 44.3764L86.3376 43.5572L86.2439 42.7428L86.1338 41.9338L86.0074 41.13L85.8647 40.3318L85.7061 39.5392L85.532 38.7524L85.342 37.9718L85.1367 37.1973L84.916 36.4291L84.6804 35.6676L84.4299 34.9126L84.1645 34.1646L83.8846 33.4237L83.5903 32.6901L83.2818 31.9638L82.9593 31.2452L82.6229 30.5343L82.2727 29.8313L81.9091 29.1364L81.5321 28.4498L81.142 27.7717L80.7388 27.1022L80.3228 26.4415L79.8941 25.7897L79.453 25.1473L78.9995 24.5139L78.5339 23.8902L78.9381 23.5797L79.4097 24.2115L79.8691 24.853L80.3159 25.5039L80.7501 26.1641L81.1715 26.8333L81.58 27.5116L81.9752 28.1986L82.3571 28.8941L82.7255 29.5981L83.0802 30.3103L83.421 31.0304L83.7478 31.7585L84.0602 32.4944L84.3584 33.2376L84.6421 33.9883L84.9108 34.746L85.1647 35.5109L85.4035 36.2824L85.627 37.0606L85.8351 37.8452L86.0274 38.6362L86.204 39.4333L86.3646 40.2362L86.5091 41.0449L86.6372 41.8592L86.7488 42.6788L86.8438 43.5037L86.9218 44.3337L86.9828 45.1684L87.0265 46.0078L87.053 46.8517L87.0619 47.6999V47.7001ZM87.0619 47.7001C87.0619 47.8412 86.9479 47.9556 86.8074 47.9556C86.6669 47.9556 86.553 47.8412 86.553 47.7001H87.0619ZM78.5562 71.8458L78.9161 71.4844L78.5341 71.5098L78.9997 70.8861L79.4531 70.2528L79.8942 69.6103L80.3229 68.9587L80.7389 68.298L81.1421 67.6284L81.5322 66.9502L81.9092 66.2636L82.2728 65.5687L82.6229 64.8658L82.9594 64.1548L83.2819 63.4362L83.5904 62.71L83.8847 61.9763L84.1645 61.2354L84.43 60.4874L84.6805 59.7325L84.916 58.9709L85.1367 58.2028L85.342 57.4282L85.532 56.6476L85.7062 55.8609L85.8648 55.0683L86.0073 54.27L86.1338 53.4663L86.2439 52.6572L86.3376 51.8429L86.4148 51.0237L86.4749 50.1995L86.5182 49.3707L86.5443 48.5375L86.553 47.7H87.0619L87.053 48.5482L87.0265 49.392L86.9828 50.2314L86.9218 51.0661L86.8438 51.8961L86.7488 52.721L86.6372 53.5407L86.5092 54.3549L86.3647 55.1637L86.2041 55.9666L86.0274 56.7637L85.8351 57.5546L85.627 58.3392L85.4035 59.1174L85.1648 59.8889L84.9109 60.6538L84.6422 61.4115L84.3585 62.1622L84.0603 62.9055L83.7479 63.6413L83.421 64.3694L83.0803 65.0896L82.7256 65.8018L82.3572 66.5057L81.9753 67.2013L81.5801 67.8882L81.1716 68.5664L80.7502 69.2358L80.316 69.8959L79.8692 70.5468L79.4099 71.1883L78.9382 71.8202L78.5562 71.8456L78.5562 71.8458ZM78.9381 71.8204C78.8527 71.9324 78.6931 71.9538 78.5814 71.868C78.4699 71.7822 78.4486 71.6219 78.534 71.5098L78.9381 71.8203V71.8204ZM78.1895 70.755L78.916 71.4844L78.5561 71.8458L77.8296 71.1164L77.8069 70.7811L78.1895 70.755H78.1895ZM77.8296 71.1164C77.7303 71.0166 77.7303 70.8548 77.8296 70.755C77.929 70.6552 78.0902 70.6552 78.1895 70.755L77.8296 71.1164ZM85.5351 47.7001H86.044L86.0355 48.5219L86.01 49.3396L85.9678 50.1529L85.9091 50.9618L85.8339 51.7659L85.7423 52.5652L85.6348 53.3594L85.5114 54.1486L85.3721 54.9323L85.2173 55.7105L85.0472 56.4829L84.8618 57.2496L84.6613 58.0103L84.4458 58.7647L84.2157 59.5129L83.9709 60.2544L83.7119 60.9892L83.4386 61.717L83.1511 62.4378L82.8499 63.1514L82.5348 63.8577L82.2063 64.5564L81.8644 65.2473L81.5091 65.9304L81.1409 66.6054L80.7599 67.2721L80.366 67.9305L79.9597 68.5803L79.5409 69.2212L79.11 69.8533L78.667 70.4764L78.2122 71.0902L77.807 70.7811L78.2558 70.1755L78.693 69.5606L79.1181 68.9367L79.5315 68.3042L79.9324 67.663L80.321 67.0134L80.697 66.3555L81.0604 65.6894L81.4109 65.0154L81.7484 64.3336L82.0726 63.6442L82.3833 62.9473L82.6806 62.2432L82.9643 61.532L83.2339 60.8137L83.4896 60.0887L83.7311 59.3571L83.9582 58.619L84.1708 57.8745L84.3686 57.1241L84.5516 56.3676L84.7194 55.6053L84.8722 54.8373L85.0096 54.064L85.1314 53.2854L85.2375 52.5016L85.3277 51.7128L85.402 50.9193L85.4599 50.1211L85.5016 49.3184L85.5268 48.5114L85.5351 47.7002V47.7001ZM85.5351 47.7001C85.5351 47.5591 85.6491 47.4446 85.7896 47.4446C85.93 47.4446 86.044 47.5591 86.044 47.7001H85.5351ZM77.8295 24.2839L78.1895 24.6453L78.2122 24.3101L78.6669 24.9239L79.1099 25.547L79.5409 26.1791L79.9596 26.8201L80.366 27.4698L80.7598 28.1281L81.1409 28.7949L81.5091 29.4699L81.8643 30.153L82.2062 30.8439L82.5348 31.5426L82.8499 32.2489L83.1511 32.9624L83.4385 33.6833L83.7119 34.4112L83.9709 35.146L84.2157 35.8875L84.4458 36.6356L84.6613 37.39L84.8618 38.1507L85.0472 38.9174L85.2174 39.6899L85.3721 40.468L85.5114 41.2517L85.6348 42.0409L85.7423 42.8351L85.8339 43.6344L85.9091 44.4386L85.9678 45.2474L86.01 46.0607L86.0355 46.8784L86.044 47.7001H85.5351L85.5268 46.8889L85.5016 46.082L85.4599 45.2792L85.402 44.4811L85.3277 43.6875L85.2375 42.8988L85.1314 42.115L85.0096 41.3364L84.8722 40.5631L84.7194 39.7951L84.5516 39.0328L84.3686 38.2763L84.1708 37.5258L83.9582 36.7814L83.7311 36.0433L83.4896 35.3117L83.2339 34.5867L82.9642 33.8685L82.6806 33.1572L82.3833 32.4531L82.0726 31.7562L81.7483 31.0668L81.4108 30.3849L81.0604 29.711L80.697 29.045L80.3209 28.387L79.9323 27.7373L79.5314 27.0962L79.1181 26.4636L78.6929 25.8398L78.2558 25.2249L77.8069 24.6192L77.8296 24.284L77.8295 24.2839ZM77.8068 24.6192C77.7218 24.5068 77.7436 24.3465 77.8555 24.2611C77.9674 24.1757 78.1271 24.1976 78.2121 24.31L77.8068 24.6191V24.6192ZM78.9158 23.9157L78.1894 24.6452L77.8295 24.2838L78.5558 23.5543L78.9378 23.5797L78.9157 23.9157H78.9158ZM78.5558 23.5543C78.6552 23.4545 78.8164 23.4545 78.9158 23.5543C79.0151 23.6541 79.0151 23.8159 78.9158 23.9157L78.5558 23.5543ZM7.93796 47.7001H8.44681L8.45549 48.5376L8.48163 49.3709L8.52489 50.1996L8.58505 51.0238L8.66218 51.843L8.75589 52.6574L8.86601 53.4664L8.99238 54.2702L9.13509 55.0685L9.29358 55.8611L9.46784 56.6477L9.65781 57.4284L9.86314 58.2029L10.0838 58.9711L10.3194 59.7327L10.5699 60.4876L10.8353 61.2356L11.1153 61.9765L11.4094 62.7102L11.718 63.4364L12.0404 64.155L12.3769 64.866L12.7271 65.5689L13.0907 66.2639L13.4676 66.9504L13.8578 67.6286L14.261 68.298L14.677 68.9588L15.1057 69.6105L15.5468 70.2529L16.0002 70.8863L16.4658 71.51L16.0617 71.8206L15.59 71.1887L15.1307 70.5472L14.6839 69.8963L14.2497 69.2362L13.8283 68.5669L13.4198 67.8887L13.0245 67.2017L12.6427 66.506L12.2743 65.8022L11.9196 65.09L11.5788 64.3698L11.252 63.6417L10.9395 62.9059L10.6413 62.1626L10.3577 61.4119L10.089 60.6542L9.8351 59.8894L9.59629 59.1178L9.37278 58.3396L9.16474 57.555L8.97238 56.7641L8.79573 55.967L8.63517 55.1641L8.49071 54.3553L8.36258 53.541L8.25103 52.7214L8.15605 51.8965L8.07796 51.0665L8.017 50.2318L7.97326 49.3924L7.9468 48.5485L7.93796 47.7003V47.7001ZM7.93796 47.7001C7.93796 47.559 8.0519 47.4446 8.19238 47.4446C8.33286 47.4446 8.44681 47.559 8.44681 47.7001H7.93796ZM16.4439 23.5543L16.084 23.9157L16.466 23.8903L16.0004 24.514L15.5469 25.1473L15.1058 25.7898L14.6771 26.4415L14.2611 27.1022L13.8579 27.7717L13.4678 28.4499L13.0908 29.1365L12.7271 29.8314L12.377 30.5344L12.0405 31.2453L11.7181 31.9639L11.4095 32.6902L11.1152 33.4238L10.8353 34.1647L10.57 34.9127L10.3194 35.6677L10.0838 36.4292L9.86314 37.1973L9.65781 37.9719L9.46784 38.7525L9.29366 39.5393L9.13509 40.3319L8.99238 41.1301L8.86601 41.9339L8.75589 42.7429L8.66218 43.5573L8.58513 44.3765L8.52489 45.2007L8.48163 46.0294L8.45549 46.8627L8.44681 47.7002H7.93796L7.9468 46.852L7.97326 46.0081L8.017 45.1687L8.07804 44.334L8.15605 43.5041L8.25103 42.6792L8.36258 41.8595L8.49071 41.0452L8.63517 40.2366L8.79581 39.4336L8.97238 38.6365L9.16474 37.8456L9.37278 37.0609L9.59629 36.2828L9.8351 35.5112L10.089 34.7463L10.3577 33.9886L10.6414 33.2379L10.9396 32.4946L11.2521 31.7588L11.5788 31.0308L11.9196 30.3106L12.2744 29.5984L12.6428 28.8945L13.0247 28.1989L13.4199 27.5119L13.8283 26.8336L14.2498 26.1644L14.684 25.5042L15.1308 24.8533L15.5902 24.2119L16.0618 23.58L16.4438 23.5545L16.4439 23.5543ZM16.0619 23.5797C16.1473 23.4677 16.307 23.4463 16.4186 23.5321C16.5302 23.6179 16.5515 23.7783 16.466 23.8904L16.0619 23.5798V23.5797ZM16.8103 24.6451L16.084 23.9157L16.444 23.5543L17.1702 24.2836L17.1929 24.6189L16.8103 24.6451H16.8103ZM17.1702 24.2836C17.2695 24.3834 17.2695 24.5453 17.1702 24.6451C17.0708 24.7449 16.9096 24.7449 16.8103 24.6451L17.1702 24.2836ZM9.46466 47.7001H8.95581L8.96434 46.8783L8.98983 46.0606L9.03199 45.2473L9.09071 44.4384L9.16593 43.6343L9.25749 42.8349L9.36498 42.0408L9.4884 41.2516L9.62769 40.4679L9.78243 39.6897L9.95263 38.9172L10.138 38.1505L10.3385 37.3898L10.554 36.6354L10.7841 35.8872L11.0289 35.1457L11.2879 34.4109L11.5612 33.6831L11.8487 32.9622L12.1499 32.2486L12.465 31.5424L12.7935 30.8437L13.1354 30.1527L13.4907 29.4696L13.8589 28.7946L14.2399 28.1279L14.6338 27.4696L15.0401 26.8198L15.4589 26.1788L15.8898 25.5467L16.3328 24.9236L16.7876 24.3098L17.1928 24.6189L16.744 25.2246L16.3068 25.8395L15.8817 26.4633L15.4683 27.0958L15.0674 27.737L14.6788 28.3867L14.3028 29.0446L13.9394 29.7106L13.5889 30.3846L13.2514 31.0664L12.9272 31.7559L12.6165 32.4527L12.3192 33.1569L12.0355 33.8682L11.7659 34.5864L11.5102 35.3114L11.2687 36.043L11.0416 36.7811L10.829 37.5256L10.6312 38.2761L10.4482 39.0325L10.2804 39.7949L10.1276 40.5629L9.99024 41.3362L9.8684 42.1148L9.76235 42.8986L9.67207 43.6874L9.59781 44.4809L9.53988 45.2791L9.4982 46.0818L9.47302 46.8888L9.46466 47.7V47.7001ZM9.46466 47.7001C9.46466 47.8411 9.35071 47.9556 9.21023 47.9556C9.06976 47.9556 8.95581 47.8411 8.95581 47.7001H9.46466ZM17.1702 71.1164L16.8103 70.755L16.7876 71.0902L16.3328 70.4764L15.8898 69.8533L15.4589 69.2212L15.0401 68.5803L14.6338 67.9305L14.2399 67.2721L13.8589 66.6054L13.4907 65.9304L13.1354 65.2473L12.7935 64.5564L12.465 63.8577L12.1499 63.1514L11.8487 62.4378L11.5612 61.717L11.2879 60.9891L11.0289 60.2543L10.7841 59.5128L10.554 58.7647L10.3385 58.0103L10.138 57.2496L9.95263 56.4829L9.78243 55.7104L9.62769 54.9322L9.4884 54.1485L9.36498 53.3593L9.25749 52.5652L9.16593 51.7658L9.09071 50.9617L9.03199 50.1528L8.98983 49.3395L8.96434 48.5218L8.95581 47.7001H9.46466L9.47302 48.5113L9.4982 49.3182L9.53988 50.121L9.59781 50.9191L9.67207 51.7127L9.76235 52.5015L9.8684 53.2853L9.99024 54.0638L10.1276 54.8372L10.2804 55.6052L10.4482 56.3675L10.6312 57.124L10.829 57.8745L11.0416 58.6189L11.2687 59.3569L11.5102 60.0885L11.7659 60.8136L12.0355 61.5318L12.3192 62.2431L12.6165 62.9472L12.9272 63.6441L13.2514 64.3335L13.5889 65.0154L13.9394 65.6893L14.3028 66.3554L14.6788 67.0133L15.0674 67.6629L15.4683 68.3041L15.8817 68.9367L16.3068 69.5605L16.744 70.1754L17.1928 70.7811L17.1701 71.1163L17.1702 71.1164ZM17.1929 70.7811C17.2779 70.8935 17.2561 71.0538 17.1442 71.1392C17.0323 71.2246 16.8727 71.2027 16.7876 71.0903L17.1929 70.7812V70.7811ZM16.084 71.4845L16.8103 70.7551L17.1703 71.1165L16.4439 71.8459L16.0619 71.8205L16.084 71.4845H16.084ZM16.4439 71.8459C16.3445 71.9457 16.1833 71.9457 16.084 71.8459C15.9846 71.7461 15.9846 71.5843 16.084 71.4845L16.4439 71.8459ZM65.6501 22.4326L65.2902 22.0712L65.3228 22.4601L64.8479 22.1281L64.3665 21.8047L63.8787 21.4902L63.3848 21.1848L62.8847 20.8885L62.3788 20.6013L61.8669 20.3237L61.3494 20.0554L60.8262 19.7968L60.2974 19.5479L59.7632 19.3087L59.2238 19.0796L58.6791 18.8604L58.1294 18.6515L57.5747 18.4527L57.0153 18.2645L56.451 18.0868L55.8823 17.9197L55.3091 17.7632L54.7314 17.6177L54.1495 17.4831L53.5635 17.3597L52.9734 17.2475L52.3795 17.1465L51.7816 17.0571L51.1801 16.9791L50.5751 16.9129L49.9665 16.8584L49.3546 16.8158L48.7395 16.7853L48.1211 16.7668L47.4999 16.7607V16.2497L48.1312 16.256L48.7595 16.2747L49.3847 16.3058L50.0068 16.349L50.6253 16.4044L51.2403 16.4717L51.8517 16.551L52.4595 16.6419L53.0633 16.7445L53.6632 16.8586L54.259 16.9841L54.8506 17.1209L55.4378 17.2689L56.0206 17.4279L56.5988 17.5977L57.1723 17.7784L57.7411 17.9698L58.305 18.1718L58.8638 18.3842L59.4176 18.6071L59.966 18.8401L60.5091 19.0831L61.0466 19.3361L61.5786 19.599L62.1047 19.8718L62.625 20.1541L63.1394 20.4459L63.6477 20.7472L64.1496 21.0577L64.6455 21.3773L65.1348 21.706L65.6176 22.0436L65.6502 22.4326H65.6501ZM65.6175 22.0436C65.732 22.1253 65.7589 22.2849 65.6775 22.4C65.5962 22.5149 65.4373 22.5419 65.3227 22.4602L65.6175 22.0436ZM64.5598 22.8048L65.2902 22.0713L65.6501 22.4327L64.9197 23.1662L64.5936 23.1947L64.5598 22.8048L64.5598 22.8048ZM64.9197 23.1662C64.8203 23.266 64.6591 23.266 64.5598 23.1662C64.4604 23.0664 64.4604 22.9046 64.5598 22.8048L64.9197 23.1662ZM47.4999 17.7828V17.2718L48.1049 17.2778L48.707 17.2955L49.3062 17.325L49.9022 17.3662L50.495 17.4187L51.0845 17.4826L51.6706 17.5578L52.2532 17.6442L52.8321 17.7416L53.4072 17.85L53.9785 17.9691L54.5458 18.099L55.1091 18.2395L55.668 18.3906L56.2228 18.5519L56.773 18.7235L57.3189 18.9053L57.86 19.0972L58.3963 19.2989L58.9278 19.5105L59.4542 19.732L59.9757 19.9629L60.4919 20.2033L61.0028 20.4532L61.5082 20.7122L62.0082 20.9805L62.5025 21.2579L62.9912 21.5442L63.4739 21.8393L63.9507 22.1431L64.4214 22.4554L64.8859 22.7764L64.5935 23.1947L64.1368 22.8792L63.674 22.572L63.2053 22.2732L62.7306 21.9831L62.2503 21.7016L61.7642 21.429L61.2727 21.1652L60.7756 20.9104L60.2734 20.6648L59.7659 20.4285L59.2534 20.2014L58.7357 19.9839L58.2133 19.7757L57.686 19.5774L57.154 19.3888L56.6176 19.2101L56.0765 19.0414L55.5312 18.8827L54.9816 18.7342L54.4279 18.5961L53.8702 18.4685L53.3085 18.3513L52.743 18.2448L52.1738 18.1491L51.6012 18.0641L51.0249 17.9901L50.4453 17.9273L49.8623 17.8756L49.2762 17.8353L48.6871 17.8063L48.095 17.7887L47.4999 17.7829V17.7828ZM47.4999 17.7828C47.3595 17.7828 47.2455 17.6684 47.2455 17.5273C47.2455 17.3863 47.3595 17.2718 47.4999 17.2718V17.7828ZM30.0805 23.166L30.4403 22.8046L30.1143 22.7761L30.5788 22.4552L31.0494 22.1429L31.5263 21.839L32.009 21.5439L32.4977 21.2577L32.992 20.9803L33.492 20.7121L33.9974 20.453L34.5083 20.2033L35.0245 19.9628L35.5459 19.7318L36.0724 19.5104L36.6039 19.2988L37.1402 19.097L37.6813 18.9051L38.2271 18.7234L38.7774 18.5518L39.332 18.3904L39.8911 18.2394L40.4543 18.0989L41.0217 17.969L41.5929 17.8499L42.168 17.7415L42.7469 17.6442L43.3295 17.5577L43.9155 17.4825L44.505 17.4186L45.0979 17.3661L45.6938 17.325L46.293 17.2954L46.8951 17.2778L47.5 17.2718V17.7827L46.905 17.7886L46.3129 17.8061L45.7238 17.8352L45.1377 17.8755L44.5547 17.9272L43.9751 17.99L43.399 18.0639L42.8262 18.1489L42.2571 18.2447L41.6916 18.3511L41.1299 18.4683L40.5723 18.596L40.0185 18.7341L39.4689 18.8825L38.9237 19.0412L38.3826 19.2099L37.8461 19.3886L37.3142 19.5771L36.787 19.7756L36.2644 19.9836L35.747 20.2012L35.2344 20.4283L34.7268 20.6646L34.2247 20.9102L33.7276 21.165L33.2361 21.4287L32.75 21.7013L32.2696 21.9828L31.795 22.2729L31.3262 22.5717L30.8635 22.8789L30.4066 23.1944L30.0807 23.1659L30.0805 23.166ZM30.4065 23.1945C30.2915 23.2755 30.1327 23.2476 30.0521 23.1321C29.9714 23.0167 29.9992 22.8572 30.1142 22.7762L30.4065 23.1945ZM29.7097 22.0713L30.4402 22.8047L30.0804 23.1661L29.3499 22.4327L29.3824 22.0437L29.7097 22.0713V22.0713ZM29.3499 22.4327C29.2505 22.3329 29.2505 22.1711 29.3498 22.0713C29.4492 21.9716 29.6103 21.9715 29.7097 22.0713L29.3499 22.4327ZM47.4999 16.2499V16.7608L46.8786 16.767L46.2603 16.7855L45.6451 16.816L45.0332 16.8585L44.4247 16.913L43.8197 16.9793L43.2181 17.0572L42.6203 17.1467L42.0264 17.2476L41.4363 17.3598L40.8503 17.4832L40.2684 17.6177L39.6907 17.7633L39.1175 17.9197L38.5487 18.087L37.9845 18.2646L37.4251 18.4528L36.8704 18.6516L36.3207 18.8605L35.776 19.0797L35.2366 19.3088L34.7024 19.548L34.1738 19.7969L33.6505 20.0555L33.1329 20.3237L32.621 20.6014L32.1151 20.8885L31.6151 21.1849L31.1211 21.4902L30.6334 21.8047L30.152 22.1281L29.6771 22.4602L29.3823 22.0436L29.8651 21.7061L30.3544 21.3773L30.8502 21.0577L31.3522 20.7472L31.8604 20.446L32.3748 20.1541L32.8951 19.8717L33.4213 19.599L33.9532 19.3361L34.4907 19.0831L35.0338 18.8401L35.5822 18.6071L36.136 18.3842L36.6948 18.1718L37.2587 17.9698L37.8275 17.7784L38.401 17.5977L38.9792 17.4279L39.562 17.2689L40.1492 17.1209L40.7408 16.9842L41.3366 16.8586L41.9365 16.7445L42.5403 16.642L43.148 16.551L43.7594 16.4717L44.3745 16.4044L44.9931 16.3491L45.615 16.3059L46.2402 16.2747L46.8685 16.2561L47.4999 16.2498V16.2499ZM47.4999 16.2499C47.6403 16.2499 47.7543 16.3643 47.7543 16.5054C47.7543 16.6464 47.6403 16.7608 47.4999 16.7608V16.2499ZM78.8186 47.7003H78.3097L78.3036 47.0764L78.2852 46.4555L78.2548 45.8377L78.2124 45.2233L78.1581 44.6121L78.0922 44.0046L78.0145 43.4005L77.9255 42.8001L77.8249 42.2037L77.7132 41.6112L77.5903 41.0226L77.4563 40.4384L77.3114 39.8582L77.1556 39.2826L76.9891 38.7114L76.8122 38.1448L76.6247 37.583L76.4268 37.026L76.2188 36.4741L76.0005 35.9271L75.7723 35.3854L75.5341 34.8489L75.2863 34.3179L75.0288 33.7925L74.7616 33.2728L74.4851 32.7588L74.1992 32.2508L73.9041 31.7486L73.6 31.2526L73.2868 30.7628L72.9648 30.2793L72.6341 29.8024L73.049 29.5064L73.3852 29.9913L73.7125 30.4826L74.0308 30.9805L74.34 31.4846L74.64 31.995L74.9306 32.5116L75.2117 33.0341L75.4833 33.5624L75.7451 34.0966L75.9971 34.6364L76.2391 35.1817L76.4711 35.7325L76.693 36.2884L76.9046 36.8497L77.1057 37.416L77.2963 37.9871L77.4763 38.5631L77.6454 39.1437L77.8037 39.7289L77.951 40.3187L78.0873 40.9127L78.2122 41.511L78.3259 42.1134L78.428 42.7198L78.5186 43.3301L78.5976 43.9441L78.6645 44.5617L78.7197 45.1828L78.7628 45.8075L78.7938 46.4353L78.8123 47.0663L78.8186 47.7003H78.8186ZM78.8186 47.7003C78.8186 47.8414 78.7046 47.9558 78.5641 47.9558C78.4236 47.9558 78.3097 47.8414 78.3097 47.7003H78.8186ZM72.6616 65.9267L73.0216 65.5653L72.6342 65.598L72.9649 65.1211L73.2869 64.6377L73.6 64.1479L73.9042 63.6519L74.1992 63.1497L74.4851 62.6416L74.7617 62.1277L75.0288 61.6079L75.2863 61.0824L75.5342 60.5515L75.7723 60.0151L76.0006 59.4734L76.2188 58.9265L76.4268 58.3744L76.6247 57.8174L76.8122 57.2556L76.9891 56.689L77.1556 56.1179L77.3114 55.5422L77.4563 54.9621L77.5903 54.3778L77.7132 53.7893L77.8249 53.1968L77.9255 52.6003L78.0145 51.9999L78.0922 51.3959L78.1581 50.7883L78.2124 50.1772L78.2548 49.5628L78.2852 48.945L78.3036 48.3241L78.3097 47.7002H78.8186L78.8123 48.3342L78.7937 48.9652L78.7627 49.593L78.7197 50.2176L78.6644 50.8387L78.5975 51.4564L78.5185 52.0704L78.4279 52.6806L78.3258 53.287L78.2122 53.8895L78.0872 54.4877L77.951 55.0818L77.8036 55.6715L77.6453 56.2568L77.4762 56.8374L77.2962 57.4133L77.1056 57.9845L76.9045 58.5508L76.693 59.1119L76.4711 59.668L76.239 60.2188L75.9971 60.764L75.7451 61.3039L75.4832 61.838L75.2117 62.3665L74.9305 62.8889L74.64 63.4055L74.34 63.9158L74.0307 64.4199L73.7125 64.9178L73.3852 65.4092L73.049 65.8941L72.6616 65.9268V65.9267ZM73.049 65.894C72.9676 66.009 72.8087 66.036 72.6941 65.9543C72.5796 65.8726 72.5528 65.713 72.6341 65.598L73.049 65.894ZM72.2911 64.8318L73.0215 65.5653L72.6616 65.9267L71.9312 65.1932L71.9028 64.8658L72.291 64.8319L72.2911 64.8318ZM71.9312 65.1932C71.8318 65.0934 71.8318 64.9316 71.9312 64.8318C72.0305 64.732 72.1917 64.732 72.2911 64.8318L71.9312 65.1932ZM77.2918 47.7003H77.8007L77.7947 48.3078L77.7771 48.9125L77.7476 49.5141L77.7067 50.1127L77.6545 50.708L77.5908 51.2999L77.5159 51.8886L77.4299 52.4736L77.3329 53.0549L77.225 53.6324L77.1064 54.206L76.977 54.7757L76.8371 55.3413L76.6867 55.9028L76.526 56.4598L76.3551 57.0124L76.1742 57.5604L75.9831 58.1038L75.7821 58.6424L75.5714 59.1761L75.351 59.7049L75.1209 60.2285L74.8815 60.7468L74.6328 61.2598L74.3748 61.7674L74.1077 62.2695L73.8314 62.7659L73.5464 63.2567L73.2525 63.7414L72.95 64.2201L72.639 64.6929L72.3194 65.1592L71.9028 64.8657L72.217 64.4071L72.5229 63.9423L72.8204 63.4716L73.1094 62.995L73.3896 62.5126L73.6611 62.0245L73.9237 61.5308L74.1774 61.0317L74.422 60.5274L74.6573 60.0178L74.8835 59.503L75.1001 58.9833L75.3073 58.4586L75.5049 57.9291L75.6926 57.395L75.8706 56.8563L76.0386 56.3129L76.1966 55.7654L76.3444 55.2135L76.482 54.6574L76.6091 54.0973L76.7258 53.5333L76.8318 52.9654L76.9271 52.3939L77.0118 51.8188L77.0854 51.2401L77.1479 50.6581L77.1994 50.0727L77.2397 49.484L77.2685 48.8925L77.2859 48.2979L77.2918 47.7003H77.2918ZM77.2918 47.7003C77.2918 47.5592 77.4058 47.4448 77.5463 47.4448C77.6868 47.4448 77.8007 47.5592 77.8007 47.7003H77.2918ZM71.931 30.2073L72.291 30.5687L72.3193 30.2412L72.6389 30.7077L72.9499 31.1804L73.2525 31.6591L73.5463 32.144L73.8314 32.6346L74.1077 33.131L74.3748 33.6332L74.6328 34.1407L74.8816 34.6538L75.121 35.1721L75.351 35.6958L75.5714 36.2244L75.7822 36.7582L75.9831 37.2968L76.1742 37.8401L76.3552 38.3882L76.526 38.9408L76.6867 39.4979L76.8372 40.0592L76.9771 40.6249L77.1064 41.1946L77.2251 41.7682L77.333 42.3458L77.4299 42.927L77.516 43.5121L77.5909 44.1007L77.6546 44.6927L77.7068 45.2879L77.7477 45.8865L77.7772 46.4881L77.7948 47.0928L77.8008 47.7003H77.2919L77.2861 47.1027L77.2687 46.5081L77.2398 45.9166L77.1996 45.328L77.1481 44.7426L77.0855 44.1605L77.0119 43.5819L76.9273 43.0067L76.8319 42.4353L76.726 41.8674L76.6092 41.3033L76.4821 40.7432L76.3446 40.1872L76.1967 39.6353L76.0387 39.0877L75.8707 38.5444L75.6927 38.0057L75.505 37.4715L75.3075 36.942L75.1002 36.4173L74.8836 35.8976L74.6574 35.3828L74.4221 34.8733L74.1775 34.3688L73.9238 33.8697L73.6612 33.3761L73.3897 32.888L73.1094 32.4056L72.8204 31.929L72.5229 31.4582L72.217 30.9936L71.9028 30.5349L71.9312 30.2074L71.931 30.2073ZM71.9027 30.5348C71.8219 30.4193 71.8498 30.2599 71.9647 30.1788C72.0797 30.0978 72.2385 30.1257 72.3192 30.2412L71.9027 30.5348ZM73.0213 29.8351L72.2909 30.5687L71.9309 30.2072L72.6614 29.4737L73.0487 29.5064L73.0212 29.8351H73.0213ZM72.6614 29.4737C72.7608 29.3739 72.922 29.3739 73.0213 29.4737C73.1207 29.5735 73.1207 29.7354 73.0213 29.8351L72.6614 29.4737ZM16.1812 47.7002H16.69L16.6962 48.3241L16.7146 48.945L16.7449 49.5628L16.7873 50.1772L16.8416 50.7883L16.9076 51.396L16.9852 52L17.0742 52.6003L17.1748 53.1968L17.2865 53.7894L17.4094 54.3779L17.5433 54.9622L17.6883 55.5422L17.8441 56.1179L18.0106 56.6891L18.1875 57.2557L18.375 57.8175L18.5728 58.3745L18.7809 58.9265L18.9991 59.4734L19.2273 60.0152L19.4654 60.5515L19.7134 61.0825L19.9709 61.608L20.238 62.1278L20.5145 62.6417L20.8005 63.1498L21.0955 63.6519L21.3996 64.148L21.7128 64.6377L22.0348 65.1212L22.3655 65.5981L21.9507 65.8942L21.6144 65.4093L21.2872 64.918L20.9688 64.42L20.6597 63.9159L20.3597 63.4056L20.0691 62.889L19.788 62.3665L19.5164 61.8381L19.2546 61.304L19.0026 60.7642L18.7605 60.2189L18.5285 59.668L18.3066 59.1121L18.095 58.5508L17.894 57.9846L17.7033 57.4134L17.5234 56.8374L17.3542 56.2568L17.1959 55.6715L17.0486 55.0819L16.9124 54.4878L16.7875 53.8895L16.6738 53.2871L16.5717 52.6806L16.481 52.0704L16.4021 51.4565L16.3352 50.8387L16.28 50.2176L16.237 49.593L16.206 48.9652L16.1874 48.3342L16.1811 47.7002H16.1812ZM16.1812 47.7002C16.1812 47.5592 16.2951 47.4447 16.4356 47.4447C16.5761 47.4447 16.69 47.5592 16.69 47.7002H16.1812ZM22.3381 29.4736L21.9782 29.8351L22.3655 29.8023L22.0348 30.2792L21.7128 30.7627L21.3996 31.2525L21.0955 31.7485L20.8005 32.2507L20.5145 32.7587L20.238 33.2728L19.9709 33.7925L19.7134 34.3179L19.4654 34.8489L19.2273 35.3854L18.9991 35.927L18.7809 36.474L18.5728 37.026L18.375 37.583L18.1875 38.1448L18.0106 38.7114L17.8441 39.2826L17.6883 39.8582L17.5433 40.4384L17.4094 41.0226L17.2865 41.6112L17.1748 42.2037L17.0742 42.8001L16.9852 43.4005L16.9076 44.0046L16.8416 44.6121L16.7873 45.2233L16.7449 45.8377L16.7146 46.4555L16.6962 47.0764L16.69 47.7003H16.1812L16.1875 47.0663L16.206 46.4353L16.237 45.8075L16.2801 45.1828L16.3353 44.5617L16.4022 43.9441L16.4811 43.3301L16.5718 42.7198L16.6739 42.1134L16.7876 41.511L16.9125 40.9127L17.0487 40.3187L17.196 39.7289L17.3543 39.1437L17.5235 38.5631L17.7034 37.9871L17.8941 37.416L18.0951 36.8497L18.3067 36.2885L18.5286 35.7324L18.7606 35.1816L19.0027 34.6363L19.2547 34.0965L19.5165 33.5623L19.788 33.034L20.0692 32.5115L20.3598 31.995L20.6598 31.4845L20.9689 30.9804L21.2873 30.4825L21.6145 29.9912L21.9508 29.5063L22.3381 29.4735V29.4736ZM21.9508 29.5064C22.0321 29.3914 22.191 29.3644 22.3056 29.4461C22.4201 29.5278 22.4469 29.6874 22.3656 29.8024L21.9508 29.5064ZM22.7087 30.5686L21.9783 29.8351L22.3382 29.4736L23.0686 30.2071L23.097 30.5346L22.7088 30.5685L22.7087 30.5686ZM23.0686 30.2071C23.168 30.3069 23.168 30.4688 23.0686 30.5686C22.9693 30.6684 22.8081 30.6684 22.7087 30.5686L23.0686 30.2071ZM17.7079 47.7002H17.199L17.205 47.0927L17.2226 46.488L17.2521 45.8864L17.293 45.2879L17.3452 44.6925L17.4089 44.1006L17.4838 43.512L17.5699 42.927L17.6668 42.3456L17.7748 41.7681L17.8934 41.1945L18.0228 40.6248L18.1627 40.0592L18.3131 39.4978L18.4738 38.9407L18.6446 38.3881L18.8256 37.84L19.0167 37.2966L19.2177 36.7581L19.4284 36.2244L19.6488 35.6957L19.8788 35.172L20.1182 34.6536L20.367 34.1406L20.625 33.6331L20.8921 33.131L21.1684 32.6345L21.4534 32.1438L21.7473 31.6591L22.0498 31.1802L22.3608 30.7076L22.6804 30.2412L23.097 30.5347L22.7828 30.9934L22.4769 31.458L22.1794 31.9289L21.8904 32.4055L21.6102 32.8879L21.3387 33.376L21.0761 33.8696L20.8224 34.3687L20.5778 34.8731L20.3425 35.3827L20.1163 35.8974L19.8997 36.4172L19.6925 36.9419L19.4949 37.4713L19.3072 38.0056L19.1292 38.5444L18.9612 39.0875L18.8032 39.6351L18.6554 40.187L18.5178 40.7431L18.3907 41.3032L18.274 41.8672L18.168 42.4351L18.0726 43.0067L17.988 43.5817L17.9143 44.1604L17.8518 44.7425L17.8003 45.3279L17.7601 45.9165L17.7312 46.508L17.7138 47.1027L17.708 47.7002H17.7079ZM17.7079 47.7002C17.7079 47.8413 17.5939 47.9557 17.4535 47.9557C17.313 47.9557 17.199 47.8413 17.199 47.7002H17.7079ZM23.0686 65.1933L22.7087 64.8319L22.6803 65.1593L22.3607 64.6929L22.0497 64.2202L21.7472 63.7415L21.4533 63.2567L21.1682 62.766L20.892 62.2696L20.6249 61.7675L20.3669 61.2598L20.1182 60.7468L19.8787 60.2285L19.6488 59.7048L19.4283 59.1762L19.2175 58.6424L19.0166 58.1038L18.8255 57.5605L18.6445 57.0124L18.4736 56.4598L18.3129 55.9027L18.1625 55.3413L18.0226 54.7757L17.8933 54.206L17.7746 53.6324L17.6668 53.0548L17.5698 52.4735L17.4837 51.8885L17.4088 51.2999L17.3452 50.7079L17.2929 50.1126L17.252 49.514L17.2225 48.9124L17.2049 48.3077L17.1989 47.7002H17.7078L17.7136 48.2978L17.7311 48.8924L17.7599 49.484L17.8001 50.0726L17.8516 50.658L17.9142 51.24L17.9878 51.8187L18.0724 52.3938L18.1678 52.9653L18.2738 53.5332L18.3905 54.0973L18.5176 54.6574L18.6551 55.2133L18.8029 55.7653L18.9609 56.3129L19.129 56.8563L19.3069 57.3949L19.4947 57.9291L19.6923 58.4586L19.8995 58.9833L20.1162 59.5031L20.3423 60.0178L20.5776 60.5274L20.8222 61.0319L21.0759 61.5309L21.3386 62.0246L21.61 62.5127L21.8903 62.995L22.1792 63.4717L22.4767 63.9424L22.7826 64.4071L23.0968 64.8658L23.0685 65.1932L23.0686 65.1933ZM23.097 64.8659C23.1776 64.9813 23.1498 65.1408 23.0348 65.2218C22.9198 65.3028 22.761 65.2748 22.6804 65.1594L23.097 64.8659ZM21.9783 65.5654L22.7088 64.8319L23.0687 65.1934L22.3383 65.9268L21.9509 65.8941L21.9784 65.5654H21.9783ZM22.3383 65.9268C22.2389 66.0266 22.0777 66.0266 21.9783 65.9268C21.879 65.827 21.879 65.6652 21.9783 65.5654L22.3383 65.9268Z" fill="#2B2A29"/>
<path fill-rule="evenodd" clip-rule="evenodd" d="M44.7966 51.1012C44.6246 50.7365 44.4144 50.5063 44.2424 50.0458C44.0895 49.6428 44.0131 49.1439 44.0322 48.6642C44.0895 47.417 44.5099 47.2059 44.8921 46.4575C44.4907 46.2656 44.1658 45.9778 43.7263 45.7091C42.4269 44.9031 41.3951 44.4426 39.8854 43.9052C38.0509 43.2528 35.5285 42.8306 33.4074 42.9074C30.6939 42.8881 27.8276 43.7326 25.7064 44.7497C24.0247 45.5556 21.1393 47.3401 20.1074 48.741C20.4896 49.6237 23.872 51.8113 24.9802 52.4063C29.2989 54.6515 34.3627 55.2846 39.121 53.8646C41.0128 53.308 43.2486 52.2909 44.7965 51.1012H44.7966Z" fill="#056137"/>
<path fill-rule="evenodd" clip-rule="evenodd" d="M50.1661 46.4764C50.3572 46.841 50.5865 47.0713 50.7776 47.5318C51.561 49.4507 50.3954 50.6789 50.2234 51.1586C51.1024 51.6383 51.4846 52.0413 52.8414 52.6938C56.1855 54.3248 59.7207 54.9966 63.5615 54.4976C66.0266 54.1906 68.0904 53.4422 70.0204 52.4444C71.4536 51.7151 74.2626 49.8153 74.8932 48.7791C74.0906 47.5701 70.8803 45.536 69.3324 44.8068C67.7272 44.0392 63.657 42.6576 61.5932 42.9838C60.0837 42.6576 56.4337 43.4636 55.0961 43.9433C53.2426 44.5957 51.5609 45.4785 50.166 46.4764H50.1661Z" fill="#056137"/>
<path fill-rule="evenodd" clip-rule="evenodd" d="M45.5229 61.6559C43.9177 61.0035 42.7139 60.1208 40.6119 60.1208C36.0448 60.1208 33.8282 63.997 37.9558 65.7625C40.6119 66.914 43.0579 66.0119 45.4273 64.7839C46.1726 64.4001 46.8032 63.9779 47.4912 63.6133C47.8543 63.7283 48.4466 64.1314 48.7907 64.3233C49.2302 64.5727 49.6124 64.803 50.071 65.014C50.9309 65.4171 51.9437 65.8776 52.9755 66.1271C55.2878 66.6836 58.0013 65.8201 58.9186 64.3617C59.6256 63.2486 59.186 62.2699 58.5172 61.5599C57.9057 60.9267 56.912 60.4661 55.8037 60.255C52.5743 59.641 50.5105 61.4447 49.5168 61.6558C49.6888 61.4832 50.1283 60.9074 50.3385 60.658C51.1793 59.6794 54.3323 56.0909 54.7145 55.3617C55.4024 54.1144 54.5426 53.4044 53.3196 53.4044L41.7776 53.4043C40.5355 53.4043 39.7329 54.0568 40.3444 55.3232C40.6692 55.9756 41.5865 56.9543 42.0451 57.4916C42.7521 58.3744 45.0262 60.9074 45.523 61.6558L45.5229 61.6559Z" fill="#E14124"/>
<path fill-rule="evenodd" clip-rule="evenodd" d="M53.4529 34.5784C53.4337 34.5976 53.4147 34.6166 53.3955 34.6359L52.3827 35.6337C50.4145 37.5719 47.7201 42.945 47.7965 45.3436C48.2934 45.382 48.7328 45.5163 49.1342 45.7274C49.5736 45.9577 49.8412 46.3223 50.147 46.4951C51.5419 45.5164 53.2236 44.6336 55.0962 43.9621C56.453 43.4824 60.1029 42.6764 61.5934 43.0026C61.6699 42.8299 63.1221 41.1028 63.6381 40.316C65.5681 37.3607 67.0777 33.024 66.8675 29.3203C64.0776 29.3203 61.3259 29.896 59.0711 30.8939C57.9627 31.3736 56.9499 31.8917 56.0327 32.525C55.2875 32.9857 53.9306 33.9644 53.453 34.5784H53.4529Z" fill="#018D41"/>
<path fill-rule="evenodd" clip-rule="evenodd" d="M33.3881 42.9456C35.5093 42.8496 38.0316 43.2718 39.8661 43.9435C41.3757 44.4808 42.4076 44.9605 43.7071 45.7473C44.1465 46.0159 44.4714 46.2846 44.8727 46.4957C45.5224 45.9583 45.9428 45.4594 47.204 45.325C47.1659 43.6748 45.8472 40.5277 45.1593 39.2803C44.6435 38.34 44.1275 37.5533 43.5541 36.7856C42.9235 35.9797 42.293 35.3272 41.6623 34.6364C40.5922 33.7729 40.4393 33.485 39.0253 32.5448C35.9678 30.549 31.9167 29.1866 28.0566 29.3017C28.2669 30.8176 28.0185 31.2783 28.5153 33.5427C29.1841 36.6129 30.732 40.0287 32.834 42.2739C33.025 42.485 33.2543 42.7344 33.3881 42.9456V42.9456Z" fill="#018D41"/>
<path fill-rule="evenodd" clip-rule="evenodd" d="M42.5984 29.1096C42.4265 29.954 42.1398 30.7791 41.9678 31.7002C41.7768 32.7172 41.7768 33.5807 41.6621 34.6169C42.2928 35.3077 42.9424 35.9602 43.5539 36.7661C44.1463 37.5337 44.6432 38.3012 45.1591 39.2608C45.8279 40.508 47.1656 43.6744 47.2038 45.3055H47.7962C47.7197 42.9069 50.4142 37.5337 52.3824 35.5956L53.3951 34.5977C53.4143 34.5785 53.4333 34.5594 53.4525 34.5402C53.3569 34.4827 53.3187 34.6361 53.2806 34.0412C53.0895 31.2011 52.6691 29.5125 51.4652 26.826C50.8154 25.3483 48.5415 21.7983 47.4906 21.2227C46.1529 22.2205 44.3758 25.0798 43.5159 26.8452C43.191 27.5552 42.9043 28.5531 42.5985 29.1096H42.5984Z" fill="#95BE32"/>
<path fill-rule="evenodd" clip-rule="evenodd" d="M44.8921 46.4757C44.5099 47.2241 44.0895 47.4352 44.0322 48.6825C44.013 49.1622 44.0895 49.6419 44.2424 50.064C44.4144 50.5054 44.6246 50.7356 44.7966 51.1195C45.1215 51.3305 45.3508 51.6376 45.8475 51.9254C46.8411 52.4627 48.0642 52.501 49.0578 52.0021C49.5737 51.7527 49.8413 51.4073 50.2235 51.1578C50.3955 50.6973 51.5612 49.4691 50.7777 47.531C50.5867 47.0704 50.3573 46.8401 50.1663 46.4756C49.8605 46.303 49.593 45.9383 49.1534 45.708C48.7521 45.4969 48.3126 45.3625 47.8158 45.3242H47.2234C45.9623 45.4586 45.5419 45.9383 44.8921 46.4757H44.8921Z" fill="#E14124"/>
<path d="M30.6346 69.927H31.3679L31.3362 69.818C31.2486 69.521 31.177 69.2679 31.1211 69.0589C31.0653 68.8497 31.0313 68.7149 31.0193 68.6543L31.0012 68.5633C30.977 68.7301 30.8654 69.1482 30.6662 69.8179L30.6345 69.927L30.6346 69.927ZM31.721 71.118L31.5354 70.4907H30.4671L30.2815 71.118H29.5527L30.5712 68.0543H31.4495L32.468 71.118H31.721H31.721ZM33.4818 71.0817L32.5946 68.8134H33.3143L33.5633 69.5316C33.6266 69.7164 33.6786 69.8756 33.7194 70.0089C33.7602 70.1422 33.7851 70.2302 33.7942 70.2726L33.8077 70.3362C33.841 70.2149 33.9224 69.9468 34.0522 69.5316L34.2786 68.8134H34.9575L34.1292 71.0499C33.8908 71.6953 33.5271 72.0182 33.0382 72.0182C32.9446 72.0182 32.8602 72.0106 32.7847 71.9954V71.4682C32.833 71.4803 32.8844 71.4863 32.9386 71.4863C33.1891 71.4863 33.3702 71.3515 33.4818 71.0818V71.0817ZM36.6732 68.8134H37.334V71.1181H36.6732V70.7499C36.5524 71.0074 36.3201 71.1363 35.976 71.1363C35.7406 71.1363 35.5573 71.0703 35.426 70.9385C35.2947 70.8067 35.2291 70.612 35.2291 70.3544V68.8134H35.89V70.2044C35.89 70.474 36.0077 70.609 36.2431 70.609C36.5298 70.609 36.6732 70.4165 36.6732 70.0316V68.8134ZM39.3258 68.8816V69.4498C39.1658 69.3559 38.9787 69.3089 38.7645 69.3089C38.686 69.3089 38.6256 69.3248 38.5834 69.3566C38.5412 69.3885 38.52 69.4286 38.52 69.477C38.52 69.5044 38.5276 69.5301 38.5427 69.5543C38.5578 69.5787 38.5827 69.6013 38.6174 69.6225C38.6521 69.6438 38.6853 69.6627 38.717 69.6793C38.7487 69.696 38.7925 69.7164 38.8483 69.7407C38.9041 69.765 38.9486 69.7861 38.9819 69.8044C39.1207 69.8771 39.2323 69.9612 39.3168 70.0566C39.4013 70.1521 39.4435 70.2741 39.4435 70.4226C39.4435 70.6499 39.362 70.8256 39.1991 70.9499C39.0361 71.0741 38.8204 71.1363 38.5518 71.1363C38.2742 71.1363 38.0418 71.0893 37.8547 70.9953V70.4044C38.063 70.5498 38.2833 70.6226 38.5156 70.6226C38.6816 70.6226 38.7646 70.5696 38.7646 70.4635C38.7646 70.4361 38.757 70.4104 38.7419 70.3862C38.7268 70.3619 38.7011 70.3392 38.6649 70.318C38.6287 70.2967 38.5955 70.2794 38.5653 70.2658C38.5351 70.2521 38.4913 70.2331 38.434 70.209C38.3767 70.1846 38.3329 70.165 38.3027 70.1498C37.9979 70.0043 37.8455 69.7861 37.8455 69.4953C37.8455 69.271 37.9309 69.0968 38.1013 68.9725C38.2717 68.8483 38.4838 68.7862 38.7372 68.7862C38.9726 68.7862 39.1689 68.818 39.3257 68.8817L39.3258 68.8816ZM40.5117 67.9043V69.2044C40.6293 68.9286 40.8588 68.7907 41.1998 68.7907C41.4231 68.7907 41.6049 68.8619 41.7453 69.0044C41.8856 69.1468 41.9557 69.3621 41.9557 69.6499V71.1181H41.2949V69.7544C41.2949 69.6211 41.2616 69.5165 41.1952 69.4407C41.1289 69.3649 41.0428 69.3271 40.9372 69.3271C40.892 69.3271 40.849 69.334 40.8082 69.3476C40.7675 69.3612 40.723 69.3854 40.6747 69.4203C40.6265 69.4551 40.5872 69.5143 40.557 69.5976C40.5268 69.6809 40.5118 69.7817 40.5118 69.8998V71.1181H39.8509V67.9043H40.5118H40.5117ZM43.1372 68.8134V69.1726C43.2639 68.918 43.4797 68.7907 43.7845 68.7907C44.1074 68.7907 44.3216 68.9362 44.4273 69.2271C44.4785 69.0907 44.5646 68.9839 44.6853 68.9066C44.8059 68.8293 44.9478 68.7907 45.1108 68.7907C45.3372 68.7907 45.516 68.8627 45.6472 69.0067C45.7785 69.1506 45.8441 69.3621 45.8441 69.6408V71.1182H45.1832V69.7499C45.1832 69.6196 45.1576 69.5165 45.1063 69.4408C45.055 69.365 44.9811 69.3272 44.8844 69.3272C44.7819 69.3272 44.6906 69.3688 44.6106 69.4522C44.5306 69.5355 44.4906 69.6848 44.4906 69.8999V71.1182H43.8298V69.7499C43.8298 69.6196 43.8041 69.5165 43.7528 69.4408C43.7015 69.365 43.6275 69.3272 43.531 69.3272C43.4284 69.3272 43.3371 69.3688 43.2571 69.4522C43.1771 69.5355 43.1372 69.6848 43.1372 69.8999V71.1182H42.4763V68.8135H43.1372L43.1372 68.8134ZM47.5009 70.1726H47.2882C47.1765 70.1726 47.0905 70.1969 47.0302 70.2454C46.9698 70.2938 46.9396 70.3559 46.9396 70.4317C46.9396 70.5862 47.0287 70.6635 47.2067 70.6635C47.3002 70.6635 47.3726 70.6347 47.424 70.5772C47.4752 70.5196 47.5009 70.4408 47.5009 70.3408V70.1727V70.1726ZM46.4281 69.5226V68.9271C46.6091 68.8241 46.8702 68.7725 47.2112 68.7725C47.5371 68.7725 47.78 68.843 47.94 68.9839C48.0999 69.1248 48.1798 69.3438 48.1798 69.6407V71.1181H47.5326V70.8363C47.436 71.0332 47.2459 71.1318 46.9622 71.1318C46.7389 71.1318 46.5647 71.0681 46.4394 70.9409C46.3142 70.8136 46.2516 70.6545 46.2516 70.4636C46.2516 70.2423 46.3323 70.0704 46.4938 69.9476C46.6552 69.8249 46.8943 69.7636 47.2112 69.7636H47.5009V69.6044C47.5009 69.4105 47.3726 69.3135 47.1161 69.3135C46.8687 69.3135 46.6393 69.3832 46.4281 69.5226ZM49.3614 68.8135V69.2044C49.4187 69.0771 49.507 68.9763 49.6262 68.9021C49.7454 68.8279 49.888 68.7908 50.054 68.7908C50.2893 68.7908 50.4735 68.8613 50.6063 69.0022C50.739 69.1431 50.8054 69.35 50.8054 69.6227V71.1183H50.1445V69.7454C50.1445 69.6091 50.1128 69.5053 50.0495 69.4341C49.9861 69.3629 49.897 69.3272 49.7824 69.3272C49.6617 69.3272 49.5613 69.375 49.4814 69.4705C49.4014 69.566 49.3615 69.7091 49.3615 69.9001V71.1183H48.7006V68.8136H49.3615L49.3614 68.8135ZM53.1774 70.559H53.5441C53.8881 70.559 54.0601 70.4408 54.0601 70.2045C54.0601 69.9681 53.8896 69.8498 53.5486 69.8498H53.1774V70.5589L53.1774 70.559ZM53.1774 68.6135V69.2999H53.4354C53.6164 69.2999 53.753 69.2665 53.845 69.1999C53.9371 69.1332 53.9831 69.0453 53.9831 68.9362C53.9831 68.721 53.8382 68.6135 53.5486 68.6135H53.1774H53.1774ZM52.4802 68.0543H53.6662C54.0012 68.0543 54.2562 68.1339 54.4312 68.2929C54.6062 68.4521 54.6938 68.6544 54.6938 68.8998C54.6938 69.0605 54.6516 69.2014 54.567 69.3226C54.4825 69.4437 54.3724 69.5256 54.2366 69.568C54.5897 69.674 54.7662 69.9135 54.7662 70.2862C54.7662 70.5286 54.6794 70.7279 54.5059 70.884C54.3324 71.0401 54.0963 71.1181 53.7975 71.1181H52.4803V68.0543H52.4802ZM55.8571 67.9043V69.2044C55.9747 68.9286 56.2041 68.7907 56.5452 68.7907C56.7685 68.7907 56.9503 68.8619 57.0907 69.0044C57.231 69.1468 57.3011 69.3621 57.3011 69.6499V71.1181H56.6402V69.7544C56.6402 69.6211 56.607 69.5165 56.5406 69.4407C56.4743 69.3649 56.3882 69.3271 56.2826 69.3271C56.2374 69.3271 56.1943 69.334 56.1536 69.3476C56.1129 69.3612 56.0684 69.3854 56.0201 69.4203C55.9719 69.4551 55.9326 69.5143 55.9024 69.5976C55.8722 69.6809 55.8572 69.7817 55.8572 69.8998V71.1181H55.1963V67.9043H55.8572H55.8571ZM58.9579 70.1726H58.7452C58.6336 70.1726 58.5475 70.1969 58.4872 70.2454C58.4268 70.2938 58.3966 70.3559 58.3966 70.4317C58.3966 70.5862 58.4857 70.6635 58.6637 70.6635C58.7572 70.6635 58.8297 70.6347 58.881 70.5772C58.9322 70.5196 58.9579 70.4408 58.9579 70.3408V70.1727V70.1726ZM57.8851 69.5226V68.9271C58.0661 68.8241 58.3272 68.7725 58.6682 68.7725C58.9941 68.7725 59.237 68.843 59.397 68.9839C59.5569 69.1248 59.6368 69.3438 59.6368 69.6407V71.1181H58.9896V70.8363C58.893 71.0332 58.7029 71.1318 58.4192 71.1318C58.1959 71.1318 58.0217 71.0681 57.8964 70.9409C57.7712 70.8136 57.7086 70.6545 57.7086 70.4636C57.7086 70.2423 57.7893 70.0704 57.9508 69.9476C58.1122 69.8249 58.3513 69.7636 58.6682 69.7636H58.9579V69.6044C58.9579 69.4105 58.8297 69.3135 58.5732 69.3135C58.3258 69.3135 58.0963 69.3832 57.8851 69.5226ZM60.8139 68.8135V69.2408C60.8561 69.1074 60.9262 69.0007 61.0244 68.9204C61.1225 68.84 61.2364 68.7999 61.3662 68.7999C61.4386 68.7999 61.4959 68.806 61.5381 68.8181V69.4454C61.4657 69.4121 61.3827 69.3955 61.2892 69.3955C61.1474 69.3955 61.0327 69.4477 60.9451 69.5523C60.8576 69.6568 60.8139 69.7955 60.8139 69.9683V71.1183H60.153L60.1576 68.8136H60.8139V68.8135ZM62.9686 70.1727H62.7558C62.6442 70.1727 62.5581 70.1969 62.4978 70.2454C62.4374 70.2938 62.4072 70.356 62.4072 70.4318C62.4072 70.5863 62.4963 70.6636 62.6743 70.6636C62.7678 70.6636 62.8403 70.6348 62.8916 70.5773C62.9428 70.5197 62.9686 70.4408 62.9686 70.3409V70.1728V70.1727ZM61.8957 69.5226V68.9272C62.0768 68.8242 62.3378 68.7726 62.6788 68.7726C63.0047 68.7726 63.2476 68.8431 63.4076 68.984C63.5675 69.1249 63.6474 69.3439 63.6474 69.6408V71.1182H63.0002V70.8364C62.9036 71.0333 62.7135 71.1319 62.4298 71.1319C62.2065 71.1319 62.0323 71.0682 61.907 70.9409C61.7818 70.8136 61.7192 70.6546 61.7192 70.4636C61.7192 70.2424 61.7999 70.0704 61.9614 69.9477C62.1228 69.8249 62.3619 69.7637 62.6788 69.7637H62.9686V69.6045C62.9686 69.4105 62.8403 69.3136 62.5838 69.3136C62.3364 69.3136 62.107 69.3833 61.8957 69.5226ZM64.9331 69.2999V70.3591C64.9331 70.4408 64.9565 70.503 65.0032 70.5453C65.05 70.5878 65.1111 70.609 65.1866 70.609C65.3073 70.609 65.4145 70.5787 65.5079 70.5181V71.0681C65.3963 71.1166 65.2454 71.1408 65.0553 71.1408C64.5333 71.1408 64.2722 70.8787 64.2722 70.3545V69.2999H63.9418V68.8135H64.2722V68.268H64.9331V68.8135H65.4672V69.2999H64.9331Z" fill="#2B2A29"/>
<path d="M22.3141 77.6147H22.8946C23.4087 77.6147 23.8054 77.4537 24.0846 77.1317C24.3638 76.8097 24.5034 76.3544 24.5034 75.7659C24.5034 75.2662 24.3624 74.8651 24.0804 74.5625C23.7985 74.2601 23.4004 74.1087 22.8863 74.1087H22.3141V77.6147ZM21.0039 73.0512H22.9278C23.7681 73.0512 24.4564 73.3107 24.9927 73.8297C25.5289 74.3488 25.7971 74.9942 25.7971 75.7659C25.7971 76.6653 25.5331 77.3731 25.0051 77.8895C24.4771 78.4057 23.7791 78.6639 22.9112 78.6639H21.0039V73.0511V73.0512ZM26.6678 78.664V74.4419H27.8786V78.664H26.6678ZM26.7756 73.7173C26.6374 73.5786 26.5682 73.412 26.5682 73.2177C26.5682 73.0233 26.6374 72.8567 26.7756 72.718C26.9138 72.5791 27.0796 72.5098 27.2732 72.5098C27.4667 72.5098 27.6326 72.5791 27.7708 72.718C27.909 72.8567 27.9781 73.0232 27.9781 73.2177C27.9781 73.412 27.909 73.5786 27.7708 73.7173C27.6326 73.8561 27.4668 73.9255 27.2732 73.9255C27.0797 73.9255 26.9138 73.8561 26.7756 73.7173ZM30.781 77.5564C31.0408 77.5564 31.244 77.4579 31.3906 77.2608C31.5371 77.0637 31.6103 76.8263 31.6103 76.5488C31.6103 75.7937 31.3367 75.4162 30.7894 75.4162C30.5461 75.4162 30.3554 75.5106 30.2172 75.6994C30.0789 75.8881 30.0098 76.149 30.0098 76.4821C30.0098 76.8319 30.0762 77.0984 30.2089 77.2816C30.3416 77.4647 30.5322 77.5564 30.781 77.5564ZM31.6103 74.4419H32.8128V78.2559C32.8128 78.9332 32.611 79.4426 32.2074 79.784C31.8039 80.1255 31.298 80.2961 30.6898 80.2961C30.0983 80.2961 29.5814 80.1907 29.1391 79.9797V78.7389C29.5261 79.0498 30.0015 79.2053 30.5655 79.2053C30.9304 79.2053 31.1957 79.1275 31.3616 78.972C31.5275 78.8165 31.6103 78.5723 31.6103 78.2392V77.956C31.3671 78.3336 30.98 78.5224 30.4494 78.5224C29.9849 78.5224 29.5855 78.3503 29.251 78.0061C28.9165 77.6619 28.7494 77.1512 28.7494 76.4738C28.7494 75.8742 28.9111 75.3787 29.2345 74.9873C29.5579 74.5959 29.9823 74.4002 30.5074 74.4002C31.0051 74.4002 31.3726 74.6 31.6103 74.9998V74.4419ZM33.8079 78.664V74.4419H35.0187V78.664H33.8079ZM33.9157 73.7173C33.7775 73.5786 33.7083 73.412 33.7083 73.2177C33.7083 73.0233 33.7775 72.8567 33.9157 72.718C34.0539 72.5791 34.2197 72.5098 34.4133 72.5098C34.6068 72.5098 34.7727 72.5791 34.9109 72.718C35.0491 72.8567 35.1182 73.0232 35.1182 73.2177C35.1182 73.412 35.0491 73.5786 34.9109 73.7173C34.7727 73.8561 34.6069 73.9255 34.4133 73.9255C34.2198 73.9255 34.0539 73.8561 33.9157 73.7173ZM37.4567 75.3329V77.2733C37.4567 77.4231 37.4996 77.537 37.5852 77.6147C37.671 77.6925 37.7829 77.7313 37.9211 77.7313C38.1423 77.7313 38.3386 77.6757 38.5099 77.5647V78.5723C38.3053 78.6612 38.0289 78.7056 37.6806 78.7056C36.7241 78.7056 36.2459 78.2253 36.2459 77.2649V75.3328H35.6405V74.4418H36.2459V73.4424H37.4566V74.4418H38.4352V75.3328H37.4566L37.4567 75.3329ZM41.3378 76.9318H40.948C40.7434 76.9318 40.5858 76.9762 40.4753 77.0651C40.3648 77.1539 40.3094 77.2677 40.3094 77.4065C40.3094 77.6897 40.4725 77.8312 40.7987 77.8312C40.97 77.8312 41.1027 77.7785 41.1967 77.6729C41.2908 77.5676 41.3378 77.4231 41.3378 77.2399V76.9318ZM39.3723 75.741V74.6501C39.7041 74.4613 40.1822 74.3669 40.807 74.3669C41.4041 74.3669 41.8491 74.4959 42.1422 74.7541C42.4351 75.0122 42.5816 75.4133 42.5816 75.9575V78.664H41.3958V78.1477C41.2189 78.5086 40.8706 78.689 40.3509 78.689C39.9418 78.689 39.6225 78.5724 39.3931 78.3392C39.1636 78.106 39.0489 77.8146 39.0489 77.4647C39.0489 77.0595 39.1968 76.7444 39.4926 76.5196C39.7884 76.2947 40.2264 76.1823 40.8069 76.1823H41.3377V75.8908C41.3377 75.5354 41.1027 75.3578 40.6328 75.3578C40.1795 75.3578 39.7593 75.4855 39.3723 75.7409V75.741ZM43.5767 78.664V72.7763H44.7875V78.664H43.5767ZM47.8144 78.664L48.2953 73.0512H49.6968L50.4763 75.0831C50.609 75.4217 50.7223 75.7326 50.8164 76.0158C50.9103 76.299 50.9712 76.4989 50.9988 76.6154L51.0402 76.782C51.1286 76.4156 51.3222 75.8493 51.6207 75.0831L52.4085 73.0512H53.8099L54.3904 78.664H53.1133L52.9059 76.4904L52.7982 74.8498C52.6545 75.2662 52.4554 75.8131 52.2012 76.4904L51.4133 78.6056H50.6587L49.8792 76.4904C49.752 76.1461 49.6443 75.8381 49.5557 75.566C49.4673 75.294 49.4093 75.1053 49.3816 74.9997L49.3402 74.8498C49.3402 75.2439 49.3153 75.7909 49.2656 76.4904L49.0914 78.664H47.8144ZM55.3442 78.664V74.4419H56.555V78.664H55.3442ZM55.4519 73.7173C55.3138 73.5786 55.2446 73.412 55.2446 73.2177C55.2446 73.0233 55.3138 72.8567 55.4519 72.718C55.5902 72.5791 55.756 72.5098 55.9495 72.5098C56.1431 72.5098 56.309 72.5791 56.4471 72.718C56.5854 72.8567 56.6545 73.0232 56.6545 73.2177C56.6545 73.412 56.5854 73.5786 56.4471 73.7173C56.309 73.8561 56.1432 73.9255 55.9495 73.9255C55.7561 73.9255 55.5902 73.8561 55.4519 73.7173ZM60.2452 74.5668V75.6076C59.9522 75.4356 59.6095 75.3495 59.2169 75.3495C59.0731 75.3495 58.9625 75.3787 58.8852 75.437C58.8077 75.4953 58.7691 75.5688 58.7691 75.6577C58.7691 75.7076 58.7829 75.7549 58.8105 75.7993C58.8382 75.8437 58.8837 75.8854 58.9473 75.9242C59.0109 75.963 59.0717 75.9977 59.1298 76.0282C59.1878 76.0588 59.268 76.0962 59.3702 76.1406C59.4724 76.185 59.554 76.2239 59.6148 76.2572C59.8692 76.3904 60.0737 76.5445 60.2285 76.7194C60.3833 76.8942 60.4607 77.1177 60.4607 77.3898C60.4607 77.8062 60.3115 78.1282 60.013 78.3558C59.7144 78.5835 59.3191 78.6972 58.8271 78.6972C58.3186 78.6972 57.8928 78.6111 57.55 78.4391V77.3565C57.9315 77.6229 58.335 77.7562 58.7608 77.7562C59.0648 77.7562 59.2169 77.659 59.2169 77.4647C59.2169 77.4147 59.203 77.3675 59.1754 77.3231C59.1477 77.2787 59.1008 77.237 59.0344 77.1982C58.9681 77.1594 58.9073 77.1274 58.852 77.1024C58.7967 77.0774 58.7166 77.0427 58.6115 76.9983C58.5065 76.954 58.4264 76.9178 58.3711 76.8901C57.8127 76.6236 57.5335 76.2239 57.5335 75.6909C57.5335 75.2801 57.6898 74.9609 58.0021 74.7333C58.3144 74.5055 58.7029 74.3918 59.1672 74.3918C59.5986 74.3918 59.9578 74.4501 60.2453 74.5667L60.2452 74.5668ZM63.8608 74.5668V75.6076C63.5678 75.4356 63.2251 75.3495 62.8325 75.3495C62.6888 75.3495 62.5782 75.3787 62.5008 75.437C62.4233 75.4953 62.3847 75.5688 62.3847 75.6577C62.3847 75.7076 62.3986 75.7549 62.4261 75.7993C62.4538 75.8437 62.4994 75.8854 62.563 75.9242C62.6265 75.963 62.6873 75.9977 62.7454 76.0282C62.8034 76.0588 62.8836 76.0962 62.9858 76.1406C63.088 76.185 63.1696 76.2239 63.2304 76.2572C63.4848 76.3904 63.6893 76.5445 63.8442 76.7194C63.999 76.8942 64.0763 77.1177 64.0763 77.3898C64.0763 77.8062 63.9271 78.1282 63.6286 78.3558C63.33 78.5835 62.9347 78.6972 62.4427 78.6972C61.9342 78.6972 61.5084 78.6111 61.1657 78.4391V77.3565C61.5471 77.6229 61.9507 77.7562 62.3764 77.7562C62.6804 77.7562 62.8325 77.659 62.8325 77.4647C62.8325 77.4147 62.8186 77.3675 62.7911 77.3231C62.7633 77.2787 62.7164 77.237 62.65 77.1982C62.5837 77.1594 62.5229 77.1274 62.4677 77.1024C62.4123 77.0774 62.3322 77.0427 62.2272 76.9983C62.1222 76.954 62.042 76.9178 61.9867 76.8901C61.4283 76.6236 61.1492 76.2239 61.1492 75.6909C61.1492 75.2801 61.3054 74.9609 61.6178 74.7333C61.93 74.5055 62.3185 74.3918 62.7829 74.3918C63.2142 74.3918 63.5735 74.4501 63.861 74.5667L63.8608 74.5668ZM64.8642 78.664V74.4419H66.075V78.664H64.8642ZM64.972 73.7173C64.8338 73.5786 64.7646 73.412 64.7646 73.2177C64.7646 73.0233 64.8338 72.8567 64.972 72.718C65.1102 72.5791 65.276 72.5098 65.4696 72.5098C65.6631 72.5098 65.829 72.5791 65.9672 72.718C66.1054 72.8567 66.1745 73.0232 66.1745 73.2177C66.1745 73.412 66.1054 73.5786 65.9672 73.7173C65.829 73.8561 65.6632 73.9255 65.4696 73.9255C65.2761 73.9255 65.1102 73.8561 64.972 73.7173ZM68.9691 78.7306C68.3113 78.7306 67.8026 78.5321 67.4433 78.1351C67.0839 77.7382 66.9042 77.2288 66.9042 76.607C66.9042 75.9575 67.0922 75.4232 67.4681 75.004C67.8441 74.5848 68.3445 74.3752 68.9692 74.3752C69.6215 74.3752 70.1274 74.5779 70.4867 74.9831C70.8462 75.3884 71.0258 75.9047 71.0258 76.5321C71.0258 77.1705 70.8447 77.6966 70.4826 78.1102C70.1204 78.5238 69.616 78.7306 68.9692 78.7306H68.9691ZM68.9608 75.3329C68.6955 75.3329 68.4964 75.4467 68.3638 75.6744C68.2311 75.902 68.1647 76.1962 68.1647 76.5571C68.1647 76.918 68.2324 77.2136 68.3679 77.444C68.5034 77.6745 68.7066 77.7896 68.9774 77.7896C69.2428 77.7896 69.4404 77.6773 69.5704 77.4523C69.7003 77.2275 69.7652 76.9347 69.7652 76.5737C69.7652 75.7465 69.4971 75.333 68.9608 75.333V75.3329ZM73.0243 74.4419V75.158C73.1293 74.9248 73.291 74.7402 73.5094 74.6041C73.7278 74.4682 73.989 74.4002 74.293 74.4002C74.7243 74.4002 75.0615 74.5292 75.3047 74.7874C75.548 75.0455 75.6697 75.4244 75.6697 75.9241V78.6639H74.4589V76.1489C74.4589 75.8991 74.4009 75.709 74.2848 75.5786C74.1687 75.4481 74.0056 75.3829 73.7955 75.3829C73.5744 75.3829 73.3906 75.4703 73.244 75.6452C73.0975 75.82 73.0243 76.0824 73.0243 76.4321V78.664H71.8135V74.4419H73.0243Z" fill="#E14124"/>
<path d="M12.6068 86.44V86.4311C12.6068 86.2261 12.5557 86.0656 12.4544 85.95C12.353 85.8343 12.213 85.7428 12.0365 85.6754C12.0912 85.646 12.1429 85.6109 12.1904 85.5699C12.2385 85.529 12.2801 85.4813 12.3165 85.4272C12.3529 85.373 12.3814 85.3122 12.4033 85.2448C12.4252 85.1774 12.4362 85.0998 12.4362 85.0119V85.0031C12.4362 84.76 12.3465 84.5668 12.1678 84.4232C11.9885 84.2797 11.7419 84.2079 11.4277 84.2079H10.0078V87.2835H11.4626C11.634 87.2835 11.7908 87.2659 11.9322 87.2308C12.073 87.1956 12.194 87.1429 12.2947 87.0726C12.3946 87.0023 12.4719 86.9144 12.5259 86.809C12.5799 86.7035 12.6069 86.5805 12.6069 86.44H12.6068ZM11.7711 85.1262C11.7711 85.2404 11.7274 85.3232 11.6399 85.3744C11.5524 85.4257 11.4342 85.4513 11.2854 85.4513H10.6641V84.8011H11.3292C11.4721 84.8011 11.5814 84.8282 11.6573 84.8824C11.7332 84.9366 11.771 85.0149 11.771 85.1174V85.1262H11.7711ZM11.9417 86.3565C11.9417 86.4707 11.8995 86.5549 11.8148 86.6091C11.7302 86.6633 11.6136 86.6904 11.4648 86.6904H10.6641V86.0138H11.4429C11.6179 86.0138 11.7447 86.0439 11.8235 86.1039C11.9023 86.1639 11.9416 86.2452 11.9416 86.3477V86.3565H11.9417ZM15.2277 87.2836V84.9285H14.5626V86.2393C14.5626 86.3967 14.5254 86.5161 14.451 86.5959C14.3767 86.6765 14.2753 86.7167 14.147 86.7167C14.0187 86.7167 13.9195 86.6765 13.8494 86.5959C13.7795 86.5161 13.7445 86.3967 13.7445 86.2393V84.9285H13.0794V86.4532C13.0794 86.7255 13.1487 86.9394 13.2873 87.0946C13.4258 87.2499 13.6219 87.3275 13.8757 87.3275C13.9603 87.3275 14.0362 87.3172 14.1033 87.2967C14.1704 87.2754 14.2316 87.2476 14.287 87.2124C14.3424 87.1766 14.3927 87.1363 14.438 87.0909C14.4832 87.0448 14.5248 86.9971 14.5627 86.9466V87.2835H15.2278L15.2277 87.2836ZM16.5358 84.6693V84.0762H15.8357V84.6693H16.5358ZM16.5184 87.2836V84.9285H15.8533V87.2836H16.5184ZM17.8397 87.2836V84.0762H17.1746V87.2836H17.8397ZM20.8236 87.2836V84.0762H20.1586V85.2332C20.0799 85.1402 19.9829 85.0589 19.8676 84.9893C19.7524 84.9198 19.6059 84.8847 19.4279 84.8847C19.2879 84.8847 19.1537 84.9111 19.0254 84.9638C18.8971 85.0164 18.784 85.0949 18.6863 85.1988C18.5886 85.3028 18.5098 85.4302 18.4501 85.581C18.3903 85.7319 18.3604 85.9054 18.3604 86.1016V86.1104C18.3604 86.3067 18.3903 86.4803 18.4501 86.6311C18.5098 86.782 18.5894 86.9094 18.6885 87.0134C18.7877 87.1173 18.9015 87.1956 19.0298 87.2484C19.1581 87.3011 19.2909 87.3275 19.4279 87.3275C19.6029 87.3275 19.748 87.2917 19.8632 87.2206C19.9784 87.1495 20.0769 87.0587 20.1586 86.9481V87.2836H20.8236ZM20.1674 86.1104C20.1674 86.2079 20.1521 86.2972 20.1215 86.3778C20.0908 86.4591 20.05 86.5286 19.9989 86.5857C19.9479 86.6436 19.8882 86.6875 19.8196 86.7191C19.751 86.7498 19.6774 86.7651 19.5986 86.7651C19.5199 86.7651 19.4462 86.7497 19.3776 86.7191C19.3091 86.6875 19.2486 86.6436 19.1961 86.5857C19.1436 86.5286 19.102 86.4591 19.0714 86.3778C19.0408 86.2972 19.0255 86.2079 19.0255 86.1104V86.1016C19.0255 86.0013 19.0408 85.9113 19.0714 85.8322C19.102 85.7524 19.1436 85.6835 19.1961 85.6264C19.2486 85.5686 19.3091 85.5246 19.3776 85.4931C19.4462 85.4623 19.5199 85.447 19.5986 85.447C19.6774 85.447 19.751 85.4624 19.8196 85.4931C19.8882 85.5246 19.9479 85.5686 19.9989 85.6264C20.05 85.6835 20.0909 85.7531 20.1215 85.8344C20.1522 85.915 20.1674 86.0043 20.1674 86.1016V86.1104ZM22.1319 84.6693V84.0763H21.4318V84.6693H22.1319ZM22.1145 87.2837V84.9286H21.4494V87.2837H22.1145ZM24.8884 87.2837V85.759C24.8884 85.4866 24.8191 85.2727 24.6805 85.1176C24.542 84.9623 24.3459 84.8847 24.0921 84.8847C24.0075 84.8847 23.9316 84.8949 23.8645 84.9155C23.7974 84.9368 23.7362 84.9645 23.6808 84.9997C23.6254 85.0356 23.5751 85.0759 23.5299 85.1213C23.4846 85.1674 23.443 85.215 23.4052 85.2655V84.9287H22.7401V87.2837H23.4052V85.973C23.4052 85.8155 23.4423 85.6961 23.5167 85.6163C23.5911 85.5358 23.6924 85.4955 23.8207 85.4955C23.9491 85.4955 24.0483 85.5358 24.1183 85.6163C24.1883 85.6961 24.2232 85.8155 24.2232 85.973V87.2837H24.8883L24.8884 87.2837ZM27.8242 86.752V84.9286H27.1592V85.2361C27.0688 85.1365 26.9652 85.0531 26.8486 84.9857C26.7319 84.9184 26.5832 84.8847 26.4023 84.8847C26.2681 84.8847 26.1383 84.9088 26.0129 84.9572C25.8875 85.0055 25.7767 85.0765 25.6804 85.1703C25.5841 85.264 25.5068 85.379 25.4484 85.5152C25.3901 85.6514 25.3609 85.8074 25.3609 85.9831V85.9919C25.3609 86.1677 25.3894 86.3237 25.4463 86.4599C25.5032 86.5961 25.5797 86.7111 25.676 86.8048C25.7723 86.8985 25.8831 86.9696 26.0085 87.0179C26.1339 87.0662 26.2652 87.0904 26.4023 87.0904C26.5802 87.0904 26.7276 87.0568 26.8442 86.9894C26.9609 86.9221 27.0688 86.8283 27.168 86.7082V86.8224C27.168 87.0333 27.1133 87.1929 27.0038 87.3013C26.8945 87.4097 26.726 87.4639 26.4986 87.4639C26.341 87.4639 26.2002 87.4449 26.0763 87.4068C25.9523 87.3688 25.8291 87.316 25.7066 87.2486L25.479 87.7495C25.6278 87.8286 25.7897 87.8895 25.9648 87.9319C26.1397 87.9743 26.3236 87.9956 26.5161 87.9956C26.7348 87.9956 26.9259 87.9721 27.0892 87.9252C27.2526 87.8784 27.3889 87.8052 27.4983 87.7056C27.6076 87.606 27.6893 87.4778 27.7433 87.3211C27.7972 87.1643 27.8242 86.9747 27.8242 86.7521V86.752ZM27.168 85.9919C27.168 86.071 27.1534 86.1442 27.1242 86.2116C27.095 86.279 27.055 86.3368 27.0039 86.3851C26.9529 86.4334 26.8924 86.4708 26.8224 86.4971C26.7523 86.5235 26.6765 86.5366 26.5948 86.5366C26.4315 86.5366 26.2958 86.4868 26.1879 86.3872C26.08 86.2876 26.026 86.1557 26.026 85.9918V85.983C26.026 85.9039 26.0406 85.8306 26.0697 85.7632C26.0989 85.6959 26.139 85.638 26.19 85.5898C26.241 85.5414 26.3009 85.5041 26.3694 85.4778C26.4379 85.4513 26.5131 85.4382 26.5947 85.4382C26.6764 85.4382 26.7523 85.4514 26.8223 85.4778C26.8923 85.5042 26.9528 85.5414 27.0038 85.5898C27.0549 85.638 27.095 85.6959 27.1241 85.7632C27.1534 85.8306 27.1679 85.9039 27.1679 85.983V85.9918L27.168 85.9919ZM32.6241 85.7458V85.737C32.6241 85.5202 32.5847 85.3189 32.5059 85.1329C32.4272 84.9469 32.3156 84.785 32.1712 84.6473C32.0268 84.5097 31.8547 84.4021 31.6549 84.3245C31.4551 84.2468 31.2356 84.208 30.9964 84.208H29.802V87.2837H30.9964C31.2356 87.2837 31.4551 87.2441 31.6549 87.1651C31.8547 87.0859 32.0268 86.9776 32.1712 86.8399C32.3156 86.7022 32.4272 86.5397 32.5059 86.3522C32.5847 86.1647 32.6241 85.9627 32.6241 85.7458ZM31.9196 85.7546C31.9196 85.8923 31.897 86.0168 31.8518 86.128C31.8066 86.2393 31.7439 86.3361 31.6637 86.4181C31.5834 86.5001 31.4865 86.5631 31.3727 86.607C31.259 86.6509 31.1336 86.6729 30.9964 86.6729H30.4758V84.8187H30.9964C31.1336 84.8187 31.259 84.8415 31.3727 84.8869C31.4865 84.9323 31.5834 84.996 31.6637 85.078C31.7439 85.16 31.8066 85.2581 31.8518 85.3724C31.897 85.4866 31.9196 85.6111 31.9196 85.7458V85.7546ZM33.8666 84.6693V84.0763H33.1665V84.6693H33.8666ZM33.8492 87.2837V84.9286H33.1841V87.2837H33.8492ZM36.8331 86.752V84.9286H36.1681V85.2361C36.0776 85.1365 35.9741 85.0531 35.8575 84.9857C35.7408 84.9184 35.5921 84.8847 35.4112 84.8847C35.277 84.8847 35.1472 84.9088 35.0218 84.9572C34.8964 85.0055 34.7856 85.0765 34.6893 85.1703C34.593 85.264 34.5157 85.379 34.4573 85.5152C34.399 85.6514 34.3698 85.8074 34.3698 85.9831V85.9919C34.3698 86.1677 34.3983 86.3237 34.4552 86.4599C34.512 86.5961 34.5886 86.7111 34.6849 86.8048C34.7812 86.8985 34.892 86.9696 35.0174 87.0179C35.1428 87.0662 35.2741 87.0904 35.4112 87.0904C35.5891 87.0904 35.7364 87.0568 35.8531 86.9894C35.9697 86.9221 36.0777 86.8283 36.1768 86.7082V86.8224C36.1768 87.0333 36.1222 87.1929 36.0127 87.3013C35.9034 87.4097 35.7348 87.4639 35.5074 87.4639C35.3499 87.4639 35.2091 87.4449 35.0852 87.4068C34.9612 87.3688 34.8379 87.316 34.7155 87.2486L34.4879 87.7495C34.6367 87.8286 34.7986 87.8895 34.9736 87.9319C35.1486 87.9743 35.3325 87.9956 35.525 87.9956C35.7437 87.9956 35.9348 87.9721 36.098 87.9252C36.2615 87.8784 36.3978 87.8052 36.5072 87.7056C36.6165 87.606 36.6982 87.4778 36.7521 87.3211C36.8061 87.1643 36.8331 86.9747 36.8331 86.7521V86.752ZM36.1768 85.9919C36.1768 86.071 36.1623 86.1442 36.1331 86.2116C36.1039 86.279 36.0638 86.3368 36.0128 86.3851C35.9618 86.4334 35.9013 86.4708 35.8313 86.4971C35.7612 86.5235 35.6854 86.5366 35.6037 86.5366C35.4403 86.5366 35.3046 86.4868 35.1968 86.3872C35.0889 86.2876 35.0348 86.1557 35.0348 85.9918V85.983C35.0348 85.9039 35.0495 85.8306 35.0786 85.7632C35.1078 85.6959 35.1479 85.638 35.1989 85.5898C35.2499 85.5414 35.3097 85.5041 35.3783 85.4778C35.4468 85.4513 35.5219 85.4382 35.6036 85.4382C35.6853 85.4382 35.7611 85.4514 35.8312 85.4778C35.9012 85.5042 35.9617 85.5414 36.0127 85.5898C36.0638 85.638 36.1039 85.6959 36.133 85.7632C36.1623 85.8306 36.1768 85.9039 36.1768 85.983V85.9918L36.1768 85.9919ZM38.1414 84.6693V84.0763H37.4413V84.6693H38.1414ZM38.1239 87.2837V84.9286H37.4588V87.2837H38.1239ZM40.0666 87.187V86.6509C39.9645 86.7066 39.8551 86.7344 39.7384 86.7344C39.5955 86.7344 39.524 86.6582 39.524 86.5059V85.4998H40.0753V84.9286H39.524V84.3266H38.859V84.9286H38.5789V85.4998H38.859V86.6158C38.859 86.7534 38.8758 86.8668 38.9093 86.9562C38.9427 87.0456 38.9895 87.1181 39.0493 87.1738C39.1091 87.2294 39.1806 87.2683 39.2637 87.2901C39.3469 87.3121 39.4394 87.3232 39.5415 87.3232C39.6524 87.3232 39.7502 87.3107 39.8347 87.2858C39.9193 87.2609 39.9967 87.228 40.0667 87.187H40.0666ZM42.5824 87.2837V85.9171C42.5824 85.5979 42.4992 85.3488 42.333 85.1702C42.1667 84.9916 41.9012 84.9022 41.5367 84.9022C41.3384 84.9022 41.1692 84.9198 41.0292 84.9549C40.8892 84.99 40.755 85.0355 40.6267 85.0911L40.7929 85.6007C40.9008 85.5598 41.0037 85.5282 41.1014 85.5062C41.1992 85.4842 41.3122 85.4733 41.4405 85.4733C41.6068 85.4733 41.7322 85.5098 41.8168 85.583C41.9013 85.6563 41.9436 85.7632 41.9436 85.9038V85.9433C41.859 85.914 41.7723 85.8906 41.6833 85.873C41.5943 85.8554 41.4901 85.8466 41.3705 85.8466C41.2305 85.8466 41.1028 85.862 40.9877 85.8927C40.8725 85.9235 40.7733 85.9696 40.6901 86.0311C40.607 86.0927 40.542 86.1703 40.4954 86.2641C40.4487 86.3578 40.4254 86.4691 40.4254 86.598V86.6068C40.4254 86.7239 40.4466 86.8272 40.4888 86.9165C40.5311 87.0058 40.5888 87.0813 40.6616 87.1428C40.7345 87.2043 40.8199 87.2504 40.9176 87.2813C41.0153 87.312 41.1196 87.3273 41.2304 87.3273C41.3937 87.3273 41.5322 87.3002 41.646 87.246C41.7598 87.1919 41.8576 87.1194 41.9392 87.0285V87.2833H42.5824V87.2837ZM41.9523 86.4532C41.9523 86.5762 41.9049 86.6758 41.8101 86.752C41.7153 86.8282 41.5891 86.8662 41.4317 86.8662C41.3238 86.8662 41.2362 86.8413 41.1691 86.7915C41.102 86.7418 41.0686 86.6714 41.0686 86.5806V86.5718C41.0686 86.4664 41.1094 86.3859 41.191 86.3302C41.2727 86.2746 41.385 86.2467 41.5279 86.2467C41.6096 86.2467 41.6862 86.2547 41.7577 86.2709C41.8291 86.287 41.8941 86.3082 41.9524 86.3346V86.4532H41.9523ZM43.8513 87.2837V84.0763H43.1862V87.2837H43.8513ZM48.4498 87.2837V84.208H47.7759V85.4251H46.5334V84.208H45.8596V87.2837H46.5334V86.049H47.7759V87.2837H48.4498ZM51.3025 86.1721V86.1633C51.3025 85.9963 51.2798 85.8359 51.2347 85.6821C51.1895 85.5283 51.1195 85.3921 51.0246 85.2735C50.9298 85.1549 50.811 85.0604 50.668 84.9901C50.5251 84.9198 50.3559 84.8847 50.1606 84.8847C49.9884 84.8847 49.8316 84.9169 49.6902 84.9814C49.5487 85.0458 49.4269 85.1337 49.3248 85.245C49.2227 85.3563 49.1433 85.4866 49.0864 85.636C49.0295 85.7854 49.001 85.9435 49.001 86.1105V86.1193C49.001 86.301 49.0317 86.4657 49.0929 86.6137C49.1542 86.7616 49.2395 86.8897 49.3489 86.9982C49.4582 87.1065 49.588 87.19 49.7382 87.2485C49.8885 87.3071 50.0511 87.3365 50.2261 87.3365C50.4391 87.3365 50.6243 87.2977 50.7818 87.22C50.9394 87.1424 51.0735 87.0348 51.1844 86.8971L50.8037 86.5588C50.7104 86.6438 50.62 86.7052 50.5325 86.7433C50.4449 86.7813 50.3458 86.8004 50.2349 86.8004C50.0861 86.8004 49.9614 86.7616 49.8609 86.684C49.7602 86.6064 49.6939 86.4914 49.6617 86.3391H51.2938C51.2967 86.3068 51.299 86.279 51.3004 86.2556C51.3018 86.2321 51.3025 86.2043 51.3025 86.1721H51.3025ZM50.655 85.9216H49.653C49.6793 85.7693 49.7355 85.6478 49.8214 85.5569C49.9075 85.4661 50.0205 85.4207 50.1606 85.4207C50.3006 85.4207 50.4128 85.4668 50.4974 85.5591C50.5821 85.6514 50.6345 85.7722 50.655 85.9216ZM53.814 87.2837V85.9172C53.814 85.598 53.7308 85.3489 53.5646 85.1703C53.3983 84.9916 53.1328 84.9023 52.7683 84.9023C52.57 84.9023 52.4008 84.9199 52.2608 84.955C52.1208 84.9901 51.9866 85.0356 51.8582 85.0912L52.0245 85.6008C52.1324 85.5598 52.2353 85.5283 52.333 85.5063C52.4308 85.4843 52.5438 85.4733 52.6721 85.4733C52.8384 85.4733 52.9638 85.5099 53.0484 85.5831C53.1329 85.6564 53.1752 85.7633 53.1752 85.9039V85.9434C53.0906 85.9141 53.0039 85.8907 52.9149 85.8731C52.8259 85.8555 52.7217 85.8467 52.6021 85.8467C52.4621 85.8467 52.3344 85.8621 52.2193 85.8928C52.1041 85.9236 52.0049 85.9697 51.9217 86.0312C51.8386 86.0928 51.7736 86.1704 51.727 86.2642C51.6803 86.3579 51.657 86.4692 51.657 86.5981V86.6069C51.657 86.724 51.6782 86.8273 51.7204 86.9166C51.7627 87.0059 51.8204 87.0814 51.8932 87.1429C51.9661 87.2044 52.0515 87.2505 52.1492 87.2813C52.2469 87.3121 52.3512 87.3274 52.462 87.3274C52.6253 87.3274 52.7638 87.3003 52.8776 87.2461C52.9914 87.192 53.0892 87.1195 53.1708 87.0286V87.2834H53.814V87.2837ZM53.1839 86.4533C53.1839 86.5763 53.1365 86.6759 53.0417 86.7521C52.9469 86.8283 52.8207 86.8663 52.6633 86.8663C52.5554 86.8663 52.4678 86.8414 52.4007 86.7916C52.3336 86.7419 52.3002 86.6715 52.3002 86.5807V86.5719C52.3002 86.4664 52.341 86.3859 52.4226 86.3302C52.5043 86.2746 52.6166 86.2468 52.7595 86.2468C52.8412 86.2468 52.9178 86.2548 52.9893 86.271C53.0607 86.2871 53.1257 86.3082 53.184 86.3347V86.4533H53.1839ZM55.0829 87.2837V84.0763H54.4178V87.2837H55.0829ZM57.0255 87.1871V86.651C56.9234 86.7066 56.814 86.7345 56.6974 86.7345C56.5544 86.7345 56.483 86.6583 56.483 86.506V85.4998H57.0343V84.9287H56.483V84.3267H55.8179V84.9287H55.5379V85.4998H55.8179V86.6158C55.8179 86.7535 55.8348 86.8669 55.8682 86.9563C55.9017 87.0457 55.9485 87.1182 56.0082 87.1739C56.0681 87.2295 56.1395 87.2684 56.2226 87.2902C56.3058 87.3122 56.3983 87.3233 56.5005 87.3233C56.6113 87.3233 56.7091 87.3108 56.7936 87.2859C56.8783 87.261 56.9556 87.2281 57.0256 87.1871H57.0255ZM59.6726 87.2837V85.7591C59.6726 85.4867 59.6033 85.2728 59.4647 85.1177C59.3262 84.9624 59.1301 84.8847 58.8763 84.8847C58.7917 84.8847 58.7158 84.895 58.6487 84.9155C58.5816 84.9368 58.5204 84.9646 58.465 84.9998C58.4096 85.0357 58.3593 85.076 58.314 85.1214C58.2688 85.1674 58.2272 85.215 58.1893 85.2656V84.0764H57.5242V87.2838H58.1893V85.9731C58.1893 85.8156 58.2265 85.6962 58.3009 85.6164C58.3752 85.5358 58.4766 85.4956 58.6049 85.4956C58.7333 85.4956 58.8325 85.5358 58.9025 85.6164C58.9725 85.6962 59.0074 85.8156 59.0074 85.9731V87.2838H59.6725L59.6726 87.2837ZM63.9604 87.2837V86.6818H62.2978V86.0359H63.7416V85.434H62.2978V84.8101H63.9385V84.2081H61.6328V87.2837H63.9604ZM66.5594 86.9059L66.17 86.5104C66.0883 86.5866 66.006 86.6474 65.9228 86.6928C65.8397 86.7382 65.7428 86.7609 65.6318 86.7609C65.5414 86.7609 65.4598 86.744 65.3868 86.7104C65.3139 86.6767 65.2512 86.6306 65.1988 86.572C65.1463 86.5134 65.1061 86.4446 65.0785 86.3655C65.0506 86.2863 65.0369 86.2014 65.0369 86.1106V86.1018C65.0369 86.0139 65.0507 85.9313 65.0785 85.8536C65.1062 85.776 65.1455 85.7079 65.1965 85.6493C65.2475 85.5907 65.3074 85.5446 65.3759 85.5109C65.4444 85.4773 65.521 85.4604 65.6056 85.4604C65.7252 85.4604 65.8252 85.4838 65.9054 85.5307C65.9856 85.5775 66.0636 85.6405 66.1394 85.7196L66.5464 85.2803C66.4355 85.1573 66.3072 85.0605 66.1613 84.9903C66.0155 84.9199 65.8318 84.8848 65.61 84.8848C65.4292 84.8848 65.2636 84.9171 65.1134 84.9816C64.9632 85.046 64.8341 85.1338 64.7262 85.2451C64.6183 85.3564 64.5337 85.4868 64.4724 85.6362C64.4112 85.7856 64.3805 85.9437 64.3805 86.1107V86.1195C64.3805 86.2865 64.4112 86.4439 64.4724 86.5918C64.5337 86.7398 64.6183 86.8687 64.7262 86.9785C64.8341 87.0883 64.9632 87.1755 65.1134 87.2399C65.2636 87.3044 65.4262 87.3366 65.6012 87.3366C65.8346 87.3366 66.0243 87.2964 66.17 87.2158C66.3159 87.1352 66.4457 87.032 66.5594 86.9061V86.9059ZM69.4165 86.1106V86.1018C69.4165 85.932 69.3844 85.773 69.3202 85.6251C69.256 85.4772 69.1678 85.3483 69.0555 85.2385C68.9432 85.1286 68.8098 85.0422 68.6551 84.9792C68.5005 84.9163 68.3328 84.8847 68.152 84.8847C67.9683 84.8847 67.799 84.917 67.6445 84.9815C67.4899 85.0459 67.3557 85.1338 67.242 85.2451C67.1283 85.3564 67.0393 85.486 66.975 85.6339C66.9109 85.7818 66.8788 85.9407 66.8788 86.1106V86.1194C66.8788 86.2893 66.9109 86.4482 66.975 86.5961C67.0393 86.7441 67.1275 86.873 67.2398 86.9828C67.3521 87.0927 67.4855 87.1791 67.6401 87.242C67.7947 87.305 67.9625 87.3365 68.1433 87.3365C68.327 87.3365 68.4962 87.3043 68.6507 87.2398C68.8054 87.1754 68.9396 87.0874 69.0533 86.9762C69.167 86.8649 69.256 86.7353 69.3202 86.5873C69.3844 86.4394 69.4165 86.2806 69.4165 86.1106ZM68.7602 86.1194C68.7602 86.2073 68.7464 86.29 68.7186 86.3677C68.6909 86.4453 68.6508 86.5134 68.5984 86.572C68.5459 86.6306 68.4825 86.6766 68.408 86.7104C68.3337 86.744 68.2483 86.7609 68.1521 86.7609C68.0587 86.7609 67.9749 86.7433 67.9005 86.7082C67.8261 86.673 67.7613 86.6254 67.7058 86.5653C67.6504 86.5053 67.6081 86.4365 67.5789 86.3589C67.5498 86.2812 67.5352 86.1985 67.5352 86.1106V86.1018C67.5352 86.0139 67.5491 85.9313 67.5768 85.8536C67.6045 85.776 67.6446 85.7079 67.6971 85.6493C67.7495 85.5907 67.813 85.5446 67.8874 85.5109C67.9618 85.4773 68.0472 85.4604 68.1433 85.4604C68.2338 85.4604 68.3169 85.478 68.3927 85.5131C68.4686 85.5482 68.5342 85.5959 68.5896 85.6559C68.645 85.716 68.6873 85.7848 68.7165 85.8624C68.7456 85.9401 68.7602 86.0228 68.7602 86.1106V86.1194ZM71.6173 86.5676V86.5588C71.6173 86.4504 71.5954 86.3581 71.5516 86.2819C71.508 86.2058 71.4524 86.1413 71.3853 86.0887C71.3182 86.0359 71.2424 85.9912 71.1578 85.9546C71.0732 85.9181 70.9901 85.8866 70.9084 85.8601C70.8443 85.8396 70.7837 85.8192 70.7268 85.7986C70.67 85.7781 70.6197 85.7569 70.5759 85.7349C70.5322 85.7129 70.4971 85.6896 70.4709 85.6646C70.4446 85.6397 70.4315 85.6111 70.4315 85.5789V85.5701C70.4315 85.5233 70.452 85.4844 70.4928 85.4537C70.5336 85.4229 70.5949 85.4076 70.6766 85.4076C70.7612 85.4076 70.8589 85.4274 70.9697 85.4669C71.0806 85.5064 71.1944 85.5599 71.3111 85.6273L71.5648 85.166C71.4365 85.081 71.2957 85.0144 71.1425 84.966C70.9894 84.9177 70.8385 84.8935 70.6897 84.8935C70.5701 84.8935 70.4585 84.9097 70.355 84.9419C70.2515 84.9741 70.161 85.0224 70.0837 85.0869C70.0064 85.1513 69.9452 85.2297 69.9 85.3219C69.8548 85.4142 69.8322 85.5203 69.8322 85.6404V85.6492C69.8322 85.7634 69.8533 85.8602 69.8956 85.9392C69.9378 86.0183 69.9927 86.085 70.0597 86.1392C70.1268 86.1933 70.2019 86.2374 70.2851 86.271C70.3682 86.3046 70.4507 86.3332 70.5323 86.3567C70.5964 86.3772 70.6577 86.3962 70.716 86.4138C70.7743 86.4314 70.826 86.4496 70.8714 86.4687C70.9166 86.4877 70.9523 86.5104 70.9785 86.5368C71.0048 86.5632 71.0178 86.5939 71.0178 86.6291V86.6379C71.0178 86.6906 70.9952 86.7331 70.95 86.7653C70.9049 86.7975 70.8341 86.8136 70.7378 86.8136C70.627 86.8136 70.5081 86.7901 70.3812 86.7433C70.2543 86.6965 70.1267 86.6262 69.9984 86.5324L69.7139 86.9717C69.8715 87.0947 70.037 87.1848 70.2106 87.242C70.3841 87.299 70.5541 87.3277 70.7203 87.3277C70.8457 87.3277 70.9631 87.3122 71.0725 87.2816C71.1819 87.2508 71.2774 87.2046 71.3591 87.1431C71.4409 87.0816 71.5043 87.0033 71.5495 86.9081C71.5947 86.8128 71.6173 86.6994 71.6173 86.5676ZM74.3256 84.9287H73.6343L73.1224 86.5324L72.5886 84.9287H71.8842L72.803 87.2925C72.7738 87.3511 72.7425 87.3914 72.7088 87.4134C72.6754 87.4354 72.6294 87.4463 72.5711 87.4463C72.5273 87.4463 72.4798 87.4375 72.4288 87.4199C72.3778 87.4023 72.3304 87.3804 72.2866 87.3541L72.0635 87.8374C72.148 87.8871 72.237 87.9268 72.3304 87.956C72.4237 87.9853 72.5316 87.9999 72.6541 87.9999C72.7533 87.9999 72.8408 87.9881 72.9167 87.9648C72.9925 87.9413 73.0603 87.9033 73.1201 87.8506C73.1799 87.7978 73.2346 87.7297 73.2842 87.6463C73.3338 87.5628 73.3805 87.461 73.4242 87.3409L74.3255 84.9288L74.3256 84.9287ZM76.4389 86.5676V86.5588C76.4389 86.4504 76.417 86.3581 76.3732 86.2819C76.3296 86.2058 76.274 86.1413 76.2069 86.0887C76.1399 86.0359 76.064 85.9912 75.9794 85.9546C75.8948 85.9181 75.8117 85.8866 75.7301 85.8601C75.6659 85.8396 75.6054 85.8192 75.5485 85.7986C75.4916 85.7781 75.4413 85.7569 75.3975 85.7349C75.3538 85.7129 75.3187 85.6896 75.2925 85.6646C75.2662 85.6397 75.2532 85.6111 75.2532 85.5789V85.5701C75.2532 85.5233 75.2736 85.4844 75.3144 85.4537C75.3552 85.4229 75.4165 85.4076 75.4982 85.4076C75.5828 85.4076 75.6805 85.4274 75.7913 85.4669C75.9022 85.5064 76.016 85.5599 76.1327 85.6273L76.3864 85.166C76.2581 85.081 76.1173 85.0144 75.9642 84.966C75.811 84.9177 75.6601 84.8935 75.5113 84.8935C75.3917 84.8935 75.2801 84.9097 75.1766 84.9419C75.0731 84.9741 74.9826 85.0224 74.9053 85.0869C74.8281 85.1513 74.7668 85.2297 74.7216 85.3219C74.6764 85.4142 74.6538 85.5203 74.6538 85.6404V85.6492C74.6538 85.7634 74.6749 85.8602 74.7172 85.9392C74.7594 86.0183 74.8143 86.085 74.8813 86.1392C74.9484 86.1933 75.0235 86.2374 75.1067 86.271C75.1898 86.3046 75.2723 86.3332 75.3539 86.3567C75.418 86.3772 75.4793 86.3962 75.5376 86.4138C75.5959 86.4314 75.6477 86.4496 75.693 86.4687C75.7382 86.4877 75.774 86.5104 75.8001 86.5368C75.8264 86.5632 75.8395 86.5939 75.8395 86.6291V86.6379C75.8395 86.6906 75.8168 86.7331 75.7716 86.7653C75.7265 86.7975 75.6557 86.8136 75.5595 86.8136C75.4486 86.8136 75.3297 86.7901 75.2028 86.7433C75.0759 86.6965 74.9483 86.6262 74.82 86.5324L74.5355 86.9717C74.6932 87.0947 74.8586 87.1848 75.0322 87.242C75.2057 87.299 75.3757 87.3277 75.5419 87.3277C75.6673 87.3277 75.7847 87.3122 75.8941 87.2816C76.0035 87.2508 76.0991 87.2046 76.1807 87.1431C76.2625 87.0816 76.3259 87.0033 76.3711 86.9081C76.4163 86.8128 76.4389 86.6994 76.4389 86.5676ZM78.2328 87.1872V86.651C78.1307 86.7067 78.0213 86.7346 77.9046 86.7346C77.7617 86.7346 77.6902 86.6584 77.6902 86.506V85.4999H78.2415V84.9288H77.6902V84.3268H77.0252V84.9288H76.7451V85.4999H77.0252V86.6159C77.0252 86.7535 77.042 86.867 77.0755 86.9564C77.1089 87.0458 77.1557 87.1183 77.2155 87.1739C77.2753 87.2296 77.3468 87.2684 77.4299 87.2903C77.5131 87.3123 77.6056 87.3233 77.7078 87.3233C77.8186 87.3233 77.9164 87.3109 78.0009 87.286C78.0855 87.2611 78.1629 87.2282 78.2328 87.1872H78.2328ZM80.9192 86.1721V86.1633C80.9192 85.9963 80.8966 85.836 80.8514 85.6822C80.8063 85.5284 80.7363 85.3922 80.6414 85.2735C80.5466 85.155 80.4278 85.0605 80.2848 84.9902C80.1419 84.9199 79.9727 84.8847 79.7773 84.8847C79.6052 84.8847 79.4484 84.917 79.307 84.9815C79.1655 85.0459 79.0437 85.1338 78.9415 85.2451C78.8395 85.3564 78.76 85.4867 78.7031 85.6361C78.6462 85.7855 78.6178 85.9436 78.6178 86.1106V86.1194C78.6178 86.301 78.6485 86.4658 78.7097 86.6138C78.7709 86.7617 78.8563 86.8898 78.9657 86.9982C79.075 87.1066 79.2048 87.19 79.355 87.2486C79.5053 87.3072 79.6678 87.3365 79.8429 87.3365C80.0559 87.3365 80.2411 87.2977 80.3986 87.2201C80.5561 87.1425 80.6903 87.0349 80.8011 86.8972L80.4205 86.5589C80.3271 86.6438 80.2368 86.7053 80.1493 86.7434C80.0617 86.7814 79.9626 86.8005 79.8517 86.8005C79.7029 86.8005 79.5782 86.7617 79.4776 86.6841C79.377 86.6065 79.3107 86.4915 79.2785 86.3391H80.9106C80.9135 86.3069 80.9157 86.2791 80.9172 86.2557C80.9186 86.2321 80.9193 86.2044 80.9193 86.1721H80.9192ZM80.2718 85.9217H79.2698C79.2961 85.7694 79.3522 85.6479 79.4382 85.557C79.5243 85.4661 79.6372 85.4208 79.7773 85.4208C79.9173 85.4208 80.0296 85.4669 80.1142 85.5592C80.1988 85.6515 80.2513 85.7723 80.2718 85.9217ZM84.9927 87.2838V85.7504C84.9927 85.4662 84.9227 85.2509 84.7827 85.1045C84.6427 84.958 84.4487 84.8848 84.2008 84.8848C84.0403 84.8848 83.8974 84.9164 83.7719 84.98C83.6465 85.0437 83.5328 85.1368 83.4306 85.2613C83.3694 85.1398 83.2826 85.0474 83.1703 84.9823C83.0581 84.9171 82.9246 84.8848 82.77 84.8848C82.6854 84.8848 82.6088 84.8951 82.5403 84.9156C82.4717 84.9369 82.4098 84.9647 82.3543 84.9999C82.2989 85.0357 82.2486 85.0761 82.2034 85.1214C82.1581 85.1675 82.1165 85.2151 82.0787 85.2657V84.9288H81.4136V87.2839H82.0787V85.9731C82.0787 85.8157 82.1144 85.6963 82.1859 85.6165C82.2573 85.5359 82.3557 85.4957 82.4812 85.4957C82.6066 85.4957 82.7029 85.5359 82.77 85.6165C82.8371 85.6963 82.8706 85.8157 82.8706 85.9731V87.2839H83.5357V85.9731C83.5357 85.8157 83.5714 85.6963 83.6428 85.6165C83.7143 85.5359 83.8127 85.4957 83.9382 85.4957C84.0636 85.4957 84.1599 85.5359 84.227 85.6165C84.2941 85.6963 84.3275 85.8157 84.3275 85.9731V87.2839H84.9926L84.9927 87.2838Z" fill="#29298C"/>
</g>
<defs>
<clipPath id="clip0_10421_94601">
<rect width="95" height="88" fill="white"/>
</clipPath>
</defs>
</svg>
