<svg width="206" height="61" viewBox="0 0 206 61" fill="none" xmlns="http://www.w3.org/2000/svg">
<g clip-path="url(#clip0_10037_84152)">
<path d="M204.634 53.7958C204.634 57.0234 202.017 59.6377 198.78 59.6377H7.22044C3.98526 59.6377 1.35938 57.0234 1.35938 53.7958V7.20886C1.35938 3.98287 3.98539 1.35938 7.22044 1.35938H198.779C202.017 1.35938 204.632 3.98287 204.632 7.20886L204.634 53.7958Z" fill="white"/>
<path d="M198.78 60.9987H7.22C3.23976 60.9987 0 57.7697 0 53.7978V7.21243C0 3.23752 3.23976 0.00390625 7.22 0.00390625H198.778C202.754 0.00390625 205.998 3.23752 205.998 7.21243V53.7978C206.001 57.7697 202.757 60.9987 198.78 60.9987V60.9987Z" fill="#A6A6A6"/>
<path d="M204.634 53.4364C204.634 56.6641 202.017 59.2783 198.78 59.2783H7.22044C3.98526 59.2783 1.35938 56.6641 1.35938 53.4364V6.84949C1.35938 3.6235 3.98539 1 7.22044 1H198.779C202.017 1 204.632 3.6235 204.632 6.84949L204.634 53.4364Z" fill="black"/>
<path d="M198.781 0.00390625H96.1758L136.365 60.9987H198.781C202.757 60.9987 206.001 57.7697 206.001 53.7933V7.21243C206.003 3.23752 202.758 0.00390625 198.781 0.00390625Z" fill="url(#paint0_linear_10037_84152)"/>
<path d="M107.93 35.263C104.29 35.263 101.331 38.0205 101.331 41.8268C101.331 45.6136 104.29 48.3906 107.93 48.3906C111.57 48.3906 114.529 45.6136 114.529 41.8268C114.529 38.04 111.57 35.263 107.93 35.263ZM107.93 45.8078C105.945 45.8078 104.212 44.1571 104.212 41.8268C104.212 39.4576 105.925 37.8458 107.93 37.8458C109.935 37.8458 111.648 39.4576 111.648 41.8268C111.629 44.1571 109.916 45.8078 107.93 45.8078ZM125.606 36.7388H125.508C124.866 35.9621 123.62 35.263 122.043 35.263C118.754 35.263 115.736 38.1565 115.736 41.8462C115.736 45.5165 118.754 48.3906 122.043 48.3906C123.62 48.3906 124.866 47.6915 125.508 46.8953H125.606V47.8469C125.606 50.352 124.262 51.692 122.102 51.692C120.33 51.692 119.24 50.4297 118.792 49.3616L116.281 50.4103C117.002 52.158 118.929 54.2942 122.121 54.2942C125.508 54.2942 128.37 52.3134 128.37 47.4585V35.6708H125.625L125.606 36.7388ZM122.296 45.8078C120.311 45.8078 118.637 44.1377 118.637 41.8462C118.637 39.5353 120.311 37.8458 122.296 37.8458C124.262 37.8458 125.8 39.5353 125.8 41.8462C125.8 44.1571 124.262 45.8078 122.296 45.8078ZM93.5253 35.263C89.8851 35.263 86.9262 38.0205 86.9262 41.8268C86.9262 45.6136 89.8851 48.3906 93.5253 48.3906C97.1655 48.3906 100.124 45.6136 100.124 41.8268C100.124 38.04 97.1655 35.263 93.5253 35.263V35.263ZM93.5253 45.8078C91.5397 45.8078 89.8072 44.1571 89.8072 41.8268C89.8072 39.4576 91.5203 37.8458 93.5253 37.8458C95.5108 37.8458 97.2433 39.4576 97.2433 41.8268C97.2239 44.1571 95.5108 45.8078 93.5253 45.8078ZM76.3755 37.2632V40.0402H83.0524C82.8578 41.6132 82.3322 42.7589 81.5341 43.5551C80.5608 44.5261 79.0424 45.5942 76.3755 45.5942C72.2681 45.5942 69.0562 42.2929 69.0562 38.1953C69.0562 34.0978 72.2681 30.7964 76.3755 30.7964C78.5947 30.7964 80.2104 31.6703 81.4173 32.7772L83.3834 30.8158C81.7093 29.2234 79.4901 28 76.3755 28C70.7498 28 66 32.583 66 38.1953C66 43.8076 70.7303 48.3906 76.3755 48.3906C79.4122 48.3906 81.7093 47.4002 83.5002 45.5359C85.3494 43.6911 85.914 41.1083 85.914 39.0304C85.914 38.3895 85.8556 37.7875 85.7582 37.2826L76.3755 37.2632ZM146.454 39.4576C145.909 37.9817 144.235 35.2824 140.828 35.2824C137.441 35.2824 134.619 37.9429 134.619 41.8462C134.619 45.5165 137.402 48.41 141.14 48.41C144.157 48.41 145.909 46.5652 146.629 45.4971L144.391 44.0018C143.651 45.0893 142.619 45.8078 141.159 45.8078C139.699 45.8078 138.648 45.1281 137.967 43.827L146.765 40.1955L146.454 39.4576ZM137.5 41.6326C137.422 39.0886 139.466 37.8069 140.945 37.8069C142.094 37.8069 143.067 38.3701 143.378 39.2051L137.5 41.6326ZM130.336 48.0022H133.217V28.7185H130.336V48.0022ZM160.003 28.7185H153.092V48.0022H155.973V40.7005H160.003C163.195 40.7005 166.349 38.3895 166.349 34.6998C166.349 31.0295 163.195 28.7185 160.003 28.7185ZM160.08 37.9817H155.973V31.379H160.08C162.241 31.379 163.468 33.1656 163.468 34.6804C163.468 36.1951 162.241 37.9817 160.08 37.9817ZM167.945 48.0022H170.826V28.7185H167.945V48.0022ZM177.911 35.2241C175.829 35.2241 173.648 36.1368 172.753 38.1759L175.322 39.244C175.867 38.1759 176.88 37.8263 177.95 37.8263C179.449 37.8263 180.968 38.7196 180.987 40.3121V40.5063C180.462 40.215 179.352 39.7683 177.97 39.7683C175.206 39.7683 172.403 41.283 172.403 44.1183C172.403 46.7011 174.661 48.3518 177.211 48.3518C179.157 48.3518 180.228 47.4779 180.89 46.4681H180.987V47.9634H183.771V40.5645C183.79 37.1467 181.221 35.2241 177.911 35.2241V35.2241ZM177.561 45.8078C176.607 45.8078 175.303 45.3417 175.303 44.1766C175.303 42.6813 176.938 42.1181 178.359 42.1181C179.624 42.1181 180.228 42.39 180.987 42.7589C180.773 44.5455 179.235 45.8078 177.561 45.8078ZM193.932 35.6513L190.623 44.0212H190.526L187.1 35.6513H183.985L189.124 47.342L186.185 53.867H189.202L197.144 35.6708H193.932V35.6513Z" fill="white"/>
<path d="M74.4246 20.492H72.7191L71.7862 17.562H68.5419L67.6518 20.492H65.9922L69.2075 10.5151H71.1923L74.4246 20.492ZM71.5053 16.3326L70.661 13.7274C70.5724 13.4605 70.4091 12.8397 70.1572 11.8482H70.1266C70.0228 12.2768 69.8747 12.8992 69.6518 13.7274L68.8228 16.3326H71.5053ZM82.4643 13.2988L79.7375 20.492H78.1816L75.5435 13.2988H77.2627L78.4932 17.1029C78.7009 17.7389 78.878 18.346 79.0108 18.9225H79.0551C79.1743 18.4055 79.3513 17.7984 79.5726 17.1029L80.7879 13.2988H82.4643V13.2988ZM88.269 20.492L88.1499 19.6637H88.1055C87.617 20.3302 86.9055 20.6551 86.0018 20.6551C84.7131 20.6551 83.794 19.7522 83.794 18.538C83.794 16.7626 85.3345 15.8444 88.0017 15.8444V15.7117C88.0017 14.7645 87.4979 14.2901 86.5055 14.2901C85.7939 14.2901 85.1711 14.4685 84.6245 14.8239L84.2992 13.773C84.9664 13.3581 85.7955 13.1507 86.7741 13.1507C88.655 13.1507 89.6047 14.1421 89.6047 16.1265V18.776C89.6047 19.502 89.6352 20.0648 89.7085 20.4934L88.269 20.492V20.492ZM88.0461 16.9091C86.2676 16.9091 85.3789 17.3393 85.3789 18.3597C85.3789 19.1147 85.8384 19.4838 86.4751 19.4838C87.2902 19.4838 88.0461 18.863 88.0461 18.0196V16.9091ZM93.1684 12.1136C92.6355 12.1136 92.2202 11.6987 92.2202 11.1512C92.2202 10.6036 92.6494 10.204 93.1989 10.204C93.747 10.204 94.1913 10.6036 94.1761 11.1512C94.1761 11.7293 93.7624 12.1136 93.1684 12.1136ZM93.9989 20.492H92.3989V13.2988H93.9989V20.492ZM98.4417 20.492H96.8417V9.99805H98.4417V20.492ZM105.242 20.492L105.123 19.6637H105.079C104.59 20.3302 103.879 20.6551 102.975 20.6551C101.686 20.6551 100.767 19.7522 100.767 18.538C100.767 16.7626 102.307 15.8444 104.975 15.8444V15.7117C104.975 14.7645 104.471 14.2901 103.478 14.2901C102.767 14.2901 102.144 14.4685 101.597 14.8239L101.271 13.7715C101.938 13.3566 102.767 13.1492 103.746 13.1492C105.627 13.1492 106.576 14.1406 106.576 16.125V18.7744C106.576 19.5005 106.608 20.0633 106.679 20.4919H105.242V20.492ZM105.019 16.9091C103.24 16.9091 102.352 17.3393 102.352 18.3597C102.352 19.1147 102.811 19.4838 103.448 19.4838C104.263 19.4838 105.019 18.863 105.019 18.0196V16.9091V16.9091ZM113.059 20.6553C112.038 20.6553 111.283 20.2251 110.795 19.3816H110.763L110.671 20.492H109.308C109.352 19.9155 109.367 19.2627 109.367 18.5534V9.99805H110.969V14.3512H110.999C111.474 13.552 112.242 13.1523 113.296 13.1523C115.03 13.1523 116.245 14.6334 116.245 16.7932C116.245 19.0262 114.896 20.6553 113.059 20.6553V20.6553ZM112.734 14.4077C111.813 14.4077 110.97 15.2069 110.97 16.3173V17.5757C110.97 18.5671 111.728 19.3816 112.706 19.3816C113.905 19.3816 114.618 18.4055 114.618 16.8512C114.616 15.4006 113.874 14.4077 112.734 14.4077V14.4077ZM120.21 20.492H118.612V9.99805H120.21V20.492ZM128.92 17.2798H124.117C124.149 18.6419 125.05 19.4106 126.384 19.4106C127.096 19.4106 127.748 19.2916 128.325 19.0705L128.574 20.1809C127.893 20.4768 127.093 20.6248 126.16 20.6248C123.906 20.6248 122.574 19.2032 122.574 16.9991C122.574 14.7936 123.939 13.1356 125.98 13.1356C127.817 13.1356 128.974 14.4977 128.974 16.5553C128.98 16.8359 128.966 17.0876 128.92 17.2798V17.2798ZM127.453 16.1404C127.453 15.03 126.89 14.246 125.867 14.246C124.948 14.246 124.224 15.0452 124.117 16.1404H127.453V16.1404ZM138.618 20.6553C136.514 20.6553 135.151 19.0857 135.151 16.9549C135.151 14.7341 136.543 13.1508 138.739 13.1508C140.81 13.1508 142.206 14.6456 142.206 16.8375C142.206 19.0857 140.768 20.6553 138.618 20.6553ZM138.679 14.3192C137.524 14.3192 136.783 15.3991 136.783 16.9091C136.783 18.3902 137.539 19.4701 138.664 19.4701C139.789 19.4701 140.543 18.3155 140.543 16.8786C140.545 15.4144 139.804 14.3192 138.679 14.3192V14.3192ZM150.808 20.492H149.209V16.3616C149.209 15.0895 148.721 14.4519 147.757 14.4519C146.809 14.4519 146.156 15.2664 146.156 16.2136V20.492H144.557V15.3549C144.557 14.7188 144.541 14.037 144.498 13.2973H145.905L145.98 14.4077H146.025C146.452 13.6389 147.328 13.1493 148.306 13.1493C149.816 13.1493 150.808 14.3039 150.808 16.1831V20.492H150.808V20.492ZM161.277 14.4977H159.516V17.9906C159.516 18.8798 159.826 19.3237 160.448 19.3237C160.73 19.3237 160.968 19.2932 161.159 19.2489L161.204 20.4631C160.892 20.5822 160.475 20.6415 159.961 20.6415C158.7 20.6415 157.947 19.946 157.947 18.1248V14.4977H156.896V13.2988H157.947V11.9809L159.516 11.5066V13.2973H161.277V14.4977ZM169.75 20.492H168.149V16.3921C168.149 15.1047 167.66 14.4534 166.697 14.4534C165.868 14.4534 165.098 15.0163 165.098 16.1556V20.492H163.497V9.99805H165.098V14.3192H165.129C165.633 13.5352 166.359 13.1493 167.292 13.1493C168.817 13.1493 169.75 14.3329 169.75 16.2136V20.492V20.492ZM177.926 17.2798H173.124C173.155 18.6419 174.056 19.4106 175.39 19.4106C176.103 19.4106 176.753 19.2916 177.331 19.0705L177.581 20.1809C176.9 20.4768 176.099 20.6248 175.166 20.6248C172.912 20.6248 171.579 19.2032 171.579 16.9991C171.579 14.7936 172.945 13.1356 174.986 13.1356C176.822 13.1356 177.98 14.4977 177.98 16.5553C177.985 16.8359 177.97 17.0876 177.926 17.2798V17.2798ZM176.459 16.1404C176.459 15.03 175.897 14.246 174.874 14.246C173.953 14.246 173.23 15.0452 173.124 16.1404H176.459V16.1404Z" fill="white"/>
<path d="M25.6229 13.5403C25.2336 13.9482 25 14.589 25 15.4046V44.7866C25 45.6022 25.2336 46.243 25.6229 46.6508L25.7203 46.7479L42.2276 30.2801V29.8917L25.7203 13.4238L25.6229 13.5403Z" fill="url(#paint1_linear_10037_84152)"/>
<path d="M47.7161 35.7764L42.2266 30.2806V29.8922L47.7355 24.3965L47.8523 24.4742L54.3735 28.1639C56.2423 29.2126 56.2423 30.9409 54.3735 32.009L47.8523 35.6987L47.7161 35.7764Z" fill="url(#paint2_linear_10037_84152)"/>
<path d="M47.8535 35.6982L42.2278 30.0859L25.623 46.6509C26.2265 47.2917 27.2582 47.3888 28.3873 46.7286L47.8535 35.6982Z" fill="url(#paint3_linear_10037_84152)"/>
<path d="M47.8535 24.4934L28.3873 13.4631C27.2387 12.8222 26.2265 12.8999 25.623 13.5408L42.2278 30.1057L47.8535 24.4934Z" fill="url(#paint4_linear_10037_84152)"/>
<path opacity="0.2" d="M47.7173 35.582L28.3873 46.5347C27.2971 47.1561 26.3433 47.1173 25.7204 46.5541L25.623 46.6512L25.7204 46.7483C26.3433 47.3115 27.3166 47.3503 28.3873 46.7289L47.8535 35.6986L47.7173 35.582Z" fill="black"/>
<path opacity="0.12" d="M25.6229 46.4567C25.2336 46.0489 25 45.408 25 44.5924V44.7866C25 45.6022 25.2336 46.2431 25.6229 46.6509L25.7203 46.5538L25.6229 46.4567ZM54.3551 31.8143L47.7171 35.5817L47.8339 35.6982L54.3551 32.0085C55.2895 31.4842 55.7567 30.785 55.7567 30.0859C55.6788 30.7268 55.2116 31.3288 54.3551 31.8143Z" fill="black"/>
<path opacity="0.25" d="M28.3871 13.6381L54.3551 28.3582C55.1922 28.8437 55.6788 29.4457 55.7567 30.0865C55.7567 29.3874 55.2895 28.6883 54.3551 28.164L28.3871 13.4439C26.5184 12.3952 25 13.2691 25 15.3859V15.5801C25 13.4633 26.5184 12.5894 28.3871 13.6381Z" fill="white"/>
</g>
<defs>
<linearGradient id="paint0_linear_10037_84152" x1="151.09" y1="61.1645" x2="151.09" y2="6.18387" gradientUnits="userSpaceOnUse">
<stop stop-color="#1A1A1A" stop-opacity="0.1"/>
<stop offset="0.123" stop-color="#212121" stop-opacity="0.151"/>
<stop offset="0.308" stop-color="#353535" stop-opacity="0.227"/>
<stop offset="0.532" stop-color="#575757" stop-opacity="0.318"/>
<stop offset="0.783" stop-color="#858585" stop-opacity="0.421"/>
<stop offset="1" stop-color="#B3B3B3" stop-opacity="0.51"/>
</linearGradient>
<linearGradient id="paint1_linear_10037_84152" x1="40.7474" y1="15.085" x2="18.4465" y2="37.4394" gradientUnits="userSpaceOnUse">
<stop stop-color="#00A0FF"/>
<stop offset="0.007" stop-color="#00A1FF"/>
<stop offset="0.26" stop-color="#00BEFF"/>
<stop offset="0.512" stop-color="#00D2FF"/>
<stop offset="0.76" stop-color="#00DFFF"/>
<stop offset="1" stop-color="#00E3FF"/>
</linearGradient>
<linearGradient id="paint2_linear_10037_84152" x1="56.7831" y1="30.0961" x2="24.5525" y2="30.0961" gradientUnits="userSpaceOnUse">
<stop stop-color="#FFE000"/>
<stop offset="0.409" stop-color="#FFBD00"/>
<stop offset="0.775" stop-color="#FFA500"/>
<stop offset="1" stop-color="#FF9C00"/>
</linearGradient>
<linearGradient id="paint3_linear_10037_84152" x1="44.7913" y1="33.1505" x2="14.5498" y2="63.4647" gradientUnits="userSpaceOnUse">
<stop stop-color="#FF3A44"/>
<stop offset="1" stop-color="#C31162"/>
</linearGradient>
<linearGradient id="paint4_linear_10037_84152" x1="21.4417" y1="3.74744" x2="34.9459" y2="17.284" gradientUnits="userSpaceOnUse">
<stop stop-color="#32A071"/>
<stop offset="0.069" stop-color="#2DA771"/>
<stop offset="0.476" stop-color="#15CF74"/>
<stop offset="0.801" stop-color="#06E775"/>
<stop offset="1" stop-color="#00F076"/>
</linearGradient>
<clipPath id="clip0_10037_84152">
<rect width="206" height="61" fill="white"/>
</clipPath>
</defs>
</svg>
