<svg width="107" height="103" viewBox="0 0 107 103" fill="none" xmlns="http://www.w3.org/2000/svg">
<circle cx="44.5638" cy="57.4935" r="44.5638" fill="#23B13A" fill-opacity="0.06"/>
<path d="M96.0613 7.95355V43.1495C96.0613 44.5747 94.9079 45.7281 93.4827 45.7281H40.5087C39.0909 45.7281 37.9375 44.5747 37.9375 43.1495V7.95355C37.9375 6.52842 39.0909 5.375 40.5087 5.375H93.4827C94.9079 5.375 96.0613 6.52842 96.0613 7.95355Z" fill="#95BCFF"/>
<path d="M40.877 8.31445H93.1236V42.79H40.877V8.31445Z" fill="white"/>
<path d="M80.1325 42.7896L78.6378 25.2082C78.5092 23.4341 77.0323 22.0605 75.2534 22.0605H74.5352V42.7896H80.1325Z" fill="#F1F7FF"/>
<path d="M57.8317 42.7896V22.0605H57.1135C55.3346 22.0605 53.8577 23.4341 53.729 25.2082L52.2344 42.7896H57.8317Z" fill="#F1F7FF"/>
<path d="M57.2412 40.9688H75.1323V42.7899H57.2412V40.9688Z" fill="#242C3F"/>
<path d="M60.6008 22.0586C59.3376 22.0586 58.2626 22.8532 57.8329 23.9747H58.8693V40.9154H57.2479L57.2402 41.2987H75.1326V22.0586H60.6008Z" fill="#80C4FF"/>
<path d="M68.5756 38.5611L66.3188 40.7437L64.0654 38.5611L65.7521 22.7637H66.8889L68.5756 38.5611Z" fill="#F4AE32"/>
<path d="M66.3184 40.7437L67.9308 38.1023L66.3184 22.7637H66.8885L68.5752 38.5611L66.3184 40.7437Z" fill="#FC9232"/>
<path d="M68.558 22.0625L66.3498 24.2707L64.1416 22.0625H68.558Z" fill="#F4AE32"/>
<path d="M63.7354 22.0605H66.4514L63.9566 24.404L63.7354 22.0605Z" fill="#117EFE"/>
<path d="M68.9191 24.404L66.6901 22.4079L66.3203 22.0605H69.1488L68.9191 24.404Z" fill="#117EFE"/>
<path d="M75.998 42.7911L75.1321 22.0605H69.1474L66.4507 37.2498L63.7539 22.0605H57.7692L56.9033 42.7911H75.998Z" fill="#F1F7FF"/>
<path d="M73.0719 9.91486C73.6203 11.4077 72.8164 14.3921 71.3326 15.0807C70.1958 15.6083 68.7868 14.2742 68.3651 12.5995C67.9423 10.9211 68.587 9.31096 69.8024 9.00486C71.0202 8.69813 72.4752 8.29009 73.0719 9.91486Z" fill="#242C3F"/>
<path d="M64.1504 11.1075C64.5722 12.7821 63.9275 14.3922 62.7096 14.6989C61.4943 15.005 60.1638 13.8924 59.742 12.2178C59.3193 10.5393 59.964 8.92921 61.1793 8.62312C62.3972 8.31638 63.7277 9.42899 64.1504 11.1075Z" fill="#242C3F"/>
<path d="M69.5801 21.7194C69.5052 21.7194 69.4299 21.6947 69.3674 21.644C68.5284 20.9636 67.5136 20.6042 66.4329 20.6042C65.349 20.6042 64.3325 20.9636 63.4935 21.644C63.3484 21.7608 63.1348 21.7392 63.0179 21.5943C62.9003 21.4489 62.9225 21.2358 63.0676 21.1182C64.0284 20.3395 65.1922 19.9277 66.4329 19.9277C67.6704 19.9277 68.8325 20.3395 69.7933 21.1182C69.9384 21.2358 69.9606 21.4489 69.843 21.5943C69.7763 21.6766 69.6785 21.7194 69.5801 21.7194Z" fill="#242C3F"/>
<path d="M63.752 18.3262H69.1486V22.0606H63.752V18.3262Z" fill="#F9C4C0"/>
<path d="M69.1484 18.3262V20.7136C67.5224 20.7901 65.1951 20.4011 63.752 19.623V18.3262H69.1484Z" fill="#FD9997"/>
<path d="M70.9297 16.0238C71.5489 16.0238 72.0508 15.4382 72.0508 14.716C72.0508 13.9937 71.5489 13.4082 70.9297 13.4082C70.3105 13.4082 69.8086 13.9937 69.8086 14.716C69.8086 15.4382 70.3105 16.0238 70.9297 16.0238Z" fill="#F9C4C0"/>
<path d="M71.3789 15.3475C71.3409 15.3475 71.3035 15.332 71.2763 15.3016C71.2265 15.2449 71.2319 15.1583 71.288 15.1081C71.4131 14.998 71.482 14.8585 71.482 14.7158C71.482 14.5731 71.4131 14.4336 71.288 14.3235C71.2319 14.2733 71.2265 14.1867 71.2763 14.13C71.3265 14.0739 71.4125 14.068 71.4697 14.1183C71.6541 14.2813 71.7557 14.4935 71.7557 14.7158C71.7557 14.9381 71.6541 15.1503 71.4697 15.3133C71.4435 15.3363 71.4109 15.3475 71.3789 15.3475Z" fill="#FD9997"/>
<path d="M61.8184 16.137C62.4376 16.137 62.9395 15.5515 62.9395 14.8293C62.9395 14.107 62.4376 13.5215 61.8184 13.5215C61.1992 13.5215 60.6973 14.107 60.6973 14.8293C60.6973 15.5515 61.1992 16.137 61.8184 16.137Z" fill="#F9C4C0"/>
<path d="M61.37 15.4608C61.4079 15.4608 61.4453 15.4453 61.4726 15.4149C61.5223 15.3582 61.5169 15.2716 61.4608 15.2214C61.3358 15.1113 61.2668 14.9718 61.2668 14.8291C61.2668 14.6864 61.3358 14.5469 61.4608 14.4368C61.5169 14.3865 61.5223 14.3 61.4726 14.2433C61.4223 14.1872 61.3363 14.1813 61.2791 14.2315C61.0947 14.3946 60.9932 14.6067 60.9932 14.8291C60.9932 15.0514 61.0947 15.2636 61.2791 15.4266C61.3053 15.4496 61.3379 15.4608 61.37 15.4608Z" fill="#FD9997"/>
<path d="M71.0817 8.54491V15.2959C71.0817 17.8545 69.0086 19.9276 66.45 19.9276C63.8914 19.9276 61.8184 17.8545 61.8184 15.2959V8.54491C61.8184 8.3831 61.9494 8.25977 62.1112 8.25977H70.7889C70.9507 8.25977 71.0817 8.3831 71.0817 8.54491Z" fill="#F9C4C0"/>
<path d="M57.7546 42.7899L58.3644 30.5059H57.6596L57.0498 42.7899H57.7546Z" fill="#C7DAFA"/>
<path d="M75.0844 42.7899L74.4746 30.5059H75.1794L75.7892 42.7899H75.0844Z" fill="#C7DAFA"/>
<path d="M61.9298 31.4817C61.7563 31.4817 61.6085 31.3487 61.5933 31.1725L61.084 25.3008C61.0827 23.6501 61.8061 22.136 63.0674 21.1173C63.2127 21.001 63.4261 21.0235 63.5431 21.1684C63.6604 21.3137 63.6378 21.5264 63.4924 21.644C62.3909 22.5332 61.7591 23.8554 61.7591 25.2718L62.2672 31.1144C62.2835 31.3002 62.1456 31.464 61.9595 31.4803C61.9496 31.4812 61.9397 31.4817 61.9298 31.4817Z" fill="#242C3F"/>
<path d="M70.9305 31.4822C70.9206 31.4822 70.9107 31.4817 70.9007 31.4809C70.7147 31.4646 70.5768 31.3007 70.5931 31.1149L71.1025 25.2432C71.1011 24.0259 70.6154 22.8539 69.7334 21.9718C69.6189 21.8573 69.4952 21.748 69.3666 21.6432C69.2219 21.5252 69.2003 21.312 69.3183 21.1671C69.4364 21.0227 69.6493 21.0011 69.7942 21.1191C69.9409 21.2389 70.0818 21.3631 70.2119 21.4935C71.2216 22.5034 71.7776 23.8453 71.7776 25.2723L71.267 31.173C71.2518 31.3492 71.104 31.4822 70.9305 31.4822Z" fill="#242C3F"/>
<path d="M72.1484 36.9228C72.1037 36.9228 72.0588 36.9202 72.0134 36.9149C71.828 36.8924 71.6954 36.7242 71.7177 36.5388C71.7399 36.3534 71.9088 36.2257 72.0936 36.2428C72.3444 36.2737 72.571 36.094 72.6009 35.8443L72.8176 34.0328C72.9668 32.7835 72.078 31.6475 70.8243 31.4978C69.5701 31.349 68.4388 32.2411 68.289 33.4911L68.0723 35.3025C68.0424 35.5523 68.2214 35.7795 68.4711 35.8099C68.6568 35.8319 68.7889 36.0006 68.7666 36.186C68.7442 36.3714 68.5751 36.5053 68.3905 36.4811C67.7704 36.4067 67.3265 35.842 67.4007 35.2224L67.6174 33.4109C67.8115 31.7876 69.2811 30.633 70.9044 30.8257C72.5264 31.0197 73.6835 32.4898 73.4892 34.113L73.2726 35.9244C73.2036 36.4992 72.7134 36.9228 72.1484 36.9228Z" fill="#242C3F"/>
<path d="M61.9459 33.1984C62.9105 33.1984 63.6926 32.4164 63.6926 31.4517C63.6926 30.4871 62.9105 29.7051 61.9459 29.7051C60.9812 29.7051 60.1992 30.4871 60.1992 31.4517C60.1992 32.4164 60.9812 33.1984 61.9459 33.1984Z" fill="#242C3F"/>
<path d="M61.9461 32.4899C62.5199 32.4899 62.985 32.0248 62.985 31.451C62.985 30.8772 62.5199 30.4121 61.9461 30.4121C61.3724 30.4121 60.9072 30.8772 60.9072 31.451C60.9072 32.0248 61.3724 32.4899 61.9461 32.4899Z" fill="#353E57"/>
<path d="M66.8086 42.7905L66.511 37.1699H66.3894L66.0918 42.7905H66.8086Z" fill="#C7DAFA"/>
<path d="M71.5086 11.5924L61.7854 11.5924C60.0686 11.5924 58.6768 10.2006 58.6768 8.48369V8.48369C58.6768 6.76681 60.0686 5.375 61.7854 5.375H69.0157C70.3925 5.375 71.5086 6.49113 71.5086 7.86794V11.5924Z" fill="#242C3F"/>
<path d="M61.8193 10.3184H62.5755V13.5158C62.5755 13.9382 62.2376 14.276 61.8193 14.276V10.3184Z" fill="#242C3F"/>
<path d="M71.0824 10.3184V14.276C70.6641 14.276 70.3223 13.9382 70.3223 13.5158V10.3184H71.0824Z" fill="#242C3F"/>
<path d="M88.0121 57.1789L91.1489 51.4414L96.777 54.7205V55.096L93.0356 61.7917C92.5576 62.6472 91.6542 63.1773 90.6741 63.1773L81.7236 65.0227V61.1226L88.0121 57.1789Z" fill="#FD9997"/>
<path d="M58.6619 51.9753L48.1552 60.774C46.87 61.9293 44.9349 61.9654 43.6063 60.8606L37.6855 55.9508L42.4583 50.1672L46.6895 54.2972L51.9758 51.1305L54.0601 48.4372C54.1756 48.1267 54.5005 47.9462 54.8254 48.0113C55.1576 48.069 55.3814 48.3578 55.3814 48.6827C55.3814 48.7478 55.3742 48.8126 55.3525 48.8777L55.0493 49.9463L56.2286 48.5311C56.864 48.1412 57.6944 48.2639 58.1926 48.8271L58.9508 49.6791C59.5573 50.3795 59.4273 51.4554 58.6619 51.9753Z" fill="#F9C4C0"/>
<path d="M58.6645 51.9792L48.1532 60.7775C46.8702 61.9291 44.9385 61.9656 43.6045 60.8576L37.6855 55.9519L38.4072 55.0772L43.4296 59.2394C44.7563 60.3474 46.6953 60.3109 47.9782 59.152L58.4823 50.3536C58.7155 50.1933 58.8905 49.9892 58.9998 49.7559C59.5465 50.4558 59.408 51.4689 58.6645 51.9792Z" fill="#FD9997"/>
<path d="M44.7232 61.4793C43.9579 61.4648 43.1997 61.1978 42.5643 60.6778L36.6436 55.768L41.4163 49.9844L42.0733 50.6269L37.6833 55.9485L43.6041 60.8583C43.9435 61.1399 44.3261 61.3494 44.7232 61.4793Z" fill="#FD9997"/>
<path d="M45.0387 79.6136C45.4376 79.3932 45.7975 79.072 46.0947 78.667C46.6796 77.8795 47.0406 76.8004 47.0406 75.5952C47.0406 73.2041 45.5965 71.2598 43.8203 71.2598H27.0645V79.6136H45.0387Z" fill="#F99072"/>
<path d="M46.574 79.6143C46.2292 78.2091 44.9688 77.1621 43.4585 77.1621H27.0645V79.6143H46.574Z" fill="#FCBA97"/>
<path d="M39.9579 77.1617V79.6134H49.525V73.7972C49.525 71.2987 47.5539 69.2629 45.0772 69.1616C45.0122 69.1543 44.9472 69.1543 44.8823 69.1543H27.0645V75.5557C28.1672 76.5518 29.6253 77.1617 31.2284 77.1617H39.9579Z" fill="#5150AC"/>
<g opacity="0.1">
<path d="M39.9579 77.1614V79.6132H40.9038V76.2734H32.1743C30.0569 76.2734 28.1888 75.2135 27.0645 73.5977V75.5554C28.1672 76.5515 29.6253 77.1614 31.2284 77.1614H39.9579Z" fill="black"/>
</g>
<path d="M45.0788 69.1543V69.1614C45.0138 69.1543 44.9487 69.1543 44.8838 69.1543H45.0788Z" fill="#435FEF"/>
<path d="M46.0241 68.2637V68.2708C45.9591 68.2637 45.8941 68.2637 45.8291 68.2637H46.0241Z" fill="#435FEF"/>
<path d="M39.0215 44.6543C39.9644 45.112 42.1433 48.5187 44.3826 50.9291C44.871 51.4119 39.7552 56.5868 39.2667 56.1039L39.0215 44.6543Z" fill="#F2CF77"/>
<path d="M36.031 43.7188H28.4206C27.9369 43.7188 27.4796 43.8214 27.0654 44.004V69.1564H41.1647V48.8381C41.1647 46.0077 38.8614 43.7188 36.031 43.7188Z" fill="#FDDF8C"/>
<path d="M40.9048 60.612C36.4065 58.1858 30.4568 54.3158 28.6661 49.8462L27.0654 48.5234V69.1538H41.1647V60.7492C41.0781 60.7058 40.9914 60.6553 40.9048 60.612Z" fill="#F2CF77"/>
<path d="M51.6103 63.5863C51.6394 64.5121 50.8594 65.2629 49.9337 65.1828L45.837 65.0223H34.6756C33.451 65.0223 32.3284 64.359 31.7307 63.2948L27.0654 54.9485V54.4818L34.0851 50.3926L37.9923 57.5435L45.8297 60.1603H45.837L47.9364 58.9722C48.2207 58.8117 48.5851 58.8701 48.7965 59.1253C48.9059 59.2491 48.9569 59.4095 48.9569 59.5627C48.9569 59.7813 48.8548 60 48.6507 60.1311L47.7469 60.7727L50.2252 60.9768C50.9688 61.0788 51.5374 61.6985 51.5665 62.4493L51.6103 63.5863Z" fill="#F9C4C0"/>
<path d="M36.8566 54.8978L32.1938 46.1229C31.7131 45.1052 30.861 44.3773 29.8928 44.0217C29.0046 43.7035 27.986 43.6466 27.0654 44.039V57.3735C27.7127 58.5507 28.3676 59.5584 28.913 60.1862C29.4003 60.8082 37.344 55.52 36.8566 54.8978Z" fill="#FDDF8C"/>
<path d="M36.5422 55.7543C36.4497 55.7681 36.3532 55.7293 36.2978 55.6459C36.2212 55.5322 36.2522 55.3768 36.3664 55.3005L36.9256 54.9262L34.1041 49.902C34.0369 49.782 34.0796 49.6297 34.1997 49.5625C34.3184 49.4925 34.472 49.5375 34.5397 49.6575L37.474 54.8826C37.5378 54.9963 37.503 55.1395 37.3951 55.2118L36.6442 55.7144C36.6124 55.7359 36.5779 55.749 36.5422 55.7543Z" fill="#F2CF77"/>
<path d="M89.3408 61.4793C90.1062 61.4648 90.8643 61.1978 91.4997 60.6778L97.4205 55.768L92.6478 49.9844L91.9907 50.6269L96.3808 55.9485L90.46 60.8583C90.1206 61.1399 89.7379 61.3494 89.3408 61.4793Z" fill="#FD9997"/>
<path d="M89.0224 79.6136H106.997V71.2598H90.2409C88.4646 71.2598 87.0205 73.2041 87.0205 75.5952C87.0205 76.8004 87.3815 77.8795 87.9664 78.667C88.2636 79.072 88.6235 79.3932 89.0224 79.6136Z" fill="#F99072"/>
<path d="M106.997 79.6143V77.1621H90.6029C89.0926 77.1621 87.8322 78.2091 87.4873 79.6143H106.997Z" fill="#FCBA97"/>
<path d="M94.1052 79.6134V77.1617H102.835C104.438 77.1617 105.896 76.5518 106.999 75.5557V69.1543H89.1808C89.1158 69.1543 89.0508 69.1543 88.9858 69.1616C86.5092 69.2629 84.5381 71.2987 84.5381 73.7972V79.6134H94.1052Z" fill="#79AFFE"/>
<g opacity="0.1">
<path d="M94.1041 79.6132V77.1614H102.834C104.437 77.1614 105.895 76.5515 106.998 75.5554V73.5977C105.873 75.2135 104.005 76.2734 101.888 76.2734H93.1582V79.6132H94.1041Z" fill="black"/>
</g>
<path d="M88.9873 69.1543V69.1614C89.0523 69.1543 89.1173 69.1543 89.1823 69.1543H88.9873Z" fill="#435FEF"/>
<path d="M88.042 68.2637V68.2708C88.107 68.2637 88.172 68.2637 88.237 68.2637H88.042Z" fill="#435FEF"/>
<path d="M95.0424 44.6543C94.0995 45.112 91.9205 48.5187 89.6813 50.9291C89.1928 51.4119 94.3087 56.5868 94.7971 56.1039L95.0424 44.6543Z" fill="#5DB19C"/>
<path d="M98.0331 43.7188H105.643C106.127 43.7188 106.585 43.8214 106.999 44.004V69.1564H92.8994V48.8381C92.8994 46.0077 95.2027 43.7188 98.0331 43.7188Z" fill="#78D7A6"/>
<path d="M93.1593 60.612C97.6576 58.1858 103.607 54.3158 105.398 49.8462L106.999 48.5234V69.1538H92.8994V60.7492C92.986 60.7058 93.0727 60.6553 93.1593 60.612Z" fill="#5DB19C"/>
<path d="M106.999 54.4818V54.9485L102.334 63.2948C101.736 64.359 100.613 65.0223 99.3887 65.0223H86.3931L82.2965 65.1828C81.3707 65.2629 80.5908 64.5121 80.6199 63.5863L80.6637 62.4493C80.6928 61.6985 81.2614 61.0788 82.0049 60.9768L84.4833 60.7727L83.5794 60.1311C83.3753 60 83.2733 59.7813 83.2733 59.5627C83.2733 59.4095 83.3243 59.2491 83.4336 59.1253C83.645 58.8701 84.0095 58.8117 84.2938 58.9722L86.3931 60.1603H86.4004L96.072 57.5435L99.9791 50.3926L106.999 54.4818Z" fill="#F9C4C0"/>
<path d="M97.2081 54.8978L101.871 46.1229C102.352 45.1052 103.204 44.3773 104.172 44.0217C105.06 43.7035 106.079 43.6466 106.999 44.039V57.3735C106.352 58.5507 105.697 59.5584 105.152 60.1862C104.664 60.8082 96.7207 55.52 97.2081 54.8978Z" fill="#78D7A6"/>
<path d="M97.5184 55.7543C97.6109 55.7681 97.7074 55.7293 97.7627 55.6459C97.8394 55.5322 97.8084 55.3768 97.6941 55.3005L97.135 54.9262L99.9565 49.902C100.024 49.782 99.9809 49.6297 99.8609 49.5625C99.7422 49.4925 99.5886 49.5375 99.5209 49.6575L96.5866 54.8826C96.5228 54.9963 96.5576 55.1395 96.6655 55.2118L97.4164 55.7144C97.4482 55.7359 97.4827 55.749 97.5184 55.7543Z" fill="#5DB19C"/>
<path d="M88.0918 70.3828H91.5036V79.6132H88.0918V70.3828Z" fill="#EDF5FC"/>
<path d="M39.9492 70.3828H43.361V79.6132H39.9492V70.3828Z" fill="#EDF5FC"/>
<g opacity="0.3">
<path d="M39.9492 71.0586H43.361V74.7324H39.9492V71.0586Z" fill="#DAEAF9"/>
</g>
<g opacity="0.3">
<path d="M88.0918 71.0586H91.5036V74.7324H88.0918V71.0586Z" fill="#DAEAF9"/>
</g>
<path d="M93.5066 69.562V73.2284H37.9507C37.9434 73.2284 37.9434 73.2213 37.9434 73.2213V69.5547H93.4993C93.5066 69.5547 93.5066 69.5547 93.5066 69.562Z" fill="#315A79"/>
<g opacity="0.15">
<path d="M93.5065 69.562V71.253H37.9434V69.5547H93.4993C93.5065 69.5547 93.5065 69.5547 93.5065 69.562Z" fill="black"/>
</g>
<path d="M95.6356 65.7305V69.674C95.6356 70.0604 95.3149 70.3811 94.9213 70.3811H36.5298C36.1362 70.3811 35.8154 70.0604 35.8154 69.674V65.7305C35.8154 65.3441 36.1362 65.0234 36.5298 65.0234H94.9213C95.3149 65.0234 95.6356 65.3441 95.6356 65.7305Z" fill="#387094"/>
<path d="M30.2666 37.5645H35.3321V43.7143H30.2666V37.5645Z" fill="#F9C4C0"/>
<path d="M35.3319 36.5195V41.2421C35.3319 41.2421 33.0925 42.3999 30.2666 41.9657V36.5195H35.3319Z" fill="#FD9997"/>
<path d="M39.1324 34.1727V37.2208C39.1324 39.6665 37.1535 41.6513 34.7019 41.6513C32.2564 41.6513 30.2715 39.6665 30.2715 37.2208V34.1727C30.2715 31.7271 32.2564 29.7422 34.7019 29.7422C35.9248 29.7422 37.0353 30.2385 37.8387 31.0418C38.6362 31.8452 39.1324 32.9499 39.1324 34.1727Z" fill="#F9C4C0"/>
<path d="M30.266 34.7363C29.4514 34.7404 28.792 35.4013 28.792 36.2169C28.792 37.0324 29.4514 37.6934 30.266 37.6973V34.7363Z" fill="#F9C4C0"/>
<path d="M39.3317 35.4841H39.1323V34.1754C39.1323 33.2593 38.8519 32.4117 38.3782 31.7012C38.3782 31.7012 38.3782 31.7012 38.372 31.695C38.3657 31.6887 38.3595 31.6887 38.3471 31.6763C38.3346 31.6639 38.3097 31.6451 38.2722 31.6264C38.2722 31.6264 38.2722 31.6202 38.266 31.6202C38.2349 31.6015 38.1913 31.5703 38.1414 31.5454C37.9918 31.4581 37.7799 31.346 37.5244 31.2649C37.4496 31.24 37.3686 31.2151 37.2876 31.1964C36.8202 31.0967 36.2039 31.9785 35.6493 32.3587C35.6493 32.3587 32.9624 29.6695 30.9681 32.7358L31.0491 34.8484C31.0678 35.3907 30.7625 35.8768 30.2701 36.0949L30.2639 36.1011L30.2666 34.7366C29.5512 34.7813 29.0842 35.1381 28.8522 35.8015C28.8522 35.8015 26.5869 33.4774 27.0667 30.5732C27.5466 27.669 30.1579 28.205 30.1579 28.205C30.1579 28.205 30.8747 26.784 33.4485 26.597C36.0163 26.4101 37.9419 28.2984 37.9419 28.2984C37.9419 28.2984 38.7023 28.0429 38.7584 27.2826C38.7584 27.2826 40.2167 27.7063 40.3102 29.1523C40.4037 30.5919 39.8615 35.4904 39.3317 35.4841Z" fill="#363383"/>
<path d="M106.482 38.2153C105.71 40.4229 106.361 43.7619 106.361 43.7619L96.9512 43.714C96.9512 43.714 95.5878 40.2352 94.8758 38.0884C94.1694 35.936 94.3571 30.8641 97.111 29.1753C99.865 27.4809 100.952 29.3408 100.952 29.3408C106.631 26.8794 107.255 36.0022 106.482 38.2153Z" fill="#363383"/>
<path d="M99.4248 38.082H104.097V43.7545H99.4248V38.082Z" fill="#F9C4C0"/>
<path d="M99.4238 37.1191V41.4756C99.4238 41.4756 101.49 42.5437 104.096 42.1432V37.1191H99.4238Z" fill="#FD9997"/>
<path d="M95.9189 34.9581V37.77C95.9189 40.026 97.7445 41.857 100.006 41.857C102.262 41.857 104.093 40.026 104.093 37.77V34.9581C104.093 32.7021 102.262 30.8711 100.006 30.8711C98.8779 30.8711 97.8535 31.3289 97.1124 32.07C96.3767 32.8111 95.9189 33.8301 95.9189 34.9581Z" fill="#F9C4C0"/>
<path d="M104.096 35.7559C104.847 35.7596 105.455 36.3693 105.455 37.1217C105.455 37.874 104.847 38.4837 104.096 38.4873V35.7559Z" fill="#F9C4C0"/>
<path d="M104.094 34.2502C104.094 34.2502 97.99 34.8113 96.0823 33.8194C94.1745 32.8276 96.0823 31.195 96.0823 31.195L97.6728 30.4954L101.358 29.5625L104.094 30.4954V34.2502Z" fill="#363383"/>
</svg>
