<svg width="101" height="101" viewBox="0 0 101 101" fill="none" xmlns="http://www.w3.org/2000/svg">
<circle cx="44.5638" cy="55.4935" r="44.5638" fill="#23B13A" fill-opacity="0.06"/>
<path d="M92.25 4.67969H29.75C26.9886 4.67969 24.75 6.91826 24.75 9.67969V72.1797C24.75 74.9411 26.9886 77.1797 29.75 77.1797H92.25C95.0114 77.1797 97.25 74.9411 97.25 72.1797V9.67969C97.25 6.91826 95.0114 4.67969 92.25 4.67969Z" fill="#A6E3FF"/>
<path d="M97.25 9.67969V19.6797H24.75V9.67969C24.75 8.35361 25.2768 7.08184 26.2145 6.14415C27.1521 5.20647 28.4239 4.67969 29.75 4.67969H92.25C93.5761 4.67969 94.8479 5.20647 95.7855 6.14415C96.7232 7.08184 97.25 8.35361 97.25 9.67969Z" fill="#009492"/>
<path d="M68.3025 65.5797C65.6349 63.7142 62.766 62.1544 59.75 60.9297H44.75C41.734 62.1544 38.8652 63.7142 36.1975 65.5797C34.2878 66.852 32.7226 68.577 31.6412 70.601C30.5599 72.6249 29.9961 74.885 30 77.1797H74.5C74.504 74.885 73.9401 72.6249 72.8588 70.601C71.7775 68.577 70.2122 66.852 68.3025 65.5797Z" fill="#00B3B1"/>
<path d="M81.3446 40.9298C79.1418 40.9198 76.9822 41.541 75.1214 42.72C73.2606 43.8989 71.7764 45.5863 70.8446 47.5823C69.8099 49.6497 69.4971 52.0039 69.9558 54.2698L66.3758 56.2498C66.2602 56.3136 66.1678 56.4123 66.1118 56.5319C66.0558 56.6515 66.039 56.7857 66.064 56.9153C66.089 57.045 66.1544 57.1634 66.2508 57.2536C66.3473 57.3437 66.4698 57.4011 66.6008 57.4173L71.3896 58.0123C72.4014 59.6792 73.8292 61.0545 75.5328 62.0033C77.2364 62.9521 79.1573 63.4417 81.1073 63.4243C83.0572 63.4068 84.9691 62.8828 86.6554 61.9037C88.3417 60.9245 89.7446 59.5239 90.7264 57.8391C91.7083 56.1543 92.2353 54.2433 92.2559 52.2934C92.2764 50.3435 91.7898 48.4218 90.8438 46.7167C89.8977 45.0116 88.5247 43.5816 86.8594 42.5671C85.1941 41.5526 83.2937 40.9884 81.3446 40.9298Z" fill="#00B3B1"/>
<path d="M76 54.6797H78.5V57.1797C78.5 57.5112 78.6317 57.8292 78.8661 58.0636C79.1005 58.298 79.4185 58.4297 79.75 58.4297H82.25C82.5815 58.4297 82.8995 58.298 83.1339 58.0636C83.3683 57.8292 83.5 57.5112 83.5 57.1797V54.6797H86C86.3315 54.6797 86.6495 54.548 86.8839 54.3136C87.1183 54.0792 87.25 53.7612 87.25 53.4297V50.9297C87.25 50.5982 87.1183 50.2802 86.8839 50.0458C86.6495 49.8114 86.3315 49.6797 86 49.6797H83.5V47.1797C83.5 46.8482 83.3683 46.5302 83.1339 46.2958C82.8995 46.0614 82.5815 45.9297 82.25 45.9297H79.75C79.4185 45.9297 79.1005 46.0614 78.8661 46.2958C78.6317 46.5302 78.5 46.8482 78.5 47.1797V49.6797H76C75.6685 49.6797 75.3505 49.8114 75.1161 50.0458C74.8817 50.2802 74.75 50.5982 74.75 50.9297V53.4297C74.75 53.7612 74.8817 54.0792 75.1161 54.3136C75.3505 54.548 75.6685 54.6797 76 54.6797Z" fill="#E13332"/>
<path d="M56.625 57.1797V54.6797H47.875V57.1797C47.043 58.5905 45.9876 59.8569 44.75 60.9297L52.25 77.1797L59.75 60.9297C58.5124 59.8569 57.457 58.5905 56.625 57.1797Z" fill="#FFD5C5"/>
<path d="M42.25 36.498V49.8318C42.25 54.4743 46.7275 58.2918 52.25 58.2918C57.7725 58.2918 62.25 54.4743 62.25 49.8318V36.498H42.25Z" fill="#FFD5C5"/>
<path d="M62.25 49.8945C63.2446 49.8945 64.1984 49.4994 64.9016 48.7962C65.6049 48.0929 66 47.1391 66 46.1445C66 45.15 65.6049 44.1961 64.9016 43.4929C64.1984 42.7896 63.2446 42.3945 62.25 42.3945V49.8945Z" fill="#F4A490"/>
<path d="M42.25 49.8945C41.2554 49.8945 40.3016 49.4994 39.5983 48.7962C38.8951 48.0929 38.5 47.1391 38.5 46.1445C38.5 45.15 38.8951 44.1961 39.5983 43.4929C40.3016 42.7896 41.2554 42.3945 42.25 42.3945V49.8945Z" fill="#F4A490"/>
<path d="M52.25 26.5801C53.1332 26.5798 54.0153 26.6408 54.89 26.7626C61.2237 27.6701 66 31.7776 66 36.7001V45.9301L55.9163 40.3301C55.9163 40.3301 45.8338 45.9301 38.5 45.9301V36.7001C38.5 31.1076 44.66 26.5801 52.25 26.5801Z" fill="#1D252D"/>
<path d="M52.2502 65.5039C50.391 65.5022 48.534 65.3769 46.6914 65.1289L52.2502 77.1789L57.8089 65.1339C55.9662 65.3803 54.1092 65.5039 52.2502 65.5039Z" fill="#E4F4FD"/>
<path d="M40.865 62.7309L39.75 67.2947H43.9163L42.875 70.8659L52.25 77.1797L44.75 60.9297C43.4231 61.4587 42.1261 62.06 40.865 62.7309Z" fill="#009492"/>
<path d="M63.635 62.7309L64.75 67.2947H60.5837L61.625 70.8659L52.25 77.1797L59.75 60.9297C61.0769 61.4587 62.3739 62.06 63.635 62.7309Z" fill="#009492"/>
<path d="M32.25 13.4297C32.9404 13.4297 33.5 12.87 33.5 12.1797C33.5 11.4893 32.9404 10.9297 32.25 10.9297C31.5596 10.9297 31 11.4893 31 12.1797C31 12.87 31.5596 13.4297 32.25 13.4297Z" fill="white"/>
<path d="M38.5 13.4297C39.1904 13.4297 39.75 12.87 39.75 12.1797C39.75 11.4893 39.1904 10.9297 38.5 10.9297C37.8096 10.9297 37.25 11.4893 37.25 12.1797C37.25 12.87 37.8096 13.4297 38.5 13.4297Z" fill="white"/>
<path d="M44.75 13.4297C45.4404 13.4297 46 12.87 46 12.1797C46 11.4893 45.4404 10.9297 44.75 10.9297C44.0596 10.9297 43.5 11.4893 43.5 12.1797C43.5 12.87 44.0596 13.4297 44.75 13.4297Z" fill="white"/>
<path d="M89.75 10.9297H77.25C76.9185 10.9297 76.6005 11.0614 76.3661 11.2958C76.1317 11.5302 76 11.8482 76 12.1797C76 12.5112 76.1317 12.8292 76.3661 13.0636C76.6005 13.298 76.9185 13.4297 77.25 13.4297H89.75C90.0815 13.4297 90.3995 13.298 90.6339 13.0636C90.8683 12.8292 91 12.5112 91 12.1797C91 11.8482 90.8683 11.5302 90.6339 11.2958C90.3995 11.0614 90.0815 10.9297 89.75 10.9297Z" fill="white"/>
</svg>
