<svg width="1920" height="613" viewBox="0 0 1920 613" fill="none" xmlns="http://www.w3.org/2000/svg">
<mask id="mask0_10037_83182" style="mask-type:alpha" maskUnits="userSpaceOnUse" x="0" y="0" width="1920" height="613">
<rect width="1920" height="613" fill="url(#paint0_linear_10037_83182)"/>
</mask>
<g mask="url(#mask0_10037_83182)">
<g opacity="0.12">
<path d="M83.8194 359.8C83.8194 359.8 178.11 302.677 296.114 330.075C365.169 346.172 442.066 394.115 541.192 441.273C589.936 464.418 641.804 485.235 698.16 488.511C750.047 491.513 808.236 473.951 855.795 436.906C983.282 337.002 1030.95 186.764 1127.17 101.1C1167.49 65.4531 1218.56 44.3207 1267.85 41.5415C1322.11 38.8831 1377.47 52.3275 1433.49 69.6824C1553.25 106.404 1660.14 151.181 1762.03 156.393C1846.37 160.681 1920.7 130.501 1963.86 96.9952C2004.83 65.259 2009.54 52.0321 2003.91 62.2534C1997.92 73.1292 1980.11 103.522 1954.22 142.42C1928.85 180.336 1895.69 225.024 1850.38 251.516C1806.66 276.971 1747.1 279.335 1700.02 266.092C1586.44 234.327 1487.15 156.256 1350.98 116.07C1293.46 99.1761 1228.94 94.2929 1172.11 120.754C1112.68 148.561 1059.35 211.486 1000.09 293.492C910.288 418.011 816.674 525.616 717.909 535.065C608.685 545.254 517.671 478.074 434.981 426.427C358.334 378.407 293.016 344.998 236.143 339.141C181.08 333.825 128.499 349.119 83.8194 359.8Z" fill="url(#paint1_radial_10037_83182)"/>
<path d="M64.9963 363.65C64.9963 363.65 144.52 317.356 253.39 331.935C311.378 339.643 380.275 375.79 467.822 425.401C559.123 477.423 678.627 541.898 793.135 491.73C917.952 436.758 978.129 310.359 1047.73 215.594C1109.69 131.665 1179.83 72.6296 1252.21 61.1306C1331.15 48.714 1413.22 75.0719 1502.27 107.234C1594.69 140.556 1683.88 180.346 1781.52 193.161C1857.19 203.121 1899.04 172.484 1911.69 156.55C1924.35 140.615 1910.81 138.463 1873.51 141.948C1828.5 146.157 1748.29 149.097 1650.71 126.671C1539.22 100.84 1422.67 44.2268 1304.18 23.2812C1253.51 14.4257 1203.72 17.3585 1164.96 36.6356C1124.03 56.8543 1090.97 93.8377 1061.43 136.044C993.758 233.507 946.29 345.051 862.271 416.014C790.185 476.743 685.089 480.734 603.284 447.173C512.045 409.654 438.359 348.945 342.308 308.242C247.239 268.061 156.853 260.146 93.3749 270.287C30.9757 280.371 -11.1982 307.272 -33.0464 329.861C-81.4089 379.482 -48.3763 397.853 64.9963 363.65Z" fill="url(#paint2_radial_10037_83182)"/>
<path d="M84.6858 341.176C84.6858 341.176 131.495 338.337 197.939 345.919C227.444 349.205 265.975 359.588 314.776 383.811C371.759 412.377 440.774 464.106 551.252 504.496C603.411 523.58 660.587 534.003 716.591 524.509C770.764 515.302 825.462 484.562 870.33 442.314C970.324 348.372 1023.5 216.995 1113.76 124.391C1151.92 85.294 1201.01 56.8213 1253.2 50.9635C1310.12 44.4751 1373.73 59.7772 1441.85 83.5587C1514.9 109.117 1588.17 142.554 1664.53 171.756C1732.84 197.945 1795.07 218.6 1846.98 220.773C1846.98 220.773 1844.64 211.353 1828.57 200.935C1809.15 188.53 1767.66 173.849 1701.48 151.937C1624.36 126.529 1524.09 89.0384 1405.06 49.352C1294.25 12.3514 1160.91 -15.0043 1080.12 49.4902C1032.36 87.6908 1002.57 140.664 973.345 193.734C942.908 249.094 916.694 301.243 884.362 345.95C827.589 424.453 736.724 466.826 654.391 458.361C560.078 448.362 478.248 402.204 385.356 361.082C305.344 325.327 205.383 302.263 84.6858 341.176Z" fill="url(#paint3_radial_10037_83182)"/>
<path d="M172.402 343.061C172.402 343.061 219.579 338.738 278.141 367.094C311.889 383.327 352.036 412.395 404.599 448.891C460.916 487.799 525.794 535.864 615.4 551.964C694.28 566.146 795.536 532.643 867.306 461.051C949.104 379.262 1004.48 272.965 1082.12 191.903C1116.39 156.193 1155.79 127.401 1197.89 113.675C1240.32 100.122 1287.95 100.865 1333.96 110.602C1440.14 133.403 1535.5 188.839 1624.32 237.237C1624.32 237.237 1557 183.892 1415.21 122.687C1351.73 95.2896 1273.29 70.0142 1198.53 94.2995C1124.77 118.278 1060.27 201.068 986.783 305.516C912.106 411.426 834.122 493.143 751.89 514.512C669.157 536.035 589.312 507.079 521.606 473.032C384.385 404.397 287.533 321.745 172.402 343.061Z" fill="url(#paint4_radial_10037_83182)"/>
<path d="M-56.6312 338.734C-56.6312 338.734 47.0755 248.859 182.686 257.708C259.053 262.796 341.198 302.829 430.55 339.557C474.447 357.611 518.076 373.008 560.587 373.13C600.111 373.345 640.483 355.765 669.216 326.134C709.421 284.767 739.086 230.465 770.949 174.393C803.853 116.358 835.619 60.8639 873.808 13.8127C941.72 -69.4742 1047.09 -111.909 1142.43 -106.608C1253.16 -100.27 1353.85 -63.1837 1452.7 -45.5331C1540 -29.8207 1620.56 -36.9775 1668.44 -66.7227C1720.44 -99.1022 1732.24 -124.09 1736.88 -124.142C1743.18 -124.155 1736.55 -103.765 1721.03 -72.1563C1706.2 -41.8562 1682.68 -1.49218 1642.62 26.9515C1605.51 53.3953 1548.06 64.4285 1494.67 58.3244C1371.96 44.154 1258.64 -22.4909 1130.32 -41.5209C1075.82 -49.4752 1017.64 -42.6029 974.152 -12.8339C925.942 20.3007 890.88 78.4492 860.735 149.064C815.643 254.948 766.798 358.421 681.419 386.509C598.969 413.425 500.304 367.77 406.487 327.205C316.848 288.647 229.681 260.839 149.873 267.766C73.8785 274.619 2.6888 308.77 -56.6312 338.734Z" fill="url(#paint5_radial_10037_83182)"/>
<path d="M-79.701 350.19C-79.701 350.19 12.7461 270.069 153.479 262.552C227.332 258.546 313.554 287.74 404.579 327.243C498.145 367.885 607.529 405.596 674.282 359.654C714.068 332.115 740.945 290.175 764.954 246.923C790.951 200.321 811.707 154.503 834.29 111.962C877.024 31.4601 925.459 -31.3351 987.186 -61.4894C1047.56 -90.682 1122.7 -89.6011 1200.02 -72.4741C1285 -53.5862 1368.96 -16.5754 1470.04 1.2123C1554.87 16.036 1599.01 -9.82247 1610.06 -21.1551C1621.53 -32.8918 1606.12 -33.1007 1570.21 -38.5315C1528.26 -44.8547 1458.17 -66.1151 1367.04 -97.9139C1273.68 -129.85 1165.18 -166.463 1060.39 -137.356C959.676 -109.226 877.333 -22.064 814.496 70.6274C749.769 166.09 708.967 259.152 646.61 318.542C599.099 363.792 522.257 371.454 443.623 343.771C357.673 313.672 268.239 263.27 154.476 231.832C63.5121 206.833 -12.7041 222.796 -60.6795 253.119C-113.378 286.807 -148.267 327.641 -171.682 356.738C-219.285 415.99 -199.044 418.554 -79.701 350.19Z" fill="url(#paint6_radial_10037_83182)"/>
<path d="M-66.9429 326.551C-66.9429 326.551 1.16034 296.635 112.974 278.803C168.881 269.886 237.47 271.057 306.597 290.968C384.37 313.161 461.404 358.87 549.633 383.886C589.223 395.041 626.8 396.949 655.513 385.134C685.902 372.531 709.124 344.59 728.172 311.078C774.662 229.425 801.606 126.911 868.124 32.8177C898.508 -10.1971 936.977 -48.2919 983.748 -70.0259C1029.59 -91.2023 1087.31 -96.0142 1146.31 -85.8788C1211.75 -74.4268 1279.06 -47.9305 1353.98 -20.7521C1425.78 5.19036 1499.58 30.5186 1574.24 23.7986C1574.24 23.7986 1556.24 21.3721 1526.64 11.5373C1495.56 1.33499 1450.02 -20.3232 1389.82 -53.1101C1326.35 -87.6339 1252.67 -134.919 1155.11 -151.046C1112.69 -158.044 1064.57 -155.899 1018.92 -135.878C972.01 -115.473 925.045 -75.5963 878.509 -22.6989C777.086 92.5056 710.129 201.256 638.048 275.409C582.878 332.323 527.642 361.309 478.033 353.225C424.38 344.463 369.93 307.175 276.199 276.721C195.541 250.481 67.0528 245.203 -66.9429 326.551Z" fill="url(#paint7_radial_10037_83182)"/>
<path d="M65.2734 287.67C65.2734 287.67 148.725 260.447 252.044 278.372C309.644 288.39 374.161 313.824 442.469 343.576C512.663 374.12 583.277 407.823 650.367 405.891C710.08 404.028 766.761 356.515 802.91 291.184C845.292 214.9 870.544 127.427 920.34 52.9805C961.878 -9.07088 1035.81 -50.3639 1112.81 -44.1C1204.95 -36.7223 1299.24 8.0805 1409.25 40.6697C1409.25 40.6697 1313.86 -3.24841 1167.43 -41.1148C1103.7 -57.746 1025.77 -63.4523 965.328 -28.212C898.659 10.8545 849.76 92.6978 806.474 185.699C764.924 275.427 726.38 347.247 669.258 375.441C618.264 400.387 552.963 386.701 490.563 362.81C359.698 312.229 222.703 230.922 65.2734 287.67Z" fill="url(#paint8_radial_10037_83182)"/>
<path d="M1823.42 0.853299C1787.8 24.1014 1751.21 46.0002 1712.06 61.2901C1666.74 70.7954 1601.94 81.0697 1529.31 72.0947C1448.92 61.9367 1359.72 29.2732 1265.84 -1.68104C1156.99 -41.2026 1020.71 -70.1215 937.362 3.92343C833.171 96.6867 807.63 219.868 754.275 307.735C731.91 344.73 707.088 373.71 677.16 387.815C649.158 401.056 614.256 401.616 578.65 393.624C478.462 366.245 380.213 310.325 255.578 269.342C150.832 235.141 69.3471 225.868 14.2444 239.195C-39.7796 252.467 -76.988 283.051 -99.8784 307.603C-149.227 360.267 -127.842 373.714 -9.20127 330.773C-9.20127 330.773 8.12252 323.819 40.0512 312.662C23.0546 319.79 13.6696 324.037 13.6696 324.037C42.4753 315.207 73.5354 305.687 106.943 298.461C158.377 292.834 228.687 287.997 304.363 307.818C355.063 322.144 412.47 350.305 477.865 383.964C544.896 418.492 617.603 458.129 700.676 460.066C755.011 461.221 815.305 438.905 861.058 397.755C912.229 351.931 950.321 288.47 989.706 222.969C1027.62 159.835 1062.5 99.2787 1112.12 59.1348C1155.15 24.2998 1217.65 10.0747 1279.61 18.2102C1446.5 42.4041 1588.49 132.866 1739.18 141.75C1794.46 145.083 1854.11 128.717 1891.92 97.4007C1932.52 63.5839 1955.74 18.6547 1967.18 -15.5395C1978.55 -49.9842 1976.28 -72.579 1955.73 -72.5814C1933.67 -72.1232 1895.83 -46.2773 1823.42 0.853299Z" fill="white"/>
<path d="M13.6695 324.035C13.6695 324.035 124.573 258.532 262.959 282.696C343.496 296.918 430.873 343.293 533.493 383.078C582.916 402.179 634 417.756 684.526 415.421C731.565 413.333 780.033 389.983 814.244 353.194C910.318 250.04 938.336 117.058 1017.09 37.8465C1049.19 5.81201 1092.26 -13.6917 1134.33 -15.9007C1181.05 -18.1626 1229.8 -5.70749 1279.73 9.67649C1386.73 43.1869 1485.67 84.3738 1585.27 84.8064C1670.29 85.0503 1752.52 46.6936 1823.34 0.601366C1896.01 -46.606 1933.67 -72.1247 1955.55 -72.2556C1976.11 -72.2532 1978.37 -49.6584 1967.01 -15.2137C1955.82 18.9038 1932.6 63.8328 1891.75 97.7264C1854.02 129.293 1794.29 145.408 1739.01 142.076C1608.93 134.273 1482.11 67.3824 1337.32 30.3844C1273.99 14.1774 1208.27 7.19347 1153.55 28.8998C1097.64 51.2405 1051.78 107.22 1009.57 179.614C942.031 295.393 871.236 408.608 771.45 436.18C671.664 463.751 566.207 411.136 470.354 365.715C378.023 321.955 293.463 289.238 215.783 287.018C142.572 285.073 72.3597 306.32 13.6695 324.035Z" fill="url(#paint9_radial_10037_83182)"/>
<path d="M-9.20153 330.772C-9.20153 330.772 88.4017 273.73 225.746 282.87C300.205 287.995 385.958 322.811 484.817 367.311C584.658 412.331 710.812 455.589 799.883 398.422C905.626 330.39 942.331 215.021 994.163 128.443C1038.39 54.6072 1092.92 3.64424 1152.12 -4.36332C1218.14 -13.3652 1289.53 12.1532 1374.52 40.9023C1461.97 70.54 1555.74 106.463 1668 104.386C1764.75 102.678 1799.11 66.3892 1795.99 55.2919C1792.7 43.6938 1756.44 52.3419 1700.23 63.8195C1643.18 75.2768 1557 81.9655 1463.47 60.2181C1358.73 35.8779 1252.16 -18.5873 1142.94 -32.5123C1096.43 -38.5321 1051.37 -32.6668 1017.84 -13.3456C982.2 7.16749 955.407 42.2315 932.905 81.4603C881.82 171.371 855.939 271.093 792.875 342.482C741.826 400.325 651.106 416.35 565.055 390.393C469.299 361.382 374.031 308.931 255.23 269.996C150.485 235.795 68.9994 226.522 13.8967 239.849C-40.1273 253.121 -77.3357 283.705 -100.226 308.257C-149.227 360.266 -127.842 373.713 -9.20153 330.772Z" fill="url(#paint10_radial_10037_83182)"/>
<path d="M6.9817 309.372C6.9817 309.372 73.1785 296.479 175.345 293.66C225.349 292.306 286.093 299.169 352.057 323.064C425.741 349.798 504.889 400.614 612.316 430.157C661.631 443.537 712.189 446.672 755.312 431.81C798.763 417.122 836.38 383.398 865.471 342.424C930.869 250.043 953.413 137.645 1021.5 54.0305C1049 20.3925 1089.33 -5.39305 1135.27 -10.1596C1185.45 -15.4032 1244.53 -1.45403 1311.96 20.0732C1383.92 42.9534 1461.08 73.004 1550.59 93.2448C1633.01 111.822 1723.32 119.487 1810.58 99.3168C1810.58 99.3168 1784.28 100.252 1737.78 100.53C1688.88 100.999 1615.82 99.5541 1531.63 82.3428C1443.14 64.5298 1345.57 25.1164 1235.61 -12.6922C1136.66 -46.7527 1014.02 -64.2358 937.034 3.74884C840.381 89.8174 812.153 204.233 763.46 291.219C742.405 328.908 720.278 359.528 693.388 378.182C669.196 394.913 638.293 401.371 607.285 398.545C536.179 391.845 465.439 349.686 364.185 311.675C274.675 278.01 151.252 255.287 6.9817 309.372Z" fill="url(#paint11_radial_10037_83182)"/>
<path d="M132.295 295.348C132.295 295.348 208.047 281.445 301.398 307.082C352.272 321.081 410.18 349.089 475.902 382.921C543.51 417.546 616.775 458.108 700.676 460.065C775.717 461.724 858.635 412.197 915.231 337.584C978.249 254.427 1017.57 157.435 1083.62 85.9527C1137.16 28.1705 1227.54 5.67364 1316.81 25.1631C1422.82 48.2911 1529.51 97.7873 1648.86 127.786C1648.86 127.786 1542.16 92.5426 1379.16 40.8491C1303.59 16.8864 1218.23 -6.81691 1142.87 14.6365C1069.77 35.399 1011.15 111.454 960.37 205.93C906.984 305.315 852.19 387.595 779.732 419.394C711.879 449.234 633.137 432.818 563.266 406.01C416.479 349.076 291.123 262.831 132.295 295.348Z" fill="url(#paint12_radial_10037_83182)"/>
</g>
</g>
<defs>
<linearGradient id="paint0_linear_10037_83182" x1="960" y1="0" x2="960" y2="613" gradientUnits="userSpaceOnUse">
<stop stop-color="#F5FAFF"/>
<stop offset="1" stop-color="#F5FAFF" stop-opacity="0"/>
</linearGradient>
<radialGradient id="paint1_radial_10037_83182" cx="0" cy="0" r="1" gradientUnits="userSpaceOnUse" gradientTransform="translate(996.497 764.203) rotate(-12.5578) scale(1841.5 1438.1)">
<stop stop-color="#D5E305"/>
<stop offset="0.4731" stop-color="#51B800"/>
<stop offset="1" stop-color="#1D5500"/>
</radialGradient>
<radialGradient id="paint2_radial_10037_83182" cx="0" cy="0" r="1" gradientUnits="userSpaceOnUse" gradientTransform="translate(1001.76 -139.429) rotate(-12.5578) scale(1534 1197.96)">
<stop stop-color="#D5E305"/>
<stop offset="0.4731" stop-color="#51B800"/>
<stop offset="1" stop-color="#1D5500"/>
</radialGradient>
<radialGradient id="paint3_radial_10037_83182" cx="0" cy="0" r="1" gradientUnits="userSpaceOnUse" gradientTransform="translate(1080.93 -56.3106) rotate(-12.5578) scale(1501.88 1172.88)">
<stop stop-color="#D5E305"/>
<stop offset="0.4731" stop-color="#51B800"/>
<stop offset="1" stop-color="#1D5500"/>
</radialGradient>
<radialGradient id="paint4_radial_10037_83182" cx="0" cy="0" r="1" gradientUnits="userSpaceOnUse" gradientTransform="translate(502.278 -902.891) rotate(-12.5578) scale(2462.19 1922.82)">
<stop stop-color="#D5E305"/>
<stop offset="0.4731" stop-color="#51B800"/>
<stop offset="1" stop-color="#1D5500"/>
</radialGradient>
<radialGradient id="paint5_radial_10037_83182" cx="0" cy="0" r="1" gradientUnits="userSpaceOnUse" gradientTransform="translate(1044.3 704.281) rotate(-25.3377) scale(1755.61 1383.97)">
<stop offset="0.0430108" stop-color="#FFC800"/>
<stop offset="1" stop-color="#FF9500"/>
</radialGradient>
<radialGradient id="paint6_radial_10037_83182" cx="0" cy="0" r="1" gradientUnits="userSpaceOnUse" gradientTransform="translate(551.896 -321.173) rotate(-25.3377) scale(1632.69 1287.07)">
<stop offset="0.0430108" stop-color="#FFC800"/>
<stop offset="1" stop-color="#FF9500"/>
</radialGradient>
<radialGradient id="paint7_radial_10037_83182" cx="0" cy="0" r="1" gradientUnits="userSpaceOnUse" gradientTransform="translate(732.597 -158.176) rotate(-25.3377) scale(1460.3 1151.18)">
<stop offset="0.0430108" stop-color="#FFC800"/>
<stop offset="1" stop-color="#FF9500"/>
</radialGradient>
<radialGradient id="paint8_radial_10037_83182" cx="0" cy="0" r="1" gradientUnits="userSpaceOnUse" gradientTransform="translate(-130.487 -972.053) rotate(-25.3377) scale(2569.6 2025.65)">
<stop offset="0.0430108" stop-color="#FFC800"/>
<stop offset="1" stop-color="#FF9500"/>
</radialGradient>
<radialGradient id="paint9_radial_10037_83182" cx="0" cy="0" r="1" gradientUnits="userSpaceOnUse" gradientTransform="translate(1007.74 669.298) rotate(-17.041) scale(1868.97 1453.71)">
<stop stop-color="#F1F1F1"/>
<stop offset="0.4731" stop-color="#EBEBEB"/>
<stop offset="1" stop-color="#E1E1E1"/>
</radialGradient>
<radialGradient id="paint10_radial_10037_83182" cx="0" cy="0" r="1" gradientUnits="userSpaceOnUse" gradientTransform="translate(840.46 -234.768) rotate(-17.041) scale(1539.15 1197.17)">
<stop stop-color="#F1F1F1"/>
<stop offset="0.4731" stop-color="#EBEBEB"/>
<stop offset="1" stop-color="#E1E1E1"/>
</radialGradient>
<radialGradient id="paint11_radial_10037_83182" cx="0" cy="0" r="1" gradientUnits="userSpaceOnUse" gradientTransform="translate(992.19 -113.254) rotate(-17.041) scale(1469.7 1143.15)">
<stop stop-color="#F1F1F1"/>
<stop offset="0.4731" stop-color="#EBEBEB"/>
<stop offset="1" stop-color="#E1E1E1"/>
</radialGradient>
<radialGradient id="paint12_radial_10037_83182" cx="0" cy="0" r="1" gradientUnits="userSpaceOnUse" gradientTransform="translate(335.702 -926.219) rotate(-17.041) scale(2459.4 1912.95)">
<stop stop-color="#F1F1F1"/>
<stop offset="0.4731" stop-color="#EBEBEB"/>
<stop offset="1" stop-color="#E1E1E1"/>
</radialGradient>
</defs>
</svg>
