<svg width="350" height="60" viewBox="0 0 350 60" fill="none" xmlns="http://www.w3.org/2000/svg">
<g clip-path="url(#clip0_19023_87201)">
<path d="M110.563 5.8706V0H112.324V9.39297H110.954L106.062 3.71805V9.39297H104.301V0.195687H105.475L110.563 5.8706Z" fill="#010101"/>
<path d="M122.109 9.58828H120.152L119.369 7.63141H116.042L115.26 9.58828H113.303L116.825 0.195312H118.391L122.109 9.58828ZM118.782 5.87023L117.608 2.73924L116.629 5.87023H118.782Z" fill="#010101"/>
<path d="M124.065 9.58828V1.95649H121.325V0.195312H128.566V1.95649H125.826V9.58828H124.065Z" fill="#010101"/>
<path d="M129.936 9.58828V0.195312H131.892V9.58828H129.936Z" fill="#010101"/>
<path d="M138.155 9.58865C136.785 9.58865 135.611 9.19728 134.633 8.21885C133.654 7.24041 133.263 6.06629 133.263 4.89217C133.263 3.52236 133.654 2.34824 134.633 1.36981C135.611 0.391374 136.785 0 138.155 0C139.525 0 140.699 0.391374 141.677 1.36981C142.656 2.34824 143.047 3.52236 143.047 4.89217C143.047 6.26198 142.656 7.4361 141.677 8.21885C140.699 9.19728 139.525 9.58865 138.155 9.58865ZM141.09 4.89217C141.09 4.10942 140.894 3.32668 140.307 2.73962C139.72 2.15255 139.133 1.95687 138.155 1.95687C137.372 1.95687 136.589 2.15255 136.002 2.73962C135.415 3.32668 135.22 4.10942 135.22 4.89217C135.22 5.67492 135.415 6.45766 136.002 7.04473C136.785 7.4361 137.372 7.82747 138.155 7.82747C138.938 7.82747 139.72 7.63179 140.307 7.04473C140.894 6.45766 141.09 5.67492 141.09 4.89217Z" fill="#010101"/>
<path d="M150.679 5.8706V0H152.635V9.39297H151.266L146.373 3.71805V9.39297H144.612V0.195687H145.786L150.679 5.8706Z" fill="#010101"/>
<path d="M162.42 9.58828H160.463L159.681 7.63141H156.354L155.571 9.58828H153.614L157.137 0.195312H158.702L162.42 9.58828ZM159.093 5.87023L157.919 2.73924L156.941 5.87023H159.093Z" fill="#010101"/>
<path d="M170.052 9.58828H163.398V0.195312H165.355V7.8271H170.052V9.58828Z" fill="#010101"/>
<path d="M181.402 9.58828H179.445L178.662 7.63141H175.335L174.553 9.58828H172.596L176.118 0.195312H177.684L181.402 9.58828ZM178.075 5.87023L176.901 2.73924L175.922 5.87023H178.075Z" fill="#010101"/>
<path d="M185.706 9.58828H184.141L181.01 0.195312H182.967L184.924 6.45729L187.076 0.195312H188.25L190.403 6.45729L192.36 0.195312H194.316L191.185 9.58828H189.62L187.663 3.52199L185.706 9.58828Z" fill="#010101"/>
<path d="M202.535 9.58828H200.579L199.796 7.63141H196.469L195.686 9.58828H193.729L197.252 0.195312H198.817L202.535 9.58828ZM199.404 5.87023L198.23 2.73924L197.056 5.87023H199.404Z" fill="#010101"/>
<path d="M210.754 9.58828H208.602L206.645 6.2616H205.471V9.58828H203.514V0.195312H207.036C208.014 0.195312 208.797 0.390999 209.384 0.97806C209.971 1.56512 210.167 2.34787 210.167 3.13061C210.167 3.71768 209.971 4.30474 209.776 4.8918C209.384 5.47886 208.993 5.67454 208.406 5.87023L210.754 9.58828ZM207.232 1.95649H205.471V4.50042H207.036C207.427 4.50042 207.819 4.30474 208.21 4.10905C208.602 3.91336 208.602 3.52199 208.602 3.13061C208.602 2.73924 208.406 2.54355 208.21 2.15218C208.014 1.95649 207.623 1.95649 207.232 1.95649Z" fill="#010101"/>
<path d="M215.843 9.58828H212.32V0.195312H216.038C217.408 0.195312 218.582 0.586686 219.365 1.36943C220.148 2.15218 220.539 3.3263 220.539 4.8918C220.539 6.2616 220.148 7.43573 219.365 8.21847C218.387 9.00122 217.212 9.58828 215.843 9.58828ZM214.081 1.95649V7.63141H215.843C216.625 7.63141 217.212 7.43573 217.8 6.84866C218.387 6.2616 218.387 5.67454 218.387 4.69611C218.387 3.91336 218.191 3.13061 217.8 2.73924C217.408 2.34787 216.821 1.95649 215.843 1.95649H214.081Z" fill="#010101"/>
<path d="M228.562 9.58828H226.996L223.865 0.195312H225.822L227.779 6.45729L229.932 0.195312H231.106L233.258 6.45729L235.215 0.195312H237.172L234.041 9.58828H232.475L230.519 3.52199L228.562 9.58828Z" fill="#010101"/>
<path d="M238.347 9.58828V0.195312H240.304V9.58828H238.347Z" fill="#010101"/>
<path d="M248.326 5.8706V0H250.088V9.39297H248.718L243.826 3.71805V9.39297H242.064V0.195687H243.239L248.326 5.8706Z" fill="#010101"/>
<path d="M258.306 5.8706V0H260.067V9.39297H258.697L253.805 3.71805V9.39297H252.044V0.195687H253.218L258.306 5.8706Z" fill="#010101"/>
<path d="M268.677 9.58828H262.22V0.195312H268.482V1.95649H264.177V3.91336H268.286V5.67454H264.177V7.8271H268.677V9.58828Z" fill="#010101"/>
<path d="M277.484 9.58828H275.331L273.374 6.2616H272.2V9.58828H270.243V0.195312H273.766C274.744 0.195312 275.527 0.390999 276.114 0.97806C276.701 1.56512 276.897 2.34787 276.897 3.13061C276.897 3.71768 276.701 4.30474 276.505 4.8918C276.114 5.47886 275.722 5.67454 275.135 5.87023L277.484 9.58828ZM273.961 1.95649H272.2V4.50042H273.766C274.157 4.50042 274.548 4.30474 274.94 4.10905C275.331 3.91336 275.331 3.52199 275.331 3.13061C275.331 2.73924 275.135 2.54355 274.94 2.15218C274.548 1.95649 274.353 1.95649 273.961 1.95649Z" fill="#010101"/>
<path d="M105.476 16.6328L105.867 17.2199C105.28 17.6112 104.889 18.0026 104.889 18.1983C105.084 18.1983 105.28 18.1983 105.476 18.394C105.671 18.5897 105.671 18.7854 105.671 18.9811C105.671 19.1767 105.671 19.3724 105.476 19.5681C105.28 19.7638 105.084 19.7638 104.889 19.7638C104.693 19.7638 104.302 19.7638 104.302 19.5681C104.106 19.3724 104.106 19.1767 104.106 18.7854C103.91 18.0026 104.497 17.2199 105.476 16.6328ZM108.02 18.1983C108.215 18.1983 108.411 18.1983 108.607 18.394C108.802 18.5897 108.802 18.7854 108.802 18.9811C108.802 19.1767 108.802 19.3724 108.607 19.5681C108.411 19.7638 108.215 19.7638 108.02 19.7638C107.824 19.7638 107.433 19.7638 107.433 19.5681C107.237 19.3724 107.237 19.1767 107.237 18.7854C107.237 18.0026 107.824 17.2199 108.802 16.6328L109.194 17.2199C108.411 17.6112 108.02 17.8069 108.02 18.1983Z" fill="#006090"/>
<path d="M115.651 21.3285C116.238 21.5242 116.63 21.7199 117.021 22.307C117.413 22.6984 117.413 23.2854 117.413 23.8725C117.413 24.6552 117.217 25.2423 116.63 25.8293C116.043 26.4164 115.456 26.6121 114.477 26.6121H110.563V17.0234H114.282C115.064 17.0234 115.651 17.2191 116.238 17.8062C116.63 18.1976 117.021 18.7846 117.021 19.3717C117.021 19.7631 116.825 20.1544 116.63 20.5458C116.434 20.9372 116.043 21.1329 115.651 21.3285ZM114.282 18.3932H112.129V20.7415H114.282C114.673 20.7415 115.064 20.5458 115.26 20.3501C115.456 20.1544 115.456 19.9587 115.456 19.5674C115.456 19.176 115.26 18.9803 115.064 18.7846C114.869 18.5889 114.673 18.3932 114.282 18.3932ZM112.129 25.0466H114.477C115.064 25.0466 115.456 24.8509 115.651 24.6552C115.847 24.4595 116.043 24.0682 116.043 23.6768C116.043 23.2854 115.847 22.894 115.651 22.6984C115.26 22.5027 114.869 22.307 114.477 22.307H112.129V25.0466Z" fill="#006090"/>
<path d="M125.436 22.8954C125.436 23.0911 125.436 23.2868 125.436 23.4825H120.152C120.348 24.0695 120.543 24.4609 120.935 24.8523C121.326 25.2437 121.913 25.2437 122.5 25.2437C122.892 25.2437 123.283 25.2437 123.674 25.048C124.066 24.8523 124.457 24.6566 124.849 24.4609L125.436 25.4393C124.653 26.0264 123.674 26.4178 122.5 26.4178C121.326 26.4178 120.348 26.0264 119.761 25.4393C119.174 24.6566 118.782 23.8738 118.782 22.8954C118.782 21.917 119.174 20.9385 119.761 20.3515C120.348 19.7644 121.326 19.373 122.305 19.373C123.283 19.373 124.066 19.7644 124.653 20.3515C125.044 20.9385 125.436 21.7213 125.436 22.8954ZM122.109 20.5472C121.522 20.5472 121.13 20.7429 120.739 20.9385C120.348 21.1342 120.152 21.7213 119.956 22.3083H123.87C123.87 21.7213 123.674 21.3299 123.283 20.9385C122.892 20.7429 122.5 20.5472 122.109 20.5472Z" fill="#006090"/>
<path d="M128.762 26.6135C128.175 26.6135 127.784 26.4178 127.197 26.2221C126.805 26.0264 126.414 25.635 126.022 25.2437L127.001 24.4609C127.197 24.8523 127.392 25.048 127.784 25.2437C128.175 25.4393 128.371 25.4393 128.762 25.4393C129.153 25.4393 129.349 25.4393 129.545 25.2437C129.741 25.048 129.936 24.8523 129.936 24.6566C129.936 24.2652 129.741 24.0695 129.349 23.8738C129.153 23.8738 128.958 23.6782 128.566 23.4825C128.175 23.2868 127.784 23.0911 127.784 23.0911C127.001 22.6997 126.61 22.1127 126.61 21.3299C126.61 20.7429 126.805 20.3515 127.197 19.9601C127.588 19.5687 128.175 19.373 128.958 19.373C129.936 19.373 130.719 19.7644 131.11 20.3515L130.328 21.1342C129.936 20.5472 129.349 20.3515 128.762 20.3515C128.566 20.3515 128.175 20.3515 128.175 20.5472C127.979 20.7429 127.979 20.9385 127.979 21.1342C127.979 21.5256 128.175 21.7213 128.566 21.917L129.349 22.1127C129.741 22.3084 130.132 22.504 130.328 22.504C131.11 22.8954 131.502 23.4825 131.502 24.2652C131.502 24.8523 131.306 25.4393 130.719 25.8307C130.132 26.4178 129.545 26.6135 128.762 26.6135Z" fill="#006090"/>
<path d="M136.59 24.8525L136.981 26.0266C136.394 26.418 135.807 26.6137 135.024 26.6137C134.242 26.6137 133.655 26.418 133.263 26.0266C132.872 25.6352 132.676 24.8525 132.676 24.0697V20.9388H131.502V19.5689H133.067V17.2207H134.437V19.5689H136.786V20.7431H134.437V23.8741C134.437 24.6568 134.829 25.2439 135.416 25.2439C135.807 25.2439 136.198 25.2439 136.59 24.8525Z" fill="#006090"/>
<path d="M141.482 26.4164V17.0234H142.852V26.4164H141.482Z" fill="#006090"/>
<path d="M146.374 26.4178H145.004V19.5687H146.374V20.5472C146.569 20.1558 146.961 19.9601 147.156 19.7644C147.548 19.5687 147.939 19.373 148.526 19.373C149.309 19.373 149.896 19.5687 150.483 20.1558C151.07 20.7429 151.266 21.3299 151.266 22.3083V26.4178H149.896V22.6997C149.896 22.1127 149.7 21.5256 149.505 21.3299C149.113 20.9385 148.722 20.7429 148.331 20.7429C147.744 20.7429 147.352 20.9385 146.961 21.3299C146.569 21.7213 146.374 22.1127 146.374 22.6997V26.4178Z" fill="#006090"/>
<path d="M154.202 26.4178H152.832V19.5687H154.202V20.5472C154.398 20.1558 154.789 19.9601 154.985 19.7644C155.376 19.5687 155.767 19.373 156.354 19.373C157.137 19.373 157.724 19.5687 158.311 20.1558C158.898 20.7429 159.094 21.3299 159.094 22.3083V26.4178H157.724V22.6997C157.724 22.1127 157.529 21.5256 157.333 21.3299C156.941 20.9385 156.55 20.7429 156.159 20.7429C155.572 20.7429 155.18 20.9385 154.789 21.3299C154.398 21.7213 154.202 22.1127 154.202 22.6997V26.4178Z" fill="#006090"/>
<path d="M160.268 22.8954C160.268 21.917 160.659 21.1342 161.246 20.3515C161.833 19.5687 162.811 19.373 163.79 19.373C164.768 19.373 165.747 19.7644 166.334 20.3515C166.921 21.1342 167.312 21.917 167.312 22.8954C167.312 23.8738 166.921 24.8523 166.334 25.4393C165.747 26.2221 164.768 26.4178 163.79 26.4178C162.811 26.4178 161.833 26.0264 161.246 25.4393C160.659 24.8523 160.268 24.0695 160.268 22.8954ZM166.138 22.8954C166.138 22.3083 165.942 21.7213 165.551 21.3299C165.16 20.9385 164.573 20.7429 163.986 20.7429C163.399 20.7429 162.812 20.9385 162.42 21.3299C162.029 21.7213 161.833 22.3083 161.833 22.8954C161.833 23.4825 162.029 24.0695 162.42 24.4609C162.812 24.8523 163.399 25.048 163.986 25.048C164.573 25.048 165.16 24.8523 165.551 24.4609C165.942 24.0695 166.138 23.6782 166.138 22.8954Z" fill="#006090"/>
<path d="M171.422 24.4605L173.379 19.5684H174.944L172.009 26.4174H171.03L167.899 19.5684H169.465L171.422 24.4605Z" fill="#006090"/>
<path d="M181.011 20.5459V19.5674H182.381V26.4165H181.011V25.4381C180.424 26.2208 179.641 26.6122 178.663 26.6122C177.684 26.6122 176.901 26.2208 176.314 25.6337C175.727 24.851 175.336 24.0682 175.336 23.0898C175.336 22.1114 175.727 21.1329 176.314 20.5459C176.901 19.9588 177.684 19.5674 178.663 19.5674C179.641 19.3718 180.424 19.7631 181.011 20.5459ZM178.858 25.2424C179.445 25.2424 180.032 25.0467 180.424 24.6553C180.815 24.2639 181.011 23.6769 181.011 23.0898C181.011 22.5027 180.815 21.9157 180.424 21.5243C180.032 21.1329 179.445 20.9373 178.858 20.9373C178.271 20.9373 177.684 21.1329 177.293 21.5243C176.901 21.9157 176.706 22.5027 176.706 23.0898C176.706 23.6769 176.901 24.2639 177.293 24.6553C177.684 25.0467 178.076 25.2424 178.858 25.2424Z" fill="#006090"/>
<path d="M188.251 24.8525L188.642 26.0266C188.055 26.418 187.468 26.6137 186.685 26.6137C185.903 26.6137 185.316 26.418 184.924 26.0266C184.533 25.6352 184.337 24.8525 184.337 24.0697V20.9388H183.163V19.5689H184.337V17.2207H185.903V19.5689H188.251V20.7431H185.903V23.8741C185.903 24.6568 186.294 25.2439 186.881 25.2439C187.468 25.2439 187.86 25.2439 188.251 24.8525Z" fill="#006090"/>
<path d="M190.404 18.5889C190.208 18.5889 189.817 18.5889 189.817 18.3932C189.817 18.1976 189.621 18.0019 189.621 17.8062C189.621 17.6105 189.621 17.4148 189.817 17.2191C190.012 17.0234 190.208 17.0234 190.404 17.0234C190.6 17.0234 190.795 17.0234 190.991 17.2191C191.187 17.4148 191.187 17.6105 191.187 17.8062C191.187 18.0019 191.187 18.3932 190.991 18.3932C190.795 18.3932 190.6 18.5889 190.404 18.5889ZM190.991 19.5674V26.4164H189.621V19.5674H190.991Z" fill="#006090"/>
<path d="M192.36 22.8954C192.36 21.917 192.752 21.1342 193.339 20.3515C193.926 19.5687 194.904 19.373 195.883 19.373C196.861 19.373 197.84 19.7644 198.427 20.3515C199.014 21.1342 199.405 21.917 199.405 22.8954C199.405 23.8738 199.014 24.8523 198.427 25.4393C197.84 26.2221 196.861 26.4178 195.883 26.4178C194.904 26.4178 193.926 26.0264 193.339 25.4393C192.752 24.8523 192.36 24.0695 192.36 22.8954ZM198.231 22.8954C198.231 22.3083 198.035 21.7213 197.644 21.3299C197.253 20.9385 196.665 20.7429 196.078 20.7429C195.491 20.7429 194.904 20.9385 194.513 21.3299C194.122 21.7213 193.926 22.3083 193.926 22.8954C193.926 23.4825 194.122 24.0695 194.513 24.4609C194.904 24.8523 195.491 25.048 196.078 25.048C196.665 25.048 197.253 24.8523 197.644 24.4609C198.035 24.0695 198.231 23.6782 198.231 22.8954Z" fill="#006090"/>
<path d="M202.341 26.4178H200.971V19.5687H202.341V20.5472C202.536 20.1558 202.928 19.9601 203.123 19.7644C203.515 19.5687 203.906 19.373 204.493 19.373C205.276 19.373 205.863 19.5687 206.45 20.1558C207.037 20.7429 207.233 21.3299 207.233 22.3083V26.4178H205.863V22.6997C205.863 22.1127 205.667 21.5256 205.472 21.3299C205.08 20.9385 204.689 20.7429 204.297 20.7429C203.71 20.7429 203.319 20.9385 202.928 21.3299C202.536 21.7213 202.341 22.1127 202.341 22.6997V26.4178Z" fill="#006090"/>
<path d="M212.712 18.5889C212.517 18.5889 212.125 18.5889 212.125 18.3932C212.125 18.1976 211.93 18.0019 211.93 17.8062C211.93 17.6105 211.93 17.4148 212.125 17.2191C212.321 17.0234 212.517 17.0234 212.712 17.0234C212.908 17.0234 213.104 17.0234 213.299 17.2191C213.495 17.4148 213.495 17.6105 213.495 17.8062C213.495 18.0019 213.495 18.3932 213.299 18.3932C213.104 18.3932 213.104 18.5889 212.712 18.5889ZM213.495 19.5674V26.4164H212.125V19.5674H213.495Z" fill="#006090"/>
<path d="M216.626 26.4178H215.256V19.5687H216.626V20.5472C216.821 20.1558 217.213 19.9601 217.408 19.7644C217.8 19.5687 218.191 19.373 218.778 19.373C219.561 19.373 220.148 19.5687 220.735 20.1558C221.322 20.7429 221.518 21.3299 221.518 22.3083V26.4178H220.148V22.6997C220.148 22.1127 219.952 21.5256 219.757 21.3299C219.365 20.9385 218.974 20.7429 218.583 20.7429C217.995 20.7429 217.604 20.9385 217.213 21.3299C216.821 21.7213 216.626 22.1127 216.626 22.6997V26.4178Z" fill="#006090"/>
<path d="M226.605 17.0234H229.736C230.715 17.0234 231.498 17.2191 232.085 17.8062C232.672 18.3932 232.867 18.9803 232.867 19.9587C232.867 20.7415 232.672 21.5242 232.085 22.1113C231.498 22.6984 230.715 22.894 229.736 22.894H228.171V26.4164H226.801V17.0234H226.605ZM227.975 21.5242H229.736C230.324 21.5242 230.715 21.3285 230.911 21.1329C231.106 20.9372 231.302 20.3501 231.302 19.9587C231.302 19.5674 231.106 19.176 230.911 18.7846C230.715 18.3932 230.324 18.3932 229.736 18.3932H227.975V21.5242Z" fill="#006090"/>
<path d="M239.325 20.5459V19.5674H240.695V26.4165H239.325V25.4381C238.738 26.2208 237.955 26.6122 236.977 26.6122C235.999 26.6122 235.216 26.2208 234.629 25.6337C234.042 24.851 233.65 24.0682 233.65 23.0898C233.65 22.1114 234.042 21.1329 234.629 20.5459C235.216 19.9588 235.999 19.5674 236.977 19.5674C237.955 19.3718 238.738 19.7631 239.325 20.5459ZM237.173 25.2424C237.76 25.2424 238.347 25.0467 238.738 24.6553C239.13 24.2639 239.325 23.6769 239.325 23.0898C239.325 22.5027 239.13 21.9157 238.738 21.5243C238.347 21.1329 237.76 20.9373 237.173 20.9373C236.586 20.9373 235.999 21.1329 235.607 21.5243C235.216 21.9157 235.02 22.5027 235.02 23.0898C235.02 23.6769 235.216 24.2639 235.607 24.6553C235.999 25.0467 236.586 25.2424 237.173 25.2424Z" fill="#006090"/>
<path d="M243.826 26.4178H242.456V19.5687H243.826V20.5472C244.022 20.1558 244.413 19.9601 244.609 19.7644C245 19.5687 245.391 19.373 245.978 19.373C246.761 19.373 247.348 19.5687 247.935 20.1558C248.522 20.7429 248.718 21.3299 248.718 22.3083V26.4178H247.348V22.6997C247.348 22.1127 247.153 21.5256 246.957 21.3299C246.565 20.9385 246.174 20.7429 245.783 20.7429C245.196 20.7429 244.804 20.9385 244.413 21.3299C244.022 21.7213 243.826 22.1127 243.826 22.6997V26.4178Z" fill="#006090"/>
<path d="M255.568 20.5462V16.8281H256.937V26.4168H255.568V25.4383C254.98 26.2211 254.198 26.6125 253.219 26.6125C252.241 26.6125 251.458 26.2211 250.871 25.634C250.284 24.8513 249.893 24.0685 249.893 23.0901C249.893 22.1117 250.284 21.3289 250.871 20.5462C251.458 19.7634 252.241 19.5677 253.219 19.5677C254.198 19.3721 254.98 19.7634 255.568 20.5462ZM255.763 22.8944C255.763 22.3074 255.567 21.7203 255.176 21.3289C254.785 20.9375 254.198 20.7419 253.611 20.7419C253.024 20.7419 252.437 20.9375 252.045 21.3289C251.654 21.7203 251.458 22.3074 251.458 22.8944C251.458 23.4815 251.654 24.0685 252.045 24.4599C252.437 24.8513 253.024 25.047 253.611 25.047C254.198 25.047 254.785 24.8513 255.176 24.4599C255.567 24.2642 255.763 23.6772 255.763 22.8944Z" fill="#006090"/>
<path d="M265.352 22.8954C265.352 23.0911 265.352 23.2868 265.352 23.4825H260.068C260.264 24.0695 260.459 24.4609 260.851 24.8523C261.242 25.2437 261.829 25.2437 262.416 25.2437C262.808 25.2437 263.199 25.2437 263.59 25.048C263.982 24.8523 264.373 24.6566 264.765 24.4609L265.352 25.4393C264.569 26.0264 263.59 26.4178 262.416 26.4178C261.242 26.4178 260.264 26.0264 259.677 25.4393C259.09 24.6566 258.698 23.8738 258.698 22.8954C258.698 21.917 259.09 20.9385 259.677 20.3515C260.264 19.7644 261.242 19.373 262.221 19.373C263.199 19.373 263.982 19.7644 264.569 20.3515C264.96 20.9385 265.352 21.7213 265.352 22.8954ZM262.025 20.5472C261.438 20.5472 261.046 20.7429 260.655 20.9385C260.264 21.1342 260.068 21.7213 259.872 22.3083H263.786C263.786 21.7213 263.59 21.3299 263.199 20.9385C262.808 20.7429 262.416 20.5472 262.025 20.5472Z" fill="#006090"/>
<path d="M274.549 19.373C275.332 19.373 276.114 19.5687 276.506 20.1558C277.093 20.7429 277.288 21.3299 277.288 22.3083V26.4178H275.919V22.504C275.919 21.917 275.723 21.5256 275.527 21.1342C275.332 20.7429 274.94 20.7429 274.353 20.7429C273.766 20.7429 273.375 20.9385 273.179 21.3299C272.788 21.7213 272.788 22.1127 272.788 22.6997V26.4178H271.418V22.504C271.418 21.917 271.222 21.5256 271.026 21.1342C270.831 20.7429 270.439 20.5472 269.852 20.5472C269.265 20.5472 268.874 20.7429 268.678 21.1342C268.287 21.5256 268.287 21.917 268.287 22.504V26.2221H266.917V19.5687H268.287V20.5472C268.483 20.1558 268.678 19.9601 269.07 19.7644C269.461 19.5687 269.852 19.373 270.244 19.373C270.635 19.373 271.222 19.5687 271.418 19.7644C271.809 19.9601 272.005 20.3515 272.201 20.7429C272.396 20.3515 272.788 20.1558 273.179 19.7644C273.57 19.373 274.157 19.373 274.549 19.373Z" fill="#006090"/>
<path d="M279.833 18.5889C279.637 18.5889 279.245 18.5889 279.245 18.3932C279.245 18.1976 279.05 18.0019 279.05 17.8062C279.05 17.6105 279.05 17.4148 279.245 17.2191C279.441 17.0234 279.637 17.0234 279.833 17.0234C280.028 17.0234 280.224 17.0234 280.42 17.2191C280.615 17.4148 280.615 17.6105 280.615 17.8062C280.615 18.0019 280.615 18.3932 280.42 18.3932C280.224 18.3932 280.028 18.5889 279.833 18.5889ZM280.42 19.5674V26.4164H279.05V19.5674H280.42Z" fill="#006090"/>
<path d="M285.508 26.6131C284.529 26.6131 283.551 26.2217 282.964 25.6347C282.377 25.0476 281.985 24.0692 281.985 23.0907C281.985 22.1123 282.377 21.1339 282.964 20.5468C283.747 19.9597 284.529 19.5684 285.508 19.5684C286.095 19.5684 286.877 19.764 287.465 20.1554C288.052 20.5468 288.443 20.9382 288.639 21.5252L287.465 22.1123C287.269 21.7209 286.878 21.5252 286.682 21.3295C286.29 21.1339 285.899 20.9382 285.508 20.9382C284.921 20.9382 284.334 21.1339 283.942 21.5252C283.551 21.9166 283.355 22.5037 283.355 23.0907C283.355 23.6778 283.551 24.2648 283.942 24.6562C284.334 25.0476 284.921 25.2433 285.508 25.2433C285.899 25.2433 286.29 25.0476 286.682 24.8519C287.073 24.6562 287.269 24.2648 287.465 24.0692L288.639 24.6562C288.443 25.2433 287.856 25.6347 287.269 26.026C286.682 26.4174 286.095 26.6131 285.508 26.6131Z" fill="#006090"/>
<path d="M290.204 16.6328C290.4 16.6328 290.791 16.6328 290.791 16.8285C290.987 17.0242 290.987 17.2199 290.987 17.6112C290.987 18.394 290.4 19.1767 289.422 19.7638L289.03 19.1767C289.617 18.7854 290.009 18.394 290.009 18.1983C289.813 18.1983 289.617 18.1983 289.422 18.0026C289.226 17.8069 289.226 17.6112 289.226 17.4156C289.226 17.2199 289.226 17.0242 289.422 16.8285C289.813 16.6328 290.009 16.6328 290.204 16.6328ZM293.14 16.6328C293.335 16.6328 293.727 16.6328 293.727 16.8285C293.922 17.0242 293.922 17.2199 293.922 17.6112C293.922 18.394 293.335 19.1767 292.357 19.7638L291.966 19.1767C292.553 18.7854 292.944 18.394 292.944 18.1983C292.748 18.1983 292.553 18.1983 292.357 18.0026C292.161 17.8069 292.161 17.6112 292.161 17.4156C292.161 17.2199 292.161 17.0242 292.357 16.8285C292.553 16.6328 292.944 16.6328 293.14 16.6328Z" fill="#006090"/>
<path d="M107.824 41.6801H104.497V32.2871H108.019C109.389 32.2871 110.368 32.6785 111.15 33.4612C111.933 34.244 112.325 35.4181 112.325 36.9836C112.325 38.3534 111.933 39.5275 111.15 40.3103C110.368 41.093 109.194 41.6801 107.824 41.6801ZM105.867 33.6569V40.3103H107.824C108.802 40.3103 109.389 39.9189 109.976 39.3318C110.563 38.7448 110.759 37.962 110.759 36.9836C110.759 36.0052 110.563 35.2224 109.976 34.6354C109.389 34.0483 108.802 33.6569 107.824 33.6569H105.867Z" fill="#006090"/>
<path d="M114.673 33.8526C114.478 33.8526 114.086 33.8526 114.086 33.6569C114.086 33.4612 113.891 33.2655 113.891 33.0699C113.891 32.8742 113.891 32.6785 114.086 32.4828C114.282 32.2871 114.478 32.2871 114.673 32.2871C114.869 32.2871 115.065 32.2871 115.26 32.4828C115.456 32.6785 115.456 32.8742 115.456 33.0699C115.456 33.2655 115.456 33.6569 115.26 33.6569C115.065 33.6569 114.869 33.8526 114.673 33.8526ZM115.26 34.831V41.6801H113.891V34.831H115.26Z" fill="#006090"/>
<path d="M122.305 35.6136V34.8308H123.674V40.8971C123.674 42.0712 123.283 42.854 122.696 43.441C122.109 44.0281 121.13 44.4195 119.956 44.4195C118.782 44.4195 117.804 44.0281 116.825 43.441L117.412 42.4626C118.195 43.0497 118.978 43.2454 119.761 43.2454C120.543 43.2454 121.13 43.0497 121.522 42.6583C121.913 42.2669 122.109 41.6799 122.109 41.0928V40.5057C121.522 41.0928 120.739 41.4842 119.761 41.4842C118.782 41.4842 117.999 41.0928 117.217 40.5057C116.63 39.9187 116.238 38.9402 116.238 37.9618C116.238 36.9834 116.63 36.2006 117.217 35.4179C117.804 34.8308 118.782 34.4395 119.761 34.4395C120.935 34.6351 121.718 35.0265 122.305 35.6136ZM120.152 40.3101C120.739 40.3101 121.326 40.1144 121.718 39.723C122.109 39.3316 122.305 38.7446 122.305 38.1575C122.305 37.5704 122.109 36.9834 121.718 36.592C121.326 36.2006 120.739 36.0049 120.152 36.0049C119.565 36.0049 118.978 36.2006 118.587 36.592C118.195 36.9834 117.999 37.5704 117.999 38.1575C117.999 38.7446 118.195 39.3316 118.587 39.723C119.174 40.1144 119.565 40.3101 120.152 40.3101Z" fill="#006090"/>
<path d="M126.219 33.853C126.023 33.853 125.632 33.853 125.632 33.6573C125.632 33.4616 125.24 33.2659 125.24 32.8745C125.24 32.6789 125.24 32.4832 125.436 32.2875C125.632 32.0918 125.827 32.0918 126.023 32.0918C126.219 32.0918 126.414 32.0918 126.61 32.2875C126.806 32.4832 126.806 32.6789 126.806 32.8745C126.806 33.0702 126.806 33.4616 126.61 33.4616C126.414 33.4616 126.61 33.853 126.219 33.853ZM127.001 34.8314V41.6805H125.632V34.8314H127.001Z" fill="#006090"/>
<path d="M132.872 40.1158L133.263 41.2899C132.676 41.6813 132.089 41.877 131.307 41.877C130.524 41.877 129.937 41.6813 129.545 41.2899C129.154 40.8985 128.958 40.1158 128.958 39.333V36.202H127.784V35.0279H129.154V32.6797H130.524V35.0279H132.872V36.202H130.524V39.1374C130.524 39.9201 130.915 40.5072 131.502 40.5072C132.089 40.5072 132.481 40.3115 132.872 40.1158Z" fill="#006090"/>
<path d="M139.526 35.8096V34.8311H140.895V41.6802H139.526V40.7017C138.938 41.4845 138.156 41.8758 137.177 41.8758C136.199 41.8758 135.416 41.4845 134.829 40.8974C134.242 40.1147 133.851 39.3319 133.851 38.3535C133.851 37.375 134.242 36.3966 134.829 35.8096C135.416 35.2225 136.199 34.8311 137.177 34.8311C138.156 34.6354 138.938 35.0268 139.526 35.8096ZM137.373 40.506C137.96 40.506 138.547 40.3103 138.938 39.919C139.33 39.5276 139.526 38.9405 139.526 38.3535C139.526 37.7664 139.33 37.1794 138.938 36.788C138.547 36.3966 137.96 36.2009 137.373 36.2009C136.786 36.2009 136.199 36.3966 135.807 36.788C135.416 37.1794 135.22 37.7664 135.22 38.3535C135.22 38.9405 135.416 39.5276 135.807 39.919C136.199 40.3103 136.786 40.506 137.373 40.506Z" fill="#006090"/>
<path d="M144.026 32.0918V41.6805H142.656V32.0918H144.026Z" fill="#006090"/>
<path d="M149.114 41.6801V32.2871H150.68V41.6801H149.114Z" fill="#006090"/>
<path d="M154.006 41.6814H152.636V34.8324H154.006V35.8108C154.201 35.4195 154.593 35.2238 154.788 35.0281C155.18 34.8324 155.571 34.6367 156.158 34.6367C156.941 34.6367 157.528 34.8324 158.115 35.4195C158.702 36.0065 158.898 36.5936 158.898 37.572V41.6814H157.528V37.9634C157.528 37.3763 157.332 36.7893 157.137 36.5936C156.745 36.2022 156.354 36.0065 155.962 36.0065C155.375 36.0065 154.984 36.2022 154.593 36.5936C154.201 36.985 154.006 37.3763 154.006 37.9634V41.6814Z" fill="#006090"/>
<path d="M165.747 35.8098V32.0918H167.117V41.6805H165.747V40.702C165.16 41.4848 164.377 41.8761 163.399 41.8761C162.421 41.8761 161.638 41.4848 161.051 40.8977C160.464 40.115 160.072 39.3322 160.072 38.3538C160.072 37.3753 160.464 36.5926 161.051 35.8098C161.638 35.0271 162.421 34.8314 163.399 34.8314C164.377 34.6357 165.16 35.0271 165.747 35.8098ZM165.943 38.1581C165.943 37.571 165.747 36.984 165.356 36.5926C164.964 36.2012 164.377 36.0055 163.79 36.0055C163.203 36.0055 162.616 36.2012 162.225 36.5926C161.833 36.984 161.638 37.571 161.638 38.1581C161.638 38.7452 161.833 39.3322 162.225 39.7236C162.616 40.115 163.203 40.3106 163.79 40.3106C164.377 40.3106 164.964 40.115 165.356 39.7236C165.747 39.3322 165.943 38.9408 165.943 38.1581Z" fill="#006090"/>
<path d="M169.857 33.8526C169.661 33.8526 169.27 33.8526 169.27 33.6569C169.27 33.4612 169.074 33.2655 169.074 33.0699C169.074 32.8742 169.074 32.6785 169.27 32.4828C169.466 32.2871 169.661 32.2871 169.857 32.2871C170.053 32.2871 170.248 32.2871 170.444 32.4828C170.64 32.6785 170.64 32.8742 170.64 33.0699C170.64 33.2655 170.64 33.6569 170.444 33.6569C170.248 33.6569 170.053 33.8526 169.857 33.8526ZM170.444 34.831V41.6801H169.074V34.831H170.444Z" fill="#006090"/>
<path d="M177.488 35.8096V34.8311H178.858V41.6802H177.488V40.7017C176.901 41.4845 176.119 41.8758 175.14 41.8758C174.162 41.8758 173.379 41.4845 172.792 40.8974C172.205 40.1147 171.813 39.3319 171.813 38.3535C171.813 37.375 172.205 36.3966 172.792 35.8096C173.379 35.2225 174.162 34.8311 175.14 34.8311C176.119 34.6354 176.901 35.0268 177.488 35.8096ZM175.336 40.506C175.923 40.506 176.51 40.3103 176.901 39.919C177.293 39.5276 177.488 38.9405 177.488 38.3535C177.488 37.7664 177.293 37.1794 176.901 36.788C176.51 36.3966 175.923 36.2009 175.336 36.2009C174.749 36.2009 174.162 36.3966 173.77 36.788C173.379 37.1794 173.183 37.7664 173.183 38.3535C173.183 38.9405 173.379 39.5276 173.77 39.919C174.162 40.3103 174.749 40.506 175.336 40.506Z" fill="#006090"/>
<path d="M190.991 41.6801H189.426L188.447 39.3318H184.925L183.946 41.6801H182.381L186.099 32.2871H187.077L190.991 41.6801ZM188.056 37.962L186.882 34.6354L185.708 37.962H188.056Z" fill="#006090"/>
<path d="M194.709 41.6811H193.535L191.187 34.832H192.752L194.318 39.7242L196.079 34.832H197.057L198.818 39.7242L200.384 34.832H201.949L199.601 41.6811H198.427L196.666 36.7889L194.709 41.6811Z" fill="#006090"/>
<path d="M207.819 35.8096V34.8311H209.189V41.6802H207.819V40.7017C207.232 41.4845 206.45 41.8758 205.471 41.8758C204.493 41.8758 203.71 41.4845 203.123 40.8974C202.536 40.1147 202.145 39.3319 202.145 38.3535C202.145 37.375 202.536 36.3966 203.123 35.8096C203.71 35.2225 204.493 34.8311 205.471 34.8311C206.45 34.6354 207.232 35.0268 207.819 35.8096ZM205.667 40.506C206.254 40.506 206.841 40.3103 207.232 39.919C207.624 39.5276 207.819 38.9405 207.819 38.3535C207.819 37.7664 207.624 37.1794 207.232 36.788C206.841 36.3966 206.254 36.2009 205.667 36.2009C205.08 36.2009 204.493 36.3966 204.101 36.788C203.71 37.1794 203.514 37.7664 203.514 38.3535C203.514 38.9405 203.71 39.5276 204.101 39.919C204.493 40.3103 205.08 40.506 205.667 40.506Z" fill="#006090"/>
<path d="M212.321 41.6814H210.951V34.8324H212.321V35.8108C212.712 35.0281 213.299 34.6367 214.278 34.6367C214.474 34.6367 214.865 34.6367 215.061 34.8324L214.865 36.2022C214.669 36.2022 214.474 36.0065 214.082 36.0065C213.495 36.0065 213.104 36.2022 212.712 36.5936C212.321 36.985 212.125 37.572 212.125 38.1591V41.6814H212.321Z" fill="#006090"/>
<path d="M220.931 35.8098V32.0918H222.301V41.6805H220.931V40.702C220.344 41.4848 219.561 41.8761 218.583 41.8761C217.604 41.8761 216.821 41.4848 216.234 40.8977C215.647 40.115 215.256 39.3322 215.256 38.3538C215.256 37.3753 215.647 36.5926 216.234 35.8098C216.821 35.0271 217.604 34.8314 218.583 34.8314C219.561 34.6357 220.344 35.0271 220.931 35.8098ZM221.126 38.1581C221.126 37.571 220.931 36.984 220.539 36.5926C220.148 36.2012 219.561 36.0055 218.974 36.0055C218.387 36.0055 217.8 36.2012 217.408 36.5926C217.017 36.984 216.821 37.571 216.821 38.1581C216.821 38.7452 217.017 39.3322 217.408 39.7236C217.8 40.115 218.387 40.3106 218.974 40.3106C219.561 40.3106 220.148 40.115 220.539 39.7236C220.931 39.3322 221.126 38.9408 221.126 38.1581Z" fill="#006090"/>
<path d="M226.214 41.6799C225.627 41.6799 225.236 41.4842 224.649 41.2885C224.257 41.0928 223.866 40.7014 223.475 40.3101L224.453 39.5273C224.649 39.9187 224.844 40.1144 225.236 40.3101C225.627 40.5057 225.823 40.5057 226.214 40.5057C226.606 40.5057 226.801 40.5057 226.997 40.3101C227.193 40.1144 227.388 39.9187 227.388 39.723C227.388 39.3316 227.193 39.1359 226.801 38.9402C226.606 38.9402 226.41 38.7446 226.019 38.5489C225.627 38.3532 225.236 38.1575 225.236 38.1575C224.453 37.7661 224.062 37.1791 224.062 36.3963C224.062 35.8093 224.257 35.4179 224.649 35.0265C225.04 34.6351 225.627 34.4395 226.41 34.4395C227.388 34.4395 228.171 34.8308 228.562 35.4179L227.78 36.2006C227.388 35.6136 226.801 35.4179 226.214 35.4179C226.019 35.4179 225.627 35.4179 225.627 35.6136C225.431 35.8093 225.431 36.0049 225.431 36.2006C225.431 36.592 225.627 36.7877 226.019 36.9834L226.801 37.1791C227.193 37.3748 227.584 37.5704 227.78 37.5704C228.562 37.9618 228.954 38.5489 228.954 39.3316C228.954 39.9187 228.758 40.5057 228.171 40.8971C227.584 41.4842 226.997 41.6799 226.214 41.6799Z" fill="#006090"/>
<path d="M237.369 37.7663L235.021 40.3103H238.934V41.6801H233.064V40.506L235.999 37.375L236.782 36.5922C236.978 36.3965 237.173 36.2008 237.173 35.8095C237.369 35.4181 237.369 35.2224 237.369 35.0267C237.369 34.6354 237.173 34.244 236.978 34.0483C236.586 33.8526 236.391 33.6569 235.803 33.6569C235.021 33.6569 234.434 34.0483 233.651 34.6354L232.868 33.6569C233.847 32.6785 234.825 32.2871 235.999 32.2871C236.782 32.2871 237.565 32.4828 238.152 33.0699C238.739 33.6569 238.934 34.244 238.934 35.0267C238.739 35.8095 238.347 36.7879 237.369 37.7663Z" fill="#006090"/>
<path d="M245.391 41.2895C244.804 41.4851 244.413 41.6808 243.63 41.6808C242.847 41.6808 242.456 41.4851 241.869 41.2895C241.086 40.7024 240.499 39.9196 240.108 38.5498C239.912 37.9628 239.912 37.3757 239.912 36.7887C239.912 36.2016 239.912 35.6145 240.108 35.0275C240.303 34.4404 240.499 33.8534 240.695 33.462C240.891 33.0706 241.478 32.6792 241.869 32.2879C242.456 32.0922 242.847 31.8965 243.63 31.8965C244.217 31.8965 244.804 32.0922 245.391 32.2879C246.37 32.8749 246.957 33.6577 247.153 35.0275C247.544 36.2016 247.544 37.3757 247.153 38.5498C246.957 39.9196 246.37 40.8981 245.391 41.2895ZM243.826 40.311C244.609 40.311 245.196 39.9196 245.587 39.3326C245.978 38.7455 246.174 37.7671 246.174 36.7887C246.174 35.8102 245.978 35.0275 245.587 34.2447C245.196 33.6577 244.609 33.2663 243.826 33.2663C243.043 33.2663 242.456 33.6577 242.065 34.2447C241.673 34.8318 241.478 35.8102 241.478 36.7887C241.478 37.7671 241.673 38.5498 242.065 39.3326C242.456 40.1153 243.043 40.311 243.826 40.311Z" fill="#006090"/>
<path d="M253.023 37.7663L250.675 40.3103H254.589V41.6801H248.718V40.506L251.653 37.375L252.436 36.5922C252.632 36.3965 252.828 36.2008 252.828 35.8095C253.023 35.4181 253.023 35.2224 253.023 35.0267C253.023 34.6354 252.828 34.244 252.632 34.0483C252.241 33.8526 252.045 33.6569 251.458 33.6569C250.675 33.6569 250.088 34.0483 249.305 34.6354L248.522 33.6569C249.501 32.6785 250.479 32.2871 251.653 32.2871C252.436 32.2871 253.219 32.4828 253.806 33.0699C254.393 33.6569 254.589 34.244 254.589 35.0267C254.393 35.8095 254.002 36.7879 253.023 37.7663Z" fill="#006090"/>
<path d="M261.242 41.2895C260.655 41.4851 260.264 41.6808 259.481 41.6808C258.698 41.6808 258.307 41.4851 257.72 41.2895C256.937 40.7024 256.35 39.9196 255.958 38.5498C255.763 37.9628 255.763 37.3757 255.763 36.7887C255.763 36.2016 255.763 35.6145 255.958 35.0275C256.154 34.4404 256.35 33.8534 256.545 33.462C256.741 33.0706 257.328 32.6792 257.72 32.2879C258.307 32.0922 258.698 31.8965 259.481 31.8965C260.068 31.8965 260.655 32.0922 261.242 32.2879C262.22 32.8749 262.807 33.6577 263.003 35.0275C263.394 36.2016 263.394 37.3757 263.003 38.5498C262.612 39.9196 262.025 40.8981 261.242 41.2895ZM259.481 40.311C260.264 40.311 260.851 39.9196 261.242 39.3326C261.633 38.7455 261.829 37.7671 261.829 36.7887C261.829 35.8102 261.633 35.0275 261.242 34.2447C260.851 33.6577 260.264 33.2663 259.481 33.2663C258.698 33.2663 258.111 33.6577 257.72 34.2447C257.328 34.8318 257.132 35.8102 257.132 36.7887C257.132 37.7671 257.328 38.5498 257.72 39.3326C258.111 40.1153 258.698 40.311 259.481 40.311Z" fill="#006090"/>
<path d="M108.607 56.9445C107.237 56.9445 106.063 56.5531 105.28 55.5747C104.302 54.5963 103.91 53.6178 103.91 52.0523C103.91 50.6825 104.302 49.5084 105.28 48.53C106.258 47.5515 107.433 47.1602 108.802 47.1602C109.585 47.1602 110.368 47.3558 111.151 47.7472C111.933 48.1386 112.52 48.53 112.912 49.117L111.933 50.0955C111.151 49.117 110.172 48.53 108.998 48.53C108.02 48.53 107.237 48.9213 106.65 49.5084C106.063 50.0955 105.671 51.0739 105.671 52.0523C105.671 53.0308 106.063 53.8135 106.65 54.4006C107.237 54.9876 108.02 55.379 108.998 55.379C110.172 55.379 111.151 54.7919 111.933 53.8135L112.912 54.7919C112.52 55.379 111.933 55.9661 111.151 56.3574C110.368 56.7488 109.585 56.9445 108.607 56.9445Z" fill="#010101"/>
<path d="M113.499 53.4228C113.499 52.4443 113.89 51.6616 114.477 50.8788C115.065 50.0961 116.043 49.9004 117.021 49.9004C118 49.9004 118.978 50.2918 119.565 50.8788C120.152 51.6616 120.544 52.4443 120.544 53.4228C120.544 54.4012 120.152 55.3796 119.565 55.9667C118.978 56.7494 118 56.9451 117.021 56.9451C116.043 56.9451 115.065 56.5537 114.477 55.9667C113.89 55.1839 113.499 54.4012 113.499 53.4228ZM119.37 53.4228C119.37 52.8357 119.174 52.2486 118.783 51.8573C118.391 51.4659 117.804 51.2702 117.217 51.2702C116.63 51.2702 116.043 51.4659 115.652 51.8573C115.26 52.2486 115.065 52.8357 115.065 53.4228C115.065 54.0098 115.26 54.5969 115.652 54.9882C116.043 55.3796 116.63 55.5753 117.217 55.5753C117.804 55.5753 118.391 55.3796 118.783 54.9882C119.174 54.5969 119.37 54.0098 119.37 53.4228Z" fill="#010101"/>
<path d="M123.479 56.7479H122.109V49.8988H123.479V50.8772C123.675 50.4859 124.066 50.2902 124.262 50.0945C124.653 49.8988 125.045 49.7031 125.632 49.7031C126.414 49.7031 127.002 49.8988 127.589 50.4859C128.176 51.0729 128.371 51.66 128.371 52.6384V56.7479H127.002V53.0298C127.002 52.4427 126.806 51.8557 126.61 51.66C126.219 51.2686 125.827 51.0729 125.436 51.0729C124.849 51.0729 124.458 51.2686 124.066 51.66C123.675 52.0514 123.479 52.4427 123.479 53.0298V56.7479Z" fill="#010101"/>
<path d="M133.263 48.3347C132.872 48.3347 132.481 48.5303 132.285 48.726C132.089 48.9217 131.894 49.3131 131.894 49.7045V50.0958H134.046V51.27H131.894V56.7492H130.524V51.0743H129.35V49.9001H130.524V49.5088C130.524 48.726 130.719 48.139 131.306 47.5519C131.894 46.9648 132.481 46.9648 133.263 46.9648C133.85 46.9648 134.437 47.1605 134.829 47.3562L134.437 48.5303C134.046 48.3347 133.655 48.3347 133.263 48.3347Z" fill="#010101"/>
<path d="M141.286 53.2255C141.286 53.4212 141.286 53.6169 141.286 53.8125H136.003C136.198 54.3996 136.394 54.791 136.785 55.1824C137.177 55.5737 137.764 55.5737 138.351 55.5737C138.742 55.5737 139.134 55.5737 139.525 55.378C139.916 55.1824 140.308 54.9867 140.699 54.791L141.286 55.7694C140.503 56.3565 139.525 56.7479 138.351 56.7479C137.177 56.7479 136.198 56.3565 135.611 55.7694C135.024 54.9867 134.633 54.2039 134.633 53.2255C134.633 52.2471 135.024 51.2686 135.611 50.6816C136.198 50.0945 137.177 49.7031 138.155 49.7031C139.134 49.7031 139.916 50.0945 140.503 50.6816C141.09 51.4643 141.286 52.2471 141.286 53.2255ZM137.959 51.0729C137.372 51.0729 136.981 51.2686 136.59 51.4643C136.198 51.66 136.003 52.2471 135.807 52.8341H139.721C139.721 52.2471 139.525 51.8557 139.134 51.4643C138.938 51.2686 138.547 51.0729 137.959 51.0729Z" fill="#010101"/>
<path d="M144.026 56.7479H142.656V49.8988H144.026V50.8772C144.417 50.0945 145.004 49.7031 145.983 49.7031C146.179 49.7031 146.57 49.7031 146.766 49.8988L146.57 51.2686C146.374 51.2686 146.179 51.0729 145.787 51.0729C145.2 51.0729 144.809 51.2686 144.417 51.66C144.026 52.0514 143.83 52.6384 143.83 53.2255V56.7479H144.026Z" fill="#010101"/>
<path d="M149.114 56.7479H147.744V49.8988H149.114V50.8772C149.505 50.0945 150.092 49.7031 151.071 49.7031C151.266 49.7031 151.658 49.7031 151.854 49.8988L151.658 51.2686C151.462 51.2686 151.267 51.0729 150.875 51.0729C150.288 51.0729 149.897 51.2686 149.505 51.66C149.114 52.0514 148.918 52.6384 148.918 53.2255V56.7479H149.114Z" fill="#010101"/>
<path d="M158.898 53.2255C158.898 53.4212 158.898 53.6169 158.898 53.8125H153.615C153.811 54.3996 154.006 54.791 154.398 55.1824C154.789 55.5737 155.376 55.5737 155.963 55.5737C156.355 55.5737 156.746 55.5737 157.137 55.378C157.529 55.1824 157.92 54.9867 158.311 54.791L158.898 55.7694C158.116 56.3565 157.137 56.7479 155.963 56.7479C154.789 56.7479 153.811 56.3565 153.224 55.7694C152.636 54.9867 152.245 54.2039 152.245 53.2255C152.245 52.2471 152.636 51.2686 153.224 50.6816C153.811 50.0945 154.789 49.7031 155.767 49.7031C156.746 49.7031 157.529 50.0945 158.116 50.6816C158.703 51.4643 158.898 52.2471 158.898 53.2255ZM155.572 51.0729C154.985 51.0729 154.593 51.2686 154.202 51.4643C153.811 51.66 153.615 52.2471 153.419 52.8341H157.333C157.333 52.2471 157.137 51.8557 156.746 51.4643C156.55 51.2686 156.159 51.0729 155.572 51.0729Z" fill="#010101"/>
<path d="M165.552 50.8782V47.1602H166.922V56.7488H165.552V55.7704C164.965 56.5531 164.182 56.9445 163.204 56.9445C162.225 56.9445 161.442 56.5531 160.855 55.9661C160.268 55.1833 159.877 54.4006 159.877 53.4221C159.877 52.4437 160.268 51.661 160.855 50.8782C161.442 50.0955 162.225 49.8998 163.204 49.8998C164.182 49.8998 164.965 50.2911 165.552 50.8782ZM165.748 53.4221C165.748 52.8351 165.552 52.248 165.161 51.8566C164.769 51.4653 164.182 51.2696 163.595 51.2696C163.008 51.2696 162.421 51.4653 162.03 51.8566C161.638 52.248 161.442 52.8351 161.442 53.4221C161.442 54.0092 161.638 54.5963 162.03 54.9876C162.421 55.379 163.008 55.5747 163.595 55.5747C164.182 55.5747 164.769 55.379 165.161 54.9876C165.552 54.5963 165.748 54.0092 165.748 53.4221Z" fill="#010101"/>
<path d="M175.532 49.8998C176.51 49.8998 177.293 50.2911 177.88 50.8782C178.467 51.661 178.858 52.4437 178.858 53.4221C178.858 54.4006 178.467 55.1833 177.88 55.9661C177.293 56.5531 176.51 56.9445 175.532 56.9445C174.553 56.9445 173.77 56.5531 173.183 55.7704V56.7488H171.813V47.1602H173.183V50.8782C173.966 50.2911 174.749 49.8998 175.532 49.8998ZM175.336 55.5747C175.923 55.5747 176.51 55.379 176.901 54.9876C177.293 54.5963 177.488 54.0092 177.488 53.4221C177.488 52.8351 177.293 52.248 176.901 51.8566C176.51 51.4653 175.923 51.2696 175.336 51.2696C174.749 51.2696 174.162 51.4653 173.77 51.8566C173.379 52.248 173.183 52.8351 173.183 53.4221C173.183 54.0092 173.379 54.5963 173.77 54.9876C174.162 55.379 174.749 55.5747 175.336 55.5747Z" fill="#010101"/>
<path d="M182.968 54.9879L184.729 50.0957H186.294L183.555 57.5318C183.163 58.3145 182.968 58.9016 182.576 59.293C182.185 59.6844 181.598 59.88 181.011 59.88C180.619 59.88 180.228 59.88 179.837 59.6844L180.032 58.5102C180.424 58.7059 180.619 58.7059 180.815 58.7059C181.402 58.7059 181.794 58.3145 182.185 57.5318L182.381 56.9447L179.445 50.0957H181.011L182.968 54.9879Z" fill="#010101"/>
<path d="M191.969 56.7484H190.6V47.3555H191.969V51.2692H196.47V47.3555H197.84V56.7484H196.47V52.8347H191.969V56.7484Z" fill="#010101"/>
<path d="M199.601 53.4228C199.601 52.4443 199.992 51.6616 200.579 50.8788C201.166 50.0961 202.145 49.9004 203.123 49.9004C204.101 49.9004 205.08 50.2918 205.667 50.8788C206.254 51.6616 206.645 52.4443 206.645 53.4228C206.645 54.4012 206.254 55.3796 205.667 55.9667C205.08 56.7494 204.101 56.9451 203.123 56.9451C202.145 56.9451 201.166 56.5537 200.579 55.9667C199.796 55.1839 199.601 54.4012 199.601 53.4228ZM205.276 53.4228C205.276 52.8357 205.08 52.2486 204.688 51.8573C204.297 51.4659 203.71 51.2702 203.123 51.2702C202.536 51.2702 201.949 51.4659 201.557 51.8573C201.166 52.2486 200.97 52.8357 200.97 53.4228C200.97 54.0098 201.166 54.5969 201.557 54.9882C201.949 55.3796 202.536 55.5753 203.123 55.5753C203.71 55.5753 204.297 55.3796 204.688 54.9882C205.08 54.5969 205.276 54.0098 205.276 53.4228Z" fill="#010101"/>
<path d="M209.581 56.7479H208.211V49.8988H209.581V50.8772C209.776 50.4859 210.168 50.2902 210.363 50.0945C210.755 49.8988 211.146 49.7031 211.733 49.7031C212.516 49.7031 213.103 49.8988 213.69 50.4859C214.277 51.0729 214.473 51.66 214.473 52.6384V56.7479H213.103V53.0298C213.103 52.4427 212.907 51.8557 212.712 51.66C212.32 51.2686 211.929 51.0729 211.538 51.0729C210.951 51.0729 210.559 51.2686 210.168 51.66C209.776 52.0514 209.581 52.4427 209.581 53.0298V56.7479Z" fill="#010101"/>
<path d="M216.43 46.9648C216.626 46.9648 217.017 46.9648 217.017 47.1605C217.213 47.3562 217.213 47.5519 217.213 47.9433C217.213 48.726 216.626 49.5088 215.452 50.0958L215.061 49.5088C215.648 49.1174 216.039 48.726 216.039 48.5303C215.843 48.5303 215.648 48.5303 215.452 48.3347C215.256 48.139 215.256 47.9433 215.256 47.7476C215.256 47.5519 215.256 47.3562 215.452 47.1605C215.843 47.1605 216.235 46.9648 216.43 46.9648Z" fill="#010101"/>
<path d="M222.301 49.8998C223.279 49.8998 224.062 50.2911 224.649 50.8782C225.236 51.661 225.628 52.4437 225.628 53.4221C225.628 54.4006 225.236 55.1833 224.649 55.9661C224.062 56.5531 223.279 56.9445 222.301 56.9445C221.323 56.9445 220.54 56.5531 219.953 55.7704V56.7488H218.583V47.1602H219.953V50.8782C220.54 50.2911 221.323 49.8998 222.301 49.8998ZM222.105 55.5747C222.692 55.5747 223.28 55.379 223.671 54.9876C224.062 54.5963 224.258 54.0092 224.258 53.4221C224.258 52.8351 224.062 52.248 223.671 51.8566C223.28 51.4653 222.692 51.2696 222.105 51.2696C221.518 51.2696 220.931 51.4653 220.54 51.8566C220.149 52.248 219.953 52.8351 219.953 53.4221C219.953 54.0092 220.149 54.5963 220.54 54.9876C220.931 55.379 221.518 55.5747 222.105 55.5747Z" fill="#010101"/>
<path d="M228.562 47.1602V56.7488H227.192V47.1602H228.562Z" fill="#010101"/>
<path d="M236.781 53.2255C236.781 53.4212 236.781 53.6169 236.781 53.8125H231.498C231.693 54.3996 231.889 54.791 232.28 55.1824C232.672 55.5737 233.259 55.5737 233.846 55.5737C234.237 55.5737 234.629 55.5737 235.02 55.378C235.411 55.1824 235.803 54.9867 236.194 54.791L236.781 55.7694C235.999 56.3565 235.02 56.7479 233.846 56.7479C232.672 56.7479 231.693 56.3565 231.106 55.7694C230.519 54.9867 230.128 54.2039 230.128 53.2255C230.128 52.2471 230.519 51.2686 231.106 50.6816C231.693 50.0945 232.672 49.7031 233.65 49.7031C234.629 49.7031 235.411 50.0945 235.999 50.6816C236.39 51.4643 236.781 52.2471 236.781 53.2255ZM233.455 51.0729C232.868 51.0729 232.476 51.2686 232.085 51.4643C231.693 51.66 231.498 52.2471 231.302 52.8341H235.216C235.216 52.2471 235.02 51.8557 234.629 51.4643C234.433 51.2686 233.846 51.0729 233.455 51.0729Z" fill="#010101"/>
<path d="M241.478 47.5508H244.609C245.587 47.5508 246.37 47.7465 246.957 48.3335C247.544 48.9206 247.74 49.5076 247.74 50.4861C247.74 51.2688 247.544 52.0516 246.957 52.6386C246.37 53.2257 245.587 53.4214 244.609 53.4214H243.043V56.7481H241.673V47.5508H241.478ZM242.847 52.0516H244.609C245.196 52.0516 245.587 51.8559 245.783 51.6602C245.978 51.4645 246.174 50.8775 246.174 50.4861C246.174 50.0947 245.978 49.7033 245.783 49.312C245.587 48.9206 245.196 48.9206 244.609 48.9206H242.847V52.0516Z" fill="#010101"/>
<path d="M250.479 56.7479H249.109V49.8988H250.479V50.8772C250.871 50.0945 251.458 49.7031 252.436 49.7031C252.632 49.7031 253.023 49.7031 253.219 49.8988L253.023 51.2686C252.827 51.2686 252.632 51.0729 252.24 51.0729C251.653 51.0729 251.262 51.2686 250.871 51.66C250.479 52.0514 250.283 52.6384 250.283 53.2255V56.7479H250.479Z" fill="#010101"/>
<path d="M260.264 53.2255C260.264 53.4212 260.264 53.6169 260.264 53.8125H254.98C255.176 54.3996 255.372 54.791 255.763 55.1824C256.154 55.5737 256.741 55.5737 257.328 55.5737C257.72 55.5737 258.111 55.5737 258.503 55.378C258.894 55.1824 259.285 54.9867 259.677 54.791L260.264 55.7694C259.481 56.3565 258.503 56.7479 257.328 56.7479C256.154 56.7479 255.176 56.3565 254.589 55.7694C254.002 54.9867 253.61 54.2039 253.61 53.2255C253.61 52.2471 254.002 51.2686 254.589 50.6816C255.176 50.0945 256.154 49.7031 257.133 49.7031C258.111 49.7031 258.894 50.0945 259.481 50.6816C259.872 51.4643 260.264 52.2471 260.264 53.2255ZM256.937 51.0729C256.35 51.0729 255.959 51.2686 255.567 51.4643C255.176 51.66 254.98 52.2471 254.784 52.8341H258.698C258.698 52.2471 258.502 51.8557 258.111 51.4643C257.915 51.2686 257.328 51.0729 256.937 51.0729Z" fill="#010101"/>
<path d="M263.59 56.9435C263.003 56.9435 262.612 56.7479 262.025 56.5522C261.633 56.3565 261.242 55.9651 260.851 55.5737L261.829 54.791C262.025 55.1824 262.22 55.378 262.612 55.5737C263.003 55.7694 263.199 55.7694 263.59 55.7694C263.982 55.7694 264.177 55.7694 264.373 55.5737C264.569 55.378 264.764 55.1824 264.764 54.9867C264.764 54.5953 264.569 54.3996 264.177 54.2039C263.982 54.2039 263.786 54.0082 263.395 53.8125C263.003 53.6169 262.612 53.4212 262.612 53.4212C261.829 53.0298 261.438 52.4427 261.438 51.66C261.438 51.0729 261.633 50.6816 262.025 50.2902C262.416 49.8988 263.003 49.7031 263.786 49.7031C264.764 49.7031 265.547 50.0945 265.938 50.6816L265.156 51.4643C264.764 50.8772 264.177 50.6816 263.59 50.6816C263.395 50.6816 263.003 50.6816 263.003 50.8772C262.807 51.0729 262.807 51.2686 262.807 51.4643C262.807 51.8557 263.003 52.0514 263.395 52.2471L264.177 52.4427C264.569 52.6384 264.96 52.8341 265.156 52.8341C265.938 53.2255 266.33 53.8125 266.33 54.5953C266.33 55.1824 266.134 55.7694 265.547 56.1608C264.96 56.7479 264.373 56.9435 263.59 56.9435Z" fill="#010101"/>
<path d="M268.287 49.1163C268.091 49.1163 267.7 49.1163 267.7 48.9206C267.7 48.7249 267.504 48.5292 267.504 48.3335C267.504 48.1378 267.504 47.9422 267.7 47.7465C267.895 47.5508 268.091 47.5508 268.287 47.5508C268.482 47.5508 268.678 47.5508 268.874 47.7465C269.069 47.9422 269.069 48.1378 269.069 48.3335C269.069 48.5292 269.069 48.9206 268.874 48.9206C268.678 48.9206 268.482 49.1163 268.287 49.1163ZM268.874 49.899V56.7481H267.504V49.899H268.874Z" fill="#010101"/>
<path d="M275.919 50.8782V47.1602H277.289V56.7488H275.919V55.7704C275.332 56.5531 274.549 56.9445 273.571 56.9445C272.592 56.9445 271.81 56.5531 271.223 55.9661C270.636 55.1833 270.244 54.4006 270.244 53.4221C270.244 52.4437 270.636 51.661 271.223 50.8782C271.81 50.0955 272.592 49.8998 273.571 49.8998C274.549 49.8998 275.332 50.2911 275.919 50.8782ZM276.115 53.4221C276.115 52.8351 275.919 52.248 275.528 51.8566C275.136 51.4653 274.549 51.2696 273.962 51.2696C273.375 51.2696 272.788 51.4653 272.397 51.8566C272.005 52.248 271.81 52.8351 271.81 53.4221C271.81 54.0092 272.005 54.5963 272.397 54.9876C272.788 55.379 273.375 55.5747 273.962 55.5747C274.549 55.5747 275.136 55.379 275.528 54.9876C275.919 54.5963 276.115 54.0092 276.115 53.4221Z" fill="#010101"/>
<path d="M285.508 53.2255C285.508 53.4212 285.508 53.6169 285.508 53.8125H280.224C280.42 54.3996 280.616 54.791 281.007 55.1824C281.398 55.5737 281.985 55.5737 282.573 55.5737C282.964 55.5737 283.355 55.5737 283.747 55.378C284.138 55.1824 284.529 54.9867 284.921 54.791L285.508 55.7694C284.725 56.3565 283.747 56.7479 282.573 56.7479C281.398 56.7479 280.42 56.3565 279.833 55.7694C279.246 54.9867 278.854 54.2039 278.854 53.2255C278.854 52.2471 279.246 51.2686 279.833 50.6816C280.42 50.0945 281.398 49.7031 282.377 49.7031C283.355 49.7031 284.138 50.0945 284.725 50.6816C285.312 51.4643 285.508 52.2471 285.508 53.2255ZM282.181 51.0729C281.594 51.0729 281.203 51.2686 280.811 51.4643C280.42 51.66 280.224 52.2471 280.029 52.8341H283.942C283.942 52.2471 283.747 51.8557 283.355 51.4643C283.16 51.2686 282.768 51.0729 282.181 51.0729Z" fill="#010101"/>
<path d="M288.443 56.7479H287.073V49.8988H288.443V50.8772C288.639 50.4859 289.03 50.2902 289.226 50.0945C289.617 49.8988 290.009 49.7031 290.596 49.7031C291.378 49.7031 291.965 49.8988 292.552 50.4859C293.14 51.0729 293.335 51.66 293.335 52.6384V56.7479H291.965V53.0298C291.965 52.4427 291.77 51.8557 291.574 51.66C291.183 51.2686 290.791 51.0729 290.4 51.0729C289.813 51.0729 289.421 51.2686 289.03 51.66C288.639 52.0514 288.443 52.4427 288.443 53.0298V56.7479Z" fill="#010101"/>
<path d="M299.01 55.3795L299.401 56.5536C298.814 56.945 298.227 57.1406 297.444 57.1406C296.661 57.1406 296.074 56.945 295.683 56.5536C295.292 56.1622 295.096 55.3795 295.096 54.5967V51.4657H293.922V50.2916H295.096V47.9434H296.466V50.2916H298.814V51.4657H296.466V54.5967C296.466 55.3795 296.857 55.9665 297.444 55.9665C298.031 55.7708 298.423 55.5751 299.01 55.3795Z" fill="#010101"/>
<path d="M303.119 53.4228C303.119 52.4443 303.511 51.6616 304.098 50.8788C304.685 50.0961 305.663 49.9004 306.642 49.9004C307.62 49.9004 308.598 50.2918 309.185 50.8788C309.773 51.6616 310.164 52.4443 310.164 53.4228C310.164 54.4012 309.773 55.3796 309.185 55.9667C308.598 56.7494 307.62 56.9451 306.642 56.9451C305.663 56.9451 304.685 56.5537 304.098 55.9667C303.315 55.1839 303.119 54.4012 303.119 53.4228ZM308.794 53.4228C308.794 52.8357 308.598 52.2486 308.207 51.8573C307.816 51.4659 307.229 51.2702 306.642 51.2702C306.054 51.2702 305.467 51.4659 305.076 51.8573C304.685 52.2486 304.489 52.8357 304.489 53.4228C304.489 54.0098 304.685 54.5969 305.076 54.9882C305.467 55.3796 306.054 55.5753 306.642 55.5753C307.229 55.5753 307.816 55.3796 308.207 54.9882C308.598 54.5969 308.794 54.0098 308.794 53.4228Z" fill="#010101"/>
<path d="M314.861 48.3347C314.47 48.3347 314.078 48.5303 313.883 48.726C313.687 48.9217 313.491 49.3131 313.491 49.7045V50.0958H315.644V51.27H313.491V56.7492H312.121V51.0743H310.947V49.9001H312.121V49.5088C312.121 48.726 312.317 48.139 312.904 47.5519C313.491 46.9648 314.078 46.9648 314.861 46.9648C315.448 46.9648 316.035 47.1605 316.427 47.3562L316.035 48.5303C315.448 48.3347 315.252 48.3347 314.861 48.3347Z" fill="#010101"/>
<path d="M319.753 56.7484V47.3555H321.123V56.7484H319.753Z" fill="#010101"/>
<path d="M324.449 56.7479H323.079V49.8988H324.449V50.8772C324.645 50.4859 325.036 50.2902 325.232 50.0945C325.623 49.8988 326.014 49.7031 326.601 49.7031C327.384 49.7031 327.971 49.8988 328.558 50.4859C329.145 51.0729 329.341 51.66 329.341 52.6384V56.7479H327.971V53.0298C327.971 52.4427 327.776 51.8557 327.58 51.66C327.189 51.2686 326.797 51.0729 326.406 51.0729C325.819 51.0729 325.427 51.2686 325.036 51.66C324.645 52.0514 324.449 52.4427 324.449 53.0298V56.7479Z" fill="#010101"/>
<path d="M336.386 50.8782V47.1602H337.756V56.7488H336.386V55.7704C335.799 56.5531 335.016 56.9445 334.038 56.9445C333.059 56.9445 332.276 56.5531 331.689 55.9661C331.102 55.1833 330.711 54.4006 330.711 53.4221C330.711 52.4437 331.102 51.661 331.689 50.8782C332.276 50.0955 333.059 49.8998 334.038 49.8998C335.016 49.8998 335.603 50.2911 336.386 50.8782ZM336.386 53.4221C336.386 52.8351 336.19 52.248 335.799 51.8566C335.407 51.4653 334.82 51.2696 334.233 51.2696C333.646 51.2696 333.059 51.4653 332.668 51.8566C332.276 52.248 332.081 52.8351 332.081 53.4221C332.081 54.0092 332.276 54.5963 332.668 54.9876C333.059 55.379 333.646 55.5747 334.233 55.5747C334.82 55.5747 335.407 55.379 335.799 54.9876C336.19 54.5963 336.386 54.0092 336.386 53.4221Z" fill="#010101"/>
<path d="M340.3 49.1163C340.105 49.1163 339.713 49.1163 339.713 48.9206C339.713 48.7249 339.518 48.5292 339.518 48.3335C339.518 48.1378 339.518 47.9422 339.713 47.7465C339.909 47.5508 340.105 47.5508 340.3 47.5508C340.496 47.5508 340.692 47.5508 340.887 47.7465C341.083 47.9422 341.083 48.1378 341.083 48.3335C341.083 48.5292 341.083 48.9206 340.887 48.9206C340.692 48.9206 340.496 49.1163 340.3 49.1163ZM340.887 49.899V56.7481H339.518V49.899H340.887Z" fill="#010101"/>
<path d="M348.127 50.8788V49.9004H349.497V56.7494H348.127V55.771C347.54 56.5537 346.757 56.9451 345.779 56.9451C344.8 56.9451 344.018 56.5537 343.431 55.9667C342.844 55.1839 342.452 54.4012 342.452 53.4228C342.452 52.4443 342.844 51.4659 343.431 50.8788C344.018 50.2918 344.8 49.9004 345.779 49.9004C346.562 49.9004 347.344 50.2918 348.127 50.8788ZM345.975 55.771C346.562 55.771 347.149 55.5753 347.54 55.1839C347.931 54.7926 348.127 54.2055 348.127 53.6184C348.127 53.0314 347.931 52.4443 347.54 52.0529C347.149 51.6616 346.562 51.4659 345.975 51.4659C345.387 51.4659 344.8 51.6616 344.409 52.0529C344.018 52.4443 343.822 53.0314 343.822 53.6184C343.822 54.2055 344.018 54.7926 344.409 55.1839C344.8 55.5753 345.192 55.771 345.975 55.771Z" fill="#010101"/>
<path d="M0 0.585938C2.15256 0.585938 4.30511 0.585938 6.45767 0.585938C11.3498 0.585938 15.2636 4.69536 15.4593 9.58753C15.4593 14.4797 11.5455 18.5891 6.65335 18.7848C5.47923 18.7848 4.30511 18.7848 3.13099 18.7848C2.15256 18.7848 1.95687 18.5891 1.95687 17.6107C1.95687 13.5013 1.95687 9.39184 1.95687 5.28242C1.95687 5.08673 2.15255 4.49967 1.76118 3.91261C1.76118 4.69536 1.76118 5.08673 1.76118 5.47811C1.76118 9.39184 1.76118 13.3056 1.76118 17.415C1.76118 18.7848 1.36981 19.1762 0.195687 18.7848C0.195687 18.5891 0.195687 18.3934 0.195687 18.1978C0.391374 17.8064 0.391374 17.415 0.391374 17.0236C0.391374 12.7185 0.391374 8.41341 0.391374 4.1083C0.391374 3.71693 0.587061 3.32555 0.195687 2.93418V2.73849C0.587061 2.34712 1.17412 2.54281 1.56549 2.54281C3.71805 2.54281 5.8706 2.34712 8.02316 2.73849C8.41453 2.93418 8.80591 2.93418 9.00159 3.12987C8.61022 2.73849 8.41453 2.73849 8.02316 2.54281C5.8706 2.15143 3.71805 2.54281 1.56549 2.34712C1.17412 2.34712 0.587061 2.54281 0 2.15143C0 1.56437 0 0.977311 0 0.585938Z" fill="#333333"/>
<path d="M34.6367 55.9662C34.2453 55.5748 33.4626 55.5748 33.2669 54.7921C33.0712 54.4007 33.0712 54.205 33.2669 54.0093C33.4626 53.8136 33.8539 53.8136 34.0496 54.0093C34.8324 54.9878 35.6151 55.5748 36.9849 55.1834C38.5504 54.7921 39.7245 53.8136 40.703 52.6395C41.0944 52.2481 41.29 51.8568 41.4857 51.4654C41.6814 51.074 41.8771 50.8783 41.4857 50.487C40.703 49.7042 41.0944 49.1172 42.0728 49.1172C42.8555 49.1172 43.2469 48.7258 43.6383 48.1387C44.6167 46.5732 45.7908 45.0077 47.552 44.0293C47.7477 44.225 47.7477 44.225 47.552 44.4207C46.965 45.2034 46.3779 45.9862 45.7908 46.7689C45.2038 47.5517 44.8124 48.3344 44.421 49.1172C45.9865 49.5085 46.965 49.3128 47.7477 47.943C48.3348 46.7689 49.1175 45.5948 50.4873 45.0077C49.7046 46.3775 48.9218 47.7473 48.1391 49.1172C48.7261 49.1172 49.1175 48.7258 49.3132 48.3344C49.5089 48.1387 49.9003 47.7473 50.0959 48.1387C50.4873 48.5301 50.2916 48.9215 49.9003 49.1172C49.5089 49.5085 49.1175 49.5085 48.7261 49.7042C46.7693 50.0956 46.1822 51.4654 47.1606 53.2266C47.552 54.0093 47.3563 54.7921 46.3779 55.1834C45.5952 55.7705 44.6167 55.9662 43.834 55.3791C43.6383 55.1834 43.6383 54.9878 43.834 54.5964C44.0297 54.205 44.2253 53.8136 44.421 53.2266C44.421 52.8352 45.5952 52.4438 44.6167 51.8568C44.0297 51.6611 43.2469 50.8783 42.4642 52.0525C41.29 54.0093 39.5289 55.1834 37.3763 55.9662C36.3979 55.9662 35.4194 55.9662 34.6367 55.9662Z" fill="#353635"/>
<path d="M8.21885 2.93518C5.47923 2.34812 2.73962 2.7395 0 2.7395C0 2.54381 0 2.34812 0 2.15244C2.73962 2.15244 5.28354 1.95675 8.02316 2.34812C8.21885 2.34812 8.41453 2.34812 8.61022 2.54381C8.41453 2.7395 8.21885 2.7395 8.21885 2.93518Z" fill="#FDFEFF"/>
<path d="M0 2.93555C0.391374 3.13123 0.195687 3.52261 0.195687 3.91398C0.195687 8.41478 0.195687 12.9156 0.195687 17.2207C0.195687 17.6121 0.195687 18.0034 0 18.1991C0 13.1113 0 8.0234 0 2.93555Z" fill="#3F3F3F"/>
<path d="M79.0576 39.528C79.0576 34.8315 79.0576 29.9393 79.0576 25.2429C79.0576 24.2644 79.449 23.873 80.4274 23.873C83.9498 23.873 87.2765 23.873 90.7988 23.873C91.7773 23.873 92.1686 24.0687 92.1686 25.0472C92.1686 34.8315 92.1686 44.6159 92.1686 54.4002C92.1686 55.3786 91.7773 55.5743 90.9945 55.5743C87.4721 55.5743 83.9498 55.5743 80.4274 55.5743C79.449 55.5743 79.2533 55.1829 79.2533 54.4002C79.0576 49.3123 79.0576 44.4202 79.0576 39.528Z" fill="#484848"/>
<path d="M62.8154 20.9383C62.8154 17.0246 62.8154 13.1109 62.8154 9.19711C62.8154 8.02299 62.8154 7.04456 63.2068 5.87044C63.9896 2.34808 66.9249 0.195522 70.4472 0.391208C73.9696 0.586895 76.7092 2.93514 77.2963 6.4575C77.4919 7.82731 77.4919 8.80574 77.4919 9.78418C77.4919 19.9599 77.4919 30.1356 77.4919 40.3113C77.4919 40.7027 77.8833 41.2898 77.1006 41.4854C76.3178 41.6811 75.9265 41.2898 75.9265 40.507C75.9265 35.2235 75.9265 29.9399 75.9265 24.6564C75.9265 24.265 76.1221 23.8736 75.5351 23.4823C75.5351 29.5485 75.5351 35.6148 75.5351 41.4854C73.9696 41.8768 73.7739 41.8768 73.7739 40.3113C73.7739 34.8321 73.7739 29.5485 73.7739 24.0693C73.7739 23.0909 73.3825 22.1124 74.1653 21.3297C73.9696 21.3297 73.9696 21.134 73.7739 21.134C73.3825 18.7858 73.5782 16.4375 73.5782 14.0893C73.5782 11.9367 73.7739 9.78418 73.3825 7.43593C73.1868 7.04456 73.1868 6.84887 72.9911 6.4575C72.2084 5.08769 71.0343 4.50063 69.6645 4.69632C68.2947 4.89201 67.1205 6.06613 67.1205 7.63162C66.9249 11.154 67.1205 14.6763 67.1205 18.1987C67.1205 18.9815 67.5119 19.1771 68.2947 19.1771C69.6645 19.1771 70.8386 19.1771 72.2084 19.1771C72.7955 19.1771 73.3825 19.1771 73.7739 19.7642C73.7739 20.1556 73.9696 20.7426 73.5782 21.134C72.9911 21.7211 72.2084 21.3297 71.6213 21.5254C70.2515 21.7211 68.686 21.3297 67.3162 21.7211C67.1205 22.1124 67.1205 22.6995 66.7292 23.0909C66.7292 28.7658 66.7292 34.6364 66.7292 40.3113C66.7292 40.7027 67.1205 41.2898 66.3378 41.4854C65.5551 41.6811 65.1637 41.2898 65.1637 40.507C65.1637 35.2235 65.1637 29.9399 65.1637 24.6564C65.1637 24.265 65.1637 23.6779 65.1637 23.2866C64.5766 23.6779 64.7723 24.0693 64.7723 24.6564C64.7723 29.7442 64.7723 35.0278 64.7723 40.1156C64.7723 40.7027 65.3594 41.6811 63.9896 41.6811C62.8154 41.6811 63.2068 40.7027 63.2068 40.3113C63.2068 34.245 63.2068 28.1787 63.2068 21.9168C63.2068 21.7211 63.4025 21.7211 63.5982 21.5254C63.0111 21.3297 62.8154 21.134 62.8154 20.9383Z" fill="#333333"/>
<path d="M45.3991 25.4393C43.0509 25.0479 40.8983 25.2436 38.5501 25.2436C37.963 25.2436 37.376 25.4393 37.376 24.4608C37.376 23.4824 37.963 23.6781 38.5501 23.6781C40.3113 23.6781 41.8768 23.6781 43.638 23.6781C48.9215 23.6781 52.8352 27.5918 52.8352 32.6797C52.8352 37.7675 48.9215 41.6813 43.8336 41.877C42.6595 41.877 41.6811 41.877 40.507 41.877C39.7242 41.877 39.5285 41.6813 39.5285 40.8985C39.5285 36.7891 39.5285 32.6797 39.5285 28.5703C39.5285 28.1789 39.7242 27.7875 39.3328 27.3961C38.9415 27.5918 39.1372 28.1789 39.1372 28.3746C39.1372 32.484 39.1372 36.5934 39.1372 40.7028C39.1372 41.2899 39.3328 41.877 38.3544 41.877C37.376 41.877 37.5717 41.2899 37.5717 40.7028C37.5717 36.0064 37.5717 31.3099 37.5717 26.8091C37.5717 25.8306 37.963 25.635 38.7458 25.635C40.7027 25.635 42.6595 25.635 44.6164 25.635C45.2034 25.8306 45.7905 25.635 46.1819 25.8306C46.3776 26.0263 46.7689 26.0263 46.9646 26.222C47.356 26.4177 47.5517 26.6134 47.9431 26.8091C48.3344 27.0048 48.7258 27.3961 48.9215 27.7875C49.3129 27.9832 49.5086 28.3746 49.8999 28.7659C49.7042 28.3746 49.3129 28.1789 48.9215 27.9832C48.7258 27.5918 48.5301 27.3961 48.1388 27.0048C47.9431 26.8091 47.5517 26.6134 47.356 26.4177C47.1603 26.222 46.7689 26.222 46.5733 26.0263C45.9862 25.8306 45.5948 25.8306 45.3991 25.4393Z" fill="#333333"/>
<path d="M35.6153 9.78482C36.9851 9.78482 38.1592 9.78482 39.529 9.78482C40.5075 9.78482 40.5075 10.1762 40.5075 10.9589C39.9204 15.264 36.2024 18.5907 31.8972 18.7864C27.3965 18.9821 23.4827 16.0468 22.5043 11.7417C21.5258 7.63226 23.4827 3.52284 27.0051 1.76166C30.5274 -0.195212 34.8326 0.391848 37.5722 3.13146C38.1592 3.71852 38.1592 4.1099 37.5722 4.50127C37.3765 4.50127 37.1808 4.69696 37.1808 4.69696C36.9851 4.89265 34.2455 4.89265 34.0498 4.89265C31.5059 3.52284 28.1792 4.30558 26.6137 6.84951C25.0482 9.39344 26.0266 12.9158 28.3749 14.2856C30.9188 15.8511 34.2455 15.0684 35.811 12.5244C36.0067 12.3287 36.2024 11.9374 36.2024 11.546C36.0067 11.1546 35.6153 11.3503 35.2239 11.3503C33.8541 11.3503 32.68 11.3503 31.3102 11.3503C30.7231 11.3503 30.5274 11.1546 30.5274 10.5676C30.5274 9.78482 30.7231 9.78482 31.3102 9.78482C32.8757 9.78482 34.2455 9.78482 35.6153 9.78482Z" fill="#333333"/>
<path d="M36.3978 38.7456C36.2021 38.7456 35.615 38.7456 36.0064 39.137C36.7891 39.9197 36.3978 40.7025 36.5934 41.8766C32.6797 38.3542 28.9617 34.8319 25.0479 31.3095C25.0479 33.8534 25.0479 36.3974 25.0479 38.7456C25.0479 39.5284 25.0479 40.5068 25.0479 41.2895C25.0479 42.0723 24.6565 41.8766 24.2652 41.8766C23.8738 41.8766 23.4824 41.8766 23.4824 41.2895C23.4824 36.006 23.4824 30.5268 23.4824 24.8519C26.8091 27.7872 29.7444 30.5268 32.8754 33.4621C32.8754 30.3311 32.8754 27.5915 32.8754 24.8519C32.8754 24.2648 32.6797 23.6777 33.6581 23.6777C34.6366 23.6777 34.4409 24.2648 34.4409 24.8519C34.4409 28.1785 34.4409 31.7009 34.4409 35.0276C35.2236 34.8319 34.8323 34.2448 34.8323 34.0491C34.8323 31.1138 34.8323 27.9828 34.8323 25.0475C34.8323 24.4605 34.6366 24.0691 35.615 23.8734C36.3978 23.8734 36.3978 24.2648 36.3978 24.8519C36.3978 27.5915 36.3978 30.3311 36.3978 33.0707C36.3978 34.8319 36.5934 36.7887 36.3978 38.7456Z" fill="#333333"/>
<path d="M81.0147 19.3722C81.6018 18.7852 81.4061 18.1981 81.4061 17.8068C81.4061 12.3275 81.4061 7.04398 81.4061 1.56475C81.4061 0.977686 81.2104 0.390625 82.1888 0.390625C83.1673 0.390625 82.9716 0.977686 82.9716 1.56475C82.9716 7.04398 82.9716 12.5232 82.9716 17.8068C82.9716 18.7852 83.1673 18.9809 84.1457 18.9809C86.4939 18.9809 89.0379 18.9809 91.3861 18.9809C91.9732 18.9809 92.3646 18.9809 92.3646 19.7636C92.3646 20.3507 92.1689 20.7421 91.3861 20.7421C87.6681 20.7421 83.95 20.7421 80.232 20.7421C79.4492 20.7421 79.4492 20.5464 79.4492 19.7636C79.4492 13.6973 79.4492 7.43535 79.4492 1.36906C79.4492 0.781999 79.4492 0.390625 80.232 0.390625C81.0147 0.390625 81.0147 0.781999 81.0147 1.36906C81.0147 6.84829 81.0147 12.1318 81.0147 17.6111C81.0147 18.1981 81.0147 18.5895 81.0147 19.3722Z" fill="#343434"/>
<path d="M55.3795 4.10846C54.9881 4.69552 55.1838 5.0869 55.1838 5.47827C55.1838 9.58769 55.1838 13.6971 55.1838 17.8065C55.1838 18.3936 55.1838 18.785 54.401 18.785C53.6183 18.785 53.6183 18.3936 53.6183 17.8065C53.6183 13.5014 53.6183 9.39201 53.6183 5.0869C53.6183 4.30415 53.4226 4.10846 52.6398 4.10846C51.4657 4.10846 50.0959 4.10846 48.9218 4.10846C48.3347 4.10846 47.9434 4.10846 47.9434 3.32572C47.9434 2.54297 48.3347 2.54297 48.9218 2.54297C53.2269 2.54297 57.7277 2.54297 62.0328 2.54297C62.6199 2.54297 62.8156 2.73866 62.8156 3.32572C62.8156 4.10846 62.6199 4.10846 62.0328 4.10846C60.8587 4.10846 59.6846 4.10846 58.5104 4.10846C57.532 4.10846 57.3363 4.30415 57.3363 5.28258C57.3363 9.39201 57.3363 13.5014 57.3363 17.6109C57.3363 18.0022 57.7277 18.785 56.5536 18.785C55.5751 18.785 55.5751 18.1979 55.5751 17.6109C55.5751 13.5014 55.5751 9.58769 55.5751 5.47827C55.7708 5.0869 55.7708 4.69552 55.3795 4.10846Z" fill="#343434"/>
<path d="M44.4206 7.82635C44.4206 5.86948 44.4206 3.91261 44.4206 1.76006C44.4206 1.173 44.0293 0.585938 45.2034 0.585938C46.3775 0.585938 45.9861 1.36868 45.9861 1.76006C45.9861 7.0436 45.9861 12.3271 45.9861 17.6107C45.9861 18.1978 46.1818 18.7848 45.2034 18.7848C44.225 18.7848 44.4206 18.1978 44.4206 17.6107C44.4206 15.8495 44.4206 14.284 44.4206 12.5228C44.4206 12.1315 44.6163 11.7401 44.0293 11.5444C44.0293 13.697 44.0293 15.8495 44.0293 18.0021C44.0293 18.3934 44.225 18.9805 43.4422 18.9805C42.8552 18.9805 42.4638 18.9805 42.4638 18.0021C42.4638 15.8495 42.4638 13.697 42.4638 11.3487C42.4638 10.1746 42.6595 9.58753 43.8336 9.97891C44.0293 9.97891 44.225 9.97891 44.4206 9.78322C42.4638 9.39184 42.4638 9.39185 42.4638 7.23929C42.4638 5.86948 42.2681 4.69536 42.4638 3.52124C42.6595 2.54281 41.4853 0.781624 43.2465 0.781624C44.812 0.781624 43.8336 2.54281 44.0293 3.52124C44.225 4.89105 44.0293 6.45654 44.0293 7.82635C44.225 7.82635 44.4206 7.82635 44.4206 7.82635Z" fill="#343434"/>
<path d="M18.1993 34.2456C18.1993 36.5938 18.1993 38.5507 18.1993 40.7032C18.1993 41.2903 18.0036 41.6817 17.4165 41.6817C16.6338 41.6817 16.6338 41.2903 16.6338 40.7032C16.6338 38.5507 16.6338 36.3981 16.6338 34.0499C16.6338 33.0715 16.8295 32.2887 18.0036 32.6801C18.1993 32.6801 18.395 32.6801 18.5907 32.4844C16.6338 32.093 16.6338 32.093 16.6338 29.9405C16.6338 27.9836 16.6338 26.2224 16.6338 24.2655C16.6338 23.6785 16.6338 23.2871 17.4165 23.2871C18.1993 23.2871 18.395 23.4828 18.1993 24.2655C18.1993 26.4181 18.1993 28.375 18.1993 30.5275C18.7863 30.5275 18.5907 30.1361 18.5907 29.9405C18.5907 27.9836 18.5907 26.2224 18.5907 24.2655C18.5907 23.6785 18.5907 23.2871 19.3734 23.4828C19.9605 23.4828 20.1562 23.6785 20.1562 24.2655C20.1562 29.7448 20.1562 35.4197 20.1562 40.8989C20.1562 41.486 19.9605 41.6817 19.3734 41.6817C18.5907 41.6817 18.5907 41.2903 18.5907 40.7032C18.5907 38.9421 18.5907 37.1809 18.5907 35.4197C18.5907 35.224 18.7863 34.8326 18.1993 34.2456Z" fill="#343434"/>
<path d="M55.1838 34.4413C55.1838 36.3981 55.1838 38.355 55.1838 40.5076C55.1838 41.0946 55.5752 41.6817 54.401 41.6817C53.2269 41.6817 53.6183 40.8989 53.6183 40.5076C53.6183 38.355 53.6183 36.3981 53.6183 34.2456C53.6183 33.0715 53.814 32.4844 55.1838 32.6801C55.3795 32.6801 55.5752 32.6801 55.7708 32.4844C55.7708 32.2887 55.5752 32.2887 55.5752 32.2887C53.814 32.093 53.814 32.093 53.814 30.1361C53.814 28.1793 53.814 26.2224 53.814 24.2655C53.814 23.6785 54.0097 23.2871 54.5967 23.2871C55.3795 23.2871 55.3795 23.6785 55.3795 24.2655C55.3795 26.0267 55.3795 27.7879 55.3795 29.7448C55.3795 30.1361 55.1838 30.5275 55.7708 30.7232C55.7708 28.5707 55.7708 26.4181 55.7708 24.4612C55.7708 24.0699 55.5752 23.4828 56.3579 23.4828C57.3363 23.4828 57.3363 23.8742 57.3363 24.4612C57.3363 29.1577 57.3363 33.6585 57.3363 38.355C57.3363 39.1377 57.3363 40.1162 57.3363 40.8989C57.3363 41.486 57.1406 41.6817 56.5536 41.6817C55.9665 41.6817 55.7708 41.486 55.7708 40.8989C55.7708 38.7464 55.7708 36.5938 55.7708 34.4413C55.5752 34.4413 55.3795 34.4413 55.1838 34.4413Z" fill="#343434"/>
<path d="M18.59 7.82672C18.59 5.86986 18.59 3.7173 18.59 1.76043C18.59 1.17337 18.59 0.586312 19.3728 0.586312C20.3512 0.586312 20.1555 1.17337 20.1555 1.76043C20.1555 7.04398 20.1555 12.5232 20.1555 17.8068C20.1555 18.3938 20.3512 18.7852 19.3728 18.7852C18.59 18.7852 18.3943 18.3938 18.59 17.8068C18.59 15.8499 18.59 13.6973 18.59 11.5448C18.003 11.5448 18.1987 11.9361 18.1987 12.3275C18.1987 14.2844 18.1987 16.0456 18.1987 18.0024C18.1987 18.5895 18.003 18.7852 17.4159 18.7852C16.8288 18.7852 16.6332 18.5895 16.6332 18.0024C16.6332 15.8499 16.6332 13.5016 16.6332 11.3491C16.6332 10.3707 16.8288 9.78359 18.003 9.97928C18.1987 9.97928 18.3943 9.97928 18.59 9.78359C18.59 9.78359 18.59 9.58791 18.3943 9.58791C16.6332 9.39222 16.6332 9.39222 16.6332 7.43535C16.6332 5.47848 16.6332 3.52161 16.6332 1.56475C16.6332 0.977685 16.4375 0.390625 17.4159 0.390625C18.3943 0.390625 18.1987 0.977685 18.1987 1.56475C18.1987 3.52161 18.1987 5.67417 18.1987 7.63104C18.3943 7.82672 18.3943 7.82672 18.59 7.82672Z" fill="#343434"/>
<path d="M21.5257 22.6992C22.6999 23.482 23.0912 24.4604 23.0912 25.8302C23.0912 30.7224 23.0912 35.8102 23.0912 40.7024C23.0912 41.2895 23.2869 41.8765 22.3085 41.8765C21.3301 41.8765 21.5257 41.2895 21.5257 40.7024C21.5257 34.8318 21.5257 28.7655 21.5257 22.6992Z" fill="#383938"/>
<path d="M55.3795 2.15143C53.2269 2.15143 51.0743 2.15143 48.9218 2.15143C48.3347 2.15143 47.9434 2.15143 47.9434 1.36868C47.9434 0.585937 48.3347 0.585938 48.9218 0.585938C53.2269 0.585938 57.532 0.585938 61.8371 0.585938C62.4242 0.585938 62.8156 0.585937 62.8156 1.36868C62.8156 2.15143 62.4242 2.15143 61.8371 2.15143C59.6846 2.15143 57.532 2.15143 55.3795 2.15143Z" fill="#343434"/>
<path d="M85.9069 21.1348C87.6681 21.1348 89.6249 21.1348 91.3861 21.1348C91.9732 21.1348 92.3646 21.3305 92.3646 21.9175C92.3646 22.7003 91.9732 22.7003 91.3861 22.7003C87.6681 22.7003 83.95 22.7003 80.232 22.7003C79.6449 22.7003 79.4492 22.5046 79.4492 21.9175C79.4492 21.3305 79.6449 21.1348 80.232 21.1348C82.1888 21.1348 83.95 21.1348 85.9069 21.1348Z" fill="#3A3A39"/>
<path d="M70.4469 54.4008C69.6641 54.5965 69.2727 56.3576 67.9029 54.9878C67.9029 54.9878 67.3159 55.1835 67.1202 55.3792C66.5331 55.5749 65.9461 55.7706 65.5547 55.3792C65.1633 54.9878 65.1633 54.4008 65.359 53.8137C65.9461 52.0525 68.2943 50.487 70.0555 50.6827C70.6425 50.6827 70.6426 50.2914 70.8382 50.0957C71.8167 48.7259 72.4037 47.3561 73.5779 46.1819C74.1649 45.5949 74.752 45.0078 75.7304 45.0078C76.1218 45.0078 76.5132 45.0078 76.7088 45.3992C76.9045 45.5949 76.9045 45.7906 76.7088 45.9862C76.3175 46.3776 76.1218 45.9862 75.7304 45.7906C74.9477 45.3992 74.5563 45.9862 74.1649 46.3776C72.5994 48.1388 71.621 50.0957 70.4469 52.0525C70.0555 52.8353 69.6641 53.618 69.0771 54.7922C69.6641 54.4008 69.8598 54.4008 70.2512 54.2051L70.4469 54.4008Z" fill="#373737"/>
<path d="M35.4195 9.39362C34.0497 9.39362 32.6799 9.39362 31.3101 9.39362C30.5273 9.39362 30.5273 9.00225 30.5273 8.41519C30.5273 8.02381 30.9187 7.82812 31.3101 7.82812C34.0497 7.82812 36.7893 7.82812 39.5289 7.82812C40.116 7.82812 40.3117 8.02381 40.3117 8.61087C40.3117 9.19793 40.3117 9.58931 39.5289 9.39362C38.1591 9.39362 36.7893 9.39362 35.4195 9.39362Z" fill="#373737"/>
<path d="M55.3798 22.8959C53.6186 22.8959 53.6186 22.8959 53.4229 20.7434C53.2273 18.7865 54.4014 19.3736 55.3798 19.3736C57.141 19.3736 57.141 19.3736 57.141 21.5261C57.3367 23.0916 57.7281 22.8959 55.3798 22.8959Z" fill="#3D3D3D"/>
<path d="M20.1556 20.9382C20.1556 22.8951 20.1555 22.6994 18.003 22.8951C16.8289 22.8951 16.4375 22.6994 16.4375 21.5253C16.6332 19.3727 16.4375 19.3727 18.3944 19.3727C20.1555 19.177 20.1556 19.177 20.1556 20.9382Z" fill="#3A3A39"/>
<path d="M60.6634 51.6603C60.6634 52.2474 60.0763 52.6387 60.0763 53.0301C60.0763 53.4215 58.7065 54.0085 60.0763 54.3999C60.272 54.3999 60.0763 54.7913 59.8807 54.7913C59.2936 55.1827 58.7065 55.7697 58.1195 55.3784C57.5324 54.987 57.3367 55.1827 56.9454 55.3784C55.7712 55.7697 55.1842 55.3784 55.3799 54.2042C55.5755 52.6387 56.7497 51.856 57.9238 51.0732C58.1195 50.8776 58.3152 51.0732 58.3152 51.2689C58.3152 51.856 57.7281 52.0517 57.5324 52.443C57.3367 52.8344 56.7497 53.2258 56.9454 54.0085C58.5108 53.6172 58.7065 52.0517 59.8807 51.4646C60.272 51.4646 60.4677 51.4646 60.6634 51.6603Z" fill="#373737"/>
<path d="M50.292 54.5958C50.6834 54.2044 51.0747 53.813 51.0747 53.2259C51.0747 52.4432 51.4661 51.6605 51.8575 51.0734C52.0532 50.682 52.4445 50.4863 52.8359 50.682C53.2273 50.8777 53.2273 51.2691 53.2273 51.6604C53.0316 52.4432 52.6402 53.0303 52.2489 53.4216C52.0532 53.6173 51.4661 54.0087 52.0532 54.4001C52.4445 54.7914 52.8359 54.5958 53.2273 54.2044C54.01 53.6173 54.4014 52.8346 54.4014 51.8561C54.4014 51.4648 54.01 50.682 54.7928 50.4863C54.9885 50.4863 55.1842 50.4863 55.1842 50.682C55.5755 51.0734 55.3798 51.6605 55.3798 52.2475C55.1842 53.2259 54.7928 54.0087 54.2057 54.5958C53.2273 55.7699 52.6402 55.7699 51.4661 54.9871C51.2704 54.9871 51.0747 54.9871 51.0747 54.9871C50.292 54.9871 50.292 54.7914 50.292 54.5958Z" fill="#3C3C3B"/>
<path d="M66.5332 23.0899C66.5332 22.6985 66.9246 22.1115 66.5332 21.7201C68.8814 21.3287 71.034 21.5244 73.3822 21.7201C73.7736 22.1115 73.7736 22.5028 73.3822 22.8942C73.1866 23.4813 72.5995 23.0899 72.2081 23.0899C70.2513 23.0899 68.4901 23.0899 66.5332 23.0899Z" fill="#333333"/>
<path d="M62.8156 52.0534C62.4243 51.8577 62.0329 52.2491 61.8372 51.8577C61.6415 51.4663 62.2286 51.4663 62.4243 51.2707C63.4027 50.2922 64.7725 51.075 65.7509 50.6836C65.9466 50.6836 66.1423 50.8793 66.1423 51.075C66.1423 51.2707 65.9466 51.4663 65.9466 51.4663C63.4027 51.2707 63.0113 53.4232 62.0329 54.9887C61.6415 55.5758 61.2501 55.5758 60.6631 55.5758C61.2501 54.206 62.0329 53.2275 62.8156 52.0534Z" fill="#3A3A39"/>
<path d="M73.3829 51.4656C73.3829 52.0527 73.97 52.444 74.1657 53.0311C74.5571 53.8138 74.5571 54.5966 73.7743 55.1836C72.9916 55.7707 72.2088 55.9664 71.4261 55.3793C70.839 54.988 70.6433 54.5966 70.839 53.8138C71.2304 53.0311 71.8174 52.8354 72.6002 53.2268C73.1872 54.2052 73.1873 54.4009 72.2088 54.7923C73.5786 54.5966 73.1872 53.8138 72.9916 52.8354C72.7959 52.2483 72.4045 51.6613 73.1873 51.0742C73.3829 51.0742 73.3829 51.2699 73.3829 51.4656Z" fill="#3C3C3B"/>
<path d="M36.3975 38.7456C36.3975 34.2448 36.3975 29.5483 36.3975 25.0475C36.3975 24.6562 36.7889 23.8734 35.8105 23.8734C34.832 23.8734 35.2234 24.6562 35.2234 25.0475C35.2234 28.1785 35.2234 31.3095 35.2234 34.4405C35.2234 34.6362 35.6148 35.4189 34.832 35.0276C35.2234 34.6362 35.0277 34.2448 35.0277 33.8534C35.0277 30.9181 35.0277 27.9828 35.0277 24.8519C35.0277 24.2648 35.0277 23.6777 36.0062 23.6777C36.9846 23.6777 36.9846 24.0691 36.9846 24.8519C36.9846 29.5483 36.9846 34.2448 36.9846 38.7456V38.9413C36.5932 38.7456 36.3975 38.7456 36.3975 38.7456Z" fill="#9E9E9E"/>
<path d="M73.3828 22.7003C73.3828 22.3089 73.3828 21.9175 73.3828 21.7218C73.3828 21.5261 73.5785 21.3305 73.7742 21.1348H73.9699C74.5569 21.1348 75.144 21.1348 75.9267 21.3305C75.7311 21.5261 75.7311 21.7218 75.7311 21.7218C73.9699 21.9175 73.9699 21.9175 73.9699 23.8744C73.9699 29.3536 73.9699 34.6372 73.9699 40.1164C73.9699 41.4862 74.3612 41.8776 75.5354 41.4862C74.1656 42.2689 73.7742 41.8776 73.7742 40.5078C73.7742 35.0285 73.7742 29.5493 73.7742 24.2658C73.5785 23.6787 73.7742 23.0916 73.3828 22.7003Z" fill="#F7F8F8"/>
<path d="M50.2914 54.5958C50.4871 54.5958 50.4871 54.7915 50.6828 54.7915C50.2914 55.1829 49.7043 55.3786 49.1173 55.5743C48.7259 55.5743 48.1389 55.7699 47.9432 55.3786C47.7475 54.7915 48.3345 54.7915 48.7259 54.7915C48.7259 54.7915 48.9216 54.5958 48.9216 54.4001C48.7259 53.6174 49.1173 52.8346 49.5087 52.0519C49.5087 51.8562 49.7043 51.6605 49.5087 51.6605C48.9216 51.6605 48.5302 51.2691 49.1173 50.8778C49.5087 50.4864 50.2914 50.2907 50.8785 50.6821C51.2698 50.8778 50.8785 51.2691 50.8785 51.4648C50.2914 52.4433 49.9 53.4217 50.0957 54.4001C49.9 54.5958 50.0957 54.5958 50.2914 54.5958Z" fill="#3F3F3F"/>
<path d="M47.5518 44.4202C47.5518 44.2245 47.5518 44.2245 47.5518 44.0288C48.7259 43.2461 50.0957 43.0504 51.4655 43.4418C52.0526 43.6375 52.6396 43.8332 52.2482 44.4202C52.0526 45.0073 51.4655 44.6159 51.0741 44.4202C49.9 43.8332 48.7259 44.0288 47.5518 44.4202Z" fill="#444444"/>
<path d="M73.3826 51.4647C73.1869 51.269 73.1869 51.269 72.9912 51.0733C73.1869 50.6819 73.5783 50.4862 74.1653 50.4862C74.7524 50.4862 75.5351 50.8776 75.3395 49.7035L75.7308 49.5078C76.1222 49.5078 76.3179 49.8992 76.1222 50.2906C75.9265 51.0733 75.5351 51.269 74.9481 51.4647C74.361 51.4647 73.774 51.4647 73.3826 51.4647Z" fill="#444444"/>
<path d="M60.6625 51.6608C60.4668 51.6608 60.0754 51.6608 59.8797 51.6608C59.8797 51.4651 59.8797 51.2694 59.4883 51.4651C59.097 51.4651 58.7056 51.8565 58.3142 51.4651C58.1185 51.2694 58.1185 51.2694 57.9229 51.0738C58.7056 50.4867 59.4883 50.291 60.2711 50.291C60.6625 50.291 61.0538 50.4867 61.2495 50.8781C61.4452 51.4651 60.8582 51.4651 60.6625 51.6608Z" fill="#4D4D4D"/>
<path d="M72.7954 53.0312C73.3824 53.6183 73.7738 54.4011 72.7954 54.9881C72.0126 55.5752 71.4256 55.1838 71.0342 54.2054C71.6212 54.0097 72.0126 54.9881 72.404 54.4011C72.7954 54.0097 72.5997 53.6183 72.404 53.4226C72.5997 53.2269 72.7954 53.0312 72.7954 53.0312Z" fill="#EAEAEA"/>
<path d="M62.8154 20.9375C63.4025 21.1332 64.1852 20.7418 64.968 21.3289C64.1852 21.9159 63.4025 21.5246 62.8154 21.7202C62.8154 21.5246 62.8154 21.3289 62.8154 20.9375Z" fill="#F7F8F8"/>
<path d="M45.399 25.4395C45.7903 25.4395 46.1817 25.4395 46.5731 25.8308C46.5731 26.0265 46.3774 26.0265 46.1817 26.0265C45.5946 25.8308 45.0076 25.6351 44.6162 25.6351C44.8119 25.4395 45.2033 25.6351 45.399 25.4395Z" fill="#E0E0DF"/>
<path d="M3.71777 9.5885C3.71777 8.02301 3.71777 6.6532 3.71777 5.0877C3.71777 4.30496 3.91346 4.10927 4.69621 4.30496C5.67464 4.30496 6.65308 4.30496 7.63151 4.50064C10.1754 4.89202 11.9366 7.43594 11.7409 9.97987C11.5452 12.7195 9.39269 14.872 6.65308 15.0677C3.71777 15.2634 3.71777 15.2634 3.71777 12.3281C3.71777 11.3497 3.71777 10.3712 3.71777 9.5885Z" fill="white"/>
<path d="M8.80563 16.6332C8.41426 17.0246 7.8272 17.0246 7.43582 17.0246C6.06602 16.8289 4.89189 17.2202 3.71777 16.8289C4.69621 16.4375 5.67464 16.8289 6.45739 16.6332C7.04445 16.6332 7.8272 16.4375 8.41426 16.4375C8.60994 16.4375 8.80563 16.4375 8.80563 16.6332Z" fill="#E4E4E4"/>
<path d="M13.5025 9.00162C13.1111 8.21887 12.9154 7.24043 12.7197 6.262C12.7197 6.06631 12.9154 6.06631 13.1111 6.262C13.6982 6.84906 13.6982 7.43612 13.8938 8.21887C13.5025 8.41455 13.6982 8.80593 13.5025 9.00162Z" fill="#DDDDDD"/>
<path d="M12.7197 12.7197C12.9154 11.937 13.1111 11.1542 13.5025 10.1758C13.6982 10.3715 13.5025 10.7628 13.6982 11.1542C13.5025 11.7413 13.5025 12.524 12.9154 12.9154C12.7197 12.9154 12.7197 12.7197 12.7197 12.7197Z" fill="#E0E1E0"/>
<path d="M3.71777 16.8281C4.89189 17.0238 6.2617 16.6324 7.43582 17.0238C6.06602 17.0238 4.89189 17.6109 3.71777 16.8281Z" fill="white"/>
<path d="M8.21875 2.93592C8.41444 2.93592 8.41444 2.74023 8.61012 2.74023C9.19718 2.74023 9.78424 2.74023 10.1756 3.71867C9.39287 3.32729 8.80581 3.13161 8.21875 2.93592Z" fill="#DFDFDE"/>
<path d="M13.6977 11.1541C13.3064 10.7627 13.502 10.567 13.502 10.1756C13.502 9.78424 13.502 9.39287 13.502 9.0015C13.6977 8.80581 13.502 8.41444 13.6977 8.21875C13.8934 9.19718 13.8934 10.1756 13.6977 11.1541Z" fill="white"/>
<path d="M10.3711 15.6553C10.9582 14.8726 11.3495 14.4812 12.328 14.0898C11.7409 14.8726 11.3495 15.4597 10.3711 15.6553Z" fill="#FAFBFC"/>
<path d="M11.9372 5.08818C11.3501 4.8925 11.1544 4.50112 10.5674 3.91406C11.5458 3.91406 11.7415 4.50112 11.9372 5.08818Z" fill="#F6F6F6"/>
<path d="M8.80544 16.633C8.60975 16.633 8.60975 16.4373 8.41406 16.4373C8.80544 16.2416 9.00112 16.2416 9.3925 16.0459C9.58818 15.8502 9.78387 16.0459 9.78387 16.2416C9.3925 16.4373 9.19681 16.633 8.80544 16.633Z" fill="white"/>
<path d="M12.7199 12.7188C12.7199 12.9144 12.9156 12.9144 12.9156 13.1101C12.9156 13.3058 12.7199 13.6972 12.1328 13.8929C12.3285 13.3058 12.5242 13.1101 12.7199 12.7188Z" fill="white"/>
<path d="M12.9156 6.26164C12.7199 6.26164 12.7199 6.26164 12.5242 6.26164C12.3285 6.06595 12.1328 5.87026 12.1328 5.2832C12.7199 5.47889 12.9156 5.87026 12.9156 6.26164Z" fill="#E4E4E4"/>
<path d="M9.78395 16.2424C9.58826 16.2424 9.58826 16.0467 9.39258 16.0467C9.78395 15.8511 9.97964 15.4597 10.371 15.8511C10.5667 16.0467 9.97964 16.2424 9.78395 16.2424Z" fill="#F6F6F6"/>
<path d="M43.2471 50.682C43.6384 49.1165 45.0083 49.7035 45.9867 49.7035C45.3996 51.8561 45.2039 51.8561 43.2471 50.682Z" fill="#F0EFEF"/>
<path d="M46.7692 53.6171C46.9649 54.3999 46.1822 54.5955 45.5951 54.7912C45.3994 54.7912 45.008 54.7912 45.2037 54.3999C45.3994 53.8128 45.3994 53.03 46.1822 52.6387C46.5735 52.6387 46.7692 53.2257 46.7692 53.6171Z" fill="#F5F6F6"/>
<path d="M73.3822 19.7636C71.4254 19.3723 69.4685 19.7636 67.316 19.568C66.7289 19.568 66.5332 19.3723 66.5332 18.7852C66.5332 15.2629 66.5332 11.5448 66.5332 8.02244C66.5332 5.86988 67.903 4.50008 69.6642 4.30439C71.6211 4.1087 72.9909 5.28282 73.5779 7.23969C73.7736 9.58793 73.5779 11.9362 73.7736 14.0887C73.7736 15.6542 73.7736 17.2197 73.7736 18.9809C73.7736 19.1766 73.9693 19.568 73.3822 19.7636Z" fill="white"/>
<path d="M64.9679 7.04409C64.9679 11.1535 64.9679 15.4586 64.9679 19.5681C64.7722 19.5681 64.5765 19.5681 64.3808 19.5681C64.5765 15.2629 63.9894 10.7621 64.5765 6.45703C65.1635 6.45703 64.9679 6.65272 64.9679 7.04409Z" fill="#F7F8F8"/>
<path d="M73.3822 19.7646C73.7736 19.3732 73.5779 18.7861 73.5779 18.3948C73.5779 14.6767 73.5779 10.9587 73.5779 7.04492C73.9693 7.63198 73.7736 8.21904 73.7736 8.61042C73.7736 12.7198 73.7736 16.8293 73.7736 20.9387V21.1344C73.5779 21.1344 73.3822 21.1344 73.1865 20.9387C73.3822 20.743 73.3822 20.1559 73.3822 19.7646Z" fill="#E0E0DF"/>
<path d="M73.3822 21.1348C73.5779 21.1348 73.7736 21.1348 73.9693 21.3305C73.7736 21.5261 73.5779 21.7218 73.3822 21.7218C71.034 21.7218 68.8814 21.7218 66.5332 21.7218C66.5332 20.9391 67.1203 21.3305 67.5116 21.3305C69.4685 21.1348 71.4254 21.1348 73.3822 21.1348Z" fill="white"/>
<path d="M75.7312 6.84961C76.1226 10.959 75.7312 15.2641 75.9269 19.3736C75.7312 19.3736 75.5355 19.3736 75.5355 19.3736C75.5355 15.4598 75.5355 11.3504 75.5355 7.43667C75.3398 7.24098 75.1442 6.84961 75.7312 6.84961Z" fill="white"/>
<path d="M68.8818 2.34777C70.8387 1.76071 72.5999 2.34777 73.3826 3.71758C72.2085 2.93483 71.0344 2.54346 69.6646 2.54346C69.4689 2.34777 69.0775 2.73915 68.8818 2.34777Z" fill="#F5F6F6"/>
<path d="M68.6861 2.73903C67.9034 2.93472 67.1206 3.52178 66.3379 3.91315C66.7293 2.93472 67.512 2.54334 68.2948 2.34766C68.4904 2.54334 68.6861 2.54334 68.6861 2.73903Z" fill="#E0E1E0"/>
<path d="M75.7305 6.84832C75.7305 7.04401 75.5349 7.2397 75.5349 7.43538C75.3392 6.84832 74.7521 6.26126 75.3392 5.47852C75.5349 5.86989 75.7305 6.45695 75.7305 6.84832Z" fill="#DCDCDC"/>
<path d="M64.9682 7.04438C64.9682 6.8487 64.7725 6.65301 64.7725 6.45732C64.9681 6.06595 64.9681 5.67458 65.1638 5.2832C65.3595 5.2832 65.3595 5.47889 65.3595 5.47889C65.1638 6.06595 65.1638 6.45732 64.9682 7.04438Z" fill="#E5E5E5"/>
<path d="M75.1439 5.47843C74.3611 5.67412 74.5568 4.69569 73.9697 4.5C74.9482 4.5 74.9482 5.08706 75.1439 5.47843Z" fill="white"/>
<path d="M65.3598 5.47881L65.1641 5.28312C65.3597 4.89175 65.3598 4.50037 65.9468 4.30469C66.1425 4.89175 65.5554 5.08743 65.3598 5.47881Z" fill="white"/>
<path d="M68.6863 2.73903C68.4906 2.54334 68.4906 2.54334 68.2949 2.34766C68.4906 2.34766 68.6863 2.34766 68.6863 2.34766C68.882 2.34766 69.2734 2.34766 69.469 2.54334C69.2734 2.54334 69.0777 2.73903 68.6863 2.73903Z" fill="white"/>
<path d="M41.0938 32.6804C41.0938 31.1149 41.0938 29.7451 41.0938 28.1796C41.0938 27.5925 41.2894 27.2012 41.8765 27.2012C42.8549 27.2012 44.0291 27.2012 45.0075 27.3969C47.7471 27.9839 49.3126 30.5278 49.1169 33.2675C48.9212 36.0071 46.7687 38.1596 44.0291 38.3553C41.0938 38.551 41.0938 38.551 41.0938 35.42C41.0938 34.4416 41.0938 33.4632 41.0938 32.6804Z" fill="white"/>
<path d="M45.3992 40.116C43.2467 40.5074 42.0726 40.5074 40.8984 39.9204C42.2682 39.7247 43.4424 39.9204 44.8122 39.7247C45.0079 39.7247 45.3992 39.529 45.3992 40.116Z" fill="#ECECEC"/>
<path d="M51.0741 33.8537C51.0741 34.6365 50.8785 35.4192 50.2914 36.0063C50.0957 36.0063 50.0957 35.8106 50.0957 35.6149C50.6828 34.2451 50.6828 33.071 50.6828 31.7012C50.8784 31.7012 50.8785 31.7012 51.0741 31.7012C51.0741 32.4839 50.8785 33.071 51.0741 33.8537Z" fill="#E5E5E5"/>
<path d="M50.8784 31.7006H50.6828C50.4871 31.1136 50.2914 30.5265 50.0957 29.9395C50.8785 30.3308 50.8785 31.1136 51.0741 31.7006C51.0741 31.7006 51.0741 31.7006 50.8784 31.7006Z" fill="#ECECEC"/>
<path d="M45.3996 40.1164C45.2039 40.1164 45.0082 39.9207 44.8125 39.9207C45.2039 39.725 45.7909 39.725 46.1823 39.5293C46.378 39.725 46.5737 39.5293 46.7694 39.725C46.378 39.9207 45.7909 39.9207 45.3996 40.1164Z" fill="#DCDBDB"/>
<path d="M47.3564 39.137C47.7478 38.55 48.1392 38.1586 48.9219 37.9629C48.5306 38.55 48.1392 38.9413 47.3564 39.137Z" fill="#E8E7E7"/>
<path d="M49.8998 28.5693C50.0955 28.765 50.2912 29.1564 50.4868 29.5478C49.7041 29.5478 49.8998 29.1564 49.7041 28.765C49.5084 28.5693 49.7041 28.3737 49.8998 28.5693Z" fill="white"/>
<path d="M50.8789 31.7012H51.0746C51.2703 32.4839 51.2703 33.071 51.0746 33.8537C50.6832 33.071 51.0746 32.2882 50.8789 31.7012Z" fill="white"/>
<path d="M49.9003 28.5711L49.7046 28.7667C49.3132 28.3754 49.1176 28.1797 48.9219 27.7883C49.5089 27.3969 49.5089 28.1797 49.9003 28.5711Z" fill="#E9E8E8"/>
<path d="M48.7265 27.788C48.3351 27.5923 47.9437 27.2009 47.748 27.0053C47.748 26.8096 47.748 26.6139 47.9437 26.8096C48.3351 27.0053 49.1179 27.0053 48.7265 27.788Z" fill="#F5F6F6"/>
<path d="M46.1816 26.0258C46.3773 26.0258 46.3773 25.8301 46.573 25.8301C46.7687 26.0258 46.9644 26.0258 47.3558 26.2215C47.3558 26.4171 47.3558 26.6128 47.1601 26.4171C46.573 26.4171 46.3773 26.2215 46.1816 26.0258Z" fill="white"/>
<path d="M46.9648 26.4183L47.1605 26.2227C47.5519 26.2227 47.7476 26.4183 47.9433 26.614L47.7476 26.8097C47.3562 26.8097 47.1605 26.614 46.9648 26.4183Z" fill="#D3D3D3"/>
<path d="M50.0962 35.6152C50.0962 35.8109 50.2919 35.8109 50.2919 36.0066C50.2919 36.2023 50.0962 36.5937 49.9005 36.398C49.7048 36.2023 50.0962 35.8109 50.0962 35.6152Z" fill="white"/>
<path d="M46.7687 39.5279C46.573 39.5279 46.3773 39.3322 46.1816 39.3322C46.573 39.3322 46.7687 38.7451 47.1601 39.1365C47.3558 39.3322 46.9644 39.5279 46.7687 39.5279Z" fill="white"/>
<path d="M28.9619 2.54462C30.136 1.95756 31.5058 1.95756 32.8756 2.34894C32.68 2.54462 32.4843 2.54462 32.2886 2.54462C31.3102 2.54462 30.3317 2.54462 29.3533 2.74031C29.1576 2.74031 28.9619 2.74031 28.9619 2.54462Z" fill="#E4E4E4"/>
<path d="M24.0692 11.5447C23.8735 10.5662 23.4821 9.58781 23.8735 8.60938C24.0692 8.60938 24.0692 8.80506 24.0692 9.00075C24.0692 9.7835 24.0692 10.3706 24.0692 11.1533C24.4606 11.349 24.4606 11.5447 24.0692 11.5447Z" fill="#FDFEFF"/>
<path d="M32.2881 2.54334C32.4838 2.54334 32.6795 2.34766 32.8751 2.34766C33.6579 2.34766 34.4406 2.54334 35.0277 3.1304V3.32609C33.8536 3.1304 33.0708 2.93472 32.2881 2.54334Z" fill="white"/>
<path d="M30.3311 16.6332C31.3095 16.6332 32.0922 16.6332 33.0707 16.4375C33.2664 16.4375 33.462 16.4375 33.462 16.6332C33.0707 16.8289 32.6793 17.0246 32.0922 16.8289C31.5052 16.6332 30.9181 16.8289 30.3311 16.6332C30.3311 17.0246 30.3311 16.8289 30.3311 16.6332Z" fill="#E4E4E4"/>
<path d="M27.9835 16.2425C27.3964 16.0468 26.8093 15.6554 26.418 15.0684C27.3964 15.264 27.7878 15.8511 28.3748 16.0468C28.1792 16.2425 28.1792 16.2425 27.9835 16.2425Z" fill="#E0E1E0"/>
<path d="M33.4627 16.828C33.267 16.828 33.267 16.6324 33.0713 16.6324C33.6583 16.4367 34.4411 16.0453 35.0282 15.8496C35.2238 16.0453 35.2238 16.0453 35.0282 16.241C34.6368 16.4367 34.0497 16.6324 33.4627 16.828Z" fill="#DDDDDD"/>
<path d="M24.0693 7.63153C24.265 7.24015 24.265 6.65309 24.6564 6.26172C24.8521 6.26172 25.0478 6.26172 24.8521 6.65309C24.6564 7.24015 24.4607 7.63153 24.265 8.21859C24.0693 8.0229 24.265 7.82721 24.0693 7.63153Z" fill="#E3E3E3"/>
<path d="M30.3311 16.6332V16.8289C30.3311 16.8289 30.5268 16.8289 30.3311 17.0246C29.7441 17.0246 29.157 16.8289 28.7656 16.6332C28.7656 16.4375 28.9613 16.4375 29.157 16.4375C29.5484 16.4375 29.9397 16.6332 30.3311 16.6332Z" fill="#E8E7E7"/>
<path d="M37.7676 12.9147C37.9633 12.5234 37.9633 12.132 38.159 11.5449C38.3546 12.3277 38.3546 12.3277 37.7676 12.9147Z" fill="#ECECEC"/>
<path d="M24.0693 11.546C24.0693 11.3504 24.265 11.1547 24.265 10.959C24.4607 11.3504 24.6564 11.9374 24.6564 12.3288C24.6564 12.5245 24.6564 12.5245 24.4607 12.5245C24.265 12.3288 24.0693 11.9374 24.0693 11.546Z" fill="#DBDADA"/>
<path d="M28.1786 3.13123C27.9829 3.32692 27.5916 3.52261 27.2002 3.71829C27.2002 3.13123 27.5916 3.13123 27.9829 2.93555C28.1786 2.93555 28.1786 2.93555 28.1786 3.13123Z" fill="#D8D9D8"/>
<path d="M30.3311 17.0239V16.8282C30.9181 16.8282 31.5052 16.6325 32.0922 17.0239C31.5052 17.0239 30.9181 17.0239 30.3311 17.0239Z" fill="#FDFEFF"/>
<path d="M28.1791 3.13003L27.9834 2.93434C28.3748 2.73866 28.5705 2.54297 28.9618 2.54297C29.1575 2.54297 29.1575 2.73866 29.3532 2.73866C28.9618 2.93434 28.5705 3.13003 28.1791 3.13003Z" fill="white"/>
<path d="M25.0479 5.47843C25.2435 5.08706 25.4392 4.69569 26.0263 4.5C25.8306 5.08706 25.6349 5.47843 25.2435 5.86981C25.2435 5.67412 25.0479 5.67412 25.0479 5.47843Z" fill="#E3E3E3"/>
<path d="M34.832 3.32655V3.13086C35.2234 3.13086 35.6148 3.32655 35.8105 3.71792C35.2234 3.91361 35.0277 3.71792 34.832 3.32655Z" fill="#DFDFDE"/>
<path d="M28.9612 16.4382C28.7655 16.4382 28.7655 16.6339 28.5699 16.6339C28.1785 16.6339 27.9828 16.4382 27.7871 16.2426L27.9828 16.0469C28.5699 16.2426 28.7655 16.2426 28.9612 16.4382Z" fill="#F3F3F3"/>
<path d="M35.0283 16.0455C35.0283 15.8498 35.0283 15.8498 35.0283 15.6542C35.224 15.4585 35.6154 15.0671 35.6154 15.4585C36.0068 15.8498 35.4197 16.0455 35.0283 16.0455Z" fill="#D8D9D8"/>
<path d="M37.7671 13.3066C37.5714 13.698 37.5714 14.0894 36.9844 14.0894C36.9844 13.698 37.1801 13.5023 37.7671 13.3066Z" fill="#DCDBDB"/>
<path d="M25.0476 5.47852L25.2433 5.6742C25.0476 6.06558 24.8519 6.26126 24.8519 6.65264C24.8519 6.45695 24.6562 6.45695 24.6562 6.26126C24.6562 6.06558 24.8519 5.86989 25.0476 5.47852Z" fill="#E0E0DF"/>
<path d="M24.4609 12.7191L24.6566 12.5234C24.8523 12.9148 25.048 13.1105 24.8523 13.5019C24.6566 13.3062 24.6566 12.9148 24.4609 12.7191Z" fill="white"/>
<path d="M24.0693 7.63086C24.0693 7.82655 24.265 8.02223 24.265 8.21792C24.265 8.41361 24.265 8.60929 24.265 9.00067C24.265 8.80498 24.0693 8.80498 24.0693 8.60929C24.0693 8.21792 24.0693 8.02223 24.0693 7.63086Z" fill="white"/>
<path d="M30.5267 34.0486C29.5483 33.2658 28.7655 32.4831 27.7871 31.5047C27.9828 31.309 27.9828 31.309 28.1785 31.1133C29.1569 31.896 29.9397 32.6788 30.9181 33.6572C30.7224 33.8529 30.7224 34.0486 30.5267 34.0486Z" fill="#E9E8E8"/>
<path d="M31.8969 34.6367C32.6796 35.4195 33.4624 36.2022 34.4408 36.7893C34.4408 36.985 34.2451 36.985 34.2451 37.1806C33.2667 36.5936 32.4839 35.8108 31.7012 35.0281C31.7012 35.0281 31.8969 34.8324 31.8969 34.6367Z" fill="#E9E8E8"/>
<path d="M27.2 30.7229C26.4173 30.1358 25.6345 29.5487 25.2432 28.5703C26.0259 29.1574 26.613 29.7444 27.2 30.7229Z" fill="#F4F4F4"/>
<path d="M69.8603 51.466C69.0775 52.6401 68.4904 53.6185 67.512 54.2056C67.1206 54.4013 66.7293 54.597 66.5336 54.4013C66.1422 54.0099 66.3379 53.6185 66.5336 53.2272C67.1206 51.8574 68.4904 51.0746 69.8603 51.466Z" fill="#FDFEFF"/>
<path d="M55.5751 20.3518C56.1622 20.1561 56.5535 20.3518 56.5535 21.1346C56.5535 21.9173 56.1622 21.9173 55.5751 21.9173C54.9881 21.9173 54.5967 21.7216 54.5967 21.1346C54.5967 20.3518 54.9881 20.1561 55.5751 20.3518Z" fill="#F3F3F3"/>
<path d="M19.1772 21.1343C19.3729 22.1127 18.7858 21.9171 18.1988 21.9171C17.6117 21.9171 17.416 21.7214 17.416 21.1343C17.416 20.3516 17.8074 20.3516 18.3944 20.3516C18.9815 20.3516 19.3729 20.3516 19.1772 21.1343Z" fill="#F3F3F3"/>
<path d="M58.3149 51.4662C58.902 51.2705 59.489 51.0748 60.0761 51.2705C60.6631 51.4662 59.8804 51.4662 59.8804 51.6619C59.0976 52.4446 58.7063 53.6188 57.7278 54.2058C57.3365 54.4015 57.1408 54.7929 56.7494 54.4015C56.358 54.0101 56.5537 53.6188 56.7494 53.2274C56.9451 52.6403 57.7278 52.0533 58.3149 51.4662Z" fill="#F9F9FA"/>
<path d="M52.2482 51.6621C52.4439 52.0535 52.4439 52.4449 51.6611 52.4449C51.8568 52.0535 52.0525 51.8578 52.2482 51.6621Z" fill="white"/>
<path d="M85.9062 37.1803C85.1234 37.1803 84.145 37.1803 83.3622 36.789C82.9708 36.5933 82.5795 36.3976 82.3838 35.8105C82.3838 35.2235 82.5795 34.8321 83.1665 34.6364C85.1234 34.0494 87.0803 34.0494 89.0371 34.4407C89.4285 34.6364 89.8199 35.0278 89.8199 35.4192C89.8199 36.0062 89.4285 36.2019 89.0371 36.3976C88.0587 37.1803 87.0803 37.1803 85.9062 37.1803Z" fill="#494949"/>
<path d="M81.6016 32.0917V26.2211H82.58L85.711 29.1564C86.1024 29.5478 86.4937 29.9391 86.8851 30.1348C87.2765 30.3305 87.4722 30.3305 87.8635 30.3305C88.2549 30.3305 88.6463 30.1348 88.842 29.9391C89.0377 29.7434 89.2333 29.3521 89.2333 28.9607C89.2333 28.5693 89.0377 28.1779 88.842 27.7866C88.6463 27.5909 88.2549 27.3952 87.6679 27.3952V26.0254C88.2549 26.0254 88.6463 26.2211 89.0377 26.4168C89.429 26.6125 89.8204 27.0038 90.0161 27.3952C90.2118 27.7866 90.4075 28.3736 90.4075 28.9607C90.4075 29.7434 90.2118 30.5262 89.8204 30.9176C89.429 31.3089 88.842 31.7003 88.0592 31.7003C87.6679 31.7003 87.0808 31.5046 86.6894 31.3089C86.298 31.1132 85.711 30.7219 85.1239 30.1348L82.7757 27.9823V31.896H81.6016V32.0917Z" fill="white"/>
<path d="M85.3196 38.9409C84.1455 38.9409 83.1671 38.7452 82.58 38.1582C81.9929 37.7668 81.6016 36.984 81.6016 36.0056C81.6016 35.0272 81.9929 34.4401 82.58 33.8531C83.1671 33.4617 84.1455 33.0703 85.3196 33.0703H86.8851C88.0592 33.0703 89.0377 33.266 89.6247 33.8531C90.2118 34.2444 90.6032 35.0272 90.6032 36.0056C90.6032 36.984 90.2118 37.5711 89.6247 38.1582C89.0377 38.5495 88.0592 38.9409 86.8851 38.9409H85.3196ZM86.8851 37.3754C87.6679 37.3754 88.2549 37.1797 88.6463 36.984C89.0377 36.7884 89.2333 36.397 89.2333 36.0056C89.2333 35.6142 89.0377 35.2229 88.6463 35.0272C88.2549 34.8315 87.6679 34.6358 86.8851 34.6358H84.9282C84.1455 34.6358 83.5584 34.8315 83.1671 35.0272C82.7757 35.2229 82.58 35.6142 82.58 36.0056C82.58 36.397 82.7757 36.7884 83.1671 36.984C83.5584 37.1797 84.1455 37.3754 84.9282 37.3754H86.8851Z" fill="white"/>
<path d="M81.6016 45.9862V40.1156H82.58L85.711 43.0509C86.1024 43.4423 86.4937 43.8337 86.8851 44.0293C87.2765 44.225 87.4722 44.225 87.8635 44.225C88.2549 44.225 88.6463 44.0293 88.842 43.8337C89.0377 43.638 89.2333 43.2466 89.2333 42.8552C89.2333 42.4639 89.0377 42.0725 88.842 41.6811C88.6463 41.4854 88.2549 41.2897 87.6679 41.2897V39.9199C88.2549 39.9199 88.6463 40.1156 89.0377 40.3113C89.429 40.507 89.8204 40.8984 90.0161 41.2897C90.2118 41.6811 90.4075 42.2682 90.4075 42.8552C90.4075 43.638 90.2118 44.4207 89.8204 44.8121C89.429 45.2035 88.842 45.5948 88.0592 45.5948C87.6679 45.5948 87.0808 45.3992 86.6894 45.2035C86.298 45.0078 85.711 44.6164 85.1239 44.0293L82.7757 41.8768V45.7905H81.6016V45.9862Z" fill="white"/>
<path d="M85.3196 52.6382C84.1455 52.6382 83.1671 52.4425 82.58 51.8554C81.9929 51.4641 81.6016 50.6813 81.6016 49.7029C81.6016 48.7244 81.9929 48.1374 82.58 47.5503C83.1671 47.159 84.1455 46.7676 85.3196 46.7676H86.8851C88.0592 46.7676 89.0377 46.9633 89.6247 47.5503C90.2118 47.9417 90.6032 48.7244 90.6032 49.7029C90.6032 50.6813 90.2118 51.2684 89.6247 51.8554C89.0377 52.2468 88.0592 52.6382 86.8851 52.6382H85.3196ZM86.8851 51.2684C87.6679 51.2684 88.2549 51.0727 88.6463 50.877C89.0377 50.6813 89.2333 50.2899 89.2333 49.8986C89.2333 49.5072 89.0377 49.1158 88.6463 48.9201C88.2549 48.7244 87.6679 48.5288 86.8851 48.5288H84.9282C84.1455 48.5288 83.5584 48.7244 83.1671 48.9201C82.7757 49.1158 82.58 49.5072 82.58 49.8986C82.58 50.2899 82.7757 50.6813 83.1671 50.877C83.5584 51.0727 84.1455 51.2684 84.9282 51.2684H86.8851Z" fill="white"/>
</g>
<defs>
<clipPath id="clip0_19023_87201">
<rect width="349.301" height="59.6845" fill="white"/>
</clipPath>
</defs>
</svg>
