<svg width="45" height="45" viewBox="0 0 45 45" fill="none" xmlns="http://www.w3.org/2000/svg">
<g clip-path="url(#clip0_13248_111386)">
<path d="M45 0H0V45H45V0Z" fill="white"/>
<path d="M3.33268 1.66797H1.66602V3.33463H3.33268V1.66797Z" fill="#000080"/>
<path d="M5.00065 1.66797H3.33398V3.33463H5.00065V1.66797Z" fill="#000080"/>
<path d="M6.66667 1.66797H5V3.33463H6.66667V1.66797Z" fill="#000080"/>
<path d="M8.33268 1.66797H6.66602V3.33463H8.33268V1.66797Z" fill="#000080"/>
<path d="M10.0007 1.66797H8.33398V3.33463H10.0007V1.66797Z" fill="#000080"/>
<path d="M11.6667 1.66797H10V3.33463H11.6667V1.66797Z" fill="#000080"/>
<path d="M13.3327 1.66797H11.666V3.33463H13.3327V1.66797Z" fill="#000080"/>
<path d="M18.3327 1.66797H16.666V3.33463H18.3327V1.66797Z" fill="#000080"/>
<path d="M20.0007 1.66797H18.334V3.33463H20.0007V1.66797Z" fill="#000080"/>
<path d="M21.6667 1.66797H20V3.33463H21.6667V1.66797Z" fill="#000080"/>
<path d="M26.6667 1.66797H25V3.33463H26.6667V1.66797Z" fill="#000080"/>
<path d="M30.0007 1.66797H28.334V3.33463H30.0007V1.66797Z" fill="#000080"/>
<path d="M33.3327 1.66797H31.666V3.33463H33.3327V1.66797Z" fill="#000080"/>
<path d="M35.0007 1.66797H33.334V3.33463H35.0007V1.66797Z" fill="#000080"/>
<path d="M36.6667 1.66797H35V3.33463H36.6667V1.66797Z" fill="#000080"/>
<path d="M38.3327 1.66797H36.666V3.33463H38.3327V1.66797Z" fill="#000080"/>
<path d="M40.0007 1.66797H38.334V3.33463H40.0007V1.66797Z" fill="#000080"/>
<path d="M41.6667 1.66797H40V3.33463H41.6667V1.66797Z" fill="#000080"/>
<path d="M43.3327 1.66797H41.666V3.33463H43.3327V1.66797Z" fill="#000080"/>
<path d="M3.33268 3.33203H1.66602V4.9987H3.33268V3.33203Z" fill="#000080"/>
<path d="M13.3327 3.33203H11.666V4.9987H13.3327V3.33203Z" fill="#000080"/>
<path d="M21.6667 3.33203H20V4.9987H21.6667V3.33203Z" fill="#000080"/>
<path d="M23.3327 3.33203H21.666V4.9987H23.3327V3.33203Z" fill="#000080"/>
<path d="M25.0007 3.33203H23.334V4.9987H25.0007V3.33203Z" fill="#000080"/>
<path d="M26.6667 3.33203H25V4.9987H26.6667V3.33203Z" fill="#000080"/>
<path d="M30.0007 3.33203H28.334V4.9987H30.0007V3.33203Z" fill="#000080"/>
<path d="M33.3327 3.33203H31.666V4.9987H33.3327V3.33203Z" fill="#000080"/>
<path d="M43.3327 3.33203H41.666V4.9987H43.3327V3.33203Z" fill="#000080"/>
<path d="M3.33268 5H1.66602V6.66667H3.33268V5Z" fill="#000080"/>
<path d="M6.66667 5H5V6.66667H6.66667V5Z" fill="#000080"/>
<path d="M8.33268 5H6.66602V6.66667H8.33268V5Z" fill="#000080"/>
<path d="M10.0007 5H8.33398V6.66667H10.0007V5Z" fill="#000080"/>
<path d="M13.3327 5H11.666V6.66667H13.3327V5Z" fill="#000080"/>
<path d="M18.3327 5H16.666V6.66667H18.3327V5Z" fill="#000080"/>
<path d="M20.0007 5H18.334V6.66667H20.0007V5Z" fill="#000080"/>
<path d="M21.6667 5H20V6.66667H21.6667V5Z" fill="#000080"/>
<path d="M26.6667 5H25V6.66667H26.6667V5Z" fill="#000080"/>
<path d="M30.0007 5H28.334V6.66667H30.0007V5Z" fill="#000080"/>
<path d="M33.3327 5H31.666V6.66667H33.3327V5Z" fill="#000080"/>
<path d="M36.6667 5H35V6.66667H36.6667V5Z" fill="#000080"/>
<path d="M38.3327 5H36.666V6.66667H38.3327V5Z" fill="#000080"/>
<path d="M40.0007 5H38.334V6.66667H40.0007V5Z" fill="#000080"/>
<path d="M43.3327 5H41.666V6.66667H43.3327V5Z" fill="#000080"/>
<path d="M3.33268 6.66797H1.66602V8.33464H3.33268V6.66797Z" fill="#000080"/>
<path d="M6.66667 6.66797H5V8.33464H6.66667V6.66797Z" fill="#000080"/>
<path d="M8.33268 6.66797H6.66602V8.33464H8.33268V6.66797Z" fill="#000080"/>
<path d="M10.0007 6.66797H8.33398V8.33464H10.0007V6.66797Z" fill="#000080"/>
<path d="M13.3327 6.66797H11.666V8.33464H13.3327V6.66797Z" fill="#000080"/>
<path d="M16.6667 6.66797H15V8.33464H16.6667V6.66797Z" fill="#000080"/>
<path d="M20.0007 6.66797H18.334V8.33464H20.0007V6.66797Z" fill="#000080"/>
<path d="M21.6667 6.66797H20V8.33464H21.6667V6.66797Z" fill="#000080"/>
<path d="M25.0007 6.66797H23.334V8.33464H25.0007V6.66797Z" fill="#000080"/>
<path d="M26.6667 6.66797H25V8.33464H26.6667V6.66797Z" fill="#000080"/>
<path d="M28.3327 6.66797H26.666V8.33464H28.3327V6.66797Z" fill="#000080"/>
<path d="M30.0007 6.66797H28.334V8.33464H30.0007V6.66797Z" fill="#000080"/>
<path d="M33.3327 6.66797H31.666V8.33464H33.3327V6.66797Z" fill="#000080"/>
<path d="M36.6667 6.66797H35V8.33464H36.6667V6.66797Z" fill="#000080"/>
<path d="M38.3327 6.66797H36.666V8.33464H38.3327V6.66797Z" fill="#000080"/>
<path d="M40.0007 6.66797H38.334V8.33464H40.0007V6.66797Z" fill="#000080"/>
<path d="M43.3327 6.66797H41.666V8.33464H43.3327V6.66797Z" fill="#000080"/>
<path d="M3.33268 8.33203H1.66602V9.9987H3.33268V8.33203Z" fill="#000080"/>
<path d="M6.66667 8.33203H5V9.9987H6.66667V8.33203Z" fill="#000080"/>
<path d="M8.33268 8.33203H6.66602V9.9987H8.33268V8.33203Z" fill="#000080"/>
<path d="M10.0007 8.33203H8.33398V9.9987H10.0007V8.33203Z" fill="#000080"/>
<path d="M13.3327 8.33203H11.666V9.9987H13.3327V8.33203Z" fill="#000080"/>
<path d="M16.6667 8.33203H15V9.9987H16.6667V8.33203Z" fill="#000080"/>
<path d="M20.0006 8.33203H18.334V9.9987H20.0006V8.33203Z" fill="#000080"/>
<path d="M23.3327 8.33203H21.666V9.9987H23.3327V8.33203Z" fill="#000080"/>
<path d="M26.6667 8.33203H25V9.9987H26.6667V8.33203Z" fill="#000080"/>
<path d="M30.0007 8.33203H28.334V9.9987H30.0007V8.33203Z" fill="#000080"/>
<path d="M33.3327 8.33203H31.666V9.9987H33.3327V8.33203Z" fill="#000080"/>
<path d="M36.6667 8.33203H35V9.9987H36.6667V8.33203Z" fill="#000080"/>
<path d="M38.3327 8.33203H36.666V9.9987H38.3327V8.33203Z" fill="#000080"/>
<path d="M40.0007 8.33203H38.334V9.9987H40.0007V8.33203Z" fill="#000080"/>
<path d="M43.3327 8.33203H41.666V9.9987H43.3327V8.33203Z" fill="#000080"/>
<path d="M3.33268 10H1.66602V11.6667H3.33268V10Z" fill="#000080"/>
<path d="M13.3327 10H11.666V11.6667H13.3327V10Z" fill="#000080"/>
<path d="M18.3327 10H16.666V11.6667H18.3327V10Z" fill="#000080"/>
<path d="M20.0007 10H18.334V11.6667H20.0007V10Z" fill="#000080"/>
<path d="M25.0007 10H23.334V11.6667H25.0007V10Z" fill="#000080"/>
<path d="M26.6667 10H25V11.6667H26.6667V10Z" fill="#000080"/>
<path d="M33.3327 10H31.666V11.6667H33.3327V10Z" fill="#000080"/>
<path d="M43.3327 10H41.666V11.6667H43.3327V10Z" fill="#000080"/>
<path d="M3.33268 11.668H1.66602V13.3346H3.33268V11.668Z" fill="#000080"/>
<path d="M5.00065 11.668H3.33398V13.3346H5.00065V11.668Z" fill="#000080"/>
<path d="M6.66667 11.668H5V13.3346H6.66667V11.668Z" fill="#000080"/>
<path d="M8.33268 11.668H6.66602V13.3346H8.33268V11.668Z" fill="#000080"/>
<path d="M10.0007 11.668H8.33398V13.3346H10.0007V11.668Z" fill="#000080"/>
<path d="M11.6667 11.668H10V13.3346H11.6667V11.668Z" fill="#000080"/>
<path d="M13.3327 11.668H11.666V13.3346H13.3327V11.668Z" fill="#000080"/>
<path d="M16.6667 11.668H15V13.3346H16.6667V11.668Z" fill="#000080"/>
<path d="M20.0007 11.668H18.334V13.3346H20.0007V11.668Z" fill="#000080"/>
<path d="M23.3327 11.668H21.666V13.3346H23.3327V11.668Z" fill="#000080"/>
<path d="M26.6667 11.668H25V13.3346H26.6667V11.668Z" fill="#000080"/>
<path d="M30.0007 11.668H28.334V13.3346H30.0007V11.668Z" fill="#000080"/>
<path d="M33.3327 11.668H31.666V13.3346H33.3327V11.668Z" fill="#000080"/>
<path d="M35.0007 11.668H33.334V13.3346H35.0007V11.668Z" fill="#000080"/>
<path d="M36.6667 11.668H35V13.3346H36.6667V11.668Z" fill="#000080"/>
<path d="M38.3327 11.668H36.666V13.3346H38.3327V11.668Z" fill="#000080"/>
<path d="M40.0007 11.668H38.334V13.3346H40.0007V11.668Z" fill="#000080"/>
<path d="M41.6667 11.668H40V13.3346H41.6667V11.668Z" fill="#000080"/>
<path d="M43.3327 11.668H41.666V13.3346H43.3327V11.668Z" fill="#000080"/>
<path d="M18.3327 13.332H16.666V14.9987H18.3327V13.332Z" fill="#000080"/>
<path d="M23.3327 13.332H21.666V14.9987H23.3327V13.332Z" fill="#000080"/>
<path d="M30.0007 13.332H28.334V14.9987H30.0007V13.332Z" fill="#000080"/>
<path d="M3.33268 15H1.66602V16.6667H3.33268V15Z" fill="#000080"/>
<path d="M5.00065 15H3.33398V16.6667H5.00065V15Z" fill="#000080"/>
<path d="M11.6667 15H10V16.6667H11.6667V15Z" fill="#000080"/>
<path d="M13.3327 15H11.666V16.6667H13.3327V15Z" fill="#000080"/>
<path d="M15.0006 15H13.334V16.6667H15.0006V15Z" fill="#000080"/>
<path d="M18.3327 15H16.666V16.6667H18.3327V15Z" fill="#000080"/>
<path d="M20.0007 15H18.334V16.6667H20.0007V15Z" fill="#000080"/>
<path d="M23.3327 15H21.666V16.6667H23.3327V15Z" fill="#000080"/>
<path d="M25.0007 15H23.334V16.6667H25.0007V15Z" fill="#000080"/>
<path d="M26.6667 15H25V16.6667H26.6667V15Z" fill="#000080"/>
<path d="M28.3327 15H26.666V16.6667H28.3327V15Z" fill="#000080"/>
<path d="M30.0007 15H28.334V16.6667H30.0007V15Z" fill="#000080"/>
<path d="M36.6667 15H35V16.6667H36.6667V15Z" fill="#000080"/>
<path d="M38.3327 15H36.666V16.6667H38.3327V15Z" fill="#000080"/>
<path d="M3.33268 16.668H1.66602V18.3346H3.33268V16.668Z" fill="#000080"/>
<path d="M5.00065 16.668H3.33398V18.3346H5.00065V16.668Z" fill="#000080"/>
<path d="M6.66667 16.668H5V18.3346H6.66667V16.668Z" fill="#000080"/>
<path d="M16.6667 16.668H15V18.3346H16.6667V16.668Z" fill="#000080"/>
<path d="M20.0007 16.668H18.334V18.3346H20.0007V16.668Z" fill="#000080"/>
<path d="M28.3327 16.668H26.666V18.3346H28.3327V16.668Z" fill="#000080"/>
<path d="M35.0007 16.668H33.334V18.3346H35.0007V16.668Z" fill="#000080"/>
<path d="M36.6667 16.668H35V18.3346H36.6667V16.668Z" fill="#000080"/>
<path d="M38.3327 16.668H36.666V18.3346H38.3327V16.668Z" fill="#000080"/>
<path d="M40.0007 16.668H38.334V18.3346H40.0007V16.668Z" fill="#000080"/>
<path d="M41.6667 16.668H40V18.3346H41.6667V16.668Z" fill="#000080"/>
<path d="M3.33268 18.332H1.66602V19.9987H3.33268V18.332Z" fill="#000080"/>
<path d="M6.66667 18.332H5V19.9987H6.66667V18.332Z" fill="#000080"/>
<path d="M8.33268 18.332H6.66602V19.9987H8.33268V18.332Z" fill="#000080"/>
<path d="M11.6667 18.332H10V19.9987H11.6667V18.332Z" fill="#000080"/>
<path d="M13.3327 18.332H11.666V19.9987H13.3327V18.332Z" fill="#000080"/>
<path d="M18.3327 18.332H16.666V19.9987H18.3327V18.332Z" fill="#000080"/>
<path d="M21.6667 18.332H20V19.9987H21.6667V18.332Z" fill="#000080"/>
<path d="M23.3327 18.332H21.666V19.9987H23.3327V18.332Z" fill="#000080"/>
<path d="M26.6667 18.332H25V19.9987H26.6667V18.332Z" fill="#000080"/>
<path d="M28.3327 18.332H26.666V19.9987H28.3327V18.332Z" fill="#000080"/>
<path d="M31.6667 18.332H30V19.9987H31.6667V18.332Z" fill="#000080"/>
<path d="M33.3327 18.332H31.666V19.9987H33.3327V18.332Z" fill="#000080"/>
<path d="M36.6667 18.332H35V19.9987H36.6667V18.332Z" fill="#000080"/>
<path d="M38.3327 18.332H36.666V19.9987H38.3327V18.332Z" fill="#000080"/>
<path d="M41.6667 18.332H40V19.9987H41.6667V18.332Z" fill="#000080"/>
<path d="M43.3327 18.332H41.666V19.9987H43.3327V18.332Z" fill="#000080"/>
<path d="M5.00065 20H3.33398V21.6667H5.00065V20Z" fill="#000080"/>
<path d="M6.66667 20H5V21.6667H6.66667V20Z" fill="#000080"/>
<path d="M15.0006 20H13.334V21.6667H15.0006V20Z" fill="#000080"/>
<path d="M16.6667 20H15V21.6667H16.6667V20Z" fill="#000080"/>
<path d="M20.0007 20H18.334V21.6667H20.0007V20Z" fill="#000080"/>
<path d="M21.6667 20H20V21.6667H21.6667V20Z" fill="#000080"/>
<path d="M28.3327 20H26.666V21.6667H28.3327V20Z" fill="#000080"/>
<path d="M30.0007 20H28.334V21.6667H30.0007V20Z" fill="#000080"/>
<path d="M31.6667 20H30V21.6667H31.6667V20Z" fill="#000080"/>
<path d="M33.3327 20H31.666V21.6667H33.3327V20Z" fill="#000080"/>
<path d="M35.0007 20H33.334V21.6667H35.0007V20Z" fill="#000080"/>
<path d="M36.6667 20H35V21.6667H36.6667V20Z" fill="#000080"/>
<path d="M38.3327 20H36.666V21.6667H38.3327V20Z" fill="#000080"/>
<path d="M43.3327 20H41.666V21.6667H43.3327V20Z" fill="#000080"/>
<path d="M3.33268 21.668H1.66602V23.3346H3.33268V21.668Z" fill="#000080"/>
<path d="M6.66667 21.668H5V23.3346H6.66667V21.668Z" fill="#000080"/>
<path d="M13.3327 21.668H11.666V23.3346H13.3327V21.668Z" fill="#000080"/>
<path d="M16.6667 21.668H15V23.3346H16.6667V21.668Z" fill="#000080"/>
<path d="M18.3327 21.668H16.666V23.3346H18.3327V21.668Z" fill="#000080"/>
<path d="M20.0007 21.668H18.334V23.3346H20.0007V21.668Z" fill="#000080"/>
<path d="M26.6667 21.668H25V23.3346H26.6667V21.668Z" fill="#000080"/>
<path d="M30.0007 21.668H28.334V23.3346H30.0007V21.668Z" fill="#000080"/>
<path d="M33.3327 21.668H31.666V23.3346H33.3327V21.668Z" fill="#000080"/>
<path d="M35.0007 21.668H33.334V23.3346H35.0007V21.668Z" fill="#000080"/>
<path d="M43.3327 21.668H41.666V23.3346H43.3327V21.668Z" fill="#000080"/>
<path d="M3.33268 23.332H1.66602V24.9987H3.33268V23.332Z" fill="#000080"/>
<path d="M6.66667 23.332H5V24.9987H6.66667V23.332Z" fill="#000080"/>
<path d="M8.33268 23.332H6.66602V24.9987H8.33268V23.332Z" fill="#000080"/>
<path d="M11.6667 23.332H10V24.9987H11.6667V23.332Z" fill="#000080"/>
<path d="M15.0006 23.332H13.334V24.9987H15.0006V23.332Z" fill="#000080"/>
<path d="M20.0007 23.332H18.334V24.9987H20.0007V23.332Z" fill="#000080"/>
<path d="M23.3327 23.332H21.666V24.9987H23.3327V23.332Z" fill="#000080"/>
<path d="M25.0007 23.332H23.334V24.9987H25.0007V23.332Z" fill="#000080"/>
<path d="M26.6667 23.332H25V24.9987H26.6667V23.332Z" fill="#000080"/>
<path d="M28.3327 23.332H26.666V24.9987H28.3327V23.332Z" fill="#000080"/>
<path d="M35.0007 23.332H33.334V24.9987H35.0007V23.332Z" fill="#000080"/>
<path d="M41.6667 23.332H40V24.9987H41.6667V23.332Z" fill="#000080"/>
<path d="M3.33268 25H1.66602V26.6667H3.33268V25Z" fill="#000080"/>
<path d="M6.66667 25H5V26.6667H6.66667V25Z" fill="#000080"/>
<path d="M11.6667 25H10V26.6667H11.6667V25Z" fill="#000080"/>
<path d="M13.3327 25H11.666V26.6667H13.3327V25Z" fill="#000080"/>
<path d="M15.0006 25H13.334V26.6667H15.0006V25Z" fill="#000080"/>
<path d="M18.3327 25H16.666V26.6667H18.3327V25Z" fill="#000080"/>
<path d="M28.3327 25H26.666V26.6667H28.3327V25Z" fill="#000080"/>
<path d="M30.0007 25H28.334V26.6667H30.0007V25Z" fill="#000080"/>
<path d="M31.6667 25H30V26.6667H31.6667V25Z" fill="#000080"/>
<path d="M35.0007 25H33.334V26.6667H35.0007V25Z" fill="#000080"/>
<path d="M36.6667 25H35V26.6667H36.6667V25Z" fill="#000080"/>
<path d="M38.3327 25H36.666V26.6667H38.3327V25Z" fill="#000080"/>
<path d="M41.6667 25H40V26.6667H41.6667V25Z" fill="#000080"/>
<path d="M43.3327 25H41.666V26.6667H43.3327V25Z" fill="#000080"/>
<path d="M3.33268 26.668H1.66602V28.3346H3.33268V26.668Z" fill="#000080"/>
<path d="M8.33268 26.668H6.66602V28.3346H8.33268V26.668Z" fill="#000080"/>
<path d="M10.0007 26.668H8.33398V28.3346H10.0007V26.668Z" fill="#000080"/>
<path d="M11.6667 26.668H10V28.3346H11.6667V26.668Z" fill="#000080"/>
<path d="M15.0006 26.668H13.334V28.3346H15.0006V26.668Z" fill="#000080"/>
<path d="M23.3327 26.668H21.666V28.3346H23.3327V26.668Z" fill="#000080"/>
<path d="M26.6667 26.668H25V28.3346H26.6667V26.668Z" fill="#000080"/>
<path d="M28.3327 26.668H26.666V28.3346H28.3327V26.668Z" fill="#000080"/>
<path d="M30.0007 26.668H28.334V28.3346H30.0007V26.668Z" fill="#000080"/>
<path d="M33.3327 26.668H31.666V28.3346H33.3327V26.668Z" fill="#000080"/>
<path d="M35.0007 26.668H33.334V28.3346H35.0007V26.668Z" fill="#000080"/>
<path d="M40.0007 26.668H38.334V28.3346H40.0007V26.668Z" fill="#000080"/>
<path d="M43.3327 26.668H41.666V28.3346H43.3327V26.668Z" fill="#000080"/>
<path d="M3.33268 28.332H1.66602V29.9987H3.33268V28.332Z" fill="#000080"/>
<path d="M6.66667 28.332H5V29.9987H6.66667V28.332Z" fill="#000080"/>
<path d="M10.0007 28.332H8.33398V29.9987H10.0007V28.332Z" fill="#000080"/>
<path d="M11.6667 28.332H10V29.9987H11.6667V28.332Z" fill="#000080"/>
<path d="M13.3327 28.332H11.666V29.9987H13.3327V28.332Z" fill="#000080"/>
<path d="M16.6667 28.332H15V29.9987H16.6667V28.332Z" fill="#000080"/>
<path d="M18.3327 28.332H16.666V29.9987H18.3327V28.332Z" fill="#000080"/>
<path d="M23.3327 28.332H21.666V29.9987H23.3327V28.332Z" fill="#000080"/>
<path d="M25.0007 28.332H23.334V29.9987H25.0007V28.332Z" fill="#000080"/>
<path d="M26.6667 28.332H25V29.9987H26.6667V28.332Z" fill="#000080"/>
<path d="M30.0007 28.332H28.334V29.9987H30.0007V28.332Z" fill="#000080"/>
<path d="M31.6667 28.332H30V29.9987H31.6667V28.332Z" fill="#000080"/>
<path d="M33.3327 28.332H31.666V29.9987H33.3327V28.332Z" fill="#000080"/>
<path d="M35.0007 28.332H33.334V29.9987H35.0007V28.332Z" fill="#000080"/>
<path d="M36.6667 28.332H35V29.9987H36.6667V28.332Z" fill="#000080"/>
<path d="M40.0007 28.332H38.334V29.9987H40.0007V28.332Z" fill="#000080"/>
<path d="M16.6667 30H15V31.6667H16.6667V30Z" fill="#000080"/>
<path d="M20.0007 30H18.334V31.6667H20.0007V30Z" fill="#000080"/>
<path d="M25.0007 30H23.334V31.6667H25.0007V30Z" fill="#000080"/>
<path d="M30.0007 30H28.334V31.6667H30.0007V30Z" fill="#000080"/>
<path d="M36.6667 30H35V31.6667H36.6667V30Z" fill="#000080"/>
<path d="M40.0007 30H38.334V31.6667H40.0007V30Z" fill="#000080"/>
<path d="M3.33268 31.668H1.66602V33.3346H3.33268V31.668Z" fill="#000080"/>
<path d="M5.00065 31.668H3.33398V33.3346H5.00065V31.668Z" fill="#000080"/>
<path d="M6.66667 31.668H5V33.3346H6.66667V31.668Z" fill="#000080"/>
<path d="M8.33268 31.668H6.66602V33.3346H8.33268V31.668Z" fill="#000080"/>
<path d="M10.0007 31.668H8.33398V33.3346H10.0007V31.668Z" fill="#000080"/>
<path d="M11.6667 31.668H10V33.3346H11.6667V31.668Z" fill="#000080"/>
<path d="M13.3327 31.668H11.666V33.3346H13.3327V31.668Z" fill="#000080"/>
<path d="M16.6667 31.668H15V33.3346H16.6667V31.668Z" fill="#000080"/>
<path d="M18.3327 31.668H16.666V33.3346H18.3327V31.668Z" fill="#000080"/>
<path d="M23.3327 31.668H21.666V33.3346H23.3327V31.668Z" fill="#000080"/>
<path d="M25.0007 31.668H23.334V33.3346H25.0007V31.668Z" fill="#000080"/>
<path d="M30.0007 31.668H28.334V33.3346H30.0007V31.668Z" fill="#000080"/>
<path d="M33.3327 31.668H31.666V33.3346H33.3327V31.668Z" fill="#000080"/>
<path d="M36.6667 31.668H35V33.3346H36.6667V31.668Z" fill="#000080"/>
<path d="M38.3327 31.668H36.666V33.3346H38.3327V31.668Z" fill="#000080"/>
<path d="M43.3327 31.668H41.666V33.3346H43.3327V31.668Z" fill="#000080"/>
<path d="M3.33268 33.332H1.66602V34.9987H3.33268V33.332Z" fill="#000080"/>
<path d="M13.3327 33.332H11.666V34.9987H13.3327V33.332Z" fill="#000080"/>
<path d="M16.6667 33.332H15V34.9987H16.6667V33.332Z" fill="#000080"/>
<path d="M20.0007 33.332H18.334V34.9987H20.0007V33.332Z" fill="#000080"/>
<path d="M21.6667 33.332H20V34.9987H21.6667V33.332Z" fill="#000080"/>
<path d="M26.6667 33.332H25V34.9987H26.6667V33.332Z" fill="#000080"/>
<path d="M28.3327 33.332H26.666V34.9987H28.3327V33.332Z" fill="#000080"/>
<path d="M30.0007 33.332H28.334V34.9987H30.0007V33.332Z" fill="#000080"/>
<path d="M36.6667 33.332H35V34.9987H36.6667V33.332Z" fill="#000080"/>
<path d="M43.3327 33.332H41.666V34.9987H43.3327V33.332Z" fill="#000080"/>
<path d="M3.33268 35H1.66602V36.6667H3.33268V35Z" fill="#000080"/>
<path d="M6.66667 35H5V36.6667H6.66667V35Z" fill="#000080"/>
<path d="M8.33268 35H6.66602V36.6667H8.33268V35Z" fill="#000080"/>
<path d="M10.0007 35H8.33398V36.6667H10.0007V35Z" fill="#000080"/>
<path d="M13.3327 35H11.666V36.6667H13.3327V35Z" fill="#000080"/>
<path d="M18.3327 35H16.666V36.6667H18.3327V35Z" fill="#000080"/>
<path d="M21.6667 35H20V36.6667H21.6667V35Z" fill="#000080"/>
<path d="M23.3327 35H21.666V36.6667H23.3327V35Z" fill="#000080"/>
<path d="M25.0007 35H23.334V36.6667H25.0007V35Z" fill="#000080"/>
<path d="M26.6667 35H25V36.6667H26.6667V35Z" fill="#000080"/>
<path d="M28.3327 35H26.666V36.6667H28.3327V35Z" fill="#000080"/>
<path d="M30.0007 35H28.334V36.6667H30.0007V35Z" fill="#000080"/>
<path d="M31.6667 35H30V36.6667H31.6667V35Z" fill="#000080"/>
<path d="M33.3327 35H31.666V36.6667H33.3327V35Z" fill="#000080"/>
<path d="M35.0007 35H33.334V36.6667H35.0007V35Z" fill="#000080"/>
<path d="M36.6667 35H35V36.6667H36.6667V35Z" fill="#000080"/>
<path d="M38.3327 35H36.666V36.6667H38.3327V35Z" fill="#000080"/>
<path d="M40.0007 35H38.334V36.6667H40.0007V35Z" fill="#000080"/>
<path d="M3.33268 36.668H1.66602V38.3346H3.33268V36.668Z" fill="#000080"/>
<path d="M6.66667 36.668H5V38.3346H6.66667V36.668Z" fill="#000080"/>
<path d="M8.33268 36.668H6.66602V38.3346H8.33268V36.668Z" fill="#000080"/>
<path d="M10.0007 36.668H8.33398V38.3346H10.0007V36.668Z" fill="#000080"/>
<path d="M13.3327 36.668H11.666V38.3346H13.3327V36.668Z" fill="#000080"/>
<path d="M18.3327 36.668H16.666V38.3346H18.3327V36.668Z" fill="#000080"/>
<path d="M23.3327 36.668H21.666V38.3346H23.3327V36.668Z" fill="#000080"/>
<path d="M31.6667 36.668H30V38.3346H31.6667V36.668Z" fill="#000080"/>
<path d="M33.3327 36.668H31.666V38.3346H33.3327V36.668Z" fill="#000080"/>
<path d="M38.3327 36.668H36.666V38.3346H38.3327V36.668Z" fill="#000080"/>
<path d="M41.6667 36.668H40V38.3346H41.6667V36.668Z" fill="#000080"/>
<path d="M43.3327 36.668H41.666V38.3346H43.3327V36.668Z" fill="#000080"/>
<path d="M3.33268 38.332H1.66602V39.9987H3.33268V38.332Z" fill="#000080"/>
<path d="M6.66667 38.332H5V39.9987H6.66667V38.332Z" fill="#000080"/>
<path d="M8.33268 38.332H6.66602V39.9987H8.33268V38.332Z" fill="#000080"/>
<path d="M10.0007 38.332H8.33398V39.9987H10.0007V38.332Z" fill="#000080"/>
<path d="M13.3327 38.332H11.666V39.9987H13.3327V38.332Z" fill="#000080"/>
<path d="M18.3327 38.332H16.666V39.9987H18.3327V38.332Z" fill="#000080"/>
<path d="M26.6667 38.332H25V39.9987H26.6667V38.332Z" fill="#000080"/>
<path d="M30.0007 38.332H28.334V39.9987H30.0007V38.332Z" fill="#000080"/>
<path d="M35.0007 38.332H33.334V39.9987H35.0007V38.332Z" fill="#000080"/>
<path d="M40.0007 38.332H38.334V39.9987H40.0007V38.332Z" fill="#000080"/>
<path d="M43.3327 38.332H41.666V39.9987H43.3327V38.332Z" fill="#000080"/>
<path d="M3.33268 40H1.66602V41.6667H3.33268V40Z" fill="#000080"/>
<path d="M13.3327 40H11.666V41.6667H13.3327V40Z" fill="#000080"/>
<path d="M16.6667 40H15V41.6667H16.6667V40Z" fill="#000080"/>
<path d="M21.6667 40H20V41.6667H21.6667V40Z" fill="#000080"/>
<path d="M23.3327 40H21.666V41.6667H23.3327V40Z" fill="#000080"/>
<path d="M26.6667 40H25V41.6667H26.6667V40Z" fill="#000080"/>
<path d="M30.0007 40H28.334V41.6667H30.0007V40Z" fill="#000080"/>
<path d="M35.0007 40H33.334V41.6667H35.0007V40Z" fill="#000080"/>
<path d="M36.6667 40H35V41.6667H36.6667V40Z" fill="#000080"/>
<path d="M43.3327 40H41.666V41.6667H43.3327V40Z" fill="#000080"/>
<path d="M3.33268 41.668H1.66602V43.3346H3.33268V41.668Z" fill="#000080"/>
<path d="M5.00065 41.668H3.33398V43.3346H5.00065V41.668Z" fill="#000080"/>
<path d="M6.66667 41.668H5V43.3346H6.66667V41.668Z" fill="#000080"/>
<path d="M8.33268 41.668H6.66602V43.3346H8.33268V41.668Z" fill="#000080"/>
<path d="M10.0007 41.668H8.33398V43.3346H10.0007V41.668Z" fill="#000080"/>
<path d="M11.6667 41.668H10V43.3346H11.6667V41.668Z" fill="#000080"/>
<path d="M13.3327 41.668H11.666V43.3346H13.3327V41.668Z" fill="#000080"/>
<path d="M16.6667 41.668H15V43.3346H16.6667V41.668Z" fill="#000080"/>
<path d="M18.3327 41.668H16.666V43.3346H18.3327V41.668Z" fill="#000080"/>
<path d="M20.0007 41.668H18.334V43.3346H20.0007V41.668Z" fill="#000080"/>
<path d="M21.6667 41.668H20V43.3346H21.6667V41.668Z" fill="#000080"/>
<path d="M26.6667 41.668H25V43.3346H26.6667V41.668Z" fill="#000080"/>
<path d="M30.0007 41.668H28.334V43.3346H30.0007V41.668Z" fill="#000080"/>
<path d="M33.3327 41.668H31.666V43.3346H33.3327V41.668Z" fill="#000080"/>
<path d="M38.3327 41.668H36.666V43.3346H38.3327V41.668Z" fill="#000080"/>
<path d="M43.3327 41.668H41.666V43.3346H43.3327V41.668Z" fill="#000080"/>
</g>
<circle cx="23" cy="21.9199" r="9" fill="white"/>
<path fill-rule="evenodd" clip-rule="evenodd" d="M21.2287 31.6308C21.6072 28.8175 22.8087 28.5943 24.3666 27.6577C28.7055 25.0455 27.0372 18.7477 21.0283 20.714C25.2568 20.4236 26.3919 24.7998 23.5877 26.5859C20.7834 28.372 21.162 29.7778 21.2287 31.6308Z" fill="#138808"/>
<path fill-rule="evenodd" clip-rule="evenodd" d="M24.6345 12.9199C24.1893 15.711 22.9654 15.9117 21.385 16.7825C16.9562 19.261 18.4029 25.6017 24.5008 23.8381C20.2724 23.9722 19.2485 19.573 22.1194 17.8766C24.9904 16.1801 24.6566 14.7729 24.6342 12.9199H24.6345Z" fill="#FF9933"/>
<path fill-rule="evenodd" clip-rule="evenodd" d="M24.768 27.6549C30.4431 24.9965 27.4179 17.7638 21.0068 20.443C26.8378 18.8357 29.2862 24.2171 24.768 27.6549Z" fill="#138808"/>
<path fill-rule="evenodd" clip-rule="evenodd" d="M20.9841 16.7598C15.2184 19.2382 18.0241 26.5839 24.5228 24.1055C18.6251 25.5121 16.355 20.0641 20.9841 16.7598Z" fill="#FF9933"/>
<defs>
<clipPath id="clip0_13248_111386">
<rect width="45" height="45" fill="white"/>
</clipPath>
</defs>
</svg>
