<svg width="100" height="101" viewBox="0 0 100 101" fill="none" xmlns="http://www.w3.org/2000/svg">
<circle cx="44.5638" cy="55.5638" r="44.5638" fill="#23B13A" fill-opacity="0.06"/>
<path fill-rule="evenodd" clip-rule="evenodd" d="M67.5052 68.9219C61.2639 68.9219 54.5494 68.9219 48.3171 68.9219C48.7355 72.5531 48.3553 76.8046 47.5713 80.3608H68.3608C67.5265 76.8046 67.087 72.5531 67.5052 68.9219Z" fill="#656565"/>
<path fill-rule="evenodd" clip-rule="evenodd" d="M39.8798 82.3592C38.7753 82.3592 37.8799 81.4638 37.8799 80.3593C37.8799 79.2548 38.7753 78.3594 39.8798 78.3594H76.0523C77.1568 78.3594 78.0522 79.2548 78.0522 80.3593C78.0522 81.4638 77.1568 82.3592 76.0523 82.3592H39.8798Z" fill="#515151"/>
<path fill-rule="evenodd" clip-rule="evenodd" d="M97.3593 63.2699C97.3593 66.391 94.8293 68.921 91.708 68.921H24.2918C21.1705 68.921 18.6406 66.391 18.6406 63.2699C18.6406 47.9238 18.6406 32.5777 18.6406 17.2316C18.6406 14.5879 20.7969 12.4316 23.4406 12.4316H92.5595C95.2032 12.4316 97.3595 14.5879 97.3595 17.2316C97.3593 32.5777 97.3593 47.9238 97.3593 63.2699Z" fill="#6A676B"/>
<path fill-rule="evenodd" clip-rule="evenodd" d="M93.8391 54.1597V17.2312C93.8391 16.5303 93.2599 15.9512 92.5591 15.9512C69.5194 15.9512 46.4798 15.9512 23.4402 15.9512C22.7393 15.9512 22.1602 16.5305 22.1602 17.2312V54.1597H93.8391Z" fill="#92D2FE"/>
<path fill-rule="evenodd" clip-rule="evenodd" d="M24.2919 68.9206H48.3169H67.505H91.7082C94.8294 68.9206 97.3595 66.3906 97.3595 63.2695C97.3595 63.2695 97.3595 61.0928 97.3595 57.6797H18.6406V63.2695C18.6406 66.3906 21.1706 68.9206 24.2919 68.9206Z" fill="#E6E6E6"/>
<path fill-rule="evenodd" clip-rule="evenodd" d="M40.166 1.64062H68.6589C68.9255 1.64062 69.1549 1.73562 69.3433 1.92412L76.5192 9.10005C76.7077 9.28856 76.8027 9.51792 76.8027 9.78436V48.2913C76.8027 48.8243 76.3679 49.2591 75.8349 49.2591H40.166C39.633 49.2591 39.1982 48.8243 39.1982 48.2913V2.60843C39.1982 2.07539 39.633 1.64062 40.166 1.64062Z" fill="#F2F2F2"/>
<path fill-rule="evenodd" clip-rule="evenodd" d="M69.0596 1.72461C69.1623 1.77153 69.2569 1.83814 69.3431 1.92411L76.519 9.10004C76.6051 9.18601 76.6716 9.28067 76.7187 9.38354H69.5436C69.277 9.38354 69.0596 9.16616 69.0596 8.89955V1.72461Z" fill="#CCCCCC"/>
<path fill-rule="evenodd" clip-rule="evenodd" d="M67.6844 29.5508C68.3955 29.5508 68.9723 30.1275 68.9723 30.8385C68.9723 31.5496 68.3957 32.1264 67.6844 32.1264H48.3162C47.605 32.1264 47.0283 31.5497 47.0283 30.8385C47.0283 30.1275 47.605 29.5508 48.3162 29.5508H67.6844ZM67.6844 41.3323C68.3955 41.3323 68.9723 41.909 68.9723 42.62C68.9723 43.331 68.3957 43.9079 67.6844 43.9079H48.3162C47.605 43.9079 47.0283 43.3312 47.0283 42.62C47.0283 41.909 47.605 41.3323 48.3162 41.3323H67.6844ZM67.6844 35.4414C68.3955 35.4414 68.9723 36.0181 68.9723 36.7293C68.9723 37.4404 68.3957 38.0172 67.6844 38.0172H48.3162C47.605 38.0172 47.0283 37.4405 47.0283 36.7293C47.0283 36.0181 47.605 35.4414 48.3162 35.4414H67.6844Z" fill="#CCCCCC"/>
<path fill-rule="evenodd" clip-rule="evenodd" d="M55.7788 9.78516H60.2224C60.489 9.78516 60.7064 10.0025 60.7064 10.269V13.8544H64.2918C64.5585 13.8544 64.7758 14.0718 64.7758 14.3382V18.7819C64.7758 19.0485 64.5585 19.2658 64.2918 19.2658H60.7064V22.8513C60.7064 23.1177 60.489 23.3351 60.2224 23.3351H55.7788C55.5122 23.3351 55.2948 23.1177 55.2948 22.8513V19.2658H51.7094C51.443 19.2658 51.2256 19.0485 51.2256 18.7819V14.3384C51.2256 14.0719 51.443 13.8546 51.7094 13.8546H55.2948V10.2691C55.2948 10.0025 55.5122 9.78516 55.7788 9.78516Z" fill="#EB745E"/>
</svg>
