<svg width="764" height="123" viewBox="0 0 764 123" fill="none" xmlns="http://www.w3.org/2000/svg">
<path opacity="0.1" d="M10.5 95L26.375 4H37.6875L21.8125 95H10.5ZM33.9375 95L49.875 4H61.1875L45.25 95H33.9375ZM70.5 40.5625H5.4375V30H70.5V40.5625ZM65.75 69.375H0.75V58.875H65.75V69.375ZM111.062 96.25C105.812 96.25 101.104 95.4167 96.9375 93.75C92.7708 92.0417 89.2292 89.6875 86.3125 86.6875C83.4375 83.6875 81.2292 80.2083 79.6875 76.25C78.1458 72.25 77.375 68 77.375 63.5V61C77.375 55.875 78.1042 51.1875 79.5625 46.9375C81.0208 42.6875 83.1042 39 85.8125 35.875C88.5625 32.75 91.8958 30.3542 95.8125 28.6875C99.7292 26.9792 104.146 26.125 109.062 26.125C113.854 26.125 118.104 26.9167 121.812 28.5C125.521 30.0833 128.625 32.3333 131.125 35.25C133.667 38.1667 135.583 41.6667 136.875 45.75C138.167 49.7917 138.812 54.2917 138.812 59.25V66.75H85.0625V54.75H121.125V53.375C121.125 50.875 120.667 48.6458 119.75 46.6875C118.875 44.6875 117.542 43.1042 115.75 41.9375C113.958 40.7708 111.667 40.1875 108.875 40.1875C106.5 40.1875 104.458 40.7083 102.75 41.75C101.042 42.7917 99.6458 44.25 98.5625 46.125C97.5208 48 96.7292 50.2083 96.1875 52.75C95.6875 55.25 95.4375 58 95.4375 61V63.5C95.4375 66.2083 95.8125 68.7083 96.5625 71C97.3542 73.2917 98.4583 75.2708 99.875 76.9375C101.333 78.6042 103.083 79.8958 105.125 80.8125C107.208 81.7292 109.562 82.1875 112.188 82.1875C115.438 82.1875 118.458 81.5625 121.25 80.3125C124.083 79.0208 126.521 77.0833 128.562 74.5L137.312 84C135.896 86.0417 133.958 88 131.5 89.875C129.083 91.75 126.167 93.2917 122.75 94.5C119.333 95.6667 115.438 96.25 111.062 96.25ZM197.562 71.1875C197.562 69.5625 197.312 68.1042 196.812 66.8125C196.354 65.4792 195.479 64.2708 194.188 63.1875C192.896 62.0625 191.083 60.9583 188.75 59.875C186.417 58.7917 183.396 57.6667 179.688 56.5C175.562 55.1667 171.646 53.6667 167.938 52C164.271 50.3333 161.021 48.3958 158.188 46.1875C155.396 43.9375 153.188 41.3333 151.562 38.375C149.979 35.4167 149.188 31.9792 149.188 28.0625C149.188 24.2708 150.021 20.8333 151.688 17.75C153.354 14.625 155.688 11.9583 158.688 9.75C161.688 7.5 165.229 5.77083 169.312 4.5625C173.438 3.35417 177.958 2.75 182.875 2.75C189.583 2.75 195.438 3.95833 200.438 6.375C205.438 8.79167 209.312 12.1042 212.062 16.3125C214.854 20.5208 216.25 25.3333 216.25 30.75H197.625C197.625 28.0833 197.062 25.75 195.938 23.75C194.854 21.7083 193.188 20.1042 190.938 18.9375C188.729 17.7708 185.938 17.1875 182.562 17.1875C179.312 17.1875 176.604 17.6875 174.438 18.6875C172.271 19.6458 170.646 20.9583 169.562 22.625C168.479 24.25 167.938 26.0833 167.938 28.125C167.938 29.6667 168.312 31.0625 169.062 32.3125C169.854 33.5625 171.021 34.7292 172.562 35.8125C174.104 36.8958 176 37.9167 178.25 38.875C180.5 39.8333 183.104 40.7708 186.062 41.6875C191.021 43.1875 195.375 44.875 199.125 46.75C202.917 48.625 206.083 50.7292 208.625 53.0625C211.167 55.3958 213.083 58.0417 214.375 61C215.667 63.9583 216.312 67.3125 216.312 71.0625C216.312 75.0208 215.542 78.5625 214 81.6875C212.458 84.8125 210.229 87.4583 207.312 89.625C204.396 91.7917 200.917 93.4375 196.875 94.5625C192.833 95.6875 188.312 96.25 183.312 96.25C178.812 96.25 174.375 95.6667 170 94.5C165.625 93.2917 161.646 91.4792 158.062 89.0625C154.521 86.6458 151.688 83.5625 149.562 79.8125C147.438 76.0625 146.375 71.625 146.375 66.5H165.188C165.188 69.3333 165.625 71.7292 166.5 73.6875C167.375 75.6458 168.604 77.2292 170.188 78.4375C171.812 79.6458 173.729 80.5208 175.938 81.0625C178.188 81.6042 180.646 81.875 183.312 81.875C186.562 81.875 189.229 81.4167 191.312 80.5C193.438 79.5833 195 78.3125 196 76.6875C197.042 75.0625 197.562 73.2292 197.562 71.1875ZM264.438 79.75V49.625C264.438 47.4583 264.083 45.6042 263.375 44.0625C262.667 42.4792 261.562 41.25 260.062 40.375C258.604 39.5 256.708 39.0625 254.375 39.0625C252.375 39.0625 250.646 39.4167 249.188 40.125C247.729 40.7917 246.604 41.7708 245.812 43.0625C245.021 44.3125 244.625 45.7917 244.625 47.5H226.625C226.625 44.625 227.292 41.8958 228.625 39.3125C229.958 36.7292 231.896 34.4583 234.438 32.5C236.979 30.5 240 28.9375 243.5 27.8125C247.042 26.6875 251 26.125 255.375 26.125C260.625 26.125 265.292 27 269.375 28.75C273.458 30.5 276.667 33.125 279 36.625C281.375 40.125 282.562 44.5 282.562 49.75V78.6875C282.562 82.3958 282.792 85.4375 283.25 87.8125C283.708 90.1458 284.375 92.1875 285.25 93.9375V95H267.062C266.188 93.1667 265.521 90.875 265.062 88.125C264.646 85.3333 264.438 82.5417 264.438 79.75ZM266.812 53.8125L266.938 64H256.875C254.5 64 252.438 64.2708 250.688 64.8125C248.938 65.3542 247.5 66.125 246.375 67.125C245.25 68.0833 244.417 69.2083 243.875 70.5C243.375 71.7917 243.125 73.2083 243.125 74.75C243.125 76.2917 243.479 77.6875 244.188 78.9375C244.896 80.1458 245.917 81.1042 247.25 81.8125C248.583 82.4792 250.146 82.8125 251.938 82.8125C254.646 82.8125 257 82.2708 259 81.1875C261 80.1042 262.542 78.7708 263.625 77.1875C264.75 75.6042 265.333 74.1042 265.375 72.6875L270.125 80.3125C269.458 82.0208 268.542 83.7917 267.375 85.625C266.25 87.4583 264.812 89.1875 263.062 90.8125C261.312 92.3958 259.208 93.7083 256.75 94.75C254.292 95.75 251.375 96.25 248 96.25C243.708 96.25 239.812 95.3958 236.312 93.6875C232.854 91.9375 230.104 89.5417 228.062 86.5C226.062 83.4167 225.062 79.9167 225.062 76C225.062 72.4583 225.729 69.3125 227.062 66.5625C228.396 63.8125 230.354 61.5 232.938 59.625C235.562 57.7083 238.833 56.2708 242.75 55.3125C246.667 54.3125 251.208 53.8125 256.375 53.8125H266.812ZM314.062 41.8125V95H296.062V27.375H312.938L314.062 41.8125ZM311.438 58.8125H306.562C306.562 53.8125 307.208 49.3125 308.5 45.3125C309.792 41.2708 311.604 37.8333 313.938 35C316.271 32.125 319.042 29.9375 322.25 28.4375C325.5 26.8958 329.125 26.125 333.125 26.125C336.292 26.125 339.188 26.5833 341.812 27.5C344.438 28.4167 346.688 29.875 348.562 31.875C350.479 33.875 351.938 36.5208 352.938 39.8125C353.979 43.1042 354.5 47.125 354.5 51.875V95H336.375V51.8125C336.375 48.8125 335.958 46.4792 335.125 44.8125C334.292 43.1458 333.062 41.9792 331.438 41.3125C329.854 40.6042 327.896 40.25 325.562 40.25C323.146 40.25 321.042 40.7292 319.25 41.6875C317.5 42.6458 316.042 43.9792 314.875 45.6875C313.75 47.3542 312.896 49.3125 312.312 51.5625C311.729 53.8125 311.438 56.2292 311.438 58.8125ZM369.188 27.375H387.25V99.0625C387.25 104.062 386.333 108.292 384.5 111.75C382.667 115.208 380.021 117.833 376.562 119.625C373.104 121.417 368.917 122.312 364 122.312C362.458 122.312 360.958 122.229 359.5 122.062C358 121.896 356.458 121.625 354.875 121.25L354.938 107.438C355.938 107.604 356.917 107.729 357.875 107.812C358.792 107.938 359.729 108 360.688 108C362.562 108 364.125 107.688 365.375 107.062C366.625 106.438 367.562 105.458 368.188 104.125C368.854 102.833 369.188 101.146 369.188 99.0625V27.375ZM367.75 9.75C367.75 7.125 368.667 4.95833 370.5 3.25C372.375 1.54167 374.833 0.6875 377.875 0.6875C380.958 0.6875 383.417 1.54167 385.25 3.25C387.083 4.95833 388 7.125 388 9.75C388 12.375 387.083 14.5417 385.25 16.25C383.417 17.9583 380.958 18.8125 377.875 18.8125C374.833 18.8125 372.375 17.9583 370.5 16.25C368.667 14.5417 367.75 12.375 367.75 9.75ZM432.688 96.25C427.438 96.25 422.729 95.4167 418.562 93.75C414.396 92.0417 410.854 89.6875 407.938 86.6875C405.062 83.6875 402.854 80.2083 401.312 76.25C399.771 72.25 399 68 399 63.5V61C399 55.875 399.729 51.1875 401.188 46.9375C402.646 42.6875 404.729 39 407.438 35.875C410.188 32.75 413.521 30.3542 417.438 28.6875C421.354 26.9792 425.771 26.125 430.688 26.125C435.479 26.125 439.729 26.9167 443.438 28.5C447.146 30.0833 450.25 32.3333 452.75 35.25C455.292 38.1667 457.208 41.6667 458.5 45.75C459.792 49.7917 460.438 54.2917 460.438 59.25V66.75H406.688V54.75H442.75V53.375C442.75 50.875 442.292 48.6458 441.375 46.6875C440.5 44.6875 439.167 43.1042 437.375 41.9375C435.583 40.7708 433.292 40.1875 430.5 40.1875C428.125 40.1875 426.083 40.7083 424.375 41.75C422.667 42.7917 421.271 44.25 420.188 46.125C419.146 48 418.354 50.2083 417.812 52.75C417.312 55.25 417.062 58 417.062 61V63.5C417.062 66.2083 417.438 68.7083 418.188 71C418.979 73.2917 420.083 75.2708 421.5 76.9375C422.958 78.6042 424.708 79.8958 426.75 80.8125C428.833 81.7292 431.188 82.1875 433.812 82.1875C437.062 82.1875 440.083 81.5625 442.875 80.3125C445.708 79.0208 448.146 77.0833 450.188 74.5L458.938 84C457.521 86.0417 455.583 88 453.125 89.875C450.708 91.75 447.792 93.2917 444.375 94.5C440.958 95.6667 437.062 96.25 432.688 96.25ZM501.812 96.25C496.562 96.25 491.854 95.4167 487.688 93.75C483.521 92.0417 479.979 89.6875 477.062 86.6875C474.188 83.6875 471.979 80.2083 470.438 76.25C468.896 72.25 468.125 68 468.125 63.5V61C468.125 55.875 468.854 51.1875 470.312 46.9375C471.771 42.6875 473.854 39 476.562 35.875C479.312 32.75 482.646 30.3542 486.562 28.6875C490.479 26.9792 494.896 26.125 499.812 26.125C504.604 26.125 508.854 26.9167 512.562 28.5C516.271 30.0833 519.375 32.3333 521.875 35.25C524.417 38.1667 526.333 41.6667 527.625 45.75C528.917 49.7917 529.562 54.2917 529.562 59.25V66.75H475.812V54.75H511.875V53.375C511.875 50.875 511.417 48.6458 510.5 46.6875C509.625 44.6875 508.292 43.1042 506.5 41.9375C504.708 40.7708 502.417 40.1875 499.625 40.1875C497.25 40.1875 495.208 40.7083 493.5 41.75C491.792 42.7917 490.396 44.25 489.312 46.125C488.271 48 487.479 50.2083 486.938 52.75C486.438 55.25 486.188 58 486.188 61V63.5C486.188 66.2083 486.562 68.7083 487.312 71C488.104 73.2917 489.208 75.2708 490.625 76.9375C492.083 78.6042 493.833 79.8958 495.875 80.8125C497.958 81.7292 500.312 82.1875 502.938 82.1875C506.188 82.1875 509.208 81.5625 512 80.3125C514.833 79.0208 517.271 77.0833 519.312 74.5L528.062 84C526.646 86.0417 524.708 88 522.25 89.875C519.833 91.75 516.917 93.2917 513.5 94.5C510.083 95.6667 506.188 96.25 501.812 96.25ZM561.938 81.875L576.938 27.375H595.75L572.938 95H561.562L561.938 81.875ZM551.625 27.375L566.688 81.9375L567 95H555.562L532.75 27.375H551.625ZM639.312 79.75V49.625C639.312 47.4583 638.958 45.6042 638.25 44.0625C637.542 42.4792 636.438 41.25 634.938 40.375C633.479 39.5 631.583 39.0625 629.25 39.0625C627.25 39.0625 625.521 39.4167 624.062 40.125C622.604 40.7917 621.479 41.7708 620.688 43.0625C619.896 44.3125 619.5 45.7917 619.5 47.5H601.5C601.5 44.625 602.167 41.8958 603.5 39.3125C604.833 36.7292 606.771 34.4583 609.312 32.5C611.854 30.5 614.875 28.9375 618.375 27.8125C621.917 26.6875 625.875 26.125 630.25 26.125C635.5 26.125 640.167 27 644.25 28.75C648.333 30.5 651.542 33.125 653.875 36.625C656.25 40.125 657.438 44.5 657.438 49.75V78.6875C657.438 82.3958 657.667 85.4375 658.125 87.8125C658.583 90.1458 659.25 92.1875 660.125 93.9375V95H641.938C641.062 93.1667 640.396 90.875 639.938 88.125C639.521 85.3333 639.312 82.5417 639.312 79.75ZM641.688 53.8125L641.812 64H631.75C629.375 64 627.312 64.2708 625.562 64.8125C623.812 65.3542 622.375 66.125 621.25 67.125C620.125 68.0833 619.292 69.2083 618.75 70.5C618.25 71.7917 618 73.2083 618 74.75C618 76.2917 618.354 77.6875 619.062 78.9375C619.771 80.1458 620.792 81.1042 622.125 81.8125C623.458 82.4792 625.021 82.8125 626.812 82.8125C629.521 82.8125 631.875 82.2708 633.875 81.1875C635.875 80.1042 637.417 78.7708 638.5 77.1875C639.625 75.6042 640.208 74.1042 640.25 72.6875L645 80.3125C644.333 82.0208 643.417 83.7917 642.25 85.625C641.125 87.4583 639.688 89.1875 637.938 90.8125C636.188 92.3958 634.083 93.7083 631.625 94.75C629.167 95.75 626.25 96.25 622.875 96.25C618.583 96.25 614.688 95.3958 611.188 93.6875C607.729 91.9375 604.979 89.5417 602.938 86.5C600.938 83.4167 599.938 79.9167 599.938 76C599.938 72.4583 600.604 69.3125 601.938 66.5625C603.271 63.8125 605.229 61.5 607.812 59.625C610.438 57.7083 613.708 56.2708 617.625 55.3125C621.542 54.3125 626.083 53.8125 631.25 53.8125H641.688ZM688.938 41.8125V95H670.938V27.375H687.812L688.938 41.8125ZM686.312 58.8125H681.438C681.438 53.8125 682.083 49.3125 683.375 45.3125C684.667 41.2708 686.479 37.8333 688.812 35C691.146 32.125 693.917 29.9375 697.125 28.4375C700.375 26.8958 704 26.125 708 26.125C711.167 26.125 714.062 26.5833 716.688 27.5C719.312 28.4167 721.562 29.875 723.438 31.875C725.354 33.875 726.812 36.5208 727.812 39.8125C728.854 43.1042 729.375 47.125 729.375 51.875V95H711.25V51.8125C711.25 48.8125 710.833 46.4792 710 44.8125C709.167 43.1458 707.938 41.9792 706.312 41.3125C704.729 40.6042 702.771 40.25 700.438 40.25C698.021 40.25 695.917 40.7292 694.125 41.6875C692.375 42.6458 690.917 43.9792 689.75 45.6875C688.625 47.3542 687.771 49.3125 687.188 51.5625C686.604 53.8125 686.312 56.2292 686.312 58.8125ZM762.062 27.375V95H744V27.375H762.062ZM742.875 9.75C742.875 7.125 743.792 4.95833 745.625 3.25C747.458 1.54167 749.917 0.6875 753 0.6875C756.042 0.6875 758.479 1.54167 760.312 3.25C762.188 4.95833 763.125 7.125 763.125 9.75C763.125 12.375 762.188 14.5417 760.312 16.25C758.479 17.9583 756.042 18.8125 753 18.8125C749.917 18.8125 747.458 17.9583 745.625 16.25C743.792 14.5417 742.875 12.375 742.875 9.75Z" fill="url(#paint0_linear_10229_85135)"/>
<defs>
<linearGradient id="paint0_linear_10229_85135" x1="18.2363" y1="53.1428" x2="786.993" y2="65.7703" gradientUnits="userSpaceOnUse">
<stop stop-color="#FF9933"/>
<stop offset="1" stop-color="#138808"/>
</linearGradient>
</defs>
</svg>
