<svg width="216" height="59" viewBox="0 0 216 59" fill="none" xmlns="http://www.w3.org/2000/svg">
<g clip-path="url(#clip0_19023_87202)">
<path d="M70.1799 16.1427H66.6709V6.91797H70.1799C71.5445 6.91797 72.7142 7.30233 73.494 8.07106C74.2738 8.83979 74.6637 9.99289 74.6637 11.5303C74.6637 12.8756 74.2738 14.0287 73.494 14.7974C72.7142 15.5662 71.5445 16.1427 70.1799 16.1427ZM68.4254 8.64761V14.2209H70.1799C70.9597 14.2209 71.5445 14.0287 72.1294 13.4522C72.7142 12.8756 72.7142 12.2991 72.7142 11.3382C72.7142 10.5694 72.5193 9.80071 72.1294 9.41634C71.7395 9.03198 71.1547 8.64761 70.1799 8.64761H68.4254Z" fill="#010101"/>
<path d="M76.2236 16.1427V6.91797H78.1731V16.1427H76.2236Z" fill="#010101"/>
<path d="M84.6061 16.1423C83.2414 16.1423 82.0718 15.758 81.097 14.797C80.1223 13.8361 79.7324 12.683 79.7324 11.3378C79.7324 9.99249 80.1223 8.83939 81.097 7.87848C82.0718 6.91757 83.2414 6.5332 84.6061 6.5332C85.3859 6.5332 85.9707 6.72539 86.7505 6.91757C87.5303 7.10975 87.9201 7.49411 88.31 8.07066L87.1404 9.60812C86.3606 8.83939 85.5808 8.64721 84.6061 8.64721C83.8263 8.64721 83.0465 8.83939 82.4617 9.41594C81.8768 9.99249 81.4869 10.569 81.4869 11.5299C81.4869 12.2987 81.6819 13.0674 82.2667 13.644C82.8516 14.2205 83.6313 14.4127 84.4111 14.4127C84.801 14.4127 85.3858 14.4127 85.7757 14.2205C86.1656 14.0283 86.5555 13.8361 86.9454 13.4518V12.1065H84.4111V10.569H88.6999V14.4127C87.5303 15.5658 86.1656 16.1423 84.6061 16.1423Z" fill="#010101"/>
<path d="M90.4541 16.1427V6.91797H92.4036V16.1427H90.4541Z" fill="#010101"/>
<path d="M96.1075 16.1427V8.64761H93.5732V6.91797H100.786V8.64761H98.057V16.1427H96.1075Z" fill="#010101"/>
<path d="M108.584 16.1427H106.635L105.855 14.2209H102.541L101.761 16.1427H99.8115L103.321 6.91797H104.88L108.584 16.1427ZM105.465 12.4913L104.295 9.41634L103.321 12.4913H105.465Z" fill="#010101"/>
<path d="M116.382 16.1427H109.754V6.91797H111.703V14.4131H116.382V16.1427Z" fill="#010101"/>
<path d="M124.57 16.1423C123.205 16.1423 122.036 15.758 121.061 14.797C120.086 13.8361 119.696 12.683 119.696 11.3378C119.696 9.99249 120.086 8.83939 121.061 7.87848C122.036 6.91757 123.205 6.5332 124.57 6.5332C125.35 6.5332 125.935 6.72539 126.714 6.91757C127.494 7.10975 127.884 7.49411 128.274 8.07066L127.299 9.60812C126.519 8.83939 125.74 8.64721 124.765 8.64721C123.985 8.64721 123.205 8.83939 122.62 9.41594C122.036 9.99249 121.646 10.569 121.646 11.5299C121.646 12.2987 121.841 13.0674 122.426 13.644C123.01 14.2205 123.79 14.4127 124.57 14.4127C124.96 14.4127 125.545 14.4127 125.935 14.2205C126.324 14.0283 126.714 13.8361 127.104 13.4518V12.1065H124.57V10.569H128.859V14.4127C127.689 15.5658 126.324 16.1423 124.57 16.1423Z" fill="#010101"/>
<path d="M137.046 16.1427H130.418V6.91797H132.367V14.4131H137.046V16.1427Z" fill="#010101"/>
<path d="M142.115 16.1415C140.75 16.1415 139.581 15.7572 138.606 14.7963C137.631 13.8354 137.241 12.6823 137.241 11.5292C137.241 10.1839 137.631 9.0308 138.606 8.06989C139.581 7.10897 140.75 6.72461 142.115 6.72461C143.479 6.72461 144.649 7.10897 145.624 8.06989C146.599 9.0308 146.989 10.1839 146.989 11.5292C146.989 12.8744 146.599 14.0275 145.624 14.7963C144.649 15.7572 143.479 16.1415 142.115 16.1415ZM145.039 11.5292C145.039 10.7604 144.844 9.99171 144.259 9.41516C143.674 8.83862 143.09 8.64643 142.115 8.64643C141.335 8.64643 140.555 8.83862 139.97 9.41516C139.386 9.99171 139.191 10.7604 139.191 11.5292C139.191 12.2979 139.386 13.0666 139.97 13.6432C140.555 14.2197 141.14 14.4119 142.115 14.4119C142.895 14.4119 143.674 14.2197 144.259 13.6432C144.844 13.0666 145.234 12.2979 145.039 11.5292Z" fill="#010101"/>
<path d="M154.006 10.9538C154.591 11.146 154.981 11.3382 155.371 11.7225C155.761 12.1069 155.761 12.6834 155.761 13.26C155.761 14.0287 155.566 14.6053 154.981 15.1818C154.396 15.7584 153.811 15.9505 152.837 15.9505H148.548V6.91797H152.642C153.422 6.91797 154.201 7.11015 154.591 7.6867C154.981 8.07106 155.371 8.64761 155.371 9.22416C155.371 9.60852 155.176 9.99289 154.981 10.3773C154.786 10.5694 154.396 10.9538 154.006 10.9538ZM152.252 8.45543H150.302V10.3773H152.057C152.447 10.3773 152.642 10.1851 152.837 9.99289C153.032 9.8007 153.227 9.60852 153.227 9.22416C153.227 9.03198 153.032 8.64761 152.837 8.45543C153.032 8.64761 152.642 8.45543 152.252 8.45543ZM150.497 14.4131H152.447C152.837 14.4131 153.227 14.2209 153.421 14.0287C153.616 13.8365 153.811 13.4522 153.811 13.26C153.811 12.8756 153.616 12.6834 153.421 12.2991C153.227 12.1069 152.837 11.9147 152.447 11.9147H150.497V14.4131Z" fill="#010101"/>
<path d="M164.729 16.1427H162.779L161.999 14.2209H158.685L157.906 16.1427H155.956L159.465 6.91797H161.025L164.729 16.1427ZM161.415 12.4913L160.245 9.41634L159.075 12.4913H161.415Z" fill="#010101"/>
<path d="M172.331 16.1427H165.703V6.91797H167.653V14.4131H172.331V16.1427Z" fill="#010101"/>
<path d="M180.714 16.1423C179.35 16.1423 178.18 15.758 177.205 14.797C176.231 13.8361 175.841 12.683 175.841 11.3378C175.841 9.99249 176.231 8.83939 177.205 7.87848C178.18 6.91757 179.35 6.5332 180.714 6.5332C181.494 6.5332 182.079 6.72539 182.859 6.91757C183.639 7.10975 184.029 7.49411 184.418 8.07066L183.249 9.60812C182.469 8.83939 181.689 8.64721 180.714 8.64721C179.935 8.64721 179.155 8.83939 178.57 9.41594C177.985 9.99249 177.595 10.569 177.595 11.5299C177.595 12.2987 177.79 13.0674 178.375 13.644C178.96 14.2205 179.74 14.4127 180.52 14.4127C180.909 14.4127 181.494 14.4127 181.884 14.2205C182.274 14.0283 182.859 13.644 183.249 13.4518V12.1065H180.714V10.569H185.003V14.4127C183.639 15.5658 182.274 16.1423 180.714 16.1423Z" fill="#010101"/>
<path d="M190.851 16.1415C189.487 16.1415 188.317 15.7572 187.342 14.7963C186.367 13.8354 185.978 12.6823 185.978 11.5292C185.978 10.1839 186.367 9.0308 187.342 8.06989C188.317 7.10897 189.487 6.72461 190.851 6.72461C192.216 6.72461 193.385 7.10897 194.36 8.06989C195.335 9.0308 195.725 10.1839 195.725 11.5292C195.725 12.8744 195.335 14.0275 194.36 14.7963C193.385 15.7572 192.216 16.1415 190.851 16.1415ZM193.775 11.5292C193.775 10.7604 193.58 9.99171 192.996 9.41516C192.411 8.83862 191.826 8.64643 190.851 8.64643C190.071 8.64643 189.292 8.83862 188.707 9.41516C188.122 9.99171 187.927 10.7604 187.927 11.5292C187.927 12.2979 188.122 13.0666 188.707 13.6432C189.292 14.2197 189.876 14.4119 190.851 14.4119C191.631 14.4119 192.411 14.2197 192.996 13.6432C193.385 13.0666 193.775 12.2979 193.775 11.5292Z" fill="#010101"/>
<path d="M201.574 16.1415C200.209 16.1415 199.04 15.7572 198.065 14.7963C197.09 13.8354 196.7 12.6823 196.7 11.5292C196.7 10.1839 197.09 9.0308 198.065 8.06989C199.04 7.10897 200.209 6.72461 201.574 6.72461C202.938 6.72461 204.108 7.10897 205.083 8.06989C206.058 9.0308 206.447 10.1839 206.447 11.5292C206.447 12.8744 206.058 14.0275 205.083 14.7963C203.913 15.7572 202.938 16.1415 201.574 16.1415ZM204.498 11.5292C204.498 10.7604 204.303 9.99171 203.718 9.41516C203.133 8.83862 202.549 8.64643 201.574 8.64643C200.794 8.64643 200.014 8.83862 199.429 9.41516C198.845 9.99171 198.65 10.7604 198.65 11.5292C198.65 12.2979 198.845 13.0666 199.429 13.6432C200.014 14.2197 200.599 14.4119 201.574 14.4119C202.354 14.4119 203.133 14.2197 203.718 13.6432C204.108 13.0666 204.498 12.2979 204.498 11.5292Z" fill="#010101"/>
<path d="M211.516 16.1427H208.007V6.91797H211.711C213.075 6.91797 214.245 7.30233 215.025 8.07106C215.805 8.83979 216.195 9.99289 216.195 11.5303C216.195 12.8756 215.805 14.0287 215.025 14.7974C214.05 15.5662 212.88 16.1427 211.516 16.1427ZM209.761 8.64761V14.2209H211.516C212.296 14.2209 212.88 14.0287 213.465 13.4522C214.05 12.8756 214.05 12.2991 214.05 11.3382C214.05 10.5694 213.855 9.80071 213.465 9.41634C213.075 9.03198 212.491 8.64761 211.516 8.64761H209.761Z" fill="#010101"/>
<path d="M69.5959 50.9276H68.4263L66.0869 44.2012H67.6465L69.206 49.0057L70.9606 44.2012H71.9353L73.6898 49.0057L75.2494 44.2012H76.8089L74.4696 50.9276H73.2999L71.3504 46.123L69.5959 50.9276Z" fill="#006090"/>
<path d="M80.3176 50.9276H79.1479L76.8086 44.2012H78.3682L79.9277 49.0057L81.6822 44.2012H82.657L84.4115 49.0057L85.7761 44.2012H87.3357L84.9963 50.9276H83.8266L82.0721 46.123L80.3176 50.9276Z" fill="#006090"/>
<path d="M91.0403 50.9276H89.8706L87.5312 44.2012H89.0908L90.6504 49.0057L92.4049 44.2012H93.3796L95.1341 49.0057L96.6937 44.2012H98.2533L95.9139 50.9276H94.7442L92.7948 46.123L91.0403 50.9276Z" fill="#006090"/>
<path d="M99.0327 51.1195C98.8378 51.1195 98.6428 51.1195 98.4479 50.9273C98.2529 50.7351 98.2529 50.5429 98.2529 50.3508C98.2529 50.1586 98.2529 49.9664 98.4479 49.7742C98.6428 49.582 98.8378 49.582 99.0327 49.582C99.2277 49.582 99.4226 49.582 99.6175 49.7742C99.8125 49.9664 99.8125 50.1586 99.8125 50.3508C99.8125 50.5429 99.8125 50.7351 99.6175 50.9273C99.4226 50.9273 99.2277 51.1195 99.0327 51.1195Z" fill="#006090"/>
<path d="M102.152 43.2406C101.957 43.2406 101.567 43.2406 101.567 43.0484C101.567 42.8562 101.372 42.664 101.372 42.4719C101.372 42.2797 101.372 42.0875 101.567 41.8953C101.762 41.7031 101.957 41.7031 102.152 41.7031C102.347 41.7031 102.542 41.7031 102.737 41.8953C102.932 42.0875 102.932 42.2797 102.932 42.4719C102.932 42.664 102.932 43.0484 102.737 43.0484C102.542 43.0484 102.347 43.2406 102.152 43.2406ZM102.737 44.2015V50.9279H101.372V44.2015H102.737Z" fill="#006090"/>
<path d="M105.856 50.9283H104.491V44.2019H105.856V45.1629C106.051 44.7785 106.441 44.5863 106.636 44.3941C107.026 44.2019 107.415 44.0098 108 44.0098C108.78 44.0098 109.365 44.2019 109.95 44.7785C110.535 45.355 110.729 45.9316 110.729 46.8925V50.9283H109.365V47.2769C109.365 46.7003 109.17 46.1238 108.975 45.9316C108.585 45.5472 108.195 45.355 107.805 45.355C107.22 45.355 106.831 45.5472 106.441 45.9316C106.051 46.316 105.856 46.7003 105.856 47.2769V50.9283Z" fill="#006090"/>
<path d="M117.747 45.1612V41.5098H119.112V50.9267H117.747V49.9658C117.162 50.7345 116.383 51.1189 115.408 51.1189C114.433 51.1189 113.653 50.7345 113.068 50.158C112.484 49.3892 112.094 48.6205 112.094 47.6596C112.094 46.6987 112.484 45.93 113.068 45.1612C113.653 44.3925 114.433 44.2003 115.408 44.2003C116.383 44.0081 117.162 44.3925 117.747 45.1612ZM117.747 47.4674C117.747 46.8909 117.552 46.3143 117.162 45.93C116.772 45.5456 116.188 45.3534 115.603 45.3534C115.018 45.3534 114.433 45.5456 114.043 45.93C113.653 46.3143 113.458 46.8909 113.458 47.4674C113.458 48.044 113.653 48.6205 114.043 49.0049C114.433 49.3892 115.018 49.5814 115.603 49.5814C116.188 49.5814 116.772 49.3892 117.162 49.0049C117.552 48.6205 117.747 48.2362 117.747 47.4674Z" fill="#006090"/>
<path d="M121.646 43.2406C121.451 43.2406 121.061 43.2406 121.061 43.0484C121.061 42.8562 120.866 42.664 120.866 42.4719C120.866 42.2797 120.866 42.0875 121.061 41.8953C121.256 41.7031 121.451 41.7031 121.646 41.7031C121.841 41.7031 122.036 41.7031 122.231 41.8953C122.426 42.0875 122.426 42.2797 122.426 42.4719C122.426 42.664 122.426 43.0484 122.231 43.0484C122.036 43.0484 121.841 43.2406 121.646 43.2406ZM122.231 44.2015V50.9279H120.866V44.2015H122.231Z" fill="#006090"/>
<path d="M129.444 45.1622V44.2013H130.614V50.9277H129.249V49.9668C128.664 50.7355 127.885 51.1199 126.91 51.1199C125.935 51.1199 125.155 50.7355 124.57 50.159C123.986 49.3902 123.596 48.6215 123.596 47.6606C123.596 46.6997 123.986 45.7388 124.57 45.1622C125.155 44.5857 125.935 44.2013 126.91 44.2013C127.885 44.0091 128.664 44.3935 129.444 45.1622ZM127.3 49.7746C127.885 49.7746 128.469 49.5824 128.859 49.1981C129.249 48.8137 129.444 48.2371 129.444 47.6606C129.444 47.0841 129.249 46.5075 128.859 46.1231C128.469 45.7388 127.885 45.5466 127.3 45.5466C126.715 45.5466 126.13 45.7388 125.74 46.1231C125.35 46.5075 125.155 47.0841 125.155 47.6606C125.155 48.2371 125.35 48.8137 125.74 49.1981C126.13 49.5824 126.52 49.7746 127.3 49.7746Z" fill="#006090"/>
<path d="M134.512 51.1205C133.928 51.1205 133.538 50.9283 132.953 50.7361C132.563 50.544 132.173 50.1596 131.783 49.7752L132.758 49.0065C132.953 49.3909 133.148 49.5831 133.538 49.7752C133.928 49.9674 134.123 49.9674 134.512 49.9674C134.902 49.9674 135.097 49.9674 135.292 49.7752C135.487 49.5831 135.682 49.3909 135.682 49.1987C135.682 48.8143 135.487 48.6221 135.097 48.43C134.902 48.43 134.707 48.2378 134.318 48.0456C133.928 47.8534 133.538 47.6612 133.538 47.6612C132.758 47.2769 132.368 46.7003 132.368 45.9316C132.368 45.355 132.563 44.9707 132.953 44.5863C133.343 44.202 133.928 44.0098 134.707 44.0098C135.682 44.0098 136.462 44.3941 136.852 44.9707L136.072 45.7394C135.682 45.1629 135.097 44.9707 134.512 44.9707C134.318 44.9707 133.928 44.9707 133.928 45.1629C133.733 45.355 133.733 45.5472 133.733 45.7394C133.733 46.1238 133.928 46.316 134.318 46.5081L135.097 46.7003C135.487 46.8925 135.877 47.0847 136.072 47.0847C136.852 47.469 137.242 48.0456 137.242 48.8143C137.242 49.3909 137.047 49.9674 136.462 50.3518C135.877 50.7362 135.292 51.1205 134.512 51.1205Z" fill="#006090"/>
<path d="M142.506 49.3896L142.896 50.5427C142.311 50.9271 141.726 51.1193 140.947 51.1193C140.167 51.1193 139.582 50.9271 139.192 50.5427C138.802 50.1584 138.607 49.3896 138.607 48.6209V45.546H137.438V44.2007H138.607V41.8945H139.972V44.2007H142.311V45.3538H139.972V48.4287C139.972 49.1975 140.362 49.774 140.947 49.774C141.531 49.774 141.921 49.5818 142.506 49.3896Z" fill="#006090"/>
<path d="M148.939 45.1622V44.2013H150.303V50.9277H148.939V49.9668C148.354 50.7355 147.574 51.1199 146.599 51.1199C145.625 51.1199 144.845 50.7355 144.26 50.159C143.675 49.3902 143.285 48.6215 143.285 47.6606C143.285 46.6997 143.675 45.7388 144.26 45.1622C144.845 44.5857 145.625 44.2013 146.599 44.2013C147.574 44.0091 148.354 44.3935 148.939 45.1622ZM146.989 49.7746C147.574 49.7746 148.159 49.5824 148.549 49.1981C148.939 48.8137 149.134 48.2371 149.134 47.6606C149.134 47.0841 148.939 46.5075 148.549 46.1231C148.159 45.7388 147.574 45.5466 146.989 45.5466C146.404 45.5466 145.819 45.7388 145.43 46.1231C145.04 46.5075 144.845 47.0841 144.845 47.6606C144.845 48.2371 145.04 48.8137 145.43 49.1981C145.819 49.5824 146.209 49.7746 146.989 49.7746Z" fill="#006090"/>
<path d="M155.372 50.9283C154.398 50.9283 153.423 50.544 152.838 49.9674C152.253 49.3909 151.863 48.43 151.863 47.4691C151.863 46.5081 152.253 45.5472 152.838 44.9707C153.618 44.3941 154.398 44.0098 155.372 44.0098C155.957 44.0098 156.737 44.202 157.322 44.5863C157.907 44.9707 158.296 45.355 158.491 45.9316L157.322 46.5081C157.127 46.1238 156.737 45.9316 156.542 45.7394C156.152 45.5472 155.762 45.355 155.372 45.355C154.787 45.355 154.203 45.5472 153.813 45.9316C153.423 46.316 153.228 46.8925 153.228 47.4691C153.228 48.0456 153.423 48.6221 153.813 49.0065C154.203 49.3909 154.787 49.5831 155.372 49.5831C155.762 49.5831 156.152 49.3909 156.542 49.1987C156.932 49.0065 157.127 48.6221 157.322 48.43L158.491 49.0065C158.296 49.5831 157.712 49.9674 157.127 50.3518C156.542 50.7362 155.957 50.9283 155.372 50.9283Z" fill="#006090"/>
<path d="M165.899 50.9267H164.145L161.611 47.8518L161.026 48.4283V50.9267H159.661V41.5098H161.026V46.8909L163.95 44.3925H165.704L162.585 47.0831L165.899 50.9267Z" fill="#006090"/>
<path d="M167.264 51.1195C167.069 51.1195 166.874 51.1195 166.679 50.9273C166.484 50.7351 166.484 50.5429 166.484 50.3508C166.484 50.1586 166.484 49.9664 166.679 49.7742C166.874 49.582 167.069 49.582 167.264 49.582C167.459 49.582 167.654 49.582 167.849 49.7742C168.044 49.9664 168.044 50.1586 168.044 50.3508C168.044 50.5429 168.044 50.7351 167.849 50.9273C167.849 50.9273 167.654 51.1195 167.264 51.1195Z" fill="#006090"/>
<path d="M174.867 44.9707V44.2019H176.231V50.1596C176.231 51.3127 175.841 52.0814 175.256 52.658C174.672 53.2345 173.697 53.6189 172.527 53.6189C171.358 53.6189 170.383 53.2345 169.408 52.658L169.993 51.6971C170.773 52.2736 171.552 52.4658 172.332 52.4658C173.112 52.4658 173.697 52.2736 174.087 51.8892C174.477 51.5049 174.672 50.9283 174.672 50.3518V49.9674C174.087 50.544 173.307 50.9283 172.332 50.9283C171.358 50.9283 170.578 50.544 169.798 49.9674C169.213 49.3909 168.823 48.43 168.823 47.4691C168.823 46.5081 169.213 45.7394 169.798 44.9707C170.383 44.3941 171.358 44.0098 172.332 44.0098C173.502 44.0098 174.282 44.3941 174.867 44.9707ZM172.722 49.5831C173.307 49.5831 173.892 49.3909 174.282 49.0065C174.672 48.6221 174.867 48.0456 174.867 47.4691C174.867 46.8925 174.672 46.316 174.282 45.9316C173.892 45.5472 173.307 45.355 172.722 45.355C172.137 45.355 171.552 45.5472 171.163 45.9316C170.773 46.316 170.578 46.8925 170.578 47.4691C170.578 48.0456 170.773 48.6221 171.163 49.0065C171.552 49.3909 172.137 49.5831 172.722 49.5831Z" fill="#006090"/>
<path d="M179.35 41.5098V50.9267H177.985V41.5098H179.35Z" fill="#006090"/>
<path d="M180.715 47.4691C180.715 46.5081 181.105 45.7394 181.69 44.9707C182.274 44.2019 183.249 44.0098 184.224 44.0098C185.199 44.0098 186.173 44.3941 186.758 44.9707C187.343 45.7394 187.733 46.5081 187.733 47.4691C187.733 48.43 187.343 49.3909 186.758 49.9674C186.173 50.7361 185.199 50.9283 184.224 50.9283C183.249 50.9283 182.274 50.544 181.69 49.9674C181.105 49.3909 180.715 48.43 180.715 47.4691ZM186.563 47.4691C186.563 46.8925 186.368 46.316 185.978 45.9316C185.588 45.5472 185.004 45.355 184.419 45.355C183.834 45.355 183.249 45.5472 182.859 45.9316C182.469 46.316 182.274 46.8925 182.274 47.4691C182.274 48.0456 182.469 48.6221 182.859 49.0065C183.249 49.3909 183.834 49.5831 184.419 49.5831C185.004 49.5831 185.588 49.3909 185.978 49.0065C186.368 48.6221 186.563 48.0456 186.563 47.4691Z" fill="#006090"/>
<path d="M192.997 44.0089C193.972 44.0089 194.751 44.3933 195.336 44.9698C195.921 45.7386 196.311 46.5073 196.311 47.4682C196.311 48.4291 195.921 49.1978 195.336 49.9666C194.751 50.5431 193.972 50.9275 192.997 50.9275C192.022 50.9275 191.242 50.5431 190.658 49.7744V50.7353H189.293V41.3184H190.658V44.9698C191.242 44.3933 192.022 44.0089 192.997 44.0089ZM192.802 49.7744C193.387 49.7744 193.972 49.5822 194.362 49.1978C194.751 48.8135 194.946 48.2369 194.946 47.6604C194.946 47.0838 194.751 46.5073 194.362 46.1229C193.972 45.7386 193.387 45.5464 192.802 45.5464C192.217 45.5464 191.632 45.7386 191.242 46.1229C190.853 46.5073 190.658 47.0838 190.658 47.6604C190.658 48.2369 190.853 48.8135 191.242 49.1978C191.632 49.5822 192.022 49.7744 192.802 49.7744Z" fill="#006090"/>
<path d="M202.939 45.1622V44.2013H204.303V50.9277H202.939V49.9668C202.354 50.7355 201.574 51.1199 200.599 51.1199C199.625 51.1199 198.845 50.7355 198.26 50.159C197.675 49.3902 197.285 48.6215 197.285 47.6606C197.285 46.6997 197.675 45.7388 198.26 45.1622C198.845 44.5857 199.625 44.2013 200.599 44.2013C201.574 44.0091 202.354 44.3935 202.939 45.1622ZM200.989 49.7746C201.574 49.7746 202.159 49.5824 202.549 49.1981C202.939 48.8137 203.134 48.2371 203.134 47.6606C203.134 47.0841 202.939 46.5075 202.549 46.1231C202.159 45.7388 201.574 45.5466 200.989 45.5466C200.404 45.5466 199.819 45.7388 199.43 46.1231C199.04 46.5075 198.845 47.0841 198.845 47.6606C198.845 48.2371 199.04 48.8137 199.43 49.1981C199.819 49.5824 200.209 49.7746 200.989 49.7746Z" fill="#006090"/>
<path d="M207.618 41.5098V50.9267H206.253V41.5098H207.618Z" fill="#006090"/>
<path d="M148.744 35.938C147.769 35.938 146.599 35.938 145.624 35.938C145.429 35.938 145.429 35.7458 145.234 35.7458C144.65 34.7849 144.065 34.0161 143.48 33.0552C143.48 32.8631 143.285 32.8631 143.285 32.6709C142.895 33.0552 142.7 33.4396 142.7 34.0161C142.7 34.5927 142.7 35.1692 142.7 35.7458C142.7 35.938 142.7 36.1302 142.31 36.1302C141.531 36.1302 140.751 36.1302 139.971 36.1302C139.776 36.1302 139.581 36.1302 139.581 35.7458C139.581 34.4005 139.581 33.0552 139.581 31.71C139.581 29.4038 139.581 26.9054 139.581 24.5992C139.581 24.2148 139.581 24.2148 139.971 24.2148C140.751 24.2148 141.336 24.2148 142.115 24.2148C142.31 24.2148 142.505 24.2148 142.505 24.5992C142.505 26.3288 142.505 28.2507 142.505 29.9803C142.505 30.1725 142.505 30.1725 142.505 30.3647C142.7 30.3647 142.7 30.3647 142.7 30.1725C143.48 29.2116 144.065 28.4429 144.845 27.4819C144.845 27.2898 145.04 27.2898 145.234 27.2898C146.209 27.2898 147.184 27.2898 148.159 27.2898C148.159 27.4819 147.964 27.4819 147.964 27.6741C146.989 28.8272 146.209 29.7881 145.234 30.9412C145.04 31.1334 145.04 31.3256 145.234 31.5178C146.209 33.0552 147.184 34.4005 148.159 35.938C148.744 35.5536 148.744 35.7458 148.744 35.938Z" fill="#0A6EB5"/>
<path d="M105.465 33.054C105.855 33.054 106.245 33.054 106.635 33.054C106.83 33.054 106.83 33.054 107.025 33.2461C107.415 34.0149 108.779 34.3992 109.364 33.8227C109.754 33.6305 109.754 33.054 109.364 32.8618C109.169 32.6696 108.779 32.6696 108.389 32.4774C107.61 32.2852 107.025 32.2852 106.245 32.093C104.49 31.5165 103.711 29.979 104.49 28.4416C104.88 27.865 105.465 27.4807 106.05 27.0963C107.415 26.7119 108.779 26.5198 110.339 27.0963C111.314 27.4807 112.093 28.2494 112.288 29.4025C112.288 29.5947 112.288 29.7869 112.093 29.7869C111.509 29.7869 110.729 29.7869 110.144 29.7869C109.949 29.7869 109.754 29.7869 109.754 29.5947C109.364 28.8259 107.999 28.6338 107.415 29.2103C107.22 29.4025 107.22 29.7869 107.61 30.1712C107.805 30.3634 108.194 30.3634 108.389 30.3634C109.169 30.5556 109.949 30.5556 110.729 30.9399C111.509 31.1321 112.288 31.5165 112.483 32.4774C112.873 33.4383 112.483 34.5914 111.703 35.168C110.729 36.1289 109.364 36.3211 108 36.3211C107.22 36.3211 106.44 36.1289 105.66 35.7445C104.88 35.3601 104.296 34.5914 104.101 33.6305C104.101 33.4383 104.101 33.2461 104.296 33.2461C104.685 33.2461 105.075 33.054 105.465 33.054Z" fill="#0A6EB5"/>
<path d="M137.242 30.5565C137.047 30.5565 137.047 30.5565 136.852 30.5565C136.267 30.5565 135.878 30.5565 135.683 29.9799C135.488 29.4034 135.098 29.2112 134.513 29.2112C133.928 29.2112 133.538 29.4034 133.148 29.7878C132.564 30.5565 132.564 31.3252 132.758 32.2861C132.758 32.6705 132.953 33.0549 133.148 33.247C133.538 33.8236 133.928 34.0158 134.708 34.0158C135.293 34.0158 135.683 33.6314 135.878 33.0549C135.878 32.6705 136.073 32.6705 136.462 32.6705C137.047 32.6705 137.632 32.6705 138.412 32.6705C138.802 32.6705 138.802 32.8627 138.802 33.0549C138.607 34.5923 137.632 35.7454 136.073 36.1298C134.513 36.5141 132.953 36.322 131.784 35.361C130.809 34.5923 130.419 33.6314 130.224 32.4783C130.029 31.133 130.224 29.5956 131.199 28.6347C132.174 27.4816 133.538 27.0972 135.098 27.2894C136.268 27.2894 137.437 27.8659 138.217 28.8268C138.607 29.4034 138.802 29.9799 138.802 30.5565C138.802 30.7487 138.802 30.9408 138.607 30.9408C137.827 30.5565 137.437 30.5565 137.242 30.5565Z" fill="#0A6EB5"/>
<path d="M72.5194 28.4427C72.9093 27.674 73.4941 27.0974 74.4689 26.9053C76.6133 26.5209 78.1728 27.674 78.3678 29.788C78.3678 31.7098 78.3678 33.6317 78.3678 35.5535C78.3678 35.7457 78.3678 35.7457 78.1728 35.7457C77.588 35.7457 77.1981 35.7457 76.6133 35.7457C76.4183 35.7457 76.2234 35.7457 76.2234 35.3613C76.2234 33.8238 76.2234 32.0942 76.2234 30.5567C76.2234 30.3645 76.2234 30.1724 76.2234 30.1724C76.0284 29.2115 75.4436 28.6349 74.4689 28.6349C73.4941 28.6349 72.7144 29.2115 72.5194 30.1724C72.5194 30.3646 72.5194 30.7489 72.5194 30.9411C72.5194 32.4786 72.5194 34.016 72.5194 35.5535C72.5194 35.9378 72.5194 35.9378 72.1295 35.9378C71.7396 35.9378 71.1548 35.9378 70.57 35.9378C70.375 35.9378 70.375 35.9378 70.375 35.7457C70.375 33.0551 70.375 30.1724 70.375 27.4818C70.375 27.2896 70.375 27.0975 70.57 27.0975C71.1548 27.0975 71.5447 27.0975 72.1295 27.0975C72.3245 27.0975 72.3245 27.0974 72.3245 27.2896C72.5194 27.674 72.5194 28.0584 72.5194 28.4427Z" fill="#0A6EB5"/>
<path d="M115.992 24.7898C116.382 24.7898 116.772 24.7898 117.162 24.7898C117.357 24.7898 117.552 24.7898 117.357 24.982C117.357 25.5586 117.357 25.9429 117.357 26.5195C117.357 26.7117 117.357 26.9038 117.747 26.9038C118.137 26.9038 118.527 26.9038 118.722 26.9038C118.916 26.9038 118.916 26.9038 118.916 27.096C118.916 27.6726 118.916 28.0569 118.916 28.6335C118.916 28.8257 118.916 28.8257 118.722 28.8257C118.332 28.8257 117.942 28.8257 117.747 28.8257C117.552 28.8257 117.552 28.8257 117.552 29.0179C117.552 30.1709 117.552 31.5162 117.552 32.6693C117.552 33.2459 117.747 33.438 118.527 33.2459C118.916 33.2459 119.111 33.438 119.111 33.6302C119.111 34.0146 119.306 34.5911 119.306 34.9755C119.306 35.1677 119.306 35.1677 119.111 35.1677C118.137 35.3599 117.162 35.5521 116.187 35.1677C115.213 34.7833 114.628 34.0146 114.628 33.0537C114.628 31.7084 114.628 30.3631 114.628 28.8257C114.628 28.4413 114.628 28.4413 114.238 28.4413C113.458 28.4413 113.458 28.4413 113.458 27.6726C113.458 27.2882 113.458 26.9038 113.458 26.7117C113.458 26.5195 113.458 26.3273 113.653 26.5195C113.653 26.5195 113.653 26.5195 113.848 26.5195C114.628 26.5195 114.628 26.5195 114.628 25.7507C114.628 25.3664 114.628 24.982 114.628 24.7898C114.628 24.5977 114.628 24.5977 114.823 24.5977C115.213 24.982 115.602 24.7898 115.992 24.7898Z" fill="#0A6EB5"/>
<path d="M167.459 29.9791C167.459 31.901 167.459 33.6306 167.459 35.5524C167.459 35.9368 167.264 35.9368 167.069 35.9368C166.679 35.9368 166.094 35.9368 165.704 35.9368C165.314 35.9368 165.314 35.7446 165.314 35.5524C165.314 32.8619 165.314 30.1713 165.314 27.4808C165.314 26.5199 165.314 25.5589 165.314 24.4058C165.314 24.2137 165.314 24.0215 165.704 24.0215C166.289 24.0215 166.679 24.0215 167.264 24.0215C167.459 24.0215 167.654 24.0215 167.654 24.4058C167.459 26.1355 167.459 28.0573 167.459 29.9791Z" fill="#0A6EB5"/>
<path d="M201.574 29.9791C201.574 31.901 201.574 33.6306 201.574 35.5524C201.574 35.9368 201.574 35.9368 201.184 35.9368C200.794 35.9368 200.209 35.9368 199.82 35.9368C199.43 35.9368 199.43 35.9368 199.43 35.5524C199.43 32.6697 199.43 29.787 199.43 26.9042C199.43 26.1355 199.43 25.1746 199.43 24.4058C199.43 24.2137 199.43 24.0215 199.82 24.0215C200.404 24.0215 200.794 24.0215 201.379 24.0215C201.574 24.0215 201.769 24.0215 201.769 24.4058C201.574 26.3277 201.574 28.0573 201.574 29.9791Z" fill="#0A6EB5"/>
<path d="M68.231 31.5171C68.231 32.8624 68.231 34.2076 68.231 35.5529C68.231 35.7451 68.231 35.9373 67.8411 35.9373C67.2562 35.9373 66.8663 35.9373 66.2815 35.9373C66.0865 35.9373 65.8916 35.9373 65.8916 35.7451C65.8916 33.0545 65.8916 30.1718 65.8916 27.4812C65.8916 27.2891 65.8916 27.2891 66.2815 27.2891C66.8663 27.2891 67.2562 27.2891 67.8411 27.2891C68.036 27.2891 68.231 27.2891 68.231 27.6734C68.231 28.6343 68.231 30.1718 68.231 31.5171Z" fill="#0A6EB5"/>
<path d="M92.9891 31.5171C92.9891 32.8624 92.9891 34.2076 92.9891 35.5529C92.9891 35.7451 92.9891 35.9373 92.5992 35.9373C92.0144 35.9373 91.6245 35.9373 91.0397 35.9373C90.8447 35.9373 90.8447 35.9373 90.8447 35.7451C90.8447 33.0545 90.8447 30.1718 90.8447 27.4812C90.8447 27.2891 90.8447 27.2891 91.0397 27.2891C91.6245 27.2891 92.0144 27.2891 92.5992 27.2891C92.7942 27.2891 92.9891 27.4812 92.9891 27.6734C92.9891 28.6343 92.9891 29.9796 92.9891 31.5171Z" fill="#0A6EB5"/>
<path d="M151.473 33.0547C152.252 33.0547 153.032 33.8234 153.032 34.5921C153.032 35.3609 152.252 36.1296 151.473 36.1296C150.693 36.1296 149.913 35.5531 149.913 34.5921C149.913 33.6312 150.498 33.0547 151.473 33.0547Z" fill="#0A6EB5"/>
<path d="M92.0144 25.7515C91.2346 25.7515 90.8447 25.175 90.8447 24.5984C90.8447 24.0219 91.4296 23.4453 92.0144 23.4453C92.7942 23.4453 93.1841 24.0219 93.1841 24.5984C93.1841 25.175 92.5992 25.7515 92.0144 25.7515Z" fill="#056DB6"/>
<path d="M67.2566 25.7515C66.4768 25.7515 66.0869 25.175 66.0869 24.5984C66.0869 24.0219 66.6717 23.4453 67.2566 23.4453C68.0364 23.4453 68.4263 24.0219 68.4263 24.5984C68.4263 25.175 68.0364 25.7515 67.2566 25.7515Z" fill="#056DB6"/>
<path d="M163.169 35.9371C163.169 34.784 163.169 33.6309 163.169 32.4778C163.169 30.7482 163.169 29.0185 163.169 27.2889C163.169 27.0967 163.169 26.9045 162.78 26.9045C162.39 26.9045 161.805 26.9045 161.415 26.9045C161.025 26.9045 161.025 26.9045 161.025 27.2889C161.025 27.6732 161.025 28.0576 161.025 28.2498C160.83 28.2498 160.83 28.2498 160.83 28.0576C160.44 27.4811 159.855 26.9045 159.076 26.7123C157.711 26.328 156.346 26.9045 155.372 28.0576C154.787 28.8263 154.592 29.5951 154.592 30.3638C154.397 31.7091 154.592 32.8622 155.372 34.0153C156.541 35.7449 159.855 36.1293 160.83 34.2074C160.83 34.2074 160.83 34.2075 160.83 34.0153C160.83 34.0153 160.83 34.0153 161.025 34.0153C161.025 34.784 161.025 35.5527 161.025 36.1293C161.025 36.5136 160.83 36.7058 160.44 36.898C159.66 37.4746 157.711 37.6667 156.931 36.3215C156.736 36.1293 156.736 36.1293 156.541 36.1293C156.151 36.3215 155.567 36.3215 155.177 36.5136C154.982 36.5136 154.982 36.7058 154.982 36.898C155.372 37.6667 155.761 38.0511 156.541 38.4355C157.906 39.012 159.076 39.012 160.44 38.6276C162 38.8198 163.169 37.8589 163.169 35.9371ZM160.635 33.0544C160.245 33.8231 159.66 34.0153 158.881 34.0153C158.101 34.0153 157.516 33.6309 157.126 33.0544C156.736 32.4778 156.736 31.9013 156.736 31.3247C156.736 30.7482 156.931 30.1716 157.126 29.5951C157.516 29.0185 158.101 28.6342 158.881 28.6342C159.66 28.6342 160.245 28.8263 160.635 29.5951C161.22 30.7482 161.22 31.9013 160.635 33.0544Z" fill="#0A6EB5"/>
<path d="M188.123 30.3643C187.928 29.4034 187.538 28.6346 186.953 27.8659C185.784 26.7128 183.054 26.3284 182.08 28.2503C182.08 28.2503 182.08 28.4425 181.885 28.2503C181.885 28.0581 181.885 28.0581 181.885 27.8659C181.885 26.7128 181.885 25.5597 181.885 24.2144C181.885 24.0223 181.885 23.8301 181.495 23.8301C181.105 23.8301 180.52 23.8301 180.13 23.8301C179.74 23.8301 179.74 23.8301 179.74 24.2144C179.74 26.905 179.74 29.5955 179.74 32.2861C179.74 33.247 179.74 34.2079 179.74 35.1688C179.74 35.5532 179.935 35.5532 180.13 35.5532C180.52 35.5532 181.105 35.5532 181.495 35.5532C181.69 35.5532 181.885 35.5532 181.885 35.1688C181.885 34.7845 181.885 34.4001 181.885 34.2079C181.885 34.4001 182.08 34.4001 182.08 34.5923C182.469 35.1688 183.054 35.5532 183.639 35.7454C185.199 36.1298 186.758 35.5532 187.538 34.2079C188.318 33.0548 188.318 31.7096 188.123 30.3643ZM185.589 33.247C185.199 34.0157 184.614 34.4001 183.834 34.4001C183.054 34.4001 182.469 34.0157 182.08 33.247C181.885 32.6705 181.69 32.0939 181.69 31.7096C181.69 31.133 181.69 30.5565 182.08 29.9799C182.469 29.2112 183.054 28.8268 183.834 28.8268C184.614 28.8268 185.199 29.2112 185.589 29.9799C186.173 30.9408 186.173 32.0939 185.589 33.247Z" fill="#0A6EB5"/>
<path d="M128.469 29.7867C128.469 28.6336 127.884 27.8649 126.909 27.2883C125.545 26.7118 123.985 26.5196 122.425 27.0962C121.451 27.4805 120.671 28.2493 120.476 29.2102C120.476 29.4024 120.476 29.5945 120.671 29.5945C121.451 29.5945 122.036 29.5945 122.815 29.5945C123.01 29.5945 123.01 29.5945 123.01 29.4024C123.205 28.8258 123.985 28.6336 124.57 28.6336C125.155 28.6336 125.35 29.018 125.545 29.4024C125.545 29.7867 125.35 29.9789 124.765 30.1711C123.985 30.3633 123.4 30.3633 122.62 30.3633C120.866 30.7476 119.891 31.7085 120.086 33.4382C120.086 34.3991 120.671 34.9756 121.451 35.36C123.01 35.9366 124.57 35.5522 125.545 34.3991C125.545 34.3991 125.545 34.3991 125.74 34.3991C125.74 34.7835 125.74 34.9756 125.74 35.36C125.74 35.5522 125.74 35.7444 125.934 35.7444C126.714 35.7444 127.299 35.7444 128.079 35.7444C128.274 35.7444 128.274 35.7444 128.274 35.36C128.469 33.6304 128.469 31.7085 128.469 29.7867ZM125.545 32.2851C125.545 33.6304 124.57 34.3991 123.4 34.2069C123.01 34.0147 122.815 33.8225 122.62 33.4382C122.62 33.0538 122.815 32.6695 123.01 32.4773C123.4 32.2851 123.595 32.2851 123.985 32.2851C124.375 32.2851 124.765 32.0929 124.96 32.0929C125.545 31.9007 125.545 32.0929 125.545 32.2851Z" fill="#0A6EB5"/>
<path d="M88.7002 30.9401C88.7002 28.826 88.7002 26.712 88.7002 24.4058C88.7002 24.2137 88.7002 24.0215 88.3103 24.0215C87.7254 24.0215 87.3355 24.0215 86.7507 24.0215C86.5558 24.0215 86.3608 24.0215 86.3608 24.4058C86.3608 25.5589 86.3608 26.5199 86.3608 27.6729C86.3608 27.8651 86.3608 28.2495 86.3608 28.4417L86.1659 28.2495C85.776 27.6729 85.1911 27.0964 84.4113 27.0964C82.8518 26.712 81.2922 27.4808 80.5124 28.826C79.9276 29.9791 79.7327 31.1322 79.9276 32.2853C79.9276 33.2462 80.3175 34.2072 81.0973 34.9759C82.2669 36.3212 85.1911 36.7055 86.1659 34.5915C86.1659 34.5915 86.1659 34.3993 86.3608 34.5915C86.3608 34.9759 86.3608 35.3602 86.3608 35.7446C86.3608 35.9368 86.3608 36.129 86.5558 35.9368C87.1406 35.9368 87.5305 35.9368 88.1153 35.9368C88.3103 35.9368 88.5052 35.9368 88.5052 35.5524C88.7002 34.015 88.7002 32.4775 88.7002 30.9401ZM86.1659 33.2462C85.776 33.8228 85.1911 34.2072 84.4113 34.2072C83.6316 34.2072 83.0467 33.8228 82.6568 33.2462C82.267 32.6697 82.2669 32.0931 82.2669 31.3244C82.2669 30.7479 82.267 29.9791 82.6568 29.4026C83.0467 28.6339 83.6316 28.4417 84.4113 28.4417C85.1911 28.4417 85.776 28.826 86.1659 29.5948C86.7507 30.9401 86.7507 32.0931 86.1659 33.2462Z" fill="#0A6EB5"/>
<path d="M197.285 29.5945C197.285 28.6336 196.7 27.8648 195.92 27.2883C194.556 26.5195 192.996 26.7117 191.631 27.2883C190.852 27.6726 190.462 28.2492 190.072 29.0179C190.072 29.2101 190.072 29.4023 190.267 29.4023C190.657 29.4023 191.242 29.5945 191.631 29.5945C191.826 29.5945 191.826 29.5945 192.021 29.4023C192.606 28.6336 193.191 28.2492 194.166 28.4414C194.946 28.6336 195.14 29.0179 195.335 29.7866C195.335 30.171 195.14 30.3632 194.946 30.3632C194.556 30.5554 194.166 30.5554 193.971 30.5554C192.996 30.7476 192.021 30.7476 191.242 31.1319C190.267 31.5163 189.877 32.285 189.877 33.4381C189.877 34.5912 190.267 35.3599 191.437 35.7443C192.996 36.513 194.556 36.1287 195.725 34.5912C195.725 34.9756 195.725 35.3599 195.725 35.5521C195.725 35.7443 195.725 35.7443 195.92 35.7443C196.505 35.7443 196.895 35.7443 197.48 35.7443C197.675 35.7443 197.675 35.7443 197.675 35.5521C197.285 33.6303 197.48 31.5163 197.285 29.5945ZM195.14 33.0538C195.14 33.6303 194.751 34.0147 194.166 34.399C193.581 34.5912 192.996 34.5912 192.411 34.399C191.826 34.2068 191.631 33.8225 191.631 33.4381C191.631 33.0537 191.826 32.6694 192.411 32.4772C192.606 32.4772 192.801 32.285 192.996 32.285C193.776 32.0928 194.556 32.0928 195.14 31.9007C195.14 32.0928 195.335 32.6694 195.14 33.0538Z" fill="#0A6EB5"/>
<path d="M102.541 29.5945C102.541 28.6336 101.956 27.8648 101.177 27.2883C99.8119 26.5195 98.2523 26.7117 96.8877 27.2883C96.1079 27.6726 95.718 28.2492 95.3281 29.0179C95.3281 29.2101 95.3281 29.2101 95.5231 29.4023C96.1079 29.4023 96.4978 29.5945 97.0826 29.5945C97.2776 29.5945 97.2776 29.5945 97.4725 29.4023C98.0574 28.6336 98.6422 28.2492 99.6169 28.4414C100.397 28.6336 100.592 29.0179 100.787 29.7866C100.787 30.171 100.592 30.3632 100.397 30.3632C100.007 30.5554 99.6169 30.5554 99.422 30.5554C98.4473 30.7476 97.4725 30.7476 96.6927 31.1319C95.718 31.5163 95.3281 32.285 95.3281 33.4381C95.3281 34.5912 95.718 35.3599 96.8877 35.7443C98.4473 36.513 100.007 36.1287 101.177 34.5912C101.177 34.9756 101.177 35.1678 101.177 35.5521C101.177 35.7443 101.176 35.7443 101.371 35.7443C101.956 35.7443 102.346 35.7443 102.931 35.7443C103.126 35.7443 103.126 35.7443 103.126 35.5521C102.541 33.6303 102.541 31.5163 102.541 29.5945ZM100.397 33.0538C100.397 33.6303 100.007 34.0147 99.422 34.399C98.8371 34.5912 98.2523 34.7834 97.6675 34.5912C97.0826 34.399 96.8877 34.0147 96.8877 33.6303C96.8877 33.2459 97.0826 32.8616 97.6675 32.6694C97.8624 32.6694 98.0574 32.4772 98.2523 32.4772C99.0321 32.285 99.8119 32.285 100.397 32.0928C100.397 32.0928 100.397 32.6694 100.397 33.0538Z" fill="#0A6EB5"/>
<path d="M177.79 30.7491C177.596 28.443 176.231 27.0977 173.892 26.9055C171.747 26.7133 169.993 27.8664 169.408 29.9804C169.213 30.7491 169.213 31.3257 169.213 32.0944C169.408 34.4006 171.162 36.1303 173.502 36.1303C175.256 36.1303 176.621 35.3615 177.401 33.8241C177.791 32.8632 177.985 31.7101 177.79 30.7491ZM175.256 33.2475C174.866 34.0162 174.281 34.4006 173.502 34.4006C172.722 34.4006 172.137 34.0162 171.747 33.2475C171.162 32.0944 171.162 30.7491 171.747 29.5961C172.137 28.8273 172.722 28.443 173.502 28.443C174.281 28.443 174.866 28.8273 175.256 29.5961C175.451 30.1726 175.646 30.7491 175.646 31.3257C175.646 32.0944 175.646 32.671 175.256 33.2475Z" fill="#0A6EB5"/>
<path d="M36.26 37.284C36.8448 36.7075 37.2347 35.7466 37.8195 34.9778C39.1842 32.2873 39.9639 29.5967 39.9639 26.714C39.769 20.9485 35.6751 16.9127 29.8268 16.5283C27.0975 16.3362 24.5632 17.1049 22.0289 18.258C22.0289 18.258 21.834 18.258 21.834 18.4502C23.9784 15.1831 26.7076 12.6847 30.8015 11.916C37.6246 10.5707 44.0578 14.6065 45.6174 21.3329C46.5921 25.7531 45.8123 29.7889 43.8629 33.8248C40.3538 40.7433 34.7004 44.9713 27.0975 46.701C26.9026 46.701 26.7076 46.701 26.7076 46.701C26.7076 46.701 26.7076 46.701 26.7076 46.5088C26.7076 46.3166 26.9026 46.3166 27.0975 46.1244C30.8015 44.587 33.5307 41.8964 35.6751 38.6293C35.8701 38.2449 36.065 37.8606 36.26 37.6684C36.065 37.284 36.065 37.284 36.26 37.284Z" fill="#EE6128"/>
<path d="M36.2602 37.2827C34.5057 40.5498 32.1663 43.2403 29.0472 45.3543C28.2674 45.9309 27.2927 46.3152 26.5129 46.5074C26.5129 46.6996 26.318 46.6996 26.123 46.6996C23.3938 47.4683 20.8595 47.6605 18.3252 46.123C18.5201 45.9309 18.7151 45.9309 18.91 45.9309C19.4949 46.123 20.2747 46.3152 20.8595 46.3152C24.1736 46.3152 26.7079 44.97 28.8523 42.6638C31.1916 40.1654 32.7512 37.0905 33.336 33.8234C33.531 32.2859 33.531 30.7485 32.9461 29.211C31.9714 26.9048 30.0219 25.5595 27.6826 24.983C24.9534 24.2143 22.4191 24.7908 19.8848 25.7517C19.6898 25.9439 19.2999 25.9439 19.105 26.1361C18.91 26.3283 18.7151 26.3283 18.3252 26.5204C18.3252 26.3283 18.3252 26.3283 18.3252 26.3283C20.2747 22.869 23.0039 20.5628 27.0978 20.1784C31.7765 19.6019 37.2349 22.1002 38.0147 28.0579C38.4046 30.3641 38.0147 32.8625 37.2349 34.9765C37.04 35.7452 36.6501 36.5139 36.2602 37.2827Z" fill="#09A14A"/>
<path d="M20.8592 46.5086C20.0794 46.5086 19.1047 46.3164 18.3249 46.1242C16.1805 45.3555 15.4007 43.4337 15.2058 41.3197C15.0108 38.8213 15.5956 36.5151 16.3754 34.2089C16.5704 33.6324 16.7653 33.248 16.9603 32.6715C16.9603 32.4793 17.1552 32.2871 17.5451 32.2871C18.9097 32.2871 20.2743 32.2871 21.8339 32.2871C22.2238 32.2871 22.2238 32.4793 22.2238 32.6715C21.2491 34.9777 20.4693 37.0917 19.8845 39.3979C19.4946 40.7431 19.2996 42.0884 19.2996 43.4337C19.2996 43.8181 19.2996 44.2024 19.4946 44.5868C19.2996 45.5477 19.8845 46.1242 20.8592 46.5086Z" fill="#0A6EB5"/>
<path d="M22.2236 29.2113L22.0286 29.4035C21.8337 29.4035 21.8337 29.4035 21.8337 29.4035C20.2741 28.2504 19.1045 28.2504 17.5449 29.4035C17.3499 29.5957 17.155 29.4035 17.155 29.4035C16.9601 29.2113 17.155 29.2113 17.155 29.0191C18.5196 27.866 20.859 27.866 22.2236 29.0191C22.2236 29.0191 22.2236 29.0191 22.2236 29.2113Z" fill="#026DB4"/>
<path d="M21.6392 29.7886L21.4443 29.9808C21.2494 30.173 21.2494 29.9808 21.2494 29.9808C20.2746 29.2121 19.2999 29.2121 18.3252 29.9808C18.1302 30.173 17.9353 29.9808 17.9353 29.7886C17.7403 29.5965 17.7403 29.5965 17.9353 29.4043C18.91 28.4434 20.6645 28.4434 21.6392 29.4043C21.4443 29.5965 21.6392 29.7886 21.6392 29.7886Z" fill="#026DB4"/>
<path d="M20.8592 30.557C20.6643 30.557 20.6643 30.9414 20.2744 30.7492C19.6895 30.3648 19.1047 30.3648 18.7148 30.7492C18.5199 30.9414 18.3249 30.7492 18.3249 30.557C18.13 30.3648 18.3249 30.3648 18.3249 30.1726C18.9098 29.5961 20.0794 29.5961 20.6643 30.1726C20.8592 30.3648 20.8592 30.3648 20.8592 30.557Z" fill="#016CB3"/>
<path d="M19.6893 30.75C19.8843 30.75 20.2742 30.75 20.2742 31.1344L19.6893 31.7109C19.4944 31.5187 19.1045 31.3265 19.1045 31.1344C19.1045 30.75 19.4944 30.9422 19.6893 30.75Z" fill="#026CB3"/>
<path d="M44.4473 35.7456C44.6431 35.5534 44.6431 35.7456 44.4473 35.7456C44.6431 35.7456 44.6431 35.7456 44.4473 35.7456Z" fill="#0A6EB5"/>
<path d="M58.2887 26.3289C57.5089 19.2181 54.5847 13.0683 49.3212 8.07155C46.0071 4.99663 42.3031 2.69044 38.0143 1.34517C33.1407 -0.192293 28.267 -0.384476 23.3934 0.768619C18.1298 1.72953 13.2562 3.84354 9.55222 7.68719C2.14427 14.9901 -1.16981 23.8305 0.584706 34.2084C2.14427 44.2018 7.60276 51.5048 16.7652 56.1172C20.6641 58.039 24.758 58.9999 29.4367 58.9999C30.2165 58.9999 31.1912 58.9999 32.1659 58.8077C38.989 58.2312 44.6425 55.5406 49.5161 50.736C56.3392 44.0097 59.0685 35.7458 58.2887 26.3289ZM55.3645 18.065C56.3392 20.3712 56.9241 22.6774 57.314 25.1758C57.314 25.5602 57.3139 25.7523 57.119 25.9445C55.9493 26.7132 54.7797 27.482 53.415 27.8663C53.2201 26.7132 53.2201 25.7523 53.0251 24.5992C52.8302 23.254 52.4403 21.9087 52.2454 20.3712C52.2454 19.9869 52.2454 19.7947 52.6353 19.4103C53.415 18.8338 54.1948 18.2572 54.9746 17.6807C55.1695 17.8729 55.3645 17.8729 55.3645 18.065ZM51.0757 10.9543C52.4403 12.6839 53.61 14.6058 54.7797 16.7198C54.7797 16.7198 54.7797 16.9119 54.9746 16.9119C54.7797 17.1041 54.5847 17.2963 54.5847 17.2963C53.8049 18.065 53.0251 18.6416 52.2454 19.0259C52.0504 19.2181 51.8555 19.0259 51.8555 18.8338C51.0757 16.5276 50.101 14.4136 48.7363 12.4917C48.5414 12.2996 48.5414 12.1074 48.7363 12.1074C49.3212 11.723 50.101 11.1465 50.6858 10.7621C50.6858 10.7621 50.8807 10.7621 51.0757 10.9543ZM42.3031 4.03572C45.2273 5.57318 47.7616 7.495 49.906 9.99337L50.101 10.1856C50.101 10.3777 50.101 10.3777 49.906 10.3777C49.3212 10.7621 48.5414 11.3387 47.9566 11.723C47.7616 11.9152 47.5667 11.723 47.5667 11.5308C46.0071 9.60901 44.2526 7.87937 42.3031 6.34191C41.7183 5.76536 40.9385 5.18881 39.9638 4.80445C39.7688 4.61227 39.7688 4.61227 39.9638 4.42008C41.1334 3.26699 41.1334 3.26699 42.3031 4.03572ZM40.3537 3.07481C39.9638 3.45917 39.5739 3.65135 39.184 4.03572C38.989 4.03572 38.7941 4.03572 38.7941 4.03572C36.4547 2.88263 34.1154 1.72953 31.5811 1.15298C31.5811 1.15298 31.5811 1.15298 31.3862 0.960801C33.3356 0.768619 38.4042 2.1139 40.3537 3.07481ZM38.2093 4.42008C38.2093 4.61227 38.0143 4.61227 38.0143 4.61227C37.2345 4.99663 36.6497 4.99663 36.0649 4.42008C35.2851 3.65135 34.5053 3.07481 33.7255 2.49826C33.7255 2.49826 33.7255 2.49826 33.7255 2.30608C34.1154 2.49826 34.3103 2.49826 34.7002 2.69044C35.8699 3.26699 36.8446 3.65136 38.0143 4.2279C38.0143 4.2279 38.0143 4.2279 38.2093 4.42008ZM35.8699 5.381C35.0901 5.57318 34.1154 5.76536 33.3356 5.95754C33.1407 5.95754 32.9457 5.95754 32.9457 5.76536C32.1659 4.42008 31.3862 3.07481 30.4114 1.92171C32.3609 2.69044 34.3103 3.84354 35.8699 5.381ZM28.462 1.34517C29.6316 2.1139 30.6064 3.26699 31.3862 4.42008C31.776 4.80445 31.971 5.381 32.3609 5.95754C32.5558 6.14973 32.5558 6.34191 32.1659 6.34191C31.1912 6.34191 30.0215 6.53409 29.0468 6.53409C28.8519 6.53409 28.6569 6.53409 28.6569 6.34191C28.462 4.42008 28.462 2.88263 28.462 1.34517ZM27.4872 1.34517C27.4872 1.34517 27.4872 1.34517 27.6822 1.15298C27.6822 2.1139 27.6822 3.07481 27.8771 4.03572C27.8771 4.61227 27.8771 5.381 27.8771 5.95754C27.8771 6.14973 27.8771 6.34191 27.4872 6.34191C26.5125 6.34191 25.3428 6.14973 24.3681 6.14973C24.1732 6.14973 23.9782 6.14973 24.1732 5.76536C24.9529 4.03572 25.9277 2.49826 27.4872 1.34517ZM25.1479 1.92171C25.3428 1.92171 25.5378 1.72953 25.9277 1.72953C25.7327 1.92171 25.5378 2.30608 25.3428 2.49826C24.563 3.45917 23.9782 4.42008 23.5883 5.381C23.1984 5.76536 23.0035 5.95754 22.6136 5.76536C22.0288 5.57318 21.4439 5.381 20.6641 5.18881C20.2742 5.18881 20.2742 4.99663 20.4692 4.80445C20.6641 4.61227 21.054 4.2279 21.4439 4.03572C22.6136 3.26699 23.9782 2.49826 25.1479 1.92171ZM19.2995 5.95754C19.4945 5.76536 19.8843 5.57318 20.2742 5.76536C21.054 5.95754 21.6389 6.34191 22.4186 6.53409C22.6136 6.53409 22.8085 6.72627 22.6136 6.91846C21.8338 9.41683 21.249 11.9152 20.4692 14.4136C20.4692 14.7979 20.2742 14.7979 20.0793 14.7979C18.1298 14.6058 16.3753 14.2214 14.6208 13.837C14.2309 13.6448 14.2309 13.4527 14.4259 13.2605C15.5955 10.5699 17.1551 8.07155 19.2995 5.95754ZM19.2995 4.03572C20.2742 3.65135 21.249 3.07481 22.2237 2.69044C21.4439 3.26699 20.6641 3.84354 19.8843 4.42008C19.6894 4.61227 19.1046 4.42008 19.2995 4.03572C19.1046 4.03572 19.1046 4.03572 19.2995 4.03572ZM18.5197 2.88263C19.8843 2.49826 21.249 1.92171 22.6136 1.53735C22.6136 1.53735 22.8085 1.34517 23.0035 1.53735C23.0035 1.72953 22.8085 1.72953 22.8085 1.72953C21.4439 2.30608 20.0793 2.88263 18.9096 3.65136C18.5197 3.84354 18.5197 3.65136 18.3248 3.45917C17.9349 2.88263 18.3248 2.88263 18.5197 2.88263ZM18.9096 4.99663C19.1046 5.18881 18.9096 5.381 18.7147 5.381C16.5703 7.68719 15.0107 10.1856 13.6461 12.8761C13.6461 13.0683 13.6461 13.2605 13.4511 13.2605C13.4511 13.2605 13.2562 13.2605 13.2562 13.0683C12.2815 12.8761 11.5017 12.4917 10.5269 12.1074C10.332 11.9152 10.332 11.9152 10.5269 11.5308C12.6713 8.6481 15.2056 6.34191 18.1298 4.61227C18.5197 4.42008 18.7147 4.80445 18.9096 4.99663ZM13.2562 50.3517C13.0612 50.3517 13.0612 50.1595 12.8663 50.1595C11.1118 48.4299 9.74716 46.508 8.57749 44.394C8.57749 44.2018 8.38254 44.2018 8.38254 44.0097C8.57749 43.8175 8.57749 44.0097 8.77243 44.0097C9.94211 44.394 11.3067 44.7784 12.4764 44.9706C12.8663 44.9706 13.0612 45.1628 13.2562 45.5471C14.036 47.4689 15.2056 49.1986 16.3753 50.9282C16.3753 50.9282 16.3753 51.1204 16.5703 51.1204C15.5955 50.9282 14.4259 50.736 13.2562 50.3517ZM17.1551 51.8891C17.545 51.8891 17.7399 52.0813 17.9349 52.4657C19.1046 53.811 20.4692 54.9641 22.0287 55.925C22.0287 55.925 22.2237 55.925 22.2237 56.1172C19.4945 54.9641 16.9602 53.6188 14.8158 51.5048C14.8158 51.5048 14.8158 51.5048 14.8158 51.3126C15.5955 51.697 16.3753 51.8891 17.1551 51.8891ZM12.4764 44.394C11.1118 44.0097 9.94211 43.6253 8.57749 43.2409C8.18759 43.0488 7.7977 42.8566 7.60276 42.28C6.82297 40.5504 6.23814 38.6286 5.84824 36.8989C5.84824 36.5145 5.84824 36.5145 6.23814 36.5145C7.60276 37.0911 9.16232 37.4755 10.5269 37.8598C10.9168 38.052 11.3067 38.2442 11.3067 38.6286C11.8916 40.3582 12.2815 42.28 12.8663 44.0097V44.2018C12.8663 44.5862 12.6713 44.394 12.4764 44.394ZM5.26341 29.4038C5.26341 29.2116 5.26341 29.0194 5.6533 29.2116C7.21287 29.596 8.57749 30.1725 10.1371 30.5569C10.5269 30.5569 10.5269 30.7491 10.5269 31.1334C10.7219 33.0553 10.7219 35.1693 10.9168 37.0911C10.9168 37.4755 10.7219 37.4755 10.5269 37.4755C8.96738 37.0911 7.60276 36.5145 6.23814 35.938C5.84824 35.7458 5.84824 35.5536 5.6533 35.1693C5.45835 33.824 5.26341 32.4787 5.26341 31.1334C5.26341 30.3647 5.26341 29.7882 5.26341 29.4038ZM5.26341 27.482C5.45835 25.1758 5.6533 22.8696 6.23814 20.5634C6.23814 20.179 6.43308 20.179 6.82297 20.3712C7.99265 20.9478 9.16232 21.3321 10.332 21.9087C10.9168 22.293 10.9168 22.1009 10.9168 23.254C10.7219 25.1758 10.5269 27.2898 10.5269 29.4038C10.5269 29.596 10.5269 29.7882 10.1371 29.596C8.57749 29.2116 7.21287 28.8273 5.84824 28.4429C5.45835 28.2507 5.26341 28.0585 5.26341 27.482ZM10.7219 21.3321C9.55222 20.7556 8.18759 20.179 7.01792 19.6025C6.82297 19.4103 6.62803 19.4103 6.82297 19.0259C7.40781 16.9119 8.38254 14.7979 9.74716 12.6839C9.74716 12.4917 9.94211 12.4917 10.1371 12.6839C11.1118 13.0683 11.8916 13.4527 12.8663 13.837C13.0612 13.837 13.0612 13.837 13.0612 14.2214V14.4136C12.2815 16.5276 11.6966 18.8338 11.1118 21.14C11.1118 21.3321 10.9168 21.5243 10.7219 21.3321ZM8.96738 9.41683C11.3067 6.91846 14.036 4.99663 17.1551 3.45917C17.545 3.26699 17.545 3.65136 17.7399 3.65136C17.9349 3.84354 17.7399 3.84354 17.545 4.03572C14.6208 5.95754 12.0865 8.26373 9.94211 10.9543C9.74716 11.3387 9.74716 11.3387 9.55222 11.1465C9.16232 10.7621 8.77243 10.3777 8.77243 9.80119C8.77243 9.60901 8.77243 9.41683 8.96738 9.41683ZM4.09373 16.1432C5.06846 14.2214 6.43308 12.2996 7.7977 10.7621C7.99265 10.5699 8.18759 10.5699 8.18759 10.7621C8.38254 11.1465 8.77243 11.5308 9.16232 11.9152C9.35727 12.1074 9.35727 12.2996 9.16232 12.4917C7.7977 14.2214 6.82297 16.3354 6.23814 18.4494C6.04319 18.8338 6.04319 18.8338 5.6533 18.6416C5.06846 18.2572 4.48362 17.6807 4.09373 16.9119C3.89879 16.9119 3.89879 16.7198 3.89879 16.5276C3.89879 16.3354 3.89879 16.1432 4.09373 16.1432ZM1.16954 25.1758C1.36449 24.2149 1.55944 23.254 1.75438 22.4852C1.94933 20.7556 2.53416 19.2181 3.119 17.8729C3.31395 17.4885 3.31395 17.4885 3.50889 17.6807C4.09373 18.2572 4.67857 18.8338 5.26341 19.2181C5.45835 19.4103 5.6533 19.6025 5.45835 19.9869C4.87352 22.293 4.48362 24.7914 4.28868 27.2898C4.28868 27.482 4.28868 27.6742 3.89879 27.482C2.92406 26.9054 1.75438 26.3289 0.974598 25.5602C1.16954 25.5602 0.974598 25.368 1.16954 25.1758ZM0.779652 26.5211C1.94933 27.2898 3.119 27.8663 4.28868 28.6351C4.48362 28.6351 4.48362 28.8273 4.48362 29.0194C4.67857 30.9413 4.67857 32.8631 4.87352 34.7849C4.87352 35.1693 4.87352 35.1693 4.48362 34.9771C3.31395 34.4005 2.14427 33.4396 1.16954 32.4787C0.974598 32.2865 0.974598 32.0944 0.974598 31.9022C0.779652 29.9803 0.779652 28.2507 0.779652 26.5211ZM2.14427 38.4364C1.75438 36.8989 1.36449 35.3615 0.974598 33.824V33.6318C1.16954 33.6318 1.16954 33.6318 1.36449 33.824C2.33922 34.5927 3.31395 35.3615 4.48362 35.938C4.87352 36.1302 5.06846 36.3224 5.26341 36.8989C5.6533 38.8207 6.23814 40.5504 6.82297 42.28C6.82297 42.28 7.01792 42.4722 6.82297 42.6644H6.62803C5.26341 42.0878 4.09373 41.3191 2.92406 40.166C2.53416 39.3973 2.33922 39.0129 2.14427 38.4364ZM5.06846 44.7784C4.48362 43.6253 3.70384 42.6644 3.31395 41.5113C3.31395 41.3191 3.119 41.3191 3.31395 41.1269C4.67857 42.0878 6.04319 42.8566 7.40781 43.4331C7.60276 43.4331 7.60276 43.6253 7.60276 43.6253C8.77243 45.7393 9.94211 47.6611 11.5017 49.583C11.5017 49.583 11.5017 49.7751 11.6966 49.7751C11.3067 49.7751 11.1118 49.583 10.7219 49.3908C8.18759 48.622 6.43308 47.0846 5.06846 44.7784ZM8.77243 49.7751C8.96738 49.583 8.96738 49.7751 9.16232 49.7751H9.35727C11.5017 50.3517 13.4511 51.5048 15.2056 53.0422C16.5703 54.1953 18.1298 55.1562 19.6894 55.925C19.8843 56.1172 20.0793 56.1172 20.2742 56.3093C15.4006 55.7328 12.0865 52.6579 8.77243 49.7751ZM22.6136 57.6546C22.2237 57.6546 22.0287 57.6546 21.8338 57.4624C22.2237 57.4624 22.6136 57.4624 23.0035 57.6546C23.3934 57.6546 23.7833 57.8468 24.1732 58.039C23.5883 57.8468 23.1984 57.6546 22.6136 57.6546ZM24.563 56.6937C22.4186 55.5406 20.4692 54.1953 18.9096 52.2735C20.2742 52.4657 21.4439 52.4657 22.8085 52.6579C23.0035 52.6579 23.1984 52.8501 23.1984 53.0422C23.9782 54.3875 24.758 55.7328 25.7327 56.8859C25.7327 56.8859 25.7327 56.8859 25.7327 57.0781C25.3428 56.8859 24.9529 56.8859 24.563 56.6937ZM27.8771 57.0781C27.0973 57.0781 26.5125 56.8859 26.1226 56.3093C25.5378 55.1562 24.758 54.1953 23.9782 53.2344C23.9782 53.0422 23.7833 53.0422 23.7833 52.8501C23.7833 52.6579 23.9782 52.8501 24.1732 52.8501C25.3428 52.8501 26.3176 52.8501 27.4872 52.8501C27.8771 52.8501 27.8771 52.8501 27.8771 53.2344C27.8771 53.811 27.8771 54.3875 27.8771 54.9641C27.8771 55.5406 27.8771 56.1172 27.8771 56.6937C28.267 56.8859 28.267 57.0781 27.8771 57.0781ZM28.6569 48.2377C28.6569 48.0455 28.8519 47.6611 28.462 47.8533C28.0721 47.8533 27.8771 48.0455 28.0721 48.4299C28.0721 49.583 28.0721 50.5439 28.0721 51.697C28.0721 52.0813 28.0721 52.0813 27.6822 52.0813C26.5125 52.0813 25.3428 52.0813 23.9782 52.0813C23.5883 52.0813 23.3934 51.8891 23.3934 51.697C23.1984 50.9282 22.8085 49.9673 22.6136 49.1986C22.4186 48.8142 22.0287 48.8142 21.8338 48.8142C21.6389 48.8142 21.8338 49.0064 21.8338 49.1986C22.0287 49.9673 22.4186 50.9282 22.6136 51.697C22.6136 52.0813 22.8085 52.0813 22.2237 52.0813C21.054 51.8891 19.8843 51.8891 18.7147 51.697C18.3248 51.697 17.9349 51.5048 17.545 51.1204C16.3753 49.583 15.2056 47.8533 14.4259 46.1237C14.2309 45.7393 14.4259 45.7393 14.6208 45.7393C14.8158 45.7393 14.8158 45.7393 15.0107 45.7393C14.8158 45.3549 14.6208 44.7784 14.036 44.7784C13.841 44.5862 13.6461 44.394 13.6461 44.2018C12.8663 42.4722 12.4764 40.5504 12.0865 38.8207C12.0865 38.4364 12.0865 38.4364 12.4764 38.4364C12.8663 38.4364 13.0612 38.4364 13.4511 38.6286C13.6461 38.6286 13.841 38.8207 14.036 38.4364C14.036 38.052 13.841 38.052 13.6461 37.8598C13.2562 37.8598 12.8663 37.6676 12.4764 37.6676C12.0865 37.6676 11.8916 37.4755 11.8916 37.0911C11.6966 35.1693 11.5017 33.2474 11.5017 31.3256C11.5017 30.7491 11.5017 30.7491 12.0865 30.7491C13.2562 30.9413 14.4259 31.1334 15.7905 31.3256C15.9854 31.3256 16.1804 31.3256 16.1804 31.1334C16.3753 30.9413 16.1804 30.7491 15.9854 30.7491C14.6208 30.5569 13.4511 30.3647 12.0865 30.1725C11.5017 29.9803 11.3067 29.9803 11.5017 29.4038C11.3067 27.0976 11.5017 25.1758 11.6966 23.0618C11.6966 22.4852 11.6966 22.4852 12.2815 22.4852C14.036 22.8696 15.9854 23.0618 17.7399 23.4461C18.3248 23.6383 18.7147 23.4461 18.9096 22.8696C18.3248 22.8696 17.7399 22.6774 16.9602 22.6774C15.4006 22.4852 13.841 22.1009 12.2815 21.7165C11.8916 21.7165 11.8916 21.5243 11.8916 21.14C12.2815 19.0259 12.8663 16.7198 13.6461 14.6058C13.6461 14.4136 13.841 14.2214 14.036 14.4136C15.9854 14.7979 17.9349 15.1823 19.6894 15.5667C20.0793 15.5667 20.0793 15.7588 20.0793 16.1432C20.0793 16.7198 19.8843 17.2963 19.8843 17.6807C20.2742 17.1041 20.8591 16.7198 20.6641 15.951C20.6641 15.7588 20.6641 15.5667 21.054 15.5667C21.4439 15.7588 21.6389 15.1823 21.8338 14.9901C21.6389 14.7979 21.4439 14.9901 21.249 14.9901C20.8591 14.9901 20.8591 14.7979 20.8591 14.6058C21.054 13.837 21.249 13.0683 21.4439 12.1074C21.8338 10.5699 22.4186 9.03246 22.8085 7.495C23.0035 6.91846 23.1984 6.91846 23.7833 6.91846C24.758 6.91846 25.7327 7.11064 26.7075 7.11064C27.0973 7.11064 27.2923 7.30282 27.2923 7.68719C27.2923 8.6481 27.2923 9.41683 27.2923 10.3777C27.2923 10.5699 27.0973 10.7621 27.4872 10.7621C27.6822 10.7621 28.0721 10.7621 28.0721 10.3777C28.0721 9.60901 28.0721 9.03246 28.0721 8.26373C28.0721 7.11064 27.8771 7.11064 29.2417 7.11064C30.0215 7.11064 30.8013 6.91846 31.5811 6.91846C32.3609 6.91846 32.3609 6.91846 32.5558 7.495C33.1407 8.07155 33.3356 8.84028 33.7255 9.60901C33.9204 9.99338 34.3103 10.1856 34.5053 9.99337C34.7002 9.99337 34.5053 9.80119 34.5053 9.60901C34.3103 8.6481 33.9205 7.87937 33.5306 6.91846C33.3356 6.72627 33.3356 6.53409 33.7255 6.53409C34.3103 6.34191 35.0901 6.14973 35.675 5.95754C36.2598 5.76536 36.4547 5.95754 36.8446 6.34191C38.2093 7.87937 39.3789 9.41683 40.1587 11.1465C40.5486 11.723 40.9385 12.2996 41.5233 12.6839C41.5233 12.4917 41.5233 12.2996 41.3284 12.2996C40.3537 9.99338 38.989 8.07155 37.2345 6.14973C36.8446 5.57318 36.8446 5.76536 37.4295 5.57318C38.989 4.80445 38.989 4.80445 40.1587 5.57318C42.693 7.30282 45.0324 9.22465 46.7869 11.5308L46.9818 11.723C47.1768 11.9152 47.1768 12.1074 46.7869 12.2996C45.6172 12.6839 44.4475 13.0683 43.2779 13.4527C43.0829 13.4527 42.888 13.4527 42.888 13.6448C43.2779 14.2214 43.2779 14.2214 44.0576 14.0292C45.0324 13.6448 46.202 13.2605 47.1768 12.8761C47.5667 12.6839 47.7616 12.6839 47.9566 13.0683C49.1262 14.9901 50.2959 16.9119 51.0757 19.2181C51.2706 19.6025 51.2706 19.7947 50.8807 19.9869C49.906 20.3712 48.7363 20.9478 47.5667 21.14C47.1768 21.3321 46.9818 21.3321 47.1768 21.7165C47.3717 22.1009 47.5667 21.9087 47.7616 21.7165C48.9313 21.3321 49.906 20.9478 51.0757 20.5634C51.4656 20.3712 51.4656 20.5634 51.6605 20.7556C52.2454 22.8696 52.6353 25.1758 52.6353 27.482C52.6353 28.0585 52.4403 28.2507 52.0504 28.4429C50.4908 28.8273 48.9313 29.4038 47.3717 29.596C47.1768 29.596 46.9818 29.596 46.9818 29.7882C46.9818 29.9803 46.7869 30.1725 46.7869 30.3647C46.9818 30.5569 47.1768 30.3647 47.1768 30.3647C48.9313 29.9803 50.4908 29.596 52.2454 29.2116C52.6353 29.0194 52.6353 29.2116 52.6353 29.596C52.4403 31.3256 52.4403 33.0553 52.2454 34.7849C52.2454 35.1693 52.0504 35.5536 51.6605 35.7458C49.5161 36.5145 47.1768 37.0911 44.8374 37.6676C44.4475 37.6676 44.4475 37.6676 44.4475 37.2833C44.4475 36.8989 44.4475 36.3224 44.6425 35.938C44.6425 35.7458 44.6425 35.7458 44.4475 35.5536C44.0576 36.1302 43.6677 36.7067 43.6677 37.4755C43.6677 37.6676 43.4728 38.052 43.2779 38.052C42.693 38.052 42.4981 38.4364 42.3031 38.8207C42.693 38.8207 42.888 38.8207 43.2779 38.8207C43.4728 38.8207 43.6677 38.8207 43.4728 39.2051C43.0829 41.1269 42.4981 43.0487 41.9132 44.7784C41.9132 44.9706 41.7183 45.1628 41.3284 45.1628C39.5739 45.3549 38.0143 45.5471 36.2598 45.7393C35.8699 45.7393 35.8699 45.7393 35.8699 45.3549C35.8699 45.1628 35.8699 44.7784 36.0649 44.394C35.675 44.5862 35.2851 44.7784 35.0901 45.3549C35.0901 45.7393 34.8952 45.7393 34.5053 45.7393C33.7255 45.5471 32.9457 46.1237 32.1659 46.508C32.9457 46.508 33.7255 46.508 34.3103 46.508C34.8952 46.508 34.8952 46.508 34.7002 47.0846C34.3103 48.622 33.7255 50.1595 33.3356 51.697C33.3356 51.8891 33.1407 51.8891 32.7508 51.8891C31.5811 51.8891 30.4114 51.8891 29.2417 51.8891C28.8519 51.8891 28.6569 51.697 28.6569 51.3126C28.8519 50.3517 28.6569 49.1986 28.6569 48.2377ZM37.6244 53.0422C38.2093 52.4657 38.7941 52.0813 39.5739 52.0813C40.9385 51.8891 42.1082 51.697 43.4728 51.5048C40.5486 54.0031 37.4295 55.925 33.9204 57.0781C33.7255 56.8859 33.9204 56.8859 34.1154 56.6937C35.2851 55.5406 36.4547 54.3875 37.6244 53.0422ZM37.4295 51.697C36.4547 51.697 35.48 51.8891 34.3103 51.8891C33.9204 51.8891 33.9204 51.8891 34.1154 51.5048C34.7002 49.9673 35.0901 48.2377 35.48 46.508C35.48 46.3159 35.675 46.1237 35.8699 46.1237C37.6244 45.9315 39.3789 45.7393 41.3284 45.5471C41.1334 46.3159 40.7436 46.8924 40.3537 47.4689C39.7688 48.622 38.989 49.7751 38.4042 50.9282C38.2093 51.3126 37.8194 51.5048 37.4295 51.697ZM39.3789 51.5048C39.184 51.5048 39.184 51.5048 38.989 51.5048V51.3126C40.1587 49.7751 40.7436 48.0455 41.7183 46.3159C41.9132 45.9315 42.1082 45.7393 42.693 45.5471C44.8374 45.1628 46.7869 44.5862 48.9313 44.0097C49.1262 44.0097 49.1262 44.0097 49.3212 44.0097C48.7363 45.1628 48.1515 46.1237 47.3717 47.0846C46.5919 48.0455 45.8121 49.0064 45.0324 49.9673C44.8374 50.3517 44.4475 50.5439 44.0576 50.5439C42.4981 50.736 40.9385 51.1204 39.3789 51.5048ZM42.888 44.5862C42.3031 44.5862 42.4981 44.394 42.693 44.2018C43.0829 42.8566 43.4728 41.5113 43.8627 39.9738C43.8627 39.5895 44.0576 39.2051 44.0576 38.6286C44.0576 38.2442 44.2526 38.2442 44.6425 38.052C46.9818 37.6676 49.3212 37.0911 51.6605 36.1302C52.0504 35.938 52.0504 36.1302 52.0504 36.5145C51.8555 37.6676 51.4656 38.8207 51.0757 39.9738C50.8807 40.7426 50.4908 41.3191 50.2959 42.0878C50.101 42.4722 50.101 42.6644 49.7111 42.6644C47.3717 43.8175 45.2273 44.2018 42.888 44.5862ZM29.2417 57.0781C29.0468 57.0781 29.0468 56.8859 29.0468 56.6937C29.0468 55.5406 28.8519 54.1953 28.8519 53.0422C28.8519 52.8501 28.8519 52.6579 29.0468 52.6579H29.2417C30.4114 52.6579 31.5811 52.6579 32.7508 52.6579C31.971 54.0031 31.3862 55.3484 30.6064 56.5015C30.4114 57.0781 29.8266 57.0781 29.2417 57.0781ZM31.3862 57.0781C31.3862 56.8859 31.3862 56.8859 31.5811 56.6937C32.3609 55.5406 32.9457 54.3875 33.5306 53.2344C33.7255 52.8501 33.9205 52.6579 34.5053 52.6579C35.2851 52.6579 36.2598 52.4657 37.0396 52.4657C37.2345 52.4657 37.2345 52.4657 37.4295 52.4657C37.4295 52.6579 37.4295 52.6579 37.2345 52.8501C35.8699 54.3875 34.3103 55.7328 32.5558 56.6937C32.1659 56.8859 31.776 56.8859 31.3862 57.0781ZM36.8446 57.2702C35.675 57.4624 34.5053 57.8468 33.1407 58.039C33.1407 58.039 33.1407 58.039 33.1407 57.8468C34.1154 57.2703 35.48 57.0781 36.6497 57.0781C36.6497 57.2703 36.6497 57.2702 36.8446 57.2702C37.0396 57.0781 37.2345 57.0781 37.4295 57.0781C37.2345 57.2703 37.0396 57.2702 36.8446 57.2702ZM37.8194 56.3093C37.8194 56.3093 37.6244 56.5015 37.6244 56.3093C37.6244 56.1172 37.6244 56.1172 37.8194 56.3093C39.9638 55.1562 41.9132 53.6188 43.8627 52.0813C44.6425 51.3126 45.6172 50.9282 46.7869 50.5439C47.7616 50.1595 48.9313 49.7751 49.906 49.583C46.5919 52.8501 42.888 55.5406 37.8194 56.3093ZM52.8302 45.7393C51.8555 47.0846 50.6858 48.0455 49.1262 48.8142C48.1515 49.1986 47.3717 49.583 46.397 49.9673V49.7751C47.9566 48.0455 49.1262 46.1237 50.2959 44.0097C50.4908 43.6253 50.6858 43.4331 51.0757 43.2409C52.4403 42.6644 53.8049 42.0878 54.9746 41.1269C54.9746 41.1269 55.1695 41.1269 55.1695 40.9347C54.5847 42.8566 53.8049 44.394 52.8302 45.7393ZM57.119 35.3615C56.9241 36.7067 56.5342 38.052 55.9493 39.3973C55.9493 39.5895 55.7544 39.7817 55.5594 39.7817C55.3645 39.7817 55.1695 39.9738 54.9746 40.166C53.8049 41.1269 52.4403 41.8957 50.8807 42.4722C51.0757 41.7035 51.2706 41.1269 51.6605 40.3582C52.0504 39.0129 52.4403 37.8598 52.6353 36.5145C52.6353 36.1302 52.8302 35.938 53.2201 35.7458C54.5847 35.1693 55.9493 34.4005 57.314 33.2474C57.314 34.0162 57.3139 34.7849 57.119 35.3615ZM57.7038 26.9054C57.7038 27.8663 57.7038 28.6351 57.7038 29.596C57.7038 30.3647 57.7038 31.3256 57.7038 32.0944C57.7038 32.2865 57.7038 32.4787 57.5089 32.4787C56.5342 33.2474 55.5594 34.0162 54.3898 34.5927C53.9999 34.7849 53.8049 34.9771 53.415 34.9771C53.2201 35.1693 53.0251 35.1693 53.0251 34.7849C53.2201 32.8631 53.415 30.9413 53.415 29.2116C53.415 28.8273 53.61 28.6351 53.8049 28.6351C54.9746 28.0585 56.1443 27.482 57.314 26.7132C57.5089 26.5211 57.7038 26.5211 57.7038 26.9054Z" fill="#0A6EB5"/>
</g>
<defs>
<clipPath id="clip0_19023_87202">
<rect width="216" height="59" fill="white"/>
</clipPath>
</defs>
</svg>
