<svg width="88" height="88" viewBox="0 0 88 88" fill="none" xmlns="http://www.w3.org/2000/svg">
<circle cx="44" cy="44" r="44" fill="white" fill-opacity="0.9"/>
<g clip-path="url(#clip0_1585_168357)">
<path d="M59.875 71.125H30.125C30.1244 70.6652 30.2146 70.2098 30.3903 69.7849C30.5659 69.36 30.8237 68.974 31.1488 68.6488C31.474 68.3237 31.86 68.0659 32.2849 67.8903C32.7098 67.7146 33.1652 67.6244 33.625 67.625H56.375C57.3033 67.625 58.1935 67.9938 58.8499 68.6501C59.5063 69.3065 59.875 70.1967 59.875 71.125Z" fill="#CFCFCF"/>
<path d="M31.1488 70.3988C31.807 69.7446 32.6969 69.3767 33.625 69.375H56.375C56.987 69.3762 57.5879 69.5386 58.1172 69.8458C58.6466 70.153 59.0856 70.5942 59.3903 71.125H59.875C59.875 70.1967 59.5063 69.3065 58.8499 68.6501C58.1935 67.9938 57.3033 67.625 56.375 67.625H33.625C33.1652 67.6244 32.7098 67.7146 32.2849 67.8903C31.86 68.0659 31.474 68.3237 31.1488 68.6488C30.8237 68.974 30.5659 69.36 30.3903 69.7849C30.2146 70.2098 30.1244 70.6652 30.125 71.125H30.6124C30.7597 70.8612 30.9399 70.6171 31.1488 70.3988Z" fill="#C1C1C1"/>
<path d="M54.625 62.375L56.375 67.625H33.625L35.375 62.375H54.625Z" fill="#9C9C9C"/>
<path d="M41.5 55.375H54.1875C54.1875 58.875 50.6875 58.875 50.6875 58.875H39.3125C35.8125 58.875 35.8125 55.375 35.8125 55.375H41.5Z" fill="#ADADAD"/>
<path d="M72.125 55.375V62.375H17.875V55.375H35.8125C35.8125 55.375 35.8125 58.875 39.3125 58.875H50.6875C50.6875 58.875 54.1875 58.875 54.1875 55.375H72.125Z" fill="#CFCFCF"/>
<path d="M65.125 55.375H54.1875C54.1875 58.875 50.6875 58.875 50.6875 58.875H39.3125C35.8125 58.875 35.8125 55.375 35.8125 55.375H17.875V57.125H35.8125C35.8125 57.125 35.8125 60.625 39.3125 60.625H50.6875C50.6875 60.625 54.1875 60.625 54.1875 57.125H72.125V55.375H65.125Z" fill="#C1C1C1"/>
<path d="M54.6246 62.375H35.3746L34.791 64.125H55.2083L54.6246 62.375Z" fill="#848484"/>
<path d="M56.375 26.5V27.375L55.5 28.25C51.125 28.25 51.125 26.5 51.125 26.5C51.125 28.25 48.5 28.25 48.5 28.25L47.625 27.375V26.5C47.625 25.3397 48.0859 24.2269 48.9064 23.4064C49.7269 22.5859 50.8397 22.125 52 22.125C53.1603 22.125 54.2731 22.5859 55.0936 23.4064C55.9141 24.2269 56.375 25.3397 56.375 26.5V26.5Z" fill="#A37862"/>
<path d="M55.0975 23.4029C54.4846 22.792 53.7046 22.3764 52.8557 22.2084C52.0069 22.0403 51.1273 22.1275 50.3279 22.4589C49.5286 22.7902 48.8453 23.3509 48.3642 24.0702C47.8832 24.7895 47.626 25.6351 47.625 26.5004V27.3754L47.7055 27.4559C47.8859 26.4482 48.4149 25.5359 49.2 24.8789C49.9851 24.2219 50.9762 23.8618 52 23.8618C53.0238 23.8618 54.0149 24.2219 54.8 24.8789C55.5851 25.5359 56.1141 26.4482 56.2945 27.4559L56.375 27.3754V26.5004C56.375 25.3397 55.9157 24.2262 55.0975 23.4029V23.4029Z" fill="#966857"/>
<path d="M53.75 36.1248H50.25V33.0273C50.7813 33.3368 51.3852 33.4998 52 33.4998C52.6148 33.4998 53.2187 33.3368 53.75 33.0273V36.1248Z" fill="#FAA68E"/>
<path d="M52 33.4998C51.3852 33.4992 50.7815 33.3362 50.25 33.0273V33.9023C50.7813 34.2118 51.3852 34.3748 52 34.3748C52.6148 34.3748 53.2187 34.2118 53.75 33.9023V33.0273C53.2185 33.3362 52.6148 33.4992 52 33.4998V33.4998Z" fill="#E09380"/>
<path d="M51.125 26.5C51.125 26.5 51.125 28.25 55.5 28.25V30C55.501 30.6147 55.3398 31.2188 55.0327 31.7513C54.7257 32.2838 54.2836 32.7259 53.7511 33.033C53.2186 33.34 52.6145 33.5012 51.9998 33.5003C51.3851 33.4993 50.7815 33.3362 50.25 33.0275C49.9861 32.8744 49.7422 32.6893 49.5237 32.4762C48.8696 31.818 48.5017 30.9281 48.5 30V28.25C48.5 28.25 51.125 28.25 51.125 26.5Z" fill="#FFCDBE"/>
<path d="M51.125 26.5C51.125 28.25 48.5 28.25 48.5 28.25V29.125C48.5 29.125 51.125 29.125 51.125 27.375C51.125 27.375 51.125 29.125 55.5 29.125V28.25C51.125 28.25 51.125 26.5 51.125 26.5Z" fill="#FFBEAA"/>
<path d="M48.5 28.25V30C48.5017 30.9281 48.8696 31.818 49.5237 32.4762C49.7422 32.6893 49.9861 32.8744 50.25 33.0275V36.125H44.125V20.375H52V22.125C50.8397 22.125 49.7269 22.5859 48.9064 23.4064C48.0859 24.2269 47.625 25.3397 47.625 26.5V27.375L48.5 28.25Z" fill="#FFECCF"/>
<path d="M59.875 20.375V36.125H53.75V33.0275C54.2827 32.722 54.7252 32.281 55.0325 31.7493C55.3399 31.2176 55.5012 30.6141 55.5 30V28.25L56.375 27.375V26.5C56.3767 25.925 56.2648 25.3553 56.0455 24.8237C55.8263 24.2921 55.5041 23.8091 55.0975 23.4025C54.6909 22.9959 54.2079 22.6737 53.6763 22.4545C53.1447 22.2352 52.575 22.1233 52 22.125V20.375H59.875Z" fill="#FFCF94"/>
<path d="M30.125 41.375H59.875V51.875H30.125V41.375Z" fill="#FFCF94"/>
<path d="M17.875 23.875H26.625V55.375H17.875V23.875Z" fill="#5EBBD5"/>
<path d="M63.375 23.875H72.125V55.375H63.375V23.875Z" fill="#5EBBD5"/>
<path d="M63.375 23.875H66V55.375H63.375V23.875Z" fill="#80DBFF"/>
<path d="M24 23.875H26.625V55.375H24V23.875Z" fill="#80DBFF"/>
<path d="M31.875 16.875V22.125H26.625L31.875 16.875Z" fill="#9C9C9C"/>
<path d="M40.625 29.125V32.625H37.125V36.125H33.625V32.625H30.125V29.125H33.625V25.625H37.125V29.125H40.625Z" fill="#FF636E"/>
<path d="M33.625 25.625H35.375V29.125H33.625V25.625Z" fill="#FF475A"/>
<path d="M30.125 29.125H31.875V32.625H30.125V29.125Z" fill="#FF475A"/>
<path d="M33.625 32.625H35.375V36.125H33.625V32.625Z" fill="#FF475A"/>
<path d="M63.375 23.875V55.375H26.625V22.125H31.875V16.875H63.375V23.875ZM59.875 51.875V41.375H30.125V51.875H59.875ZM59.875 36.125V20.375H44.125V36.125H59.875ZM40.625 32.625V29.125H37.125V25.625H33.625V29.125H30.125V32.625H33.625V36.125H37.125V32.625H40.625Z" fill="#F0F0F0"/>
<path d="M32.75 44H34.5V45.75H32.75V44Z" fill="#FFAC5A"/>
<path d="M36.25 44H57.25V45.75H36.25V44Z" fill="#FFAC5A"/>
<path d="M32.75 47.5H57.25V49.25H32.75V47.5Z" fill="#FFAC5A"/>
<path d="M67.75 26.5H69.5V28.25H67.75V26.5Z" fill="#E3FBFF"/>
<path d="M67.75 30H69.5V41.375H67.75V30Z" fill="#E3FBFF"/>
<path d="M26.625 53.625H63.375V55.375H26.625V53.625Z" fill="#E4E4E4"/>
</g>
<defs>
<clipPath id="clip0_1585_168357">
<rect width="56" height="56" fill="white" transform="translate(17 16)"/>
</clipPath>
</defs>
</svg>
