<svg width="88" height="88" viewBox="0 0 88 88" fill="none" xmlns="http://www.w3.org/2000/svg">
<circle cx="44" cy="44" r="44" fill="white" fill-opacity="0.9"/>
<g clip-path="url(#clip0_1585_168294)">
<path d="M47.6725 59.2183H21.25L24.0071 44.4524C24.2035 43.318 24.6388 42.2383 25.2841 41.2849C25.9294 40.3315 26.7699 39.526 27.75 38.922C28.49 38.4238 29.3059 38.0489 30.1658 37.8116C30.8714 37.6155 31.6002 37.5153 32.3325 37.5137H36.7742C38.7344 37.551 40.6224 38.2599 42.1229 39.5218C43.6234 40.7837 44.6454 42.5222 45.0183 44.447L47.6725 59.2183Z" fill="#E6E7E8"/>
<path d="M24.5928 56.4567C26.9165 43.9984 26.7594 44.2854 27.3336 43.2454C27.8471 42.3298 28.6096 41.5786 29.5328 41.0788C30.3784 40.5538 31.3541 40.2761 32.3494 40.2771H36.7099C37.7052 40.2761 38.6809 40.5538 39.5265 41.0788L39.8515 41.2792C40.4965 41.6777 41.0493 42.2089 41.4733 42.8374C41.8972 43.4659 42.1827 44.1773 42.3107 44.9246L44.369 56.4567H24.5928Z" fill="white"/>
<path d="M32.1328 37.7148L34.527 46.349L36.9266 37.7148H32.1328Z" fill="#A8D1FF"/>
<path d="M36.9266 37.7167C36.6554 38.1001 36.2962 38.4128 35.8791 38.6287C35.4621 38.8445 34.9993 38.9572 34.5297 38.9572C34.0601 38.9572 33.5973 38.8445 33.1803 38.6287C32.7632 38.4128 32.404 38.1001 32.1328 37.7167V34.25H36.9266V37.7167Z" fill="#FB9C88"/>
<path d="M27.21 18H33.8725C34.7818 18 35.6539 18.3612 36.297 19.0043C36.94 19.6473 37.3012 20.5194 37.3012 21.4288V27.1163H28.7754C28.3602 27.1163 27.962 26.9513 27.6685 26.6578C27.3749 26.3642 27.21 25.966 27.21 25.5508V18V18Z" fill="#52527B"/>
<path d="M41.0861 27.1142H38.1069C37.8928 27.1142 37.6876 27.0291 37.5362 26.8778C37.3848 26.7264 37.2998 26.5211 37.2998 26.3071V20.1646C37.2998 19.5899 37.5281 19.0388 37.9344 18.6325C38.3407 18.2262 38.8918 17.9979 39.4665 17.9979C39.7817 17.9855 40.0961 18.0368 40.3911 18.1488C40.686 18.2608 40.9553 18.4311 41.1828 18.6496C41.4104 18.868 41.5916 19.1301 41.7155 19.4202C41.8394 19.7103 41.9035 20.0224 41.904 20.3379V26.2962C41.9026 26.5127 41.8159 26.7199 41.6628 26.873C41.5098 27.0261 41.3025 27.1127 41.0861 27.1142V27.1142Z" fill="#52527B"/>
<path d="M41.2926 29.7024H27.778C27.4346 29.7024 27.1054 29.5661 26.8626 29.3233C26.6198 29.0805 26.4834 28.7512 26.4834 28.4079C26.4834 28.0645 26.6198 27.7352 26.8626 27.4925C27.1054 27.2497 27.4346 27.1133 27.778 27.1133H41.2926C41.6359 27.1133 41.9652 27.2497 42.208 27.4925C42.4508 27.7352 42.5871 28.0645 42.5871 28.4079C42.5871 28.7512 42.4508 29.0805 42.208 29.3233C41.9652 29.5661 41.6359 29.7024 41.2926 29.7024Z" fill="#FB9C88"/>
<path d="M40.5446 26.8812V29.7412C40.5446 31.3372 39.9106 32.8679 38.782 33.9965C37.6534 35.1251 36.1228 35.7591 34.5267 35.7591C32.9307 35.7591 31.4 35.1251 30.2714 33.9965C29.1428 32.8679 28.5088 31.3372 28.5088 29.7412V26.8812C28.5088 25.2851 29.1428 23.7545 30.2714 22.6259C31.4 21.4973 32.9307 20.8633 34.5267 20.8633C36.1228 20.8633 37.6534 21.4973 38.782 22.6259C39.9106 23.7545 40.5446 25.2851 40.5446 26.8812V26.8812Z" fill="#FB9C88"/>
<path d="M34.5321 35.6506C32.9541 35.6509 31.4391 35.032 30.3127 33.9268C29.1863 32.8217 28.5386 31.3187 28.5088 29.741C28.5288 28.5574 28.8969 27.4059 29.5671 26.4301C30.2373 25.4543 31.1799 24.6974 32.2774 24.2538C33.3749 23.8102 34.5787 23.6995 35.7387 23.9355C36.8987 24.1715 37.9636 24.7438 38.8005 25.581C42.63 29.4269 39.6942 35.6506 34.5321 35.6506Z" fill="#FBC4AB"/>
<path d="M36.1086 32.2656C35.67 32.6471 35.1083 32.8571 34.527 32.8571C33.9457 32.8571 33.384 32.6471 32.9453 32.2656" fill="white"/>
<path d="M32.5816 32.677C32.5268 32.6293 32.4819 32.5713 32.4496 32.5064C32.4172 32.4414 32.398 32.3706 32.3929 32.2982C32.3879 32.2258 32.3972 32.1531 32.4203 32.0842C32.4433 32.0154 32.4797 31.9518 32.5274 31.897C32.575 31.8422 32.633 31.7974 32.698 31.765C32.763 31.7326 32.8337 31.7134 32.9062 31.7084C32.9786 31.7033 33.0513 31.7126 33.1202 31.7357C33.189 31.7588 33.2526 31.7952 33.3074 31.8428C33.6498 32.1274 34.0809 32.2832 34.5261 32.2832C34.9713 32.2832 35.4025 32.1274 35.7449 31.8428C35.8555 31.7466 35.9998 31.6982 36.1461 31.7084C36.2924 31.7185 36.4286 31.7864 36.5249 31.897C36.6211 32.0076 36.6695 32.1519 36.6594 32.2982C36.6492 32.4445 36.5813 32.5807 36.4707 32.677C35.9315 33.1461 35.2409 33.4044 34.5261 33.4044C33.8114 33.4044 33.1208 33.1461 32.5816 32.677V32.677Z" fill="#302D3D"/>
<path d="M36.9098 28.964C36.7662 28.964 36.6284 28.9069 36.5268 28.8053C36.4252 28.7038 36.3682 28.566 36.3682 28.4223V28.1569C36.3682 28.0132 36.4252 27.8755 36.5268 27.7739C36.6284 27.6723 36.7662 27.6152 36.9098 27.6152C37.0535 27.6152 37.1913 27.6723 37.2928 27.7739C37.3944 27.8755 37.4515 28.0132 37.4515 28.1569V28.4223C37.4515 28.566 37.3944 28.7038 37.2928 28.8053C37.1913 28.9069 37.0535 28.964 36.9098 28.964Z" fill="#302D3D"/>
<path d="M37.5005 27.2611H36.3034C36.1597 27.2611 36.022 27.204 35.9204 27.1024C35.8188 27.0008 35.7617 26.8631 35.7617 26.7194C35.7617 26.5757 35.8188 26.438 35.9204 26.3364C36.022 26.2348 36.1597 26.1777 36.3034 26.1777H37.5005C37.6441 26.1777 37.7819 26.2348 37.8835 26.3364C37.9851 26.438 38.0421 26.5757 38.0421 26.7194C38.0421 26.8631 37.9851 27.0008 37.8835 27.1024C37.7819 27.204 37.6441 27.2611 37.5005 27.2611Z" fill="#302D3D"/>
<path d="M32.1481 28.964C32.0045 28.964 31.8667 28.9069 31.7651 28.8053C31.6635 28.7038 31.6064 28.566 31.6064 28.4223V28.1569C31.6064 28.0132 31.6635 27.8755 31.7651 27.7739C31.8667 27.6723 32.0045 27.6152 32.1481 27.6152C32.2918 27.6152 32.4295 27.6723 32.5311 27.7739C32.6327 27.8755 32.6898 28.0132 32.6898 28.1569V28.4223C32.6898 28.566 32.6327 28.7038 32.5311 28.8053C32.4295 28.9069 32.2918 28.964 32.1481 28.964Z" fill="#302D3D"/>
<path d="M32.755 27.2611H31.5417C31.398 27.2611 31.2602 27.204 31.1587 27.1024C31.0571 27.0008 31 26.8631 31 26.7194C31 26.5757 31.0571 26.438 31.1587 26.3364C31.2602 26.2348 31.398 26.1777 31.5417 26.1777H32.755C32.8987 26.1777 33.0364 26.2348 33.138 26.3364C33.2396 26.438 33.2967 26.5757 33.2967 26.7194C33.2967 26.8631 33.2396 27.0008 33.138 27.1024C33.0364 27.204 32.8987 27.2611 32.755 27.2611V27.2611Z" fill="#302D3D"/>
<path d="M32.6907 20.2031C33.3145 20.8286 33.6648 21.676 33.6648 22.5594C33.6648 23.4428 33.3145 24.2901 32.6907 24.9156L29.5273 21.7523" fill="#52527B"/>
<path d="M42.4949 59.7767C42.3634 59.778 42.236 59.7314 42.1364 59.6457C42.0367 59.56 41.9716 59.441 41.9532 59.3108L40.209 48.4342C40.1977 48.363 40.2004 48.2904 40.2171 48.2203C40.2338 48.1502 40.2642 48.0841 40.3064 48.0258C40.3487 47.9674 40.402 47.918 40.4633 47.8802C40.5247 47.8425 40.5929 47.8172 40.664 47.8058C40.7352 47.7945 40.8078 47.7972 40.8779 47.8139C40.948 47.8306 41.0141 47.861 41.0724 47.9032C41.1308 47.9455 41.1802 47.9988 41.218 48.0602C41.2557 48.1215 41.281 48.1897 41.2924 48.2608C41.5957 50.2217 41.2382 48.0171 43.0474 59.1321C43.0629 59.2122 43.0602 59.2949 43.0393 59.3738C43.0185 59.4527 42.98 59.5259 42.9269 59.5879C42.8738 59.6499 42.8073 59.6991 42.7325 59.7318C42.6577 59.7645 42.5765 59.7798 42.4949 59.7767Z" fill="#3E3962"/>
<path d="M26.6674 59.7768C26.5899 59.7775 26.5132 59.7615 26.4424 59.73C26.3716 59.6985 26.3085 59.6522 26.2571 59.5941C26.2058 59.5361 26.1675 59.4678 26.1448 59.3937C26.1221 59.3196 26.1156 59.2415 26.1257 59.1647L27.7507 48.2881C27.7737 48.1444 27.8528 48.0158 27.9706 47.9304C28.0885 47.8451 28.2354 47.8101 28.379 47.8331C28.5227 47.856 28.6513 47.9352 28.7367 48.053C28.822 48.1708 28.857 48.3177 28.834 48.4614C28.6661 49.5447 28.9099 47.9197 27.209 59.3326C27.186 59.4588 27.1188 59.5727 27.0197 59.6541C26.9205 59.7354 26.7956 59.7789 26.6674 59.7768V59.7768Z" fill="#302D3D"/>
<path d="M32.2689 37.5C31.5601 37.5015 30.8548 37.5999 30.1727 37.7925C29.3669 38.7223 28.8809 39.8862 28.786 41.1129C28.3436 41.2432 27.963 41.5285 27.7139 41.9166C27.4649 42.3047 27.364 42.7695 27.4298 43.226C27.4956 43.6824 27.7237 44.0998 28.0722 44.4017C28.4208 44.7036 28.8665 44.8698 29.3277 44.8698C29.7888 44.8698 30.2345 44.7036 30.5831 44.4017C30.9316 44.0998 31.1597 43.6824 31.2255 43.226C31.2913 42.7695 31.1905 42.3047 30.9414 41.9166C30.6923 41.5285 30.3117 41.2432 29.8693 41.1129C29.9449 40.3608 30.203 39.6386 30.6212 39.009C31.0394 38.3793 31.605 37.8613 32.2689 37.5ZM30.1022 42.9492C30.1022 43.1101 30.0544 43.2674 29.9649 43.4011C29.8754 43.5349 29.7482 43.639 29.5994 43.7003C29.4506 43.7617 29.287 43.7774 29.1292 43.7456C28.9715 43.7138 28.8267 43.6359 28.7133 43.5217C28.5999 43.4076 28.5229 43.2623 28.4922 43.1043C28.4615 42.9464 28.4783 42.7828 28.5407 42.6345C28.603 42.4861 28.708 42.3596 28.8423 42.271C28.9766 42.1823 29.1342 42.1356 29.2952 42.1367C29.404 42.1366 29.5117 42.1583 29.612 42.2004C29.7123 42.2426 29.8032 42.3043 29.8793 42.3819C29.9555 42.4596 30.0154 42.5517 30.0555 42.6528C30.0957 42.754 30.1152 42.8621 30.1131 42.9708L30.1022 42.9492Z" fill="#3E3962"/>
<path d="M41.7689 42.4183V43.6642C41.7689 43.8078 41.7119 43.9456 41.6103 44.0472C41.5087 44.1488 41.3709 44.2058 41.2273 44.2058C41.0836 44.2058 40.9458 44.1488 40.8443 44.0472C40.7427 43.9456 40.6856 43.8078 40.6856 43.6642V42.4183C40.6856 42.3494 40.6582 42.2832 40.6094 42.2345C40.5607 42.1857 40.4946 42.1583 40.4256 42.1583H39.1256C39.0571 42.1597 38.9917 42.1876 38.9433 42.236C38.8948 42.2845 38.867 42.3498 38.8656 42.4183V43.6642C38.8656 43.8078 38.8085 43.9456 38.7069 44.0472C38.6054 44.1488 38.4676 44.2058 38.3239 44.2058C38.1803 44.2058 38.0425 44.1488 37.9409 44.0472C37.8393 43.9456 37.7823 43.8078 37.7823 43.6642V42.4183C37.7821 42.2344 37.8191 42.0524 37.8911 41.8831C37.9631 41.7139 38.0685 41.561 38.201 41.4335C38.3336 41.306 38.4905 41.2066 38.6624 41.1413C38.8343 41.0759 39.0177 41.046 39.2014 41.0533C39.1172 40.3102 38.8539 39.5986 38.4341 38.9797C38.0142 38.3607 37.4504 37.853 36.791 37.5C37.5016 37.5014 38.2087 37.5999 38.8927 37.7925C39.68 38.7058 40.1628 39.8419 40.2739 41.0425H40.4039C40.5839 41.0432 40.762 41.0794 40.928 41.1489C41.094 41.2184 41.2446 41.32 41.3714 41.4477C41.4981 41.5755 41.5985 41.7269 41.6667 41.8935C41.7349 42.06 41.7696 42.2384 41.7689 42.4183V42.4183Z" fill="#3E3962"/>
<path d="M68.6849 54.2236H19.3174C19.0005 54.2028 18.7034 54.0621 18.4863 53.8303C18.2692 53.5984 18.1484 53.2927 18.1484 52.9751C18.1484 52.6575 18.2692 52.3518 18.4863 52.1199C18.7034 51.8881 19.0005 51.7474 19.3174 51.7266H68.6849C69.0018 51.7474 69.2989 51.8881 69.516 52.1199C69.7331 52.3518 69.8539 52.6575 69.8539 52.9751C69.8539 53.2927 69.7331 53.5984 69.516 53.8303C69.2989 54.0621 69.0018 54.2028 68.6849 54.2236V54.2236Z" fill="#FF9573"/>
<path d="M69.9086 52.9786C69.9086 53.1426 69.8762 53.3051 69.8133 53.4566C69.7503 53.6081 69.6581 53.7457 69.5418 53.8614C69.4255 53.9772 69.2876 54.0688 69.1358 54.1311C68.984 54.1934 68.8214 54.2251 68.6574 54.2244H59.124C59.2949 54.2357 59.4663 54.2117 59.6275 54.1541C59.7888 54.0964 59.9365 54.0063 60.0615 53.8893C60.1865 53.7722 60.2862 53.6308 60.3543 53.4736C60.4224 53.3165 60.4576 53.1471 60.4576 52.9759C60.4576 52.8046 60.4224 52.6352 60.3543 52.4781C60.2862 52.321 60.1865 52.1795 60.0615 52.0625C59.9365 51.9454 59.7888 51.8553 59.6275 51.7976C59.4663 51.74 59.2949 51.7161 59.124 51.7273H68.6574C68.8219 51.7266 68.9849 51.7585 69.137 51.8211C69.2892 51.8837 69.4274 51.9759 69.5437 52.0922C69.6601 52.2085 69.7522 52.3468 69.8148 52.4989C69.8775 52.651 69.9093 52.8141 69.9086 52.9786Z" fill="#E64541"/>
<path d="M28.883 54.2244H19.3443C19.1734 54.2357 19.002 54.2117 18.8408 54.1541C18.6795 54.0964 18.5318 54.0063 18.4068 53.8893C18.2818 53.7722 18.1821 53.6308 18.114 53.4736C18.0459 53.3165 18.0107 53.1471 18.0107 52.9759C18.0107 52.8046 18.0459 52.6352 18.114 52.4781C18.1821 52.321 18.2818 52.1795 18.4068 52.0625C18.5318 51.9454 18.6795 51.8553 18.8408 51.7976C19.002 51.74 19.1734 51.7161 19.3443 51.7273H28.883C28.7121 51.7161 28.5408 51.74 28.3795 51.7976C28.2183 51.8553 28.0706 51.9454 27.9456 52.0625C27.8206 52.1795 27.7209 52.321 27.6528 52.4781C27.5846 52.6352 27.5495 52.8046 27.5495 52.9759C27.5495 53.1471 27.5846 53.3165 27.6528 53.4736C27.7209 53.6308 27.8206 53.7722 27.9456 53.8893C28.0706 54.0063 28.2183 54.0964 28.3795 54.1541C28.5408 54.2117 28.7121 54.2357 28.883 54.2244Z" fill="#E64541"/>
<path d="M21.2559 69.9925V54.2246H66.7396V69.9925" fill="#FF6355"/>
<path d="M64.6715 58.8457V69.9986H23.3369V58.8457C23.3369 58.4147 23.5081 58.0014 23.8129 57.6967C24.1176 57.3919 24.5309 57.2207 24.9619 57.2207H63.0573C63.4864 57.2236 63.897 57.396 64.1994 57.7005C64.5018 58.0049 64.6715 58.4166 64.6715 58.8457V58.8457Z" fill="#FF9573"/>
<path d="M21.2559 54.2246H66.7396V57.2309H21.2559V54.2246Z" fill="#FF6355"/>
<path d="M53.1435 55.7292C53.1435 55.5315 53.1046 55.3357 53.0289 55.153C52.9532 54.9703 52.8423 54.8043 52.7025 54.6645C52.5627 54.5246 52.3967 54.4137 52.214 54.338C52.0313 54.2624 51.8355 54.2234 51.6377 54.2234H36.3627C36.1577 54.2111 35.9524 54.2408 35.7593 54.3108C35.5663 54.3808 35.3896 54.4895 35.2401 54.6303C35.0906 54.7711 34.9714 54.941 34.89 55.1295C34.8086 55.318 34.7666 55.5212 34.7666 55.7265C34.7666 55.9319 34.8086 56.1351 34.89 56.3236C34.9714 56.5121 35.0906 56.682 35.2401 56.8228C35.3896 56.9636 35.5663 57.0723 35.7593 57.1423C35.9524 57.2122 36.1577 57.242 36.3627 57.2297H51.6377C51.8352 57.2304 52.0309 57.1921 52.2136 57.117C52.3962 57.0419 52.5623 56.9315 52.7022 56.7921C52.8421 56.6527 52.9531 56.4871 53.0288 56.3047C53.1046 56.1223 53.1435 55.9267 53.1435 55.7292V55.7292Z" fill="#E64541"/>
<path d="M28.4658 69.9979V61.185C28.4658 60.6645 28.6722 60.1652 29.0398 59.7966C29.4074 59.428 29.9061 59.2202 30.4267 59.2188H57.575C58.0955 59.2202 58.5943 59.428 58.9618 59.7966C59.3294 60.1652 59.5358 60.6645 59.5358 61.185V69.9979H28.4658Z" fill="#FFAE96"/>
<path d="M32.9403 47.4219H25.1186C24.4291 47.4219 23.7678 47.6958 23.2802 48.1834C22.7926 48.671 22.5186 49.3323 22.5186 50.0219C22.5076 50.242 22.5415 50.4621 22.6182 50.6687C22.6949 50.8753 22.8129 51.0642 22.9649 51.2238C23.1169 51.3834 23.2998 51.5104 23.5024 51.5971C23.7051 51.6838 23.9232 51.7284 24.1436 51.7281H32.9403V47.4219Z" fill="#F1F2F2"/>
<path d="M35.4863 51.7269H32.9404V48.3848H34.7442C35.0832 48.3879 35.4156 48.4789 35.7089 48.6488C36.0023 48.8187 36.2466 49.0618 36.4179 49.3543L36.6238 49.701C36.7433 49.9036 36.8075 50.134 36.8101 50.3693C36.8126 50.6045 36.7533 50.8362 36.6381 51.0413C36.523 51.2465 36.3559 51.4177 36.1538 51.538C35.9517 51.6583 35.7215 51.7234 35.4863 51.7269V51.7269Z" fill="#FBC4AB"/>
<path d="M65.7862 34.4824H51.0258C50.3287 34.4824 49.7637 35.0475 49.7637 35.7445V45.0883C49.7637 45.7853 50.3287 46.3503 51.0258 46.3503H65.7862C66.4832 46.3503 67.0483 45.7853 67.0483 45.0883V35.7445C67.0483 35.0475 66.4832 34.4824 65.7862 34.4824Z" fill="#6184A8"/>
<path d="M50.5935 38.9566C50.8147 38.9566 51.0269 38.8687 51.1833 38.7123C51.3398 38.5558 51.4277 38.3437 51.4277 38.1224V36.7899C51.4269 36.7048 51.4431 36.6204 51.4752 36.5416C51.5072 36.4628 51.5546 36.3911 51.6145 36.3306C51.6745 36.2702 51.7458 36.2222 51.8243 36.1895C51.9029 36.1568 51.9871 36.1399 52.0722 36.1399H64.7527C64.8371 36.1399 64.9206 36.1566 64.9985 36.1891C65.0764 36.2215 65.1471 36.2691 65.2065 36.329C65.266 36.389 65.3129 36.4601 65.3447 36.5382C65.3765 36.6164 65.3925 36.7001 65.3918 36.7845V38.1224C65.3918 38.3409 65.4774 38.5506 65.6304 38.7066C65.7833 38.8626 65.9913 38.9523 66.2097 38.9566C66.43 38.9552 66.6408 38.8666 66.7961 38.7104C66.9514 38.5541 67.0385 38.3427 67.0385 38.1224V35.777C67.0385 35.4337 66.9021 35.1044 66.6593 34.8616C66.4165 34.6188 66.0873 34.4824 65.7439 34.4824H51.0431C50.7007 34.4839 50.3728 34.6209 50.1312 34.8635C49.8896 35.1061 49.7539 35.4346 49.7539 35.777V38.1224C49.7539 38.3427 49.841 38.5541 49.9963 38.7104C50.1516 38.8666 50.3624 38.9552 50.5827 38.9566H50.5935Z" fill="#84B6D0"/>
<path d="M63.5379 44.6914H53.4196C52.9619 44.6914 52.5908 45.0625 52.5908 45.5202C52.5908 45.9779 52.9619 46.3489 53.4196 46.3489H63.5379C63.9956 46.3489 64.3667 45.9779 64.3667 45.5202C64.3667 45.0625 63.9956 44.6914 63.5379 44.6914Z" fill="#4D668F"/>
<path d="M64.2861 42.5782V38.2557C64.2861 37.6992 63.8351 37.2482 63.2786 37.2482H53.5395C52.983 37.2482 52.532 37.6992 52.532 38.2557V42.5782C52.532 43.1346 52.983 43.5857 53.5395 43.5857H63.2786C63.8351 43.5857 64.2861 43.1346 64.2861 42.5782Z" fill="#52527B"/>
<path d="M61.9678 42.578V39.5934C61.9678 39.037 61.5167 38.5859 60.9603 38.5859H55.8524C55.2959 38.5859 54.8449 39.037 54.8449 39.5934V42.578C54.8449 43.1344 55.2959 43.5855 55.8524 43.5855H60.9603C61.5167 43.5855 61.9678 43.1344 61.9678 42.578Z" fill="#3E3958"/>
<path d="M57.3911 40.1035H59.4332C59.5176 40.1035 59.6012 40.1202 59.6791 40.1527C59.757 40.1851 59.8277 40.2327 59.8871 40.2926C59.9465 40.3526 59.9935 40.4237 60.0253 40.5018C60.0571 40.58 60.0731 40.6637 60.0724 40.7481V49.5773H56.752V40.7481C56.7513 40.6637 56.7673 40.58 56.7991 40.5018C56.8309 40.4237 56.8778 40.3526 56.9373 40.2926C56.9967 40.2327 57.0674 40.1851 57.1453 40.1527C57.2232 40.1202 57.3067 40.1035 57.3911 40.1035V40.1035Z" fill="#52527B"/>
<path d="M54.9813 49.576H61.8442C62.1172 49.576 62.379 49.6845 62.572 49.8775C62.765 50.0705 62.8734 50.3323 62.8734 50.6052V51.7319H53.9521V50.6052C53.9521 50.3323 54.0606 50.0705 54.2536 49.8775C54.4466 49.6845 54.7084 49.576 54.9813 49.576V49.576Z" fill="#3E3958"/>
<path d="M58.7069 21.151V27.5752C58.7069 27.8266 58.6071 28.0677 58.4293 28.2455C58.2515 28.4233 58.0104 28.5231 57.759 28.5231H50.8636L47.4674 31.9248V28.5231H46.2594C46.008 28.5231 45.7669 28.4233 45.5892 28.2455C45.4114 28.0677 45.3115 27.8266 45.3115 27.5752V21.151C45.3115 20.8996 45.4114 20.6585 45.5892 20.4808C45.7669 20.303 46.008 20.2031 46.2594 20.2031H57.759C58.0104 20.2031 58.2515 20.303 58.4293 20.4808C58.6071 20.6585 58.7069 20.8996 58.7069 21.151Z" fill="#49D293"/>
<path d="M48.7408 24.7435H48.6325C48.4888 24.7435 48.3511 24.6864 48.2495 24.5848C48.1479 24.4833 48.0908 24.3455 48.0908 24.2018C48.0908 24.0582 48.1479 23.9204 48.2495 23.8188C48.3511 23.7172 48.4888 23.6602 48.6325 23.6602H48.7408C48.8845 23.6602 49.0223 23.7172 49.1238 23.8188C49.2254 23.9204 49.2825 24.0582 49.2825 24.2018C49.2825 24.3455 49.2254 24.4833 49.1238 24.5848C49.0223 24.6864 48.8845 24.7435 48.7408 24.7435Z" fill="white"/>
<path d="M51.9478 24.7435H51.8395C51.6959 24.7435 51.5581 24.6864 51.4565 24.5848C51.3549 24.4833 51.2979 24.3455 51.2979 24.2018C51.2979 24.0582 51.3549 23.9204 51.4565 23.8188C51.5581 23.7172 51.6959 23.6602 51.8395 23.6602H51.9478C52.0915 23.6602 52.2293 23.7172 52.3309 23.8188C52.4324 23.9204 52.4895 24.0582 52.4895 24.2018C52.4895 24.3455 52.4324 24.4833 52.3309 24.5848C52.2293 24.6864 52.0915 24.7435 51.9478 24.7435Z" fill="white"/>
<path d="M55.3756 24.7435H55.2673C55.1236 24.7435 54.9858 24.6864 54.8842 24.5848C54.7827 24.4833 54.7256 24.3455 54.7256 24.2018C54.7256 24.0582 54.7827 23.9204 54.8842 23.8188C54.9858 23.7172 55.1236 23.6602 55.2673 23.6602H55.3756C55.5192 23.6602 55.657 23.7172 55.7586 23.8188C55.8602 23.9204 55.9173 24.0582 55.9173 24.2018C55.9173 24.3455 55.8602 24.4833 55.7586 24.5848C55.657 24.6864 55.5192 24.7435 55.3756 24.7435Z" fill="white"/>
<path d="M60.7808 58.2598H56.0413C55.2246 58.2598 54.5625 58.9218 54.5625 59.7385V64.4781C54.5625 65.2948 55.2246 65.9568 56.0413 65.9568H60.7808C61.5975 65.9568 62.2596 65.2948 62.2596 64.4781V59.7385C62.2596 58.9218 61.5975 58.2598 60.7808 58.2598Z" fill="white"/>
</g>
<defs>
<clipPath id="clip0_1585_168294">
<rect width="52" height="52" fill="white" transform="translate(18 18)"/>
</clipPath>
</defs>
</svg>
