<svg width="88" height="88" viewBox="0 0 88 88" fill="none" xmlns="http://www.w3.org/2000/svg">
<circle cx="44" cy="44" r="44" fill="white" fill-opacity="0.9"/>
<g clip-path="url(#clip0_1585_168465)">
<path d="M16.9507 38.005C16.9507 38.005 22.7661 51.6158 43.6997 51.6158C64.6333 51.6158 70.5456 38.0028 70.5456 38.0028C67.3596 26.1877 56.5705 17.4922 43.7485 17.4922C30.9257 17.4922 20.1359 26.1888 16.9507 38.005V38.005Z" fill="#FFDD40"/>
<path d="M43.8957 18.7545C43.7234 18.8351 40.208 20.5378 43.0025 24.0487C43.0483 24.1061 43.0925 24.1666 43.1355 24.2297C43.6832 24.3316 44.2506 24.2963 44.7835 24.119C45.8251 23.7726 47.4585 23.4257 48.7902 24.0249C50.3574 24.73 50.1779 26.8391 50.0913 28.033C50.0612 28.448 50.1599 28.8644 50.3843 29.2163C50.5167 29.4241 50.6218 29.9835 50.7052 30.2011C50.8088 30.4716 51.1086 30.7509 51.1542 31.0347C51.3948 30.9181 51.7387 30.7912 52.0327 30.8327C52.0688 29.5847 52.184 27.9001 52.184 27.9001C53.4169 21.8612 48.5353 18.8631 43.8957 18.7545V18.7545Z" fill="#D1714B"/>
<path d="M42.1827 18.8486C37.5025 19.4863 37.0577 22.1399 37.0556 23.1134C37.0552 23.3176 36.9421 23.5069 36.7585 23.5961C34.324 24.7805 35.6365 30.8273 35.6365 30.8273C35.881 30.8436 36.1369 30.9427 36.3278 31.0351C36.3746 30.7442 36.4508 30.4579 36.5585 30.1811C36.6407 29.9701 36.9693 29.418 37.0976 29.2167C37.3202 28.8675 37.4217 28.4553 37.3914 28.0434C37.3038 26.8526 37.12 24.7323 38.6917 24.0251C40.0232 23.426 41.6568 23.773 42.6984 24.1193C42.9988 24.2192 43.3104 24.2721 43.6231 24.2833C43.5694 24.2012 43.5144 24.1219 43.4562 24.0489C40.7754 20.6808 43.9022 18.9765 44.3131 18.7724C43.594 18.7289 42.876 18.7542 42.1827 18.8486V18.8486Z" fill="#BC6242"/>
<path d="M47.9543 41.5159C47.6234 41.8543 47.2881 42.15 46.9633 42.4022C46.0437 43.1164 44.9088 43.5042 43.74 43.5042C43.5728 43.5042 43.4065 43.4954 43.2412 43.4797C43.1958 44.4672 43.0051 46.0177 42.2976 47.0569C42.291 47.0665 42.2826 47.0761 42.2754 47.0856H45.4715C45.5113 46.9846 45.5694 46.89 45.6472 46.8087L48.6442 43.6754C48.6932 43.6241 48.7482 43.5826 48.8063 43.549C48.2819 42.8785 48.0514 42.028 47.9543 41.5159V41.5159Z" fill="#FFAA7B"/>
<path d="M42.5246 47.0554C43.2282 46.0221 43.4207 44.4831 43.4674 43.4947C42.3958 43.4392 41.3649 43.0591 40.5171 42.4007C40.1998 42.1543 39.8726 41.866 39.549 41.5375C39.4499 42.0493 39.2201 42.8792 38.7085 43.5385C38.7725 43.5734 38.8327 43.6181 38.8861 43.674L41.8831 46.8072C41.9609 46.8885 42.019 46.9832 42.0589 47.0842H42.5023C42.5096 47.0747 42.518 47.065 42.5246 47.0554Z" fill="#FC9460"/>
<path d="M45.4714 47.7143H42.0587C41.8371 48.3191 41.3593 49.2941 40.439 49.9739C41.2532 51.4636 42.0743 52.7496 42.7423 53.7272C43.1246 54.2866 43.4353 54.8872 43.6719 55.5143C43.9087 54.8872 44.219 54.2866 44.6014 53.7272C45.2845 52.7276 46.1276 51.405 46.9599 49.8725C46.1249 49.2 45.6822 48.2896 45.4714 47.7143Z" fill="#49B1F7"/>
<path d="M45.4136 47.6901C45.3308 47.4607 45.3504 47.2114 45.4604 47.002H43.7253H42.0701C42.1801 47.2113 42.1997 47.4606 42.1169 47.6901C42.0184 47.9633 41.8652 48.3173 41.6416 48.6867L42.6537 50.0494H44.8273L45.8667 48.6499C45.6549 48.2937 45.5089 47.9542 45.4136 47.6901Z" fill="#4F71B6"/>
<path d="M29.957 18.9099C27.8871 17.4148 26.2316 16.7039 24.5542 16.7772C24.2597 17.1306 23.4724 18.1973 23.5548 19.4118C23.6029 20.1198 23.9389 20.7515 24.5542 21.2918C24.5193 21.3449 24.4866 21.4053 24.4585 21.4704C25.8144 21.4002 27.1948 21.7627 28.2928 22.5592C28.7482 22.8895 29.1115 23.4115 29.3289 24.0461L29.6114 25.1442L30.2124 26.4938C30.4022 26.365 30.7977 26.2551 31.0799 26.3643L31.0801 26.3638L31.3519 22.1402C31.4664 20.9229 30.9364 19.6174 29.957 18.9099V18.9099Z" fill="#3C58A0"/>
<path d="M21.2843 22.5577C22.2577 21.8516 23.4518 21.4873 24.6538 21.4619C24.7187 21.3409 24.7889 21.2655 24.7889 21.2655C22.3861 19.3221 24.7815 16.7738 24.7856 16.7693C23.1908 16.7705 21.5943 17.4826 19.6202 18.9084C18.6409 19.6158 18.1107 20.9213 18.2254 22.1388L18.4971 26.3623L18.4974 26.3628C18.7796 26.2536 19.175 26.3635 19.3648 26.4923L19.9656 25.1428L20.248 24.0447C20.4656 23.41 20.8289 22.888 21.2843 22.5577V22.5577Z" fill="#2A428C"/>
<path d="M29.3288 23.8505C29.1114 23.2159 28.7482 22.6939 28.2927 22.3634C27.2149 21.5816 25.8648 21.2173 24.5329 21.2706C24.5401 21.277 24.5469 21.2835 24.5541 21.2899C24.3894 21.5408 24.2651 21.9435 24.5222 22.333C24.4247 22.3843 24.2971 22.4554 24.1533 22.5445C25.6043 22.4324 27.1111 22.705 28.2927 23.3642C28.7481 23.6183 29.1114 24.0198 29.3288 24.508L29.7294 25.4075L29.3288 23.8505Z" fill="#6289CC"/>
<path d="M21.2853 23.3646C22.2241 22.8408 23.3695 22.5606 24.5294 22.5242C24.6882 22.4369 24.7898 22.3906 24.7898 22.3906C24.2443 21.8452 24.7896 21.2657 24.7898 21.2655C23.5427 21.2655 22.2953 21.6313 21.2854 22.3638C20.83 22.6941 20.4667 23.2162 20.2493 23.8508L19.8486 25.408L20.2491 24.5085C20.4666 24.0203 20.8299 23.6187 21.2853 23.3646V23.3646Z" fill="#4F71B6"/>
<path d="M31.1354 26.2609C30.8704 26.0179 30.3421 26.141 30.1139 26.2899C30.1639 26.6014 30.1668 26.9201 30.1235 27.2347L29.854 29.1973C29.854 29.3556 29.849 29.5108 29.8398 29.6633C30.4969 29.8614 30.8234 29.2715 30.8783 28.8668C30.902 28.6926 30.9407 28.5207 30.9943 28.3532C31.1691 27.8072 31.7996 26.8696 31.1354 26.2609V26.2609Z" fill="#E58B6C"/>
<path d="M18.4357 26.2609C18.7009 26.0179 19.229 26.141 19.4573 26.2899C19.4073 26.6014 19.4044 26.9201 19.4477 27.2347L19.7172 29.1973C19.7172 29.3556 19.7221 29.5108 19.7313 29.6633C19.0743 29.8614 18.7478 29.2715 18.6929 28.8668C18.6692 28.6926 18.6304 28.5207 18.5769 28.3532C18.402 27.8072 17.7714 26.8696 18.4357 26.2609V26.2609Z" fill="#D1714B"/>
<path d="M30.1757 26.2793L29.5378 24.8468L29.3291 24.3782C29.1117 23.89 28.7485 23.4885 28.293 23.2344C27.1779 22.6122 25.7732 22.3346 24.399 22.3995C23.768 22.7514 22.4305 23.6446 22.4305 24.8928C22.4305 24.9612 22.4298 25.0424 22.4291 25.1353C22.4196 26.3922 22.4835 27.5378 22.6183 28.5744C24.3266 27.9064 26.5394 28.0657 28.0063 29.0532C28.0222 29.0638 28.038 29.0746 28.0539 29.0856C28.5697 29.4395 29.1812 29.7889 29.8635 30.1C29.8981 29.8093 29.9176 29.5082 29.9176 29.1953L30.1871 27.2327C30.2307 26.915 30.2271 26.5934 30.1757 26.2793V26.2793Z" fill="#F2A08B"/>
<path d="M21.6956 29.0538C22.0216 28.8344 22.3846 28.656 22.7705 28.5182C22.56 26.8848 22.6016 25.4588 22.6016 24.8934C22.6016 23.3859 24.7898 22.3904 24.7898 22.3904L24.7897 22.3903C23.5419 22.3904 22.2943 22.6721 21.2853 23.2351C20.8298 23.4892 20.4666 23.8908 20.2492 24.379L20.0407 24.8474V24.8476L19.3935 26.3008C19.3454 26.6083 19.3422 26.9224 19.3848 27.2329L19.6543 29.1959C19.6543 29.5287 19.6759 29.8484 19.715 30.1559C20.4471 29.8313 21.1013 29.461 21.6482 29.086C21.6639 29.0753 21.6798 29.0646 21.6956 29.0538V29.0538Z" fill="#E58B6C"/>
<path d="M28.6328 35.8331C28.1303 35.3306 27.9231 34.5922 27.8414 34.1661C27.6034 34.4087 27.3625 34.6211 27.129 34.8024C26.4714 35.313 25.6625 35.5937 24.8276 35.603C24.7669 36.6315 24.4771 38.8495 23.1418 40.5089C23.1001 40.5046 23.0472 40.5006 22.9863 40.4991C23.9394 41.7622 24.7712 42.484 24.7834 42.5014C24.7902 42.4917 27.7243 39.8848 28.8852 36.0806C28.8856 36.0793 28.8864 36.0784 28.8867 36.0772C28.8072 36.0038 28.7226 35.9229 28.6328 35.8331V35.8331Z" fill="#E58B6C"/>
<path d="M24.7852 35.6041C23.9352 35.6041 23.1097 35.3221 22.4409 34.8027C22.2074 34.6213 21.9665 34.4089 21.7285 34.1664C21.6468 34.5924 21.4397 35.3308 20.9371 35.8333C20.8473 35.9231 20.7627 36.004 20.6831 36.0774C20.6834 36.0787 20.6842 36.0796 20.6847 36.0808C21.2683 37.9935 22.2615 39.567 23.1243 40.6782C23.1803 40.684 23.2138 40.6904 23.2138 40.6904C24.6443 38.9705 24.9412 36.6537 25.0001 35.5974C24.9285 35.6013 24.8571 35.6041 24.7852 35.6041V35.6041Z" fill="#D1714B"/>
<path d="M37.1747 40.9517C36.9121 39.9576 36.1459 39.1755 35.1584 38.8892C33.4229 38.386 31.6677 37.6251 30.6526 37.1546C29.2564 41.2146 26.3848 43.7313 26.3321 43.8042L26.3337 43.8055L25.1576 45.0082C25.0223 45.1464 24.7999 45.1579 24.6511 45.0347C24.5686 44.9343 23.0275 43.8565 21.46 41.8284C21.4557 41.8665 21.4508 41.9043 21.4483 41.944C20.8274 41.9308 18.7456 42.002 17.1582 43.467C16.6777 43.9106 16.2907 44.4406 15.9957 45.0521C15.9953 45.1165 15.9941 45.1805 15.9941 45.2449C15.9941 53.1834 19.3286 60.3418 24.6716 65.4004C25.0826 59.1825 26.2096 54.0991 26.9467 51.3093C27.3078 49.9428 28.3612 48.8674 29.7187 48.4738C31.8763 47.8482 34.0562 46.9328 35.4858 46.285L38.0855 45.1075C37.7776 43.3795 37.4411 41.9599 37.1747 40.9517V40.9517Z" fill="#3C58A0"/>
<path d="M21.6127 42.1214C21.6127 42.0881 21.6144 42.0571 21.6155 42.0252C20.6247 40.7805 19.6044 39.1557 18.9182 37.1546C18.4139 37.3883 17.7268 37.6937 16.9505 38.0036C16.3281 40.3124 15.9941 42.7395 15.9941 45.2449C15.9941 45.3199 15.9965 45.3943 15.9971 45.4692C17.4857 41.7914 21.6127 42.1214 21.6127 42.1214V42.1214Z" fill="#2A428C"/>
<path d="M30.6532 36.6599C29.9489 36.3414 29.5017 36.1137 29.5017 36.1137C29.5017 36.1137 29.3989 36.0728 29.2015 35.9346C29.0642 35.8386 28.8724 35.9029 28.8235 36.0632C28.4898 37.1566 27.4249 39.9553 24.7197 42.4747C25.0128 42.7539 25.3246 43.0304 25.6586 43.301L26.3594 43.8687C29.1102 41.2396 30.3159 38.4004 30.7858 36.9607C30.8249 36.8411 30.7677 36.7116 30.6532 36.6599V36.6599Z" fill="#4F71B6"/>
<path d="M26.5382 35.3085C26.7435 35.2027 26.9417 35.079 27.1289 34.9338C28.2882 34.0336 29.6315 32.3776 29.8771 29.9805C29.1889 29.6677 28.5727 29.3156 28.0531 28.9592C28.0373 28.9484 28.0214 28.9375 28.0056 28.9268C26.5343 27.9364 24.3125 27.779 22.6021 28.454C23.0508 32.0857 24.3684 34.3828 26.5382 35.3085Z" fill="#E9EFFF"/>
<path d="M22.4418 34.9309C23.6902 35.9004 25.3982 35.9848 26.7291 35.1996C24.0019 34.11 23.0694 30.9704 22.7549 28.3942C22.3747 28.5311 22.0169 28.7075 21.6953 28.924C21.6794 28.9346 21.6636 28.9455 21.6477 28.9564C21.0973 29.3339 20.4382 29.7066 19.7002 30.0329C19.9606 32.4 21.2915 34.0376 22.4418 34.9309V34.9309Z" fill="#D3DCFB"/>
<path d="M62.457 22.2697C62.3651 22.3876 62.1665 22.6843 62.194 23.0167C62.2122 23.2379 62.3227 23.4293 62.5222 23.5856C62.9397 23.9129 65.5501 28.654 67.2047 31.7641C67.2539 31.8724 67.8322 33.0865 69.0972 33.4524C69.97 33.7052 70.9462 33.4879 72 32.81C72.0054 32.7414 72.0088 32.6722 72.0088 32.6022C72.0088 31.8358 71.6767 31.1457 71.1459 30.6623C70.4932 30.0678 70.341 29.2146 70.5748 28.5173C71.4451 25.9217 69.4949 24.9804 68.2407 21.7289C67.1502 18.9015 64.0648 19.0802 63.0666 19.2183C62.9489 19.2346 62.8303 19.2407 62.7116 19.2387C62.6265 19.2402 62.5417 19.2356 62.4569 19.2279V22.2697H62.457Z" fill="#6E5D76"/>
<path d="M67.3563 31.6892C67.3563 31.6892 63.2238 23.9204 62.6261 23.452C62.0283 22.9834 62.6261 22.3307 62.6261 22.3307V19.2371C62.5358 19.2356 62.4455 19.2308 62.3558 19.2183C61.3576 19.0802 58.2722 18.9015 57.1816 21.7289C55.9274 24.9804 53.9773 25.9217 54.8476 28.5173C55.0814 29.2147 54.9292 30.0678 54.2764 30.6623C53.7457 31.1457 53.4136 31.8358 53.4136 32.6022C53.4136 33.1031 53.5555 33.5714 53.802 33.9707C54.1112 34.4714 54.2538 35.0565 54.1885 35.6383C54.1043 36.3897 54.2389 37.2385 54.8712 38.0498H62.7106L70.545 38.0016C71.1772 37.1904 71.317 36.3898 71.2327 35.6384C71.1675 35.0566 71.3101 34.4715 71.6192 33.9708C71.8657 33.5715 72.0077 33.1032 72.0077 32.6023C68.7344 34.7917 67.3563 31.6892 67.3563 31.6892V31.6892Z" fill="#56415E"/>
<path d="M61.4992 42.2736L61.4795 42.3151L61.4835 42.3609C61.4849 42.3777 61.4884 42.4172 61.494 42.4759C61.8973 42.5158 62.3033 42.5381 62.7114 42.5381C64.1601 42.5381 65.5857 42.2836 66.9283 41.8003L67.8925 36.6818C67.6421 36.5329 67.3942 36.3797 67.1504 36.2199C66.4358 35.752 65.9341 35.0174 65.7708 34.1791L65.7683 34.1661C65.5303 34.4087 65.2894 34.6211 65.0559 34.8024C64.387 35.3218 63.5616 35.6039 62.7114 35.6039C62.6578 35.6039 62.6043 35.6028 62.5509 35.6005C62.5525 36.9686 62.4502 40.2678 61.4992 42.2736V42.2736Z" fill="#FFAA7B"/>
<path d="M61.653 42.3462C62.6223 40.3017 62.7246 36.9848 62.7219 35.6037C62.7185 35.6037 62.7151 35.6039 62.7117 35.6039C61.8616 35.6039 61.0361 35.3218 60.3673 34.8024C60.1339 34.6211 59.8928 34.4087 59.6549 34.1661C59.6541 34.1704 59.6533 34.1747 59.6524 34.1791C59.4892 35.0174 58.9874 35.752 58.2729 36.2199L58.2728 36.22C58.0289 36.3798 57.781 36.5329 57.5308 36.6819L58.4949 41.8004C59.5132 42.167 60.5793 42.4012 61.6669 42.4933C61.6574 42.3983 61.653 42.3462 61.653 42.3462V42.3462Z" fill="#FC9460"/>
<path d="M61.4824 42.3596C61.5071 42.6456 62.1087 49.3813 64.0163 50.867C64.2748 51.0683 64.5488 51.1696 64.8334 51.1696C64.8376 51.1696 64.8418 51.1696 64.846 51.1695C64.8645 51.4047 64.9152 51.8456 65.0515 52.3645L66.9699 41.5726C65.6254 42.1109 64.1805 42.3947 62.7103 42.3947C62.2974 42.3947 61.8867 42.3714 61.4795 42.3274L61.4824 42.3596Z" fill="#49B1F7"/>
<path d="M62.7113 62.6692H63.2206L65.1291 51.9325C65.0168 51.3777 65.0063 50.9857 65.0063 50.9857C62.4342 51.4045 61.6525 42.3451 61.6525 42.3451C60.5497 42.2425 59.4718 41.9811 58.4517 41.5726L59.6755 49.551C60.089 50.015 60.3973 50.5747 60.5613 51.1956C61.192 53.5829 62.1086 57.6492 62.6176 62.6691H62.7113V62.6692Z" fill="#1E9EF4"/>
<path d="M66.5521 54.91C67.3137 55.5434 68.2855 55.8234 69.4452 55.7486C70.7719 52.5089 71.5033 48.9627 71.5033 45.2451C71.5033 42.7389 71.1691 40.311 70.5463 38.0016C69.5753 37.607 68.6386 37.1343 67.7427 36.5909L64.894 51.581C65.0147 52.4162 65.3895 53.9434 66.5521 54.91Z" fill="#73C3F9"/>
<path d="M65.0061 50.9857L62.6743 63.2558C62.739 63.9477 62.7956 64.6569 62.8425 65.3811C65.7193 62.6524 68.0111 59.3139 69.5132 55.5732C65.1339 55.9178 65.0061 50.9857 65.0061 50.9857V50.9857Z" fill="#49B1F7"/>
<path d="M49.9453 44.3595L51.6915 45.5605C51.92 45.7176 52.1026 45.9259 52.2319 46.1638C53.661 46.8121 55.8495 47.7325 58.0171 48.3609C58.9113 48.6202 59.672 49.1767 60.1914 49.9159L57.6815 36.5909C56.7141 37.1778 55.6993 37.6835 54.6447 38.0958C53.9181 38.3799 53.1241 38.6621 52.3344 38.8908C51.3482 39.1765 50.5856 39.9584 50.3233 40.9512C50.098 41.8039 49.8225 42.952 49.5566 44.3313C49.6765 44.274 49.8234 44.2758 49.9453 44.3595V44.3595Z" fill="#49B1F7"/>
<path d="M61.7843 16.0921C61.7787 16.4792 61.9755 16.8439 62.3695 17.1782C62.307 17.2521 62.2403 17.3513 62.199 17.469H67.1467C66.19 15.9841 64.5234 15 62.6257 15C62.5324 15 62.4402 15.0043 62.348 15.0089C62.1297 15.2096 61.7914 15.599 61.7843 16.0921Z" fill="#D3DCFB"/>
<path d="M62.6264 15C60.7288 15 59.0621 15.9841 58.1055 17.469H62.3823C62.4676 17.2834 62.6264 17.164 62.6264 17.164C61.1154 16.0496 62.6264 15 62.6264 15Z" fill="#BEC8F7"/>
<path d="M57.4433 29.2247C57.4433 29.2247 57.1141 27.141 57.4933 25.9001C57.1492 25.6707 56.4845 25.5588 56.1854 25.851C55.5733 26.4495 56.0219 27.3532 56.2364 27.924C56.3023 28.0992 56.3448 28.2765 56.3641 28.4541C56.4059 28.8401 56.6151 29.4048 57.4826 29.3915C57.4696 29.3359 57.4561 29.2812 57.4433 29.2247V29.2247Z" fill="#FC9460"/>
<path d="M69.3235 25.851C69.0245 25.5588 68.3598 25.6707 68.0156 25.9001C68.3949 27.141 68.0656 29.2247 68.0656 29.2247C68.0528 29.2812 68.0393 29.3359 68.0263 29.3915C68.8938 29.4048 69.103 28.8401 69.1448 28.4541C69.1641 28.2765 69.2066 28.0992 69.2725 27.924C69.487 27.3532 69.9355 26.4495 69.3235 25.851V25.851Z" fill="#FFAA7B"/>
<path d="M67.731 25.2535C67.606 25.1127 67.5373 24.948 67.5322 24.7776C67.5128 24.1288 67.349 22.5407 66.2483 21.8079C65.4677 21.288 64.3703 21.2935 62.9864 21.8241C62.8371 21.8814 62.6726 21.8814 62.5233 21.8241C62.4346 21.7901 62.3472 21.7584 62.2607 21.7287C61.1541 22.5034 60.9851 24.0503 60.9647 24.6934C60.9591 24.8675 60.8843 25.0356 60.7479 25.1793C59.9969 25.9724 60.1614 28.2896 60.3367 29.2435C60.7246 30.8486 61.2867 32.2482 62.007 33.4034C62.5609 34.292 63.332 35.0296 64.2658 35.576C65.2301 35.0299 66.021 34.2558 66.5756 33.3066C67.2365 32.1757 67.7523 30.8051 68.1091 29.2304C68.2635 28.2485 68.428 26.039 67.731 25.2535V25.2535Z" fill="#FFC7AB"/>
<path d="M62.0562 33.3059C61.351 32.1746 60.8006 30.8042 60.4207 29.2325C60.2492 28.2984 60.0881 26.0295 60.8234 25.2528C60.9569 25.112 61.0303 24.9474 61.0357 24.7769C61.0563 24.128 61.2312 22.54 62.4055 21.807C62.4147 21.8012 62.4246 21.7965 62.4339 21.7908C61.0925 21.2942 60.0249 21.2986 59.2613 21.807C58.1606 22.5398 57.9968 24.128 57.9774 24.7769C57.9723 24.9474 57.9036 25.112 57.7785 25.2528C57.0893 26.0295 57.2403 28.2984 57.4011 29.2325C57.7571 30.8042 58.273 32.1746 58.934 33.3059C59.605 34.4543 60.6212 35.3474 61.8727 35.8889C62.4334 36.1313 63.076 36.1314 63.6365 35.8889C63.8982 35.7757 64.1489 35.6463 64.389 35.5032C63.4199 34.9619 62.6225 34.2142 62.0562 33.3059V33.3059Z" fill="#FFAA7B"/>
<path d="M62.3698 17.1773C62.2723 17.2926 62.1639 17.4684 62.1593 17.6822C62.1548 17.8997 62.2546 18.1033 62.4561 18.2881V22.2695C62.3641 22.3875 62.1656 22.6841 62.1931 23.0166C62.2066 23.1796 62.2705 23.3263 62.3828 23.4549C64.1054 23.4198 65.8337 23.7571 67.4438 24.4685C67.7252 24.5928 68.0598 24.5705 68.2849 24.4295C68.5342 24.2731 68.7163 24.016 68.7696 23.7085L69.558 19.174C69.7404 18.124 68.9323 17.1631 67.8665 17.1631H62.3542C62.3598 17.1678 62.3644 17.1725 62.3698 17.1773V17.1773Z" fill="#E9EFFF"/>
<path d="M62.6257 22.3306V18.2105C61.9576 17.6641 62.6257 17.1631 62.6257 17.1631H57.3852C56.3195 17.1631 55.5112 18.124 55.6938 19.174L56.4821 23.7085C56.5356 24.016 56.7175 24.2731 56.9669 24.4295C57.1917 24.5704 57.5264 24.593 57.808 24.4685C59.3423 23.7908 60.9839 23.4518 62.6257 23.4518C62.0281 22.9832 62.6257 22.3306 62.6257 22.3306V22.3306Z" fill="#D3DCFB"/>
<path d="M62.6261 22.3323C62.2511 22.3323 61.9443 22.0255 61.9443 21.6505V18.8941C61.9443 18.5191 62.2511 18.2123 62.6261 18.2123C63.001 18.2123 63.3078 18.5191 63.3078 18.8941V21.6505C63.3079 22.0255 63.001 22.3323 62.6261 22.3323Z" fill="#FF4155"/>
<path d="M64.6863 20.2723C64.6863 20.6473 64.3796 20.954 64.0046 20.954H61.2481C60.8732 20.954 60.5664 20.6473 60.5664 20.2723C60.5664 19.8973 60.8732 19.5906 61.2481 19.5906H64.0046C64.3796 19.5905 64.6863 19.8972 64.6863 20.2723V20.2723Z" fill="#FF7186"/>
<path d="M25.6599 43.1778C24.5953 42.3153 23.7459 41.395 23.0699 40.5033C22.8142 40.4867 22.3314 40.5054 21.9525 40.8177C21.6555 41.0624 21.488 41.4318 21.4517 41.9163C22.2075 42.8925 23.1468 43.8942 24.3136 44.8395L24.6103 45.0855C24.7862 45.2315 25.0445 45.218 25.2042 45.0546L26.4296 43.8016L25.6599 43.1778Z" fill="#6289CC"/>
<path d="M23.2142 40.6915C21.6891 38.7427 21.0029 36.9015 20.7471 36.0632C20.6981 35.9029 20.5064 35.8386 20.3691 35.9346C20.1716 36.073 20.0689 36.1139 20.0689 36.1139C20.0689 36.1139 19.6217 36.3415 18.9175 36.66C18.8028 36.7118 18.7456 36.8412 18.7847 36.9607C19.1514 38.0842 19.9662 40.06 21.6132 42.1232C21.6133 40.3803 23.2142 40.6915 23.2142 40.6915Z" fill="#4F71B6"/>
<path d="M44.8266 50.0495C44.4179 50.0495 44.055 49.8718 43.6911 49.8718C43.3579 49.8718 43.0239 50.0495 42.6529 50.0495L41.8804 52.4198C42.1851 52.9008 42.4757 53.3394 42.7419 53.729C43.1242 54.2885 43.4348 54.889 43.6715 55.5161C43.9082 54.889 44.2186 54.2885 44.6009 53.729C44.9021 53.2881 45.2349 52.7839 45.5838 52.2271L44.8266 50.0495Z" fill="#3C58A0"/>
<path d="M46.8925 49.9951C47.826 48.2901 48.7512 46.3171 49.4277 44.2332C49.4726 44.0947 49.5838 44.002 49.7109 43.971L49.5082 43.72C49.2328 43.379 48.7205 43.3574 48.4176 43.6741L45.4207 46.8074C45.1961 47.0421 45.1249 47.3831 45.2351 47.6886C45.4546 48.2972 45.9406 49.3051 46.8925 49.9951V49.9951Z" fill="#73C3F9"/>
<path d="M37.9159 44.2332C38.6048 46.3556 39.5519 48.3626 40.5028 50.0891C41.5444 49.3996 42.0653 48.3254 42.2951 47.6886C42.4053 47.3831 42.3341 47.0421 42.1096 46.8074L39.1126 43.6742C38.8097 43.3574 38.2973 43.3789 38.022 43.72L37.7617 44.0283C37.8313 44.0754 37.8872 44.1448 37.9159 44.2332Z" fill="#73C3F9"/>
<path d="M52.4693 30.6576C52.1048 30.3235 51.3787 30.4928 51.0648 30.6974C51.1335 31.1257 51.1375 31.5639 51.078 31.9967L50.7075 34.695C50.7075 34.9125 50.7007 35.1259 50.688 35.3356C51.5914 35.6081 52.0401 34.7971 52.1158 34.2405C52.1483 34.0009 52.2015 33.7647 52.2753 33.5343C52.5158 32.7836 53.3826 31.4945 52.4693 30.6576V30.6576Z" fill="#FFAA7B"/>
<path d="M35.0111 30.6576C35.3756 30.3235 36.1018 30.4928 36.4157 30.6974C36.3469 31.1257 36.3429 31.5639 36.4024 31.9967L36.7728 34.695C36.7728 34.9125 36.7798 35.1259 36.7923 35.3356C35.8889 35.6081 35.4402 34.7971 35.3645 34.2405C35.332 34.0009 35.2788 33.7647 35.205 33.5343C34.9648 32.7836 34.0978 31.4945 35.0111 30.6576V30.6576Z" fill="#FC9460"/>
<path d="M43.2097 57.5735C41.2915 55.4167 38.8839 54.5021 37.9129 54.2034C37.6547 54.124 37.5097 53.8573 37.5826 53.5963L37.9213 52.3852C37.9861 52.1535 37.9399 51.9106 37.7944 51.7189C37.649 51.5272 37.4275 51.4172 37.1869 51.4172H36.8418C35.7422 51.5732 32.3267 52.3749 32.3267 56.3058V70.5455C35.6849 72.0639 39.3991 72.9337 43.3102 72.9944V56.8134C43.2653 57.0649 43.2317 57.3185 43.2097 57.5735Z" fill="#BEC8F7"/>
<path d="M32.4964 56.3043C32.4964 51.7522 37.1866 51.5491 37.1866 51.5491C37.1986 51.5034 37.2123 51.4617 37.2252 51.4181C37.2123 51.4174 37.1996 51.4158 37.1866 51.4158H35.1226C34.9812 51.4158 34.851 51.3582 34.7558 51.2537C34.6606 51.1491 34.6156 51.014 34.6288 50.8732L35.0413 46.501C35.0639 46.2608 35.1398 46.033 35.2598 45.8314C33.8302 46.4792 31.6503 47.3946 29.4927 48.0202C28.1352 48.4138 27.0818 49.4891 26.7208 50.8557C25.9749 53.6788 24.8292 58.8498 24.4307 65.1693C26.7618 67.4298 29.4887 69.2835 32.4965 70.6192C32.4964 67.5295 32.4964 59.888 32.4964 56.3043V56.3043Z" fill="#A2B2ED"/>
<path d="M36.5686 62.1565C38.4276 61.3859 39.31 59.2542 38.5394 57.3952C37.7689 55.5362 35.6372 54.6538 33.7781 55.4244C31.9191 56.195 31.0368 58.3267 31.8073 60.1857C32.5779 62.0447 34.7096 62.9271 36.5686 62.1565Z" fill="#E9EFFF"/>
<path d="M42.7553 53.5878C42.0796 52.599 41.245 51.2897 40.4217 49.7725L40.4203 49.7883C40.0154 49.6231 39.1435 49.3566 38.3441 49.7059C37.734 49.9726 37.3005 50.5388 37.0545 51.3891C36.8874 51.4058 36.5655 51.4481 36.165 51.5486H37.1868C37.6035 51.5486 37.9052 51.9461 37.7929 52.3473L37.4542 53.5584C37.3624 53.8866 37.548 54.2286 37.8737 54.3288C38.9805 54.6692 41.4256 55.6343 43.3208 57.9049C43.3585 57.1155 43.5075 56.3389 43.7613 55.5971C43.519 54.8892 43.1822 54.2127 42.7553 53.5878V53.5878Z" fill="#D3DCFB"/>
<path d="M40.5689 50.045V50.0444C39.6224 48.331 38.6774 46.3344 37.9917 44.2217C37.9112 43.9734 37.6147 43.8724 37.3996 44.0204L35.6535 45.2214C35.2294 45.5131 34.9563 45.9778 34.908 46.4902L34.4955 50.8625C34.4606 51.2317 34.7511 51.5509 35.1221 51.5509H37.1862C37.9464 48.644 40.5689 50.045 40.5689 50.045V50.045Z" fill="#BEC8F7"/>
<path d="M55.6271 58.7188C55.6271 58.3021 55.9031 58.0528 56.1611 57.9582C56.4139 57.8658 56.7775 57.8774 57.0403 58.1883C57.864 59.1621 58.2815 60.3474 58.2815 61.7113V68.8921C60.0153 67.824 61.6235 66.5719 63.077 65.1608C62.6779 58.846 61.533 53.6792 60.7875 50.8576C60.4265 49.4912 59.3731 48.4158 58.0156 48.0223C55.736 47.3613 53.4314 46.3769 52.0132 45.7262C52.1741 45.9528 52.276 46.219 52.3029 46.5031L52.7153 50.8753C52.7286 51.0161 52.6835 51.1512 52.5883 51.2558C52.4932 51.3604 52.3629 51.4179 52.2215 51.4179H50.1574C49.9168 51.4179 49.6954 51.5279 49.5499 51.7196C49.4044 51.9112 49.3582 52.1541 49.423 52.3859L49.7617 53.597C49.8348 53.858 49.6897 54.1246 49.4315 54.2041C48.2102 54.5796 45.2406 55.7531 43.2652 58.6949H43.1318V72.9928C43.3369 72.9973 43.5421 73.0006 43.7483 73.0006C47.9993 73.0006 52.0262 72.0438 55.6272 70.3352V58.7188H55.6271Z" fill="#D3DCFB"/>
<path d="M44.5891 53.5898C46.0006 51.5244 48.1051 48.0636 49.3521 44.2217C49.4327 43.9734 49.7291 43.8724 49.9442 44.0204L51.6903 45.2214C52.1145 45.5131 52.3875 45.9778 52.4357 46.4903L52.8482 50.8625C52.8831 51.2318 52.5925 51.5509 52.2216 51.5509H50.1575C49.7409 51.5509 49.4393 51.9484 49.5515 52.3496L49.8902 53.5607C49.982 53.8889 49.7965 54.2309 49.4707 54.3311C48.1798 54.7282 45.0678 55.973 43.1318 59.1501V58.3067C43.1318 56.6233 43.6393 54.9795 44.5891 53.5898V53.5898Z" fill="#E9EFFF"/>
<path d="M50.9315 29.863C50.8481 29.6455 50.743 29.425 50.6105 29.2173C50.3862 28.8653 50.2875 28.449 50.3176 28.0339C50.404 26.8401 50.3577 24.505 48.7904 23.7998C47.4589 23.2007 45.8256 23.5475 44.784 23.894C44.2629 24.0673 43.7084 24.1056 43.1719 24.0119C42.1927 25.0054 42.1731 26.8805 42.2488 27.911C42.2798 28.3329 42.1759 28.7549 41.9479 29.1125C41.8165 29.3187 41.7114 29.5368 41.6273 29.7527C41.3547 30.4533 41.2751 31.2132 41.3773 31.9571L41.7568 34.7209C41.7568 38.6944 43.8779 41.3951 45.682 42.7962C45.8269 42.9087 45.9789 43.0099 46.1337 43.1061C46.4249 42.9575 46.7035 42.7822 46.9642 42.5797C48.7261 41.2116 50.7973 38.5743 50.7973 34.6942L51.1679 31.9958C51.2665 31.2765 51.1917 30.5418 50.9315 29.863V29.863Z" fill="#FFC7AB"/>
<path d="M45.6964 42.5799C43.9345 41.2118 41.8633 38.5745 41.8633 34.6944L41.4927 31.9954C41.3929 31.269 41.4706 30.527 41.737 29.8429C41.8191 29.6319 41.9217 29.4189 42.0501 29.2176C42.2727 28.8683 42.374 28.4562 42.3438 28.0443C42.2648 26.969 42.2919 24.9517 43.4552 24.0498C43.1986 24.0276 42.9441 23.9763 42.6971 23.8941C41.6555 23.5477 40.0222 23.2009 38.6907 23.8C37.1189 24.5072 37.0768 26.8536 37.1642 28.0443C37.1945 28.4562 37.0931 28.8682 36.8705 29.2176C36.7423 29.4189 36.6396 29.6319 36.5575 29.8429C36.2912 30.527 36.2136 31.269 36.3133 31.9954L36.6838 34.6944C36.6838 38.5745 38.7551 41.2118 40.5169 42.5799C41.4365 43.294 42.5714 43.6819 43.7402 43.6819C44.6532 43.6819 45.5449 43.4442 46.3301 43.0003C46.1098 42.876 45.8977 42.7363 45.6964 42.5799V42.5799Z" fill="#FFAA7B"/>
<path d="M35.1583 60.8506C34.7833 60.8506 34.4766 60.5438 34.4766 60.1688V57.4124C34.4766 57.0374 34.7833 56.7307 35.1583 56.7307C35.5333 56.7307 35.84 57.0374 35.84 57.4124V60.1688C35.8401 60.5438 35.5333 60.8506 35.1583 60.8506V60.8506Z" fill="#FF4155"/>
<path d="M37.2182 58.7906C37.2182 59.1656 36.9114 59.4723 36.5365 59.4723H33.7799C33.4049 59.4723 33.0981 59.1656 33.0981 58.7906C33.0981 58.4157 33.4049 58.1089 33.7799 58.1089H36.5365C36.9114 58.1089 37.2182 58.4157 37.2182 58.7906Z" fill="#FF7186"/>
<path d="M58.4521 61.7107C58.4521 60.0488 57.8409 58.8704 57.1708 58.078C56.5878 57.3886 55.458 57.8153 55.458 58.7182V70.414C56.4922 69.9319 57.4921 69.3889 58.4523 68.7879C58.4521 66.7596 58.4521 63.8655 58.4521 61.7107V61.7107Z" fill="#BEC8F7"/>
</g>
<defs>
<clipPath id="clip0_1585_168465">
<rect width="58" height="58" fill="white" transform="translate(15 15)"/>
</clipPath>
</defs>
</svg>
