<svg width="88" height="88" viewBox="0 0 88 88" fill="none" xmlns="http://www.w3.org/2000/svg">
<circle cx="44" cy="44" r="44" fill="white" fill-opacity="0.9"/>
<g clip-path="url(#clip0_1585_168341)">
<path d="M49.6175 40.342C48.1948 40.342 47.3269 38.6227 48.212 37.4772L58.4065 24.2827C59.0068 23.5057 60.1234 23.3627 60.9002 23.9628C61.6772 24.563 61.8204 25.6796 61.2201 26.4565L51.0255 39.651C50.6753 40.1043 50.1493 40.342 49.6175 40.342V40.342Z" fill="#E3EDF0"/>
<path d="M37.131 40.3414C36.675 40.3414 36.2192 40.1671 35.8719 39.8187L28.1242 32.0465C27.431 31.351 27.4328 30.2255 28.1282 29.5323C28.8237 28.8393 29.9493 28.841 30.6423 29.5363L38.39 37.3085C39.4686 38.3905 38.6778 40.3414 37.131 40.3414V40.3414Z" fill="#E3EDF0"/>
<path d="M30.0179 60.7574C28.5439 60.7574 27.6949 58.9317 28.6826 57.8066L35.7946 49.7064C36.4424 48.9686 37.5658 48.8957 38.3035 49.5434C39.0413 50.1911 39.1143 51.3144 38.4665 52.0523L31.3545 60.1525C31.0031 60.5527 30.5116 60.7574 30.0179 60.7574V60.7574Z" fill="#E3EDF0"/>
<path d="M56.5502 62.1014C56.0084 62.1014 55.4734 61.8546 55.1243 61.3871L48.0576 51.9236C47.47 51.1369 47.6317 50.0229 48.4183 49.4354C49.2052 48.848 50.3191 49.0096 50.9064 49.7961L57.9733 59.2597C58.822 60.3964 57.9689 62.1014 56.5502 62.1014Z" fill="#E3EDF0"/>
<path d="M36.2432 37.6035H50.5078V51.841H36.2432V37.6035Z" fill="#E3A639"/>
<path d="M22.7773 24.2207H31.0765V32.5258H22.7773V24.2207Z" fill="#8296A0"/>
<path d="M57.7373 18H67.222V27.4916H57.7373V18Z" fill="#8296A0"/>
<path d="M23.5293 57.2285H31.8284V65.5336H23.5293V57.2285Z" fill="#8296A0"/>
<path d="M54.415 58.1367H66.2709V70.0012H54.415V58.1367Z" fill="#8296A0"/>
</g>
<defs>
<clipPath id="clip0_1585_168341">
<rect width="52" height="52" fill="white" transform="translate(19 18)"/>
</clipPath>
</defs>
</svg>
